<?xml version="1.0" encoding="UTF-8"?>
<!DOCTYPE svg PUBLIC "-//W3C//DTD SVG 1.1//EN" "http://www.w3.org/Graphics/SVG/1.1/DTD/svg11.dtd">
<svg version="1.1" xmlns="http://www.w3.org/2000/svg" xmlns:xlink="http://www.w3.org/1999/xlink" x="0" y="0" width="256" height="256" viewBox="0, 0, 256, 256">
  <g id="レイヤー_1">
    <path d="M132.411,52.567 C167.233,54.227 212.264,72.626 213.712,113.177 C213.712,146.695 175.337,154.319 128,154.319 C80.663,154.319 42.288,146.695 42.288,113.177 C42.288,79.659 80.663,52.488 128,52.488 L132.411,52.567 z M128,60.548 C84.636,60.548 50.348,84.826 50.348,113.177 C50.348,125.493 56.714,133.461 70.341,138.816 C83.445,143.966 102.434,146.26 128,146.26 C135.749,146.205 143.517,146.139 151.243,145.468 C150.434,145.199 149.876,144.595 149.385,143.932 Q148.115,141.975 148.115,137.767 Q148.115,133.8 149.642,131.717 Q151.169,129.634 154.065,129.634 Q154.842,129.634 155.618,129.797 Q156.395,129.959 157.119,130.264 L157.119,132.215 Q156.458,131.827 155.713,131.623 Q154.968,131.418 154.16,131.418 Q152.145,131.418 151.106,132.934 Q150.067,134.451 150.067,137.4 Q150.571,136.35 151.463,135.789 Q152.355,135.227 153.509,135.227 Q155.776,135.227 157.019,136.618 Q158.263,138.008 158.263,140.559 Q158.263,143.098 156.983,144.494 C156.56,144.905 156.776,144.733 156.346,145.025 C159.255,144.772 157.342,144.958 162.074,144.357 C161.238,143.596 161.122,142.443 161.034,141.398 Q161.034,139.719 161.868,138.664 Q162.702,137.61 164.276,137.263 Q162.923,136.917 162.162,135.973 Q161.401,135.028 161.401,133.695 Q161.401,131.827 162.671,130.731 Q163.941,129.634 166.123,129.634 Q168.317,129.634 169.587,130.731 Q170.856,131.827 170.856,133.695 Q170.856,135.028 170.095,135.973 Q169.335,136.917 167.981,137.263 Q169.555,137.61 170.389,138.659 Q171.224,139.709 171.224,141.377 C171.122,142.585 171.266,142.069 170.905,142.951 C172.595,142.655 171.391,142.88 174.493,142.156 C174.083,140.726 174.023,139.243 173.994,137.767 Q173.994,133.8 175.521,131.717 Q177.048,129.634 179.945,129.634 Q180.721,129.634 181.498,129.797 Q182.274,129.959 182.998,130.264 L182.998,132.215 Q182.337,131.827 181.592,131.623 Q180.847,131.418 180.039,131.418 Q178.024,131.418 176.985,132.934 Q175.946,134.451 175.946,137.4 Q176.45,136.35 177.342,135.789 Q178.234,135.227 179.388,135.227 Q181.655,135.227 182.899,136.618 C183.558,137.522 183.982,138.089 184.068,139.404 L185.659,138.816 C193.036,135.767 201.367,131.073 203.949,122.902 C202.858,122.853 203.469,122.902 202.119,122.72 Q200.996,122.521 199.915,122.143 L199.915,120.034 Q200.986,120.59 202.025,120.863 Q203.064,121.135 204.092,121.135 L204.516,121.11 C205.178,119.182 205.507,117.543 205.58,115.347 C204.755,115.085 205.199,115.175 204.239,115.112 L202.623,115.112 L202.623,113.37 L204.239,113.37 C205.178,113.315 204.707,113.392 205.65,113.127 C205.527,109.862 205.681,111.388 205.253,108.542 C204.858,108.425 205.133,108.492 204.407,108.448 Q203.473,108.448 202.476,108.658 Q201.479,108.868 200.388,109.287 L200.388,107.335 Q201.657,107 202.649,106.832 Q203.641,106.664 204.407,106.664 L204.975,106.701 C203.629,98.781 199.393,91.139 193.766,85.439 L193.766,97.871 L197.019,97.871 L197.019,99.645 L188.372,99.645 L188.372,97.871 L191.667,97.871 L191.667,86.034 L187.721,87.933 L187.721,85.897 L191.646,84.029 L192.374,84.029 C189.522,80.822 186.018,78.329 182.504,75.915 C181.632,76.748 180.408,76.886 179.262,76.979 Q176.534,76.979 175.264,75.022 C174.483,73.806 174.272,72.36 174.11,70.955 L169.244,68.69 C169.028,69.008 169.199,68.763 168.684,69.392 Q168.096,70.074 166.979,71.281 Q165.861,72.488 163.573,74.891 L170.772,74.891 L170.772,76.675 L161.254,76.675 L161.254,74.891 Q163.216,72.823 164.686,71.239 Q166.155,69.654 166.711,69.003 C167.301,68.257 167.047,68.608 167.488,67.962 C162.474,65.837 157.241,64.326 151.926,63.185 C151.269,63.768 151.529,63.476 151.106,64.024 Q150.067,65.54 150.067,68.489 Q150.571,67.44 151.463,66.878 Q152.355,66.317 153.509,66.317 Q155.776,66.317 157.019,67.707 Q158.263,69.098 158.263,71.648 Q158.263,74.188 156.983,75.583 Q155.702,76.979 153.383,76.979 Q150.655,76.979 149.385,75.022 Q148.115,73.065 148.115,68.856 Q148.115,64.89 149.642,62.806 L149.72,62.711 C142.601,61.084 135.277,60.675 128,60.548 z M157.654,106.286 L157.654,122.615 L155.723,122.615 L155.723,121.135 Q155.241,122.007 154.438,122.463 Q153.635,122.92 152.586,122.92 Q150.455,122.92 149.233,121.267 Q148.01,119.614 148.01,116.707 Q148.01,113.842 149.238,112.21 Q150.466,110.578 152.586,110.578 Q153.645,110.578 154.454,111.035 Q155.262,111.491 155.723,112.362 L155.723,106.286 L157.654,106.286 z M152.869,112.215 Q151.473,112.215 150.76,113.359 Q150.046,114.503 150.046,116.749 Q150.046,118.995 150.76,120.139 Q151.473,121.282 152.869,121.282 Q154.265,121.282 154.994,120.128 Q155.723,118.974 155.723,116.749 Q155.723,114.514 154.994,113.364 Q154.265,112.215 152.869,112.215 z M167.005,106.664 Q167.781,106.664 168.558,106.826 Q169.335,106.989 170.059,107.293 L170.059,109.245 Q169.398,108.857 168.653,108.652 Q167.907,108.448 167.099,108.448 Q165.084,108.448 164.045,109.964 Q163.007,111.481 163.007,114.43 Q163.51,113.38 164.402,112.819 Q165.294,112.257 166.449,112.257 Q168.715,112.257 169.959,113.648 Q171.203,115.038 171.203,117.588 Q171.203,120.128 169.922,121.524 Q168.642,122.92 166.323,122.92 Q163.594,122.92 162.324,120.962 Q161.055,119.005 161.055,114.797 Q161.055,110.83 162.581,108.747 Q164.108,106.664 167.005,106.664 z M166.281,113.915 Q164.927,113.915 164.15,114.891 Q163.374,115.867 163.374,117.588 Q163.374,119.309 164.15,120.285 Q164.927,121.261 166.281,121.261 Q167.687,121.261 168.401,120.333 Q169.114,119.404 169.114,117.588 Q169.114,115.762 168.401,114.839 Q167.687,113.915 166.281,113.915 z M192.884,106.664 Q193.661,106.664 194.437,106.826 Q195.214,106.989 195.938,107.293 L195.938,109.245 Q195.277,108.857 194.532,108.652 Q193.787,108.448 192.979,108.448 Q190.964,108.448 189.925,109.964 Q188.886,111.481 188.886,114.43 Q189.389,113.38 190.282,112.819 Q191.174,112.257 192.328,112.257 Q194.595,112.257 195.838,113.648 Q197.082,115.038 197.082,117.588 Q197.082,120.128 195.802,121.524 Q194.521,122.92 192.202,122.92 Q189.473,122.92 188.204,120.962 Q186.934,119.005 186.934,114.797 Q186.934,110.83 188.461,108.747 Q189.988,106.664 192.884,106.664 z M192.16,113.915 Q190.806,113.915 190.03,114.891 Q189.253,115.867 189.253,117.588 Q189.253,119.309 190.03,120.285 Q190.806,121.261 192.16,121.261 Q193.566,121.261 194.28,120.333 Q194.993,119.404 194.993,117.588 Q194.993,115.762 194.28,114.839 Q193.566,113.915 192.16,113.915 z M183.754,106.286 L183.754,107.891 L181.561,107.891 Q180.522,107.892 180.118,108.317 Q179.714,108.742 179.714,109.823 L179.714,110.861 L183.754,110.861 L183.754,112.362 L179.714,112.362 L179.714,122.615 L177.783,122.615 L177.783,112.362 L174.645,112.362 L174.645,110.861 L177.783,110.861 L177.783,110.043 Q177.783,108.112 178.669,107.199 Q179.556,106.286 181.435,106.286 L183.754,106.286 z M179.944,83.693 Q180.721,83.693 181.498,83.856 Q182.274,84.019 182.998,84.323 L182.998,86.275 Q182.337,85.887 181.592,85.682 Q180.847,85.478 180.039,85.478 Q178.024,85.478 176.985,86.994 Q175.946,88.51 175.946,91.459 Q176.45,90.41 177.342,89.848 Q178.234,89.287 179.388,89.287 Q181.655,89.287 182.899,90.678 Q184.142,92.068 184.142,94.618 Q184.142,97.158 182.862,98.554 Q181.582,99.949 179.262,99.949 Q176.534,99.949 175.264,97.992 Q173.994,96.035 173.994,91.827 Q173.994,87.86 175.521,85.777 Q177.048,83.693 179.945,83.693 z M179.22,90.945 Q177.867,90.945 177.09,91.921 Q176.313,92.897 176.313,94.618 Q176.313,96.339 177.09,97.315 Q177.867,98.291 179.22,98.291 Q180.627,98.291 181.34,97.362 Q182.054,96.434 182.054,94.618 Q182.054,92.792 181.34,91.869 Q180.627,90.945 179.22,90.945 z M158.043,83.977 L158.043,84.879 L152.439,99.645 L150.224,99.645 L155.681,85.761 L148.178,85.761 L148.178,83.977 L158.043,83.977 z M169.482,83.977 L169.482,94.188 L171.57,94.188 L171.57,95.909 L169.482,95.909 L169.482,99.645 L167.372,99.645 L167.372,95.909 L160.729,95.909 L160.729,93.905 L167.026,83.977 L169.482,83.977 z M167.372,85.908 L162.429,94.188 L167.372,94.188 L167.372,85.908 z M153.341,136.885 Q151.987,136.886 151.211,137.861 Q150.434,138.837 150.434,140.559 Q150.434,142.28 151.211,143.256 Q151.987,144.232 153.341,144.232 Q154.747,144.232 155.461,143.303 Q156.175,142.374 156.175,140.559 Q156.175,138.733 155.461,137.809 Q154.747,136.886 153.341,136.886 L153.341,136.885 z M166.123,138.145 Q164.707,138.145 163.935,138.937 Q163.164,139.73 163.164,141.178 Q163.164,142.626 163.946,143.429 C164.533,143.909 164.202,143.716 164.949,143.992 C166.141,143.84 164.999,143.987 168.353,143.399 C168.941,142.804 169.038,141.967 169.093,141.178 Q169.093,139.74 168.311,138.942 Q167.53,138.145 166.123,138.145 L166.123,138.145 z M179.22,136.885 Q177.867,136.886 177.09,137.861 Q176.313,138.837 176.313,140.559 C176.369,141.485 176.287,141.111 176.456,141.697 C179.145,141.069 177.268,141.536 182.029,140.085 C182.054,139.259 181.756,138.499 181.34,137.809 Q180.627,136.886 179.22,136.886 L179.22,136.885 z M166.123,131.271 Q164.854,131.271 164.182,131.948 Q163.51,132.625 163.51,133.895 Q163.51,135.154 164.182,135.815 Q164.854,136.476 166.123,136.476 Q167.404,136.476 168.075,135.815 Q168.747,135.154 168.747,133.895 Q168.747,132.614 168.081,131.943 Q167.414,131.271 166.123,131.271 z M176.346,72.168 C176.322,72.962 176.705,73.678 177.09,74.345 Q177.867,75.321 179.22,75.321 C179.846,75.353 180.349,75.062 180.897,74.811 C179.12,73.59 180.575,74.569 176.346,72.168 z M153.341,67.975 Q151.987,67.975 151.211,68.951 Q150.434,69.927 150.434,71.648 Q150.434,73.369 151.211,74.345 Q151.987,75.321 153.341,75.321 Q154.747,75.321 155.461,74.392 Q156.175,73.464 156.175,71.648 Q156.175,69.822 155.461,68.898 Q154.747,67.975 153.341,67.975 z" fill="#383838"/>
    <path d="M236.51,27.307 C246.957,27.307 255.5,35.588 255.5,45.897 L255.5,211.103 C255.5,221.412 246.957,229.693 236.51,229.693 L20.49,229.693 C10.043,229.693 1.5,221.412 1.5,211.103 L1.5,45.897 C1.5,35.588 10.043,27.307 20.49,27.307 L236.51,27.307 z M236.51,39.307 L20.49,39.307 C16.588,39.307 13.5,42.3 13.5,45.897 L13.5,211.103 C13.5,214.7 16.588,217.693 20.49,217.693 L236.51,217.693 C240.412,217.693 243.5,214.7 243.5,211.103 L243.5,45.897 C243.5,42.3 240.412,39.307 236.51,39.307 z" fill="#383838"/>
    <path d="M98.071,176.906 L98.071,188.906 L62.071,188.906 L62.071,176.906 L98.071,176.906 z" fill="#383838"/>
    <path d="M158.071,176.906 L158.071,188.906 L122.071,188.906 L122.071,176.906 L158.071,176.906 z" fill="#383838"/>
    <path d="M195.477,176.906 L195.477,188.906 L182.071,188.906 L182.071,176.906 L195.477,176.906 z" fill="#383838"/>
  </g>
</svg>
