<?xml version="1.0" encoding="UTF-8"?>
<!DOCTYPE svg PUBLIC "-//W3C//DTD SVG 1.1//EN" "http://www.w3.org/Graphics/SVG/1.1/DTD/svg11.dtd">
<svg version="1.1" xmlns="http://www.w3.org/2000/svg" xmlns:xlink="http://www.w3.org/1999/xlink" x="0" y="0" width="256" height="256" viewBox="0, 0, 256, 256">
  <g id="レイヤー_3">
    <path d="M134.567,52.31 C186.414,54.782 253.459,82.175 255.615,142.551 C255.615,192.456 198.48,203.808 128,203.808 C57.52,203.808 0.385,192.456 0.385,142.552 C0.385,92.647 57.52,52.192 128,52.192 L134.567,52.31 z M128,64.192 C63.436,64.192 12.385,100.339 12.385,142.551 C12.385,160.889 21.864,172.752 42.152,180.725 C61.662,188.393 89.936,191.808 128,191.808 C139.537,191.727 151.103,191.628 162.606,190.629 C161.402,190.229 160.571,189.329 159.839,188.343 Q157.949,185.429 157.949,179.163 Q157.949,173.257 160.222,170.155 Q162.496,167.054 166.808,167.054 Q167.964,167.054 169.121,167.296 Q170.277,167.538 171.355,167.991 L171.355,170.898 Q170.371,170.319 169.261,170.015 Q168.152,169.71 166.949,169.71 Q163.949,169.71 162.402,171.968 Q160.855,174.226 160.855,178.616 Q161.605,177.054 162.933,176.218 Q164.261,175.382 165.98,175.382 Q169.355,175.382 171.207,177.452 Q173.058,179.523 173.058,183.319 Q173.058,187.101 171.152,189.179 C170.522,189.791 170.844,189.535 170.205,189.969 C174.535,189.593 171.687,189.87 178.732,188.975 C177.487,187.842 177.315,186.125 177.183,184.569 Q177.183,182.069 178.425,180.499 Q179.668,178.929 182.011,178.413 Q179.996,177.898 178.863,176.491 Q177.73,175.085 177.73,173.101 Q177.73,170.319 179.621,168.687 Q181.511,167.054 184.761,167.054 Q188.027,167.054 189.918,168.687 Q191.808,170.319 191.808,173.101 Q191.808,175.085 190.675,176.491 Q189.543,177.898 187.527,178.413 Q189.871,178.929 191.113,180.491 Q192.355,182.054 192.355,184.538 C192.203,186.336 192.418,185.568 191.881,186.882 C194.396,186.441 192.604,186.776 197.223,185.697 C196.612,183.568 196.523,181.36 196.48,179.163 Q196.48,173.257 198.753,170.155 Q201.027,167.054 205.339,167.054 Q206.496,167.054 207.652,167.296 Q208.808,167.538 209.886,167.991 L209.886,170.898 Q208.902,170.319 207.793,170.015 Q206.683,169.71 205.48,169.71 Q202.48,169.71 200.933,171.968 Q199.386,174.226 199.386,178.616 Q200.136,177.054 201.464,176.218 Q202.793,175.382 204.511,175.382 Q207.886,175.382 209.738,177.452 C210.72,178.798 211.351,179.643 211.478,181.6 L213.848,180.725 C224.831,176.185 237.235,169.196 241.08,157.031 C239.455,156.957 240.365,157.03 238.355,156.76 Q236.683,156.463 235.074,155.901 L235.074,152.76 Q236.668,153.588 238.214,153.994 Q239.761,154.401 241.293,154.401 L241.923,154.363 C242.909,151.492 243.399,149.052 243.508,145.783 C242.279,145.393 242.941,145.527 241.511,145.432 L239.105,145.432 L239.105,142.838 L241.511,142.838 C242.909,142.757 242.208,142.871 243.612,142.477 C243.429,137.615 243.658,139.887 243.02,135.651 C242.432,135.476 242.843,135.576 241.761,135.51 Q240.371,135.51 238.886,135.823 Q237.402,136.135 235.777,136.76 L235.777,133.854 Q237.668,133.354 239.144,133.104 Q240.621,132.854 241.761,132.854 L242.608,132.91 C240.604,121.118 234.296,109.74 225.917,101.253 L225.917,119.763 L230.761,119.763 L230.761,122.404 L217.886,122.404 L217.886,119.763 L222.792,119.763 L222.792,102.138 L216.917,104.966 L216.917,101.935 L222.761,99.154 L223.845,99.154 C219.6,94.378 214.382,90.667 209.15,87.072 C207.852,88.313 206.029,88.518 204.324,88.657 Q200.261,88.657 198.371,85.743 C197.209,83.932 196.894,81.78 196.652,79.687 L189.408,76.316 C189.086,76.789 189.341,76.424 188.574,77.36 Q187.699,78.376 186.035,80.173 Q184.371,81.969 180.964,85.548 L191.683,85.548 L191.683,88.204 L177.511,88.204 L177.511,85.548 Q180.433,82.469 182.621,80.11 Q184.808,77.751 185.636,76.782 C186.515,75.671 186.136,76.193 186.793,75.232 C179.328,72.067 171.537,69.818 163.623,68.119 C162.644,68.987 163.033,68.552 162.402,69.368 Q160.855,71.626 160.855,76.016 Q161.605,74.454 162.933,73.618 Q164.261,72.782 165.98,72.782 Q169.355,72.782 171.207,74.852 Q173.058,76.923 173.058,80.719 Q173.058,84.501 171.152,86.579 Q169.246,88.657 165.793,88.657 Q161.73,88.657 159.839,85.743 Q157.949,82.829 157.949,76.563 Q157.949,70.657 160.222,67.555 L160.339,67.414 C149.739,64.991 138.835,64.381 128,64.192 z M172.152,132.291 L172.152,156.604 L169.277,156.604 L169.277,154.401 Q168.558,155.698 167.363,156.377 Q166.168,157.057 164.605,157.057 Q161.433,157.057 159.613,154.596 Q157.793,152.135 157.793,147.807 Q157.793,143.541 159.621,141.112 Q161.449,138.682 164.605,138.682 Q166.183,138.682 167.386,139.362 Q168.589,140.041 169.277,141.338 L169.277,132.291 L172.152,132.291 z M165.027,141.119 Q162.949,141.119 161.886,142.823 Q160.824,144.526 160.824,147.869 Q160.824,151.213 161.886,152.916 Q162.949,154.619 165.027,154.619 Q167.105,154.619 168.191,152.901 Q169.277,151.182 169.277,147.869 Q169.277,144.541 168.191,142.83 Q167.105,141.119 165.027,141.119 z M186.074,132.854 Q187.23,132.854 188.386,133.096 Q189.543,133.338 190.621,133.791 L190.621,136.698 Q189.636,136.119 188.527,135.815 Q187.418,135.51 186.214,135.51 Q183.214,135.51 181.668,137.768 Q180.121,140.026 180.121,144.416 Q180.871,142.854 182.199,142.018 Q183.527,141.182 185.246,141.182 Q188.621,141.182 190.472,143.252 Q192.324,145.323 192.324,149.119 Q192.324,152.901 190.418,154.979 Q188.511,157.057 185.058,157.057 Q180.996,157.057 179.105,154.143 Q177.214,151.229 177.214,144.963 Q177.214,139.057 179.488,135.955 Q181.761,132.854 186.074,132.854 z M184.996,143.651 Q182.98,143.651 181.824,145.104 Q180.668,146.557 180.668,149.119 Q180.668,151.682 181.824,153.135 Q182.98,154.588 184.996,154.588 Q187.089,154.588 188.152,153.205 Q189.214,151.823 189.214,149.119 Q189.214,146.401 188.152,145.026 Q187.089,143.651 184.996,143.651 z M224.605,132.854 Q225.761,132.854 226.918,133.096 Q228.074,133.338 229.152,133.791 L229.152,136.698 Q228.168,136.119 227.058,135.815 Q225.949,135.51 224.746,135.51 Q221.746,135.51 220.199,137.768 Q218.652,140.026 218.652,144.416 Q219.402,142.854 220.73,142.018 Q222.058,141.182 223.777,141.182 Q227.152,141.182 229.003,143.252 Q230.855,145.323 230.855,149.119 Q230.855,152.901 228.949,154.979 Q227.043,157.057 223.589,157.057 Q219.527,157.057 217.636,154.143 Q215.746,151.229 215.746,144.963 Q215.746,139.057 218.019,135.955 Q220.293,132.854 224.605,132.854 z M223.527,143.651 Q221.511,143.651 220.355,145.104 Q219.199,146.557 219.199,149.119 Q219.199,151.682 220.355,153.135 Q221.511,154.588 223.527,154.588 Q225.621,154.588 226.683,153.205 Q227.746,151.823 227.746,149.119 Q227.746,146.401 226.683,145.026 Q225.621,143.651 223.527,143.651 z M211.011,132.291 L211.011,134.682 L207.746,134.682 Q206.199,134.682 205.597,135.315 Q204.996,135.948 204.996,137.557 L204.996,139.104 L211.011,139.104 L211.011,141.338 L204.996,141.338 L204.996,156.604 L202.121,156.604 L202.121,141.338 L197.449,141.338 L197.449,139.104 L202.121,139.104 L202.121,137.885 Q202.121,135.01 203.441,133.651 Q204.761,132.291 207.558,132.291 L211.011,132.291 z M205.339,98.654 Q206.496,98.654 207.652,98.896 Q208.808,99.138 209.886,99.591 L209.886,102.498 Q208.902,101.919 207.793,101.615 Q206.683,101.31 205.48,101.31 Q202.48,101.31 200.933,103.568 Q199.386,105.826 199.386,110.216 Q200.136,108.654 201.464,107.818 Q202.793,106.982 204.511,106.982 Q207.886,106.982 209.738,109.052 Q211.589,111.123 211.589,114.919 Q211.589,118.701 209.683,120.779 Q207.777,122.857 204.324,122.857 Q200.261,122.857 198.371,119.943 Q196.48,117.029 196.48,110.763 Q196.48,104.857 198.753,101.755 Q201.027,98.654 205.339,98.654 z M204.261,109.451 Q202.246,109.451 201.089,110.904 Q199.933,112.357 199.933,114.919 Q199.933,117.482 201.089,118.935 Q202.246,120.388 204.261,120.388 Q206.355,120.388 207.418,119.005 Q208.48,117.623 208.48,114.919 Q208.48,112.201 207.418,110.826 Q206.355,109.451 204.261,109.451 z M172.73,99.076 L172.73,100.419 L164.386,122.404 L161.089,122.404 L169.214,101.732 L158.042,101.732 L158.042,99.076 L172.73,99.076 z M189.761,99.076 L189.761,114.279 L192.871,114.279 L192.871,116.841 L189.761,116.841 L189.761,122.404 L186.621,122.404 L186.621,116.841 L176.73,116.841 L176.73,113.857 L186.105,99.076 L189.761,99.076 z M186.621,101.951 L179.261,114.279 L186.621,114.279 L186.621,101.951 z M165.73,177.851 Q163.714,177.851 162.558,179.304 Q161.402,180.757 161.402,183.319 Q161.402,185.882 162.558,187.335 Q163.714,188.788 165.73,188.788 Q167.824,188.788 168.886,187.405 Q169.949,186.023 169.949,183.319 Q169.949,180.601 168.886,179.226 Q167.824,177.851 165.73,177.851 L165.73,177.851 z M184.761,179.726 Q182.652,179.726 181.503,180.905 Q180.355,182.085 180.355,184.241 Q180.355,186.398 181.519,187.593 C182.393,188.308 181.9,188.02 183.013,188.431 C184.787,188.206 183.087,188.423 188.081,187.548 C188.957,186.662 189.101,185.417 189.183,184.241 Q189.183,182.101 188.019,180.913 Q186.855,179.726 184.761,179.726 L184.761,179.726 z M204.261,177.851 Q202.246,177.851 201.089,179.304 Q199.933,180.757 199.933,183.319 C200.015,184.699 199.893,184.142 200.145,185.015 C204.149,184.08 201.354,184.775 208.443,182.614 C208.48,181.385 208.037,180.253 207.417,179.226 Q206.355,177.851 204.261,177.851 L204.261,177.851 z M184.761,169.491 Q182.871,169.491 181.871,170.499 Q180.871,171.507 180.871,173.398 Q180.871,175.273 181.871,176.257 Q182.871,177.241 184.761,177.241 Q186.668,177.241 187.668,176.257 Q188.668,175.273 188.668,173.398 Q188.668,171.491 187.675,170.491 Q186.683,169.491 184.761,169.491 z M199.982,81.493 C199.946,82.676 200.517,83.741 201.089,84.735 Q202.246,86.188 204.261,86.188 C205.193,86.236 205.941,85.802 206.757,85.428 C204.112,83.611 206.279,85.069 199.982,81.493 z M165.73,75.251 Q163.714,75.251 162.558,76.704 Q161.402,78.157 161.402,80.719 Q161.402,83.282 162.558,84.735 Q163.714,86.188 165.73,86.188 Q167.824,86.188 168.886,84.805 Q169.949,83.423 169.949,80.719 Q169.949,78.001 168.886,76.626 Q167.824,75.251 165.73,75.251 z" fill="#000000"/>
  </g>
</svg>
