<?xml version="1.0" encoding="UTF-8"?>
<!DOCTYPE svg PUBLIC "-//W3C//DTD SVG 1.1//EN" "http://www.w3.org/Graphics/SVG/1.1/DTD/svg11.dtd">
<svg version="1.1" xmlns="http://www.w3.org/2000/svg" xmlns:xlink="http://www.w3.org/1999/xlink" x="0" y="0" width="256" height="256" viewBox="0, 0, 256, 256">
  <g id="レイヤー_2">
    <path d="M128,52.192 C152.361,52.262 176.766,56.948 198.807,67.49 L198.753,67.555 Q196.48,70.657 196.48,76.563 Q196.48,82.829 198.371,85.743 Q200.261,88.657 204.324,88.657 Q207.777,88.657 209.683,86.579 Q211.589,84.501 211.589,80.719 Q211.589,76.923 209.738,74.852 Q207.886,72.782 204.511,72.782 Q202.793,72.782 201.464,73.618 Q200.136,74.454 199.386,76.016 Q199.386,71.626 200.933,69.368 C201.37,68.804 201.176,68.987 201.442,68.751 C208.671,71.846 215.016,76.523 221.386,81.034 L221.386,88.204 L224.261,88.204 L224.261,83.339 C230.305,87.939 235.452,93.496 240.056,99.498 C238.885,99.9 238.049,100.83 237.285,101.755 Q235.011,104.857 235.011,110.763 Q235.011,117.029 236.902,119.943 Q238.793,122.857 242.855,122.857 Q246.308,122.857 248.214,120.779 C249.372,119.554 249.786,117.983 250.016,116.367 C254.027,124.522 255.294,133.576 255.615,142.551 C255.755,161.066 246.079,177.976 229.365,186.569 C230.54,184.284 230.699,181.683 230.761,179.163 Q230.761,172.898 228.871,169.976 Q226.98,167.054 222.917,167.054 Q219.449,167.054 217.55,169.124 Q215.652,171.194 215.652,174.96 Q215.652,178.773 217.503,180.851 Q219.355,182.929 222.73,182.929 Q224.449,182.929 225.777,182.093 Q227.105,181.257 227.839,179.694 Q227.839,184.085 226.3,186.343 Q224.761,188.601 221.761,188.601 Q220.558,188.601 219.449,188.296 Q218.339,187.991 217.355,187.413 L217.355,190.319 Q218.433,190.773 219.589,191.015 L220.013,191.081 C190.913,202.562 158.918,203.648 128,203.808 C57.52,203.808 0.385,192.456 0.385,142.552 C0.385,92.647 57.52,52.192 128,52.192 z M205.339,167.054 Q201.027,167.054 198.753,170.155 Q196.48,173.257 196.48,179.163 Q196.48,185.429 198.371,188.343 Q200.261,191.257 204.324,191.257 Q207.777,191.257 209.683,189.179 Q211.589,187.101 211.589,183.319 Q211.589,179.523 209.738,177.452 Q207.886,175.382 204.511,175.382 Q202.793,175.382 201.464,176.218 Q200.136,177.054 199.386,178.616 Q199.386,174.226 200.933,171.968 Q202.48,169.71 205.48,169.71 Q206.683,169.71 207.792,170.015 Q208.902,170.319 209.886,170.898 L209.886,167.991 Q208.808,167.538 207.652,167.296 Q206.496,167.054 205.339,167.054 z M204.261,177.85 L204.261,177.851 Q206.355,177.851 207.417,179.226 Q208.48,180.601 208.48,183.319 Q208.48,186.023 207.417,187.405 Q206.355,188.788 204.261,188.788 Q202.246,188.788 201.089,187.335 Q199.933,185.882 199.933,183.319 Q199.933,180.757 201.089,179.304 Q202.246,177.851 204.261,177.85 z M166.808,167.054 Q162.496,167.054 160.222,170.155 Q157.949,173.257 157.949,179.163 Q157.949,185.429 159.839,188.343 Q161.73,191.257 165.792,191.257 Q169.246,191.257 171.152,189.179 Q173.058,187.101 173.058,183.319 Q173.058,179.523 171.207,177.452 Q169.355,175.382 165.98,175.382 Q164.261,175.382 162.933,176.218 Q161.605,177.054 160.855,178.616 Q160.855,174.226 162.402,171.968 Q163.949,169.71 166.949,169.71 Q168.152,169.71 169.261,170.015 Q170.371,170.319 171.355,170.898 L171.355,167.991 Q170.277,167.538 169.121,167.296 Q167.964,167.054 166.808,167.054 z M165.73,177.85 L165.73,177.851 Q167.824,177.851 168.886,179.226 Q169.949,180.601 169.949,183.319 Q169.949,186.023 168.886,187.405 Q167.824,188.788 165.73,188.788 Q163.714,188.788 162.558,187.335 Q161.402,185.882 161.402,183.319 Q161.402,180.757 162.558,179.304 Q163.714,177.851 165.73,177.85 z M184.761,167.054 Q181.511,167.054 179.621,168.687 Q177.73,170.319 177.73,173.101 Q177.73,175.085 178.863,176.491 Q179.996,177.898 182.011,178.413 Q179.668,178.929 178.425,180.499 Q177.183,182.069 177.183,184.569 Q177.183,187.71 179.191,189.483 Q181.199,191.257 184.761,191.257 Q188.324,191.257 190.339,189.476 Q192.355,187.694 192.355,184.538 Q192.355,182.054 191.113,180.491 Q189.871,178.929 187.527,178.413 Q189.543,177.898 190.675,176.491 Q191.808,175.085 191.808,173.101 Q191.808,170.319 189.917,168.687 Q188.027,167.054 184.761,167.054 z M184.761,179.725 L184.761,179.726 Q186.855,179.726 188.019,180.913 Q189.183,182.101 189.183,184.241 Q189.183,186.429 188.035,187.608 Q186.886,188.788 184.761,188.788 Q182.683,188.788 181.519,187.593 Q180.355,186.398 180.355,184.241 Q180.355,182.085 181.503,180.905 Q182.652,179.726 184.761,179.725 z M184.761,169.491 Q186.683,169.491 187.675,170.491 Q188.668,171.491 188.667,173.398 Q188.668,175.273 187.667,176.257 Q186.668,177.241 184.761,177.241 Q182.871,177.241 181.871,176.257 Q180.871,175.273 180.871,173.398 Q180.871,171.507 181.871,170.499 Q182.871,169.491 184.761,169.491 z M224.605,132.854 Q220.293,132.854 218.019,135.955 Q215.746,139.057 215.746,144.963 Q215.746,151.229 217.636,154.143 Q219.527,157.057 223.589,157.057 Q227.043,157.057 228.949,154.979 Q230.855,152.901 230.855,149.119 Q230.855,145.323 229.003,143.252 Q227.152,141.182 223.777,141.182 Q222.058,141.182 220.73,142.018 Q219.402,142.854 218.652,144.416 Q218.652,140.026 220.199,137.768 Q221.746,135.51 224.746,135.51 Q225.949,135.51 227.058,135.815 Q228.168,136.119 229.152,136.697 L229.152,133.791 Q228.074,133.338 226.917,133.096 Q225.761,132.854 224.605,132.854 z M223.527,143.651 Q225.621,143.651 226.683,145.026 Q227.746,146.401 227.746,149.119 Q227.746,151.823 226.683,153.205 Q225.621,154.588 223.527,154.588 Q221.511,154.588 220.355,153.135 Q219.199,151.682 219.199,149.119 Q219.199,146.557 220.355,145.104 Q221.511,143.651 223.527,143.651 z M186.074,132.854 Q181.761,132.854 179.488,135.955 Q177.214,139.057 177.214,144.963 Q177.214,151.229 179.105,154.143 Q180.996,157.057 185.058,157.057 Q188.511,157.057 190.417,154.979 Q192.324,152.901 192.324,149.119 Q192.324,145.323 190.472,143.252 Q188.621,141.182 185.246,141.182 Q183.527,141.182 182.199,142.018 Q180.871,142.854 180.121,144.416 Q180.121,140.026 181.667,137.768 Q183.214,135.51 186.214,135.51 Q187.418,135.51 188.527,135.815 Q189.636,136.119 190.621,136.697 L190.621,133.791 Q189.543,133.338 188.386,133.096 Q187.23,132.854 186.074,132.854 z M184.996,143.651 Q187.089,143.651 188.152,145.026 Q189.214,146.401 189.214,149.119 Q189.214,151.823 188.152,153.205 Q187.089,154.588 184.996,154.588 Q182.98,154.588 181.824,153.135 Q180.668,151.682 180.667,149.119 Q180.668,146.557 181.824,145.104 Q182.98,143.651 184.996,143.651 z M172.152,132.291 L169.277,132.291 L169.277,141.338 Q168.589,140.041 167.386,139.361 Q166.183,138.682 164.605,138.682 Q161.449,138.682 159.621,141.111 Q157.793,143.541 157.792,147.807 Q157.793,152.135 159.613,154.596 Q161.433,157.057 164.605,157.057 Q166.168,157.057 167.363,156.377 Q168.558,155.698 169.277,154.401 L169.277,156.604 L172.152,156.604 L172.152,132.291 z M165.027,141.119 Q167.105,141.119 168.191,142.83 Q169.277,144.541 169.277,147.869 Q169.277,151.182 168.191,152.901 Q167.105,154.619 165.027,154.619 Q162.949,154.619 161.886,152.916 Q160.824,151.213 160.824,147.869 Q160.824,144.526 161.886,142.822 Q162.949,141.119 165.027,141.119 z M241.761,132.854 Q240.621,132.854 239.144,133.104 Q237.668,133.354 235.777,133.854 L235.777,136.76 Q237.402,136.135 238.886,135.822 Q240.371,135.51 241.761,135.51 Q243.855,135.51 244.988,136.471 Q246.121,137.432 246.121,139.229 Q246.121,140.932 244.902,141.885 Q243.683,142.838 241.511,142.838 L239.105,142.838 L239.105,145.432 L241.511,145.432 Q243.886,145.432 245.277,146.627 Q246.668,147.823 246.667,149.854 Q246.668,152.057 245.277,153.229 Q243.886,154.401 241.292,154.401 Q239.761,154.401 238.214,153.994 Q236.668,153.588 235.074,152.76 L235.074,155.901 Q236.683,156.463 238.355,156.76 Q240.027,157.057 241.636,157.057 Q245.464,157.057 247.628,155.221 Q249.793,153.385 249.792,150.166 Q249.793,147.838 248.574,146.283 Q247.355,144.729 245.058,144.119 Q247.105,143.588 248.175,142.307 Q249.246,141.026 249.246,139.104 Q249.246,136.276 247.207,134.565 Q245.168,132.854 241.761,132.854 z M211.011,132.291 L207.558,132.291 Q204.761,132.291 203.441,133.651 Q202.121,135.01 202.121,137.885 L202.121,139.104 L197.449,139.104 L197.449,141.338 L202.121,141.338 L202.121,156.604 L204.996,156.604 L204.996,141.338 L211.011,141.338 L211.011,139.104 L204.996,139.104 L204.996,137.557 Q204.996,135.948 205.597,135.315 Q206.199,134.682 207.746,134.682 L211.011,134.682 L211.011,132.291 z M205.339,98.654 Q201.027,98.654 198.753,101.755 Q196.48,104.857 196.48,110.763 Q196.48,117.029 198.371,119.943 Q200.261,122.857 204.324,122.857 Q207.777,122.857 209.683,120.779 Q211.589,118.701 211.589,114.919 Q211.589,111.123 209.738,109.052 Q207.886,106.982 204.511,106.982 Q202.793,106.982 201.464,107.818 Q200.136,108.654 199.386,110.216 Q199.386,105.826 200.933,103.568 Q202.48,101.31 205.48,101.31 Q206.683,101.31 207.792,101.615 Q208.902,101.919 209.886,102.498 L209.886,99.591 Q208.808,99.138 207.652,98.896 Q206.496,98.654 205.339,98.654 z M204.261,109.451 Q206.355,109.451 207.417,110.826 Q208.48,112.201 208.48,114.919 Q208.48,117.623 207.417,119.005 Q206.355,120.388 204.261,120.388 Q202.246,120.388 201.089,118.935 Q199.933,117.482 199.933,114.919 Q199.933,112.357 201.089,110.904 Q202.246,109.451 204.261,109.451 z M172.73,99.076 L158.042,99.076 L158.042,101.732 L169.214,101.732 L161.089,122.404 L164.386,122.404 L172.73,100.419 L172.73,99.076 z M189.761,99.076 L186.105,99.076 L176.73,113.857 L176.73,116.841 L186.621,116.841 L186.621,122.404 L189.761,122.404 L189.761,116.841 L192.871,116.841 L192.871,114.279 L189.761,114.279 L189.761,99.076 z M186.621,101.951 L186.621,114.279 L179.261,114.279 L186.621,101.951 z M225.917,99.154 L222.761,99.154 L216.917,101.935 L216.917,104.966 L222.792,102.138 L222.792,119.763 L217.886,119.763 L217.886,122.404 L230.761,122.404 L230.761,119.763 L225.917,119.763 L225.917,99.154 z M166.808,64.454 Q162.496,64.454 160.222,67.555 Q157.949,70.657 157.949,76.563 Q157.949,82.829 159.839,85.743 Q161.73,88.657 165.792,88.657 Q169.246,88.657 171.152,86.579 Q173.058,84.501 173.058,80.719 Q173.058,76.923 171.207,74.852 Q169.355,72.782 165.98,72.782 Q164.261,72.782 162.933,73.618 Q161.605,74.454 160.855,76.016 Q160.855,71.626 162.402,69.368 Q163.949,67.11 166.949,67.11 Q168.152,67.11 169.261,67.415 Q170.371,67.719 171.355,68.298 L171.355,65.391 Q170.277,64.938 169.121,64.696 Q167.964,64.454 166.808,64.454 z M165.73,75.251 Q167.824,75.251 168.886,76.626 Q169.949,78.001 169.949,80.719 Q169.949,83.423 168.886,84.805 Q167.824,86.188 165.73,86.188 Q163.714,86.188 162.558,84.735 Q161.402,83.282 161.402,80.719 Q161.402,78.157 162.558,76.704 Q163.714,75.251 165.73,75.251 z M183.933,64.454 Q182.418,64.454 180.863,64.844 Q179.308,65.235 177.699,66.001 L177.699,69.188 Q179.449,68.141 181.011,67.626 Q182.574,67.11 183.996,67.11 Q185.996,67.11 187.144,68.219 Q188.293,69.329 188.292,71.282 Q188.293,72.516 187.746,73.696 Q187.199,74.876 185.636,76.782 Q184.808,77.751 182.621,80.11 Q180.433,82.469 177.511,85.548 L177.511,88.204 L191.683,88.204 L191.683,85.548 L180.964,85.548 Q184.371,81.969 186.035,80.173 Q187.699,78.376 188.574,77.36 Q190.136,75.548 190.832,74.048 Q191.527,72.548 191.527,71.048 Q191.527,68.094 189.441,66.274 Q187.355,64.454 183.933,64.454 z" fill="#000000"/>
    <path d="M222.98,169.523 Q224.996,169.523 226.144,170.976 Q227.293,172.429 227.292,174.991 Q227.293,177.554 226.144,179.007 Q224.996,180.46 222.98,180.46 Q220.871,180.46 219.816,179.085 Q218.761,177.71 218.761,174.991 Q218.761,172.288 219.824,170.905 Q220.886,169.523 222.98,169.523 z" fill="#000000"/>
    <path d="M242.792,109.451 Q244.886,109.451 245.949,110.826 Q247.011,112.201 247.011,114.919 Q247.011,117.623 245.949,119.005 Q244.886,120.388 242.792,120.388 Q240.777,120.388 239.621,118.935 Q238.464,117.482 238.464,114.919 Q238.464,112.357 239.621,110.904 Q240.777,109.451 242.792,109.451 z" fill="#000000"/>
    <path d="M241.765,101.727 C243.99,104.627 242.675,102.782 245.455,107.436 C244.14,106.915 244.928,107.135 243.042,106.982 Q241.324,106.982 239.996,107.818 Q238.668,108.654 237.917,110.216 Q237.918,105.826 239.464,103.568 C240.012,102.67 240.856,102.178 241.765,101.727 z" fill="#000000"/>
    <path d="M204.261,75.251 Q206.355,75.251 207.417,76.626 Q208.48,78.001 208.48,80.719 Q208.48,83.423 207.417,84.805 Q206.355,86.188 204.261,86.188 Q202.246,86.188 201.089,84.735 Q199.933,83.282 199.933,80.719 Q199.933,78.157 201.089,76.704 Q202.246,75.251 204.261,75.251 z" fill="#000000"/>
  </g>
</svg>
