<?xml version="1.0" encoding="UTF-8"?>
<!DOCTYPE svg PUBLIC "-//W3C//DTD SVG 1.1//EN" "http://www.w3.org/Graphics/SVG/1.1/DTD/svg11.dtd">
<svg version="1.1" xmlns="http://www.w3.org/2000/svg" xmlns:xlink="http://www.w3.org/1999/xlink" x="0" y="0" width="256" height="256" viewBox="0, 0, 256, 256">
  <g id="レイヤー_1">
    <path d="M110.715,0.087 L112.547,0.35 Q119.953,1.753 124.174,7.948 Q128.396,14.142 126.993,21.548 Q125.944,27.081 121.989,31.053 Q118.033,35.024 112.521,36.087 L111.473,41.621 Q127.613,40.969 140.063,43.328 Q148.12,44.854 155.945,47.601 Q157.053,47.98 164.671,51.151 Q172.29,54.322 176.521,55.124 Q182.787,56.311 190.226,56.203 Q191.152,56.21 197.06,55.727 Q202.968,55.245 204.595,55.553 Q206.711,55.954 207.965,57.793 Q209.218,59.632 208.817,61.748 L195.883,130.023 Q195.143,133.929 190.94,134.313 Q175.978,135.862 162.632,133.334 Q156.692,132.209 145.55,127.611 Q134.409,123.014 127.492,121.704 Q114.146,119.175 96.642,119.906 L93.365,137.207 C104.675,134.185 116.337,133.18 127.999,132.971 L127.999,132.971 C147.767,133.028 167.571,136.83 185.456,145.385 L185.413,145.438 Q183.568,147.954 183.568,152.747 Q183.568,157.831 185.102,160.196 Q186.636,162.56 189.933,162.56 Q192.735,162.56 194.281,160.874 Q195.828,159.188 195.828,156.12 Q195.828,153.039 194.326,151.359 Q192.823,149.679 190.085,149.679 Q188.69,149.679 187.612,150.357 Q186.535,151.035 185.926,152.303 Q185.926,148.74 187.181,146.908 C187.535,146.45 187.378,146.599 187.594,146.407 C193.46,148.919 198.609,152.715 203.778,156.375 L203.778,162.193 L206.111,162.193 L206.111,158.245 C211.015,161.978 215.191,166.487 218.927,171.358 C217.977,171.683 217.299,172.438 216.679,173.189 Q214.834,175.706 214.834,180.499 Q214.834,185.583 216.368,187.948 Q217.902,190.312 221.199,190.312 Q224.001,190.312 225.548,188.626 C226.487,187.632 226.823,186.357 227.009,185.046 C230.264,191.663 231.293,199.01 231.553,206.293 C231.667,221.317 223.815,235.039 210.252,242.012 C211.205,240.158 211.334,238.047 211.385,236.002 Q211.385,230.918 209.851,228.547 Q208.317,226.176 205.021,226.176 Q202.206,226.176 200.665,227.856 Q199.125,229.536 199.125,232.591 Q199.125,235.685 200.627,237.371 Q202.13,239.058 204.868,239.058 Q206.263,239.058 207.341,238.379 Q208.419,237.701 209.014,236.433 Q209.014,239.996 207.766,241.828 Q206.517,243.66 204.082,243.66 Q203.106,243.66 202.206,243.413 Q201.306,243.166 200.507,242.696 L200.507,245.055 Q201.382,245.423 202.32,245.619 L202.664,245.673 C179.051,254.989 153.088,255.87 127.999,256 C70.808,256 24.446,246.788 24.446,206.293 C25.007,174.497 51.394,152.396 79.012,141.775 L99.501,33.62 Q94.759,30.615 92.53,25.472 Q90.301,20.329 91.349,14.795 Q92.752,7.39 98.947,3.169 C101.408,1.51 104.192,0.391 107.163,0.089 C108.341,-0.031 109.531,0.088 110.715,0.087 z M174.059,226.176 Q171.421,226.176 169.887,227.501 Q168.353,228.826 168.353,231.083 Q168.353,232.693 169.272,233.834 Q170.191,234.975 171.827,235.393 Q169.925,235.812 168.917,237.086 Q167.909,238.36 167.909,240.389 Q167.909,242.937 169.538,244.376 Q171.168,245.816 174.059,245.816 Q176.949,245.816 178.585,244.37 Q180.221,242.925 180.221,240.364 Q180.221,238.348 179.213,237.08 Q178.205,235.812 176.303,235.393 Q177.938,234.975 178.857,233.834 Q179.777,232.693 179.777,231.083 Q179.777,228.826 178.243,227.501 Q176.708,226.176 174.059,226.176 z M174.059,236.458 L174.059,236.458 Q175.758,236.459 176.702,237.422 Q177.647,238.386 177.647,240.123 Q177.647,241.898 176.715,242.855 Q175.783,243.812 174.059,243.812 Q172.372,243.812 171.428,242.842 Q170.483,241.872 170.483,240.123 Q170.483,238.373 171.415,237.416 Q172.347,236.459 174.059,236.458 z M174.059,228.154 Q175.618,228.154 176.423,228.965 Q177.228,229.777 177.228,231.324 Q177.228,232.845 176.417,233.644 Q175.605,234.443 174.059,234.443 Q172.524,234.443 171.713,233.644 Q170.902,232.845 170.901,231.324 Q170.902,229.789 171.713,228.972 Q172.524,228.154 174.059,228.154 z M159.49,226.176 Q155.991,226.176 154.146,228.693 Q152.301,231.209 152.301,236.002 Q152.301,241.086 153.836,243.451 Q155.37,245.816 158.666,245.816 Q161.468,245.816 163.015,244.129 Q164.562,242.443 164.562,239.375 Q164.562,236.294 163.06,234.614 Q161.557,232.934 158.818,232.934 Q157.424,232.934 156.346,233.612 Q155.268,234.29 154.66,235.558 Q154.66,231.996 155.915,230.163 Q157.17,228.331 159.605,228.331 Q160.581,228.331 161.481,228.579 Q162.381,228.826 163.18,229.295 L163.18,226.936 Q162.305,226.569 161.367,226.372 Q160.429,226.176 159.49,226.176 z M158.616,234.937 L158.616,234.937 Q160.315,234.937 161.177,236.053 Q162.039,237.169 162.039,239.375 Q162.039,241.568 161.177,242.69 Q160.315,243.812 158.616,243.812 Q156.98,243.812 156.042,242.633 Q155.104,241.454 155.104,239.375 Q155.104,237.295 156.042,236.116 Q156.98,234.937 158.616,234.937 z M190.757,226.176 Q187.257,226.176 185.413,228.693 Q183.568,231.209 183.568,236.002 Q183.568,241.086 185.102,243.451 Q186.636,245.816 189.933,245.816 Q192.735,245.816 194.281,244.129 Q195.828,242.443 195.828,239.375 Q195.828,236.294 194.326,234.614 Q192.823,232.934 190.085,232.934 Q188.69,232.934 187.612,233.612 Q186.535,234.29 185.926,235.558 Q185.926,231.996 187.181,230.163 Q188.437,228.331 190.871,228.331 Q191.847,228.331 192.747,228.579 Q193.648,228.826 194.446,229.295 L194.446,226.936 Q193.571,226.569 192.633,226.372 Q191.695,226.176 190.757,226.176 z M189.882,234.937 L189.882,234.937 Q191.581,234.937 192.443,236.053 Q193.305,237.169 193.305,239.375 Q193.305,241.568 192.443,242.69 Q191.581,243.812 189.882,243.812 Q188.246,243.812 187.308,242.633 Q186.37,241.454 186.37,239.375 Q186.37,237.295 187.308,236.116 Q188.246,234.937 189.882,234.937 z M220.311,198.424 Q219.386,198.424 218.188,198.627 Q216.99,198.83 215.455,199.236 L215.455,201.594 Q216.774,201.087 217.978,200.833 Q219.183,200.58 220.311,200.58 Q222.01,200.58 222.93,201.359 Q223.849,202.139 223.849,203.597 Q223.849,204.979 222.86,205.753 Q221.871,206.526 220.109,206.526 L218.156,206.526 L218.156,208.631 L220.109,208.631 Q222.036,208.631 223.164,209.601 Q224.293,210.571 224.293,212.219 Q224.293,214.007 223.164,214.958 Q222.036,215.908 219.931,215.908 Q218.689,215.908 217.433,215.579 Q216.178,215.249 214.885,214.577 L214.885,217.126 Q216.191,217.582 217.547,217.823 Q218.904,218.064 220.21,218.064 Q223.316,218.064 225.072,216.574 Q226.828,215.084 226.828,212.472 Q226.828,210.583 225.839,209.322 Q224.85,208.06 222.987,207.566 Q224.648,207.135 225.516,206.095 Q226.385,205.055 226.385,203.496 Q226.385,201.201 224.73,199.813 Q223.075,198.424 220.311,198.424 z M163.827,197.968 L161.494,197.968 L161.494,205.309 Q160.936,204.257 159.96,203.705 Q158.983,203.153 157.703,203.153 Q155.142,203.153 153.658,205.125 Q152.175,207.097 152.175,210.558 Q152.175,214.07 153.652,216.067 Q155.129,218.064 157.703,218.064 Q158.971,218.064 159.94,217.512 Q160.91,216.961 161.494,215.908 L161.494,217.696 L163.827,217.696 L163.827,197.968 z M158.045,205.131 Q159.731,205.131 160.612,206.52 Q161.494,207.908 161.494,210.609 Q161.494,213.297 160.612,214.691 Q159.731,216.086 158.045,216.086 Q156.359,216.086 155.497,214.704 Q154.634,213.322 154.634,210.609 Q154.634,207.895 155.497,206.513 Q156.359,205.131 158.045,205.131 z M175.124,198.424 Q171.624,198.424 169.779,200.941 Q167.935,203.458 167.935,208.25 Q167.935,213.335 169.469,215.699 Q171.003,218.064 174.299,218.064 Q177.102,218.064 178.648,216.378 Q180.195,214.691 180.195,211.623 Q180.195,208.542 178.693,206.862 Q177.19,205.182 174.452,205.182 Q173.057,205.182 171.979,205.86 Q170.902,206.539 170.293,207.807 Q170.293,204.244 171.548,202.412 Q172.803,200.58 175.238,200.58 Q176.214,200.58 177.114,200.827 Q178.014,201.074 178.813,201.543 L178.813,199.185 Q177.938,198.817 177,198.621 Q176.062,198.424 175.124,198.424 z M174.249,207.185 Q175.948,207.185 176.81,208.301 Q177.672,209.417 177.672,211.623 Q177.672,213.816 176.81,214.939 Q175.948,216.061 174.249,216.061 Q172.613,216.061 171.675,214.881 Q170.737,213.702 170.737,211.623 Q170.737,209.544 171.675,208.364 Q172.613,207.185 174.249,207.185 z M206.39,198.424 Q202.891,198.424 201.046,200.941 Q199.201,203.458 199.201,208.25 Q199.201,213.335 200.735,215.699 Q202.269,218.064 205.566,218.064 Q208.368,218.064 209.915,216.378 Q211.462,214.691 211.461,211.623 Q211.462,208.542 209.959,206.862 Q208.457,205.182 205.718,205.182 Q204.323,205.182 203.245,205.86 Q202.168,206.539 201.559,207.807 Q201.559,204.244 202.814,202.412 Q204.07,200.58 206.504,200.58 Q207.48,200.58 208.38,200.827 Q209.281,201.074 210.079,201.543 L210.079,199.185 Q209.205,198.817 208.266,198.621 Q207.328,198.424 206.39,198.424 z M205.515,207.185 Q207.214,207.185 208.076,208.301 Q208.938,209.417 208.938,211.623 Q208.938,213.816 208.076,214.939 Q207.214,216.061 205.515,216.061 Q203.879,216.061 202.941,214.881 Q202.003,213.702 202.003,211.623 Q202.003,209.544 202.941,208.364 Q203.879,207.185 205.515,207.185 z M195.359,197.968 L192.557,197.968 Q190.288,197.968 189.216,199.071 Q188.145,200.174 188.145,202.507 L188.145,203.496 L184.354,203.496 L184.354,205.309 L188.145,205.309 L188.145,217.696 L190.478,217.696 L190.478,205.309 L195.359,205.309 L195.359,203.496 L190.478,203.496 L190.478,202.24 Q190.478,200.935 190.966,200.421 Q191.454,199.908 192.709,199.908 L195.359,199.908 L195.359,197.968 z M190.757,170.672 Q187.257,170.672 185.413,173.189 Q183.568,175.706 183.568,180.499 Q183.568,185.583 185.102,187.948 Q186.636,190.312 189.933,190.312 Q192.735,190.312 194.281,188.626 Q195.828,186.94 195.828,183.871 Q195.828,180.79 194.326,179.11 Q192.823,177.43 190.085,177.43 Q188.69,177.43 187.612,178.109 Q186.535,178.787 185.926,180.055 Q185.926,176.492 187.181,174.66 Q188.437,172.828 190.871,172.828 Q191.847,172.828 192.747,173.075 Q193.648,173.322 194.446,173.791 L194.446,171.433 Q193.571,171.066 192.633,170.869 Q191.695,170.672 190.757,170.672 z M189.882,179.434 Q191.581,179.434 192.443,180.549 Q193.305,181.665 193.305,183.871 Q193.305,186.065 192.443,187.187 Q191.581,188.309 189.882,188.309 Q188.246,188.309 187.308,187.13 Q186.37,185.951 186.37,183.871 Q186.37,181.792 187.308,180.613 Q188.246,179.434 189.882,179.434 z M207.455,171.078 L204.894,171.078 L200.152,173.335 L200.152,175.795 L204.919,173.5 L204.919,187.802 L200.938,187.802 L200.938,189.944 L211.385,189.944 L211.385,187.802 L207.455,187.802 L207.455,171.078 z M178.116,171.015 L175.149,171.015 L167.542,183.009 L167.542,185.431 L175.567,185.431 L175.567,189.944 L178.116,189.944 L178.116,185.431 L180.639,185.431 L180.639,183.351 L178.116,183.351 L178.116,171.015 z M175.567,173.348 L175.567,183.351 L169.596,183.351 L175.567,173.348 z M164.296,171.015 L152.378,171.015 L152.378,173.17 L161.443,173.17 L154.85,189.944 L157.525,189.944 L164.296,172.105 L164.296,171.015 z M159.49,142.921 Q155.991,142.921 154.146,145.438 Q152.301,147.954 152.301,152.747 Q152.301,157.831 153.836,160.196 Q155.37,162.56 158.666,162.56 Q161.468,162.56 163.015,160.874 Q164.562,159.188 164.562,156.12 Q164.562,153.039 163.06,151.359 Q161.557,149.679 158.818,149.679 Q157.424,149.679 156.346,150.357 Q155.268,151.035 154.66,152.303 Q154.66,148.74 155.915,146.908 Q157.17,145.076 159.605,145.076 Q160.581,145.076 161.481,145.323 Q162.381,145.571 163.18,146.04 L163.18,143.681 Q162.305,143.314 161.367,143.117 Q160.429,142.921 159.49,142.921 z M158.616,151.682 Q160.315,151.682 161.177,152.798 Q162.039,153.913 162.039,156.12 Q162.039,158.313 161.177,159.435 Q160.315,160.557 158.616,160.557 Q156.98,160.557 156.042,159.378 Q155.104,158.199 155.104,156.12 Q155.104,154.04 156.042,152.861 Q156.98,151.682 158.616,151.682 z M173.387,142.921 Q172.157,142.921 170.895,143.238 Q169.634,143.555 168.328,144.176 L168.328,146.762 Q169.748,145.913 171.016,145.495 Q172.284,145.076 173.437,145.076 Q175.06,145.076 175.992,145.976 Q176.924,146.877 176.924,148.461 Q176.924,149.463 176.48,150.42 Q176.036,151.378 174.769,152.924 Q174.097,153.711 172.321,155.625 Q170.547,157.54 168.176,160.037 L168.176,162.193 L179.675,162.193 L179.675,160.037 L170.978,160.037 Q173.742,157.134 175.092,155.676 Q176.442,154.218 177.152,153.394 Q178.42,151.923 178.984,150.706 Q179.549,149.488 179.549,148.271 Q179.549,145.875 177.856,144.398 Q176.163,142.921 173.387,142.921 z M205.071,228.179 Q203.372,228.179 202.51,229.301 Q201.648,230.423 201.648,232.617 Q201.648,234.823 202.504,235.939 Q203.36,237.054 205.071,237.054 Q206.707,237.054 207.639,235.875 Q208.571,234.696 208.571,232.617 Q208.571,230.537 207.639,229.358 Q206.707,228.179 205.071,228.179 z M221.148,179.434 Q219.513,179.434 218.574,180.613 Q217.636,181.792 217.636,183.871 Q217.636,185.951 218.574,187.13 Q219.513,188.309 221.148,188.309 Q222.847,188.309 223.709,187.187 Q224.572,186.065 224.572,183.871 Q224.572,181.665 223.709,180.549 Q222.847,179.434 221.148,179.434 z M220.314,173.166 C219.577,173.532 218.892,173.931 218.448,174.66 Q217.192,176.492 217.192,180.055 Q217.801,178.787 218.879,178.109 Q219.956,177.43 221.351,177.43 C222.881,177.555 222.241,177.376 223.308,177.799 C221.053,174.022 222.12,175.52 220.314,173.166 z M189.882,151.682 Q188.246,151.682 187.308,152.861 Q186.37,154.04 186.37,156.12 Q186.37,158.199 187.308,159.378 Q188.246,160.557 189.882,160.557 Q191.581,160.557 192.443,159.435 Q193.305,158.313 193.305,156.12 Q193.305,153.913 192.443,152.798 Q191.581,151.682 189.882,151.682 z" fill="#262626" display="none"/>
    <path d="M70.329,11.83 C80.275,11.83 88.338,19.892 88.338,29.839 C88.167,36.397 84.593,43.274 78.303,45.932 L76.891,51.202 Q106.844,52.228 129.555,58.313 Q144.25,62.251 158.349,68.415 Q160.347,69.269 174.005,76.189 Q187.662,83.11 195.381,85.179 Q206.81,88.241 220.589,89.069 Q222.301,89.21 233.299,89.134 Q244.297,89.058 247.266,89.854 Q251.125,90.888 253.19,94.464 Q255.254,98.04 254.22,101.899 L220.85,226.438 Q218.941,233.563 211.111,233.692 Q183.214,234.49 158.871,227.968 Q148.035,225.064 128.056,215.017 Q108.077,204.971 95.459,201.59 Q71.116,195.067 38.628,193.999 L25.185,244.17 L1.435,237.807 L54.755,38.811 C52.98,36.162 52.476,32.946 52.319,29.839 C52.32,19.892 60.382,11.83 70.329,11.83 z M125.878,89.111 C99.178,89.888 70.417,98.269 61.777,126.7 C53.727,156.743 86.291,172.793 128.72,184.162 C147.359,189.053 166.795,193.56 186.166,191.342 L185.921,191.234 Q185.264,190.902 184.689,190.455 L185.157,188.705 Q185.656,189.212 186.275,189.575 Q186.894,189.937 187.618,190.131 Q189.424,190.615 190.715,189.504 Q192.006,188.393 192.714,185.75 Q192.02,186.572 191.086,186.861 Q190.151,187.15 189.116,186.873 Q187.085,186.329 186.305,184.779 Q185.526,183.229 186.141,180.934 Q186.748,178.667 188.225,177.727 Q189.702,176.787 191.79,177.346 Q194.236,178.002 194.903,180.066 Q195.569,182.13 194.559,185.901 C194.115,187.408 193.6,188.949 192.524,190.134 C203.972,187.658 212.524,179.039 215.427,167.87 C216.681,162.415 217.379,156.76 216.28,151.204 C215.881,152.139 215.378,153.018 214.483,153.569 Q213.001,154.513 210.922,153.956 Q208.476,153.3 207.808,151.241 Q207.14,149.182 208.15,145.41 Q209.103,141.854 210.972,140.354 C211.582,139.92 212.235,139.495 213.005,139.442 C211.201,135.086 208.999,130.91 206.103,127.166 L205.318,130.095 L203.587,129.631 L204.744,125.315 C201.637,121.572 198.571,117.733 194.719,114.703 C194.52,114.802 194.667,114.724 194.313,114.993 Q193.017,116.102 192.309,118.745 Q193.012,117.926 193.947,117.637 Q194.882,117.348 195.916,117.625 Q197.948,118.169 198.729,119.714 Q199.509,121.26 198.897,123.545 Q198.287,125.822 196.804,126.765 Q195.321,127.709 193.243,127.152 Q190.797,126.496 190.129,124.437 Q189.461,122.378 190.471,118.606 Q191.424,115.05 193.293,113.549 L193.336,113.519 C181.767,103.617 167.831,96.86 153.177,92.888 C144.233,90.662 135.128,89.093 125.878,89.111 z M179.955,174.3 L181.207,174.511 Q181.904,174.698 182.561,175.03 Q183.218,175.362 183.794,175.808 L183.325,177.558 Q182.826,177.051 182.207,176.689 Q181.588,176.327 180.864,176.133 Q179.058,175.649 177.762,176.758 Q176.467,177.868 175.759,180.511 Q176.462,179.692 177.397,179.403 Q178.332,179.114 179.366,179.391 Q181.398,179.935 182.179,181.48 Q182.959,183.025 182.346,185.311 Q181.736,187.587 180.254,188.531 Q178.771,189.474 176.692,188.917 Q174.247,188.262 173.579,186.203 Q172.91,184.144 173.921,180.371 Q174.874,176.816 176.743,175.315 C178.364,174.302 177.343,174.771 179.955,174.3 z M178.228,180.737 C176.973,180.95 177.47,180.737 176.673,181.2 Q175.743,181.888 175.33,183.43 Q174.916,184.973 175.378,186.035 Q175.84,187.096 177.053,187.421 Q178.313,187.759 179.176,187.097 Q180.039,186.437 180.475,184.809 Q180.913,183.173 180.495,182.174 Q180.078,181.175 178.817,180.837 L178.817,180.836 L178.228,180.737 z M167.876,171.004 L168.819,171.191 Q170.786,171.718 171.66,173.006 Q172.535,174.294 172.086,175.968 Q171.766,177.163 170.858,177.827 Q169.949,178.491 168.652,178.476 Q169.98,179.165 170.476,180.305 Q170.972,181.447 170.571,182.942 Q170.062,184.842 168.561,185.589 Q167.06,186.337 164.915,185.762 Q162.771,185.187 161.848,183.795 Q160.926,182.404 161.432,180.513 Q161.836,179.008 162.836,178.263 Q163.838,177.519 165.332,177.586 Q164.202,176.951 163.747,175.921 Q163.291,174.892 163.611,173.698 Q164.06,172.023 165.462,171.345 C166.724,170.892 165.937,171.093 167.876,171.004 z M166.165,178.704 C164.92,178.811 165.418,178.649 164.624,179.004 Q163.743,179.53 163.395,180.827 Q163.047,182.126 163.555,183.033 Q164.063,183.94 165.314,184.275 Q166.593,184.618 167.475,184.093 Q168.356,183.569 168.709,182.251 Q169.054,180.963 168.545,180.06 Q168.036,179.158 166.775,178.82 L166.776,178.819 L166.165,178.704 z M167.881,172.553 C166.783,172.634 167.221,172.497 166.524,172.799 Q165.76,173.245 165.454,174.383 Q165.152,175.512 165.595,176.266 Q166.039,177.019 167.176,177.324 Q168.324,177.632 169.084,177.2 Q169.846,176.77 170.148,175.641 Q170.456,174.493 170.019,173.731 Q169.584,172.969 168.426,172.659 L167.881,172.553 z M156.759,168.085 L158.012,168.296 Q158.708,168.482 159.365,168.814 Q160.022,169.146 160.598,169.593 L160.129,171.343 Q159.63,170.836 159.011,170.474 Q158.392,170.111 157.668,169.917 Q155.862,169.433 154.567,170.543 Q153.271,171.653 152.563,174.296 Q153.266,173.476 154.201,173.187 Q155.135,172.898 156.17,173.175 Q158.202,173.72 158.983,175.265 Q159.763,176.81 159.151,179.095 Q158.541,181.372 157.058,182.316 Q155.575,183.259 153.496,182.702 Q151.051,182.047 150.382,179.987 Q149.715,177.928 150.725,174.156 Q151.678,170.601 153.547,169.1 C155.168,168.086 154.148,168.555 156.759,168.085 z M155.032,174.522 C153.776,174.735 154.273,174.521 153.477,174.985 Q152.547,175.673 152.134,177.215 Q151.72,178.758 152.182,179.819 Q152.643,180.88 153.857,181.206 Q155.118,181.543 155.98,180.882 Q156.843,180.222 157.279,178.594 Q157.717,176.958 157.299,175.958 Q156.882,174.959 155.621,174.622 L155.621,174.621 L155.032,174.522 z M204.887,159.434 Q206.106,159.438 207.035,159.526 Q207.964,159.614 208.651,159.797 Q210.702,160.347 211.653,161.706 Q212.605,163.065 212.148,164.767 Q211.838,165.924 210.987,166.523 Q210.136,167.121 208.818,167.111 Q210.103,167.849 210.586,168.981 Q211.069,170.113 210.693,171.515 Q210.174,173.453 208.575,174.209 Q206.976,174.965 204.671,174.348 Q203.703,174.088 202.744,173.64 Q201.785,173.191 200.907,172.593 L201.414,170.702 Q202.24,171.458 203.105,171.952 Q203.971,172.446 204.893,172.693 Q206.454,173.112 207.481,172.63 Q208.507,172.149 208.862,170.823 Q209.19,169.6 208.546,168.656 Q207.901,167.712 206.471,167.329 L205.023,166.941 L205.441,165.379 L206.889,165.767 Q208.197,166.118 209.085,165.741 Q209.972,165.364 210.247,164.338 Q210.537,163.257 210.01,162.495 Q209.483,161.734 208.222,161.396 Q207.385,161.172 206.441,161.12 Q205.497,161.069 204.418,161.184 L204.887,159.434 z M197.07,156.819 L198.322,157.03 Q199.019,157.216 199.675,157.549 Q200.333,157.881 200.909,158.328 L200.44,160.077 Q199.941,159.57 199.322,159.208 Q198.703,158.846 197.979,158.652 Q196.173,158.168 194.877,159.277 Q193.582,160.387 192.874,163.03 Q193.577,162.211 194.512,161.922 Q195.446,161.633 196.481,161.91 Q198.513,162.454 199.293,163.999 Q200.074,165.545 199.461,167.83 Q198.851,170.107 197.369,171.05 Q195.886,171.994 193.807,171.436 Q191.362,170.781 190.693,168.722 Q190.025,166.663 191.036,162.891 Q191.989,159.335 193.858,157.834 C195.479,156.821 194.458,157.29 197.07,156.819 z M195.343,163.257 C194.087,163.469 194.584,163.256 193.788,163.719 Q192.858,164.407 192.444,165.95 Q192.031,167.493 192.493,168.554 Q192.954,169.615 194.168,169.94 Q195.428,170.278 196.291,169.617 Q197.154,168.956 197.59,167.328 Q198.028,165.692 197.61,164.693 Q197.193,163.694 195.932,163.356 L195.343,163.257 z M187.351,153.782 L188.151,153.941 L190.23,154.498 L189.844,155.938 L187.878,155.411 Q186.947,155.161 186.483,155.445 Q186.019,155.73 185.759,156.698 L185.51,157.629 L189.131,158.6 L188.77,159.945 L185.149,158.974 L182.687,168.164 L180.956,167.701 L183.418,158.511 L180.606,157.757 L180.966,156.412 L183.779,157.166 L183.975,156.432 Q184.439,154.701 185.453,154.096 C186.416,153.681 185.803,153.87 187.351,153.782 z M173.874,150.604 L175.127,150.815 Q175.823,151.001 176.479,151.333 Q177.137,151.666 177.713,152.112 L177.244,153.862 Q176.744,153.355 176.126,152.993 Q175.507,152.63 174.783,152.436 Q172.977,151.952 171.681,153.062 Q170.386,154.172 169.678,156.815 Q170.381,155.995 171.316,155.706 Q172.25,155.417 173.285,155.695 Q175.317,156.239 176.097,157.784 Q176.878,159.329 176.266,161.614 Q175.656,163.891 174.172,164.835 Q172.69,165.778 170.611,165.221 Q168.166,164.566 167.497,162.507 Q166.829,160.447 167.84,156.675 Q168.792,153.12 170.662,151.619 C172.282,150.605 171.262,151.075 173.874,150.604 z M172.147,157.041 C170.891,157.254 171.388,157.041 170.592,157.504 Q169.662,158.192 169.248,159.734 Q168.835,161.277 169.297,162.338 Q169.758,163.4 170.972,163.725 Q172.232,164.062 173.095,163.401 Q173.957,162.741 174.393,161.113 Q174.832,159.477 174.414,158.477 Q173.996,157.478 172.736,157.141 L172.147,157.041 z M165.105,147.766 L166.836,148.23 L162.914,162.867 L161.184,162.403 L161.539,161.077 Q160.897,161.741 160.068,161.957 Q159.239,162.174 158.298,161.922 Q156.389,161.41 155.69,159.635 Q154.991,157.86 155.689,155.254 Q156.378,152.686 157.87,151.518 Q159.362,150.351 161.262,150.86 Q162.212,151.115 162.827,151.717 Q163.441,152.321 163.646,153.213 L165.105,147.766 z M160.518,152.302 C159.243,152.607 159.735,152.341 158.957,152.914 Q158.043,153.768 157.504,155.781 Q156.965,157.794 157.329,158.99 Q157.695,160.187 158.945,160.522 Q160.196,160.858 161.127,159.998 Q162.058,159.139 162.593,157.144 Q163.13,155.141 162.752,153.936 Q162.374,152.73 161.123,152.395 L160.518,152.302 z M202.648,136.445 L204.548,136.954 L201.224,149.361 L204.14,150.142 L203.714,151.732 L195.963,149.655 L196.389,148.065 L199.343,148.857 L202.186,138.246 L198.193,139.001 L198.682,137.176 L202.648,136.445 z M190.988,133.123 L192.241,133.334 Q192.938,133.52 193.594,133.852 Q194.251,134.185 194.827,134.631 L194.358,136.381 Q193.859,135.874 193.24,135.512 Q192.622,135.149 191.898,134.955 Q190.092,134.471 188.796,135.581 Q187.5,136.691 186.792,139.334 Q187.496,138.514 188.43,138.225 Q189.365,137.937 190.399,138.214 Q192.431,138.758 193.212,140.303 Q193.992,141.848 193.38,144.133 Q192.77,146.41 191.287,147.354 Q189.805,148.297 187.726,147.74 Q185.28,147.085 184.612,145.026 Q183.944,142.967 184.955,139.194 Q185.907,135.639 187.776,134.138 C189.397,133.124 188.377,133.594 190.989,133.123 z M189.261,139.56 C188.006,139.773 188.503,139.56 187.706,140.023 Q186.776,140.711 186.363,142.253 Q185.95,143.796 186.411,144.857 Q186.873,145.919 188.086,146.244 Q189.347,146.582 190.209,145.92 Q191.072,145.26 191.508,143.632 Q191.947,141.996 191.529,140.996 Q191.111,139.997 189.85,139.66 L189.261,139.56 z M180.594,130.485 L182.795,131.075 L180.342,140.227 L182.215,140.729 L181.801,142.271 L179.929,141.769 L179.032,145.118 L177.142,144.612 L178.039,141.263 L172.084,139.667 L172.566,137.871 L180.594,130.485 z M180.441,132.299 L174.021,138.533 L178.452,139.721 L180.441,132.299 z M163.7,125.958 L172.542,128.328 L172.325,129.136 L163.756,141.025 L161.771,140.493 L169.997,129.359 L163.271,127.557 L163.7,125.958 z M182.96,109.032 Q183.959,109.048 184.871,109.292 Q186.931,109.844 187.893,111.276 Q188.856,112.708 188.379,114.487 Q188.137,115.39 187.477,116.181 Q186.816,116.971 185.583,117.81 Q184.893,118.281 183.601,119.094 Q182.31,119.907 179.681,121.512 L186.134,123.241 L185.706,124.84 L177.174,122.554 L177.602,120.955 Q179.858,119.573 181.556,118.505 Q183.253,117.438 183.908,116.988 Q185.156,116.093 185.676,115.471 Q186.196,114.849 186.394,114.106 Q186.71,112.93 186.197,112.077 Q185.685,111.224 184.481,110.901 Q183.625,110.672 182.6,110.73 Q181.577,110.788 180.355,111.136 L180.869,109.218 Q181.961,109.016 182.96,109.032 z M173.309,106.319 L174.562,106.53 Q175.258,106.716 175.915,107.049 Q176.572,107.381 177.148,107.827 L176.679,109.577 Q176.18,109.07 175.561,108.708 Q174.943,108.346 174.218,108.151 Q172.412,107.668 171.117,108.777 Q169.821,109.887 169.113,112.53 Q169.817,111.711 170.751,111.421 Q171.685,111.132 172.72,111.41 Q174.752,111.954 175.533,113.499 Q176.313,115.044 175.701,117.33 Q175.091,119.606 173.608,120.55 Q172.125,121.493 170.046,120.936 Q167.601,120.281 166.932,118.222 Q166.265,116.163 167.275,112.39 Q168.228,108.835 170.097,107.334 C171.718,106.321 170.698,106.79 173.309,106.319 z M171.582,112.756 C170.327,112.969 170.823,112.756 170.027,113.219 Q169.097,113.907 168.684,115.449 Q168.27,116.992 168.732,118.053 Q169.193,119.115 170.407,119.44 Q171.668,119.778 172.53,119.116 Q173.393,118.456 173.829,116.828 Q174.268,115.192 173.849,114.193 Q173.432,113.194 172.171,112.856 L171.582,112.756 z M190.824,178.736 C189.588,178.924 190.071,178.716 189.307,179.166 Q188.444,179.827 188.007,181.454 Q187.569,183.091 187.982,184.089 Q188.396,185.087 189.665,185.427 Q190.879,185.752 191.804,185.063 Q192.73,184.373 193.143,182.83 Q193.557,181.288 193.1,180.228 Q192.643,179.168 191.429,178.843 L190.824,178.736 z M212.457,145.776 C211.202,145.988 211.699,145.775 210.903,146.238 Q209.972,146.926 209.559,148.469 Q209.145,150.012 209.608,151.073 Q210.069,152.134 211.282,152.459 Q212.543,152.797 213.406,152.136 Q214.268,151.475 214.704,149.847 Q215.143,148.211 214.725,147.212 Q214.307,146.213 213.046,145.875 L212.457,145.776 z M213.674,141.059 C213.054,141.184 212.467,141.344 211.992,141.797 Q210.697,142.906 209.988,145.549 Q210.692,144.73 211.627,144.441 Q212.561,144.152 213.595,144.429 C214.706,144.825 214.267,144.566 214.975,145.091 C214.052,141.841 214.546,143.164 213.674,141.059 z M194.778,118.972 C193.523,119.184 194.02,118.971 193.223,119.434 Q192.293,120.122 191.88,121.665 Q191.466,123.208 191.928,124.269 Q192.39,125.33 193.603,125.655 Q194.864,125.993 195.726,125.332 Q196.589,124.671 197.025,123.043 Q197.463,121.407 197.045,120.408 Q196.628,119.409 195.367,119.071 L194.778,118.972 z" fill="#333333"/>
  </g>
</svg>
