<?xml version="1.0" encoding="UTF-8"?>
<!DOCTYPE svg PUBLIC "-//W3C//DTD SVG 1.1//EN" "http://www.w3.org/Graphics/SVG/1.1/DTD/svg11.dtd">
<svg version="1.1" xmlns="http://www.w3.org/2000/svg" xmlns:xlink="http://www.w3.org/1999/xlink" x="0" y="0" width="256" height="256" viewBox="0, 0, 256, 256">
  <g id="レイヤー_2">
    <path d="M77.422,204.728 C71.727,210.004 66.146,215.688 59.73,220.104 C48.415,225.217 36.153,227.128 23.93,228.605 C18.775,229.42 16.354,231.828 14.677,236.804 C14.302,237.916 14.431,239.137 14.308,240.304 L9.396,221.971 C21.973,214.034 36.826,211.736 51.268,209.525 C52.101,209.402 55.006,208.976 55.53,208.899 C57.206,208.652 58.519,208.456 59.788,208.26 C65.739,207.447 71.59,206.132 77.422,204.728 z M46.895,232.274 C39.678,234.272 32.153,235.006 24.757,235.994 C21.145,236.81 21.361,240.003 21.383,243.075 L35.354,246.818 C39.707,242.415 43.692,237.579 46.895,232.274 z M110.331,171.841 C104.632,173.294 98.916,174.665 93.098,175.561 C92.039,175.743 90.941,175.927 89.551,176.157 C89.051,176.24 86.666,176.634 86.005,176.744 C60.08,181.049 47.089,183.365 34.692,195.506 C31.64,199.432 29.662,202.892 27.907,206.392 L27.907,206.392 C35.198,204.381 42.731,203.372 50.182,202.169 C51.02,202.046 53.927,201.62 54.447,201.543 C56.108,201.299 57.406,201.104 58.656,200.911 C69.586,199.147 81.153,197.29 90.744,191.428 L110.331,171.841 z M142.35,139.822 C136.652,141.275 130.936,142.646 125.117,143.542 C124.058,143.723 122.961,143.907 121.57,144.138 C121.07,144.221 118.685,144.615 118.024,144.725 C92.099,149.029 77.977,151.489 65.581,163.63 C59.008,170.203 56.21,173.213 51.523,177.904 C62.183,173.578 73.447,171.201 84.787,169.409 C85.451,169.299 87.837,168.905 88.334,168.822 C89.713,168.594 90.799,168.411 91.843,168.232 C103.147,166.218 115.009,164.097 124.662,157.509 L142.35,139.822 z M174.564,107.608 C168.866,109.061 163.15,110.432 157.331,111.328 C156.272,111.509 155.175,111.693 153.784,111.924 C153.284,112.007 150.899,112.401 150.238,112.511 C124.313,116.815 110.586,119.103 98.19,131.244 C93.043,136.375 88.286,141.132 83.529,145.889 C94.194,141.562 105.461,139.182 116.807,137.39 C117.471,137.28 119.857,136.885 120.354,136.803 C121.732,136.574 122.818,136.392 123.863,136.213 C135.166,134.199 147.028,132.078 156.682,125.49 L174.564,107.608 z M246.604,35.546 L220.24,9.182 C167.871,61.551 203.753,25.66 151.387,78.032 C159.17,75.597 166.243,74.339 174.259,72.936 L180.974,79.448 C180.047,79.602 176.886,80.125 176.483,80.191 C162.989,82.515 148.892,84.871 137.12,92.298 C129.534,99.884 136.66,92.758 115.742,113.676 C126.407,109.349 137.675,106.968 149.021,105.176 C149.685,105.066 152.071,104.671 152.568,104.589 C153.946,104.36 155.032,104.178 156.077,103.999 C167.38,101.985 179.242,99.864 188.896,93.276 L246.604,35.546 z" fill="#383838"/>
  </g>
</svg>
