<?xml version="1.0" encoding="UTF-8"?>
<!DOCTYPE svg PUBLIC "-//W3C//DTD SVG 1.1//EN" "http://www.w3.org/Graphics/SVG/1.1/DTD/svg11.dtd">
<svg version="1.1" xmlns="http://www.w3.org/2000/svg" xmlns:xlink="http://www.w3.org/1999/xlink" x="0" y="0" width="249.067" height="249.056" viewBox="0, 0, 249.067, 249.056">
  <g id="レイヤー_2" transform="translate(-3.467, -3.472)">
    <path d="M196.899,125.28 L177.86,144.319 C164.964,157.133 151.395,169.247 137.224,180.63 C128.929,185.066 120.108,188.392 111.228,191.439 C90.682,198.238 67.502,202.629 37.724,205.961 C33.998,206.569 33.11,206.533 29.03,208.389 C19.991,212.502 16.595,223.029 15.737,232.138 L3.467,186.344 C10.223,180.325 17.255,174.629 24.316,168.974 C32.03,166.196 28.557,167.367 34.706,165.38 C51.255,160.23 65.425,157.621 94.804,153.526 C95.373,153.447 97.308,153.178 97.525,153.148 C126.989,149.043 141.124,146.495 158.179,141.423 C171.61,137.432 184.678,132.153 196.899,125.28 z M104.343,205.661 C82.912,211.361 61.1,215.327 39.018,217.524 C34.578,218.022 31.757,219.727 29.825,223.39 C27.178,228.869 26.852,235.115 27.009,241.102 L69.651,252.528 C83.273,238.662 95.878,223.223 104.343,205.661 z M252.533,49.788 L207.019,4.274 L186.327,4.273 L186.327,3.472 C164.73,25.044 143.135,46.619 121.547,68.2 L120.381,69.366 C136.023,65.346 151.979,62.708 167.888,60.002 C168.932,59.829 174.087,58.956 176.456,58.561 L186.842,68.947 C184.464,69.344 170.83,71.309 169.794,71.481 C147.321,75.232 124.727,79.118 103.139,86.603 C94.272,95.468 101.773,87.968 80.653,109.12 C78.733,111.046 76.812,112.97 74.903,114.908 C65.597,124.906 58.568,136.921 52.026,148.818 C65.614,145.804 79.436,144 93.198,142.002 C93.768,141.923 95.703,141.653 95.919,141.623 C124.821,137.597 138.541,135.124 154.863,130.27 C173.658,124.904 191.159,116.215 207.169,105.094 L232.087,90.194 L252.533,69.645 L252.533,49.788 z" fill="#1C1C1C"/>
  </g>
</svg>
