<?xml version="1.0" encoding="UTF-8"?>
<!DOCTYPE svg PUBLIC "-//W3C//DTD SVG 1.1//EN" "http://www.w3.org/Graphics/SVG/1.1/DTD/svg11.dtd">
<svg version="1.1" xmlns="http://www.w3.org/2000/svg" xmlns:xlink="http://www.w3.org/1999/xlink" x="0" y="0" width="256" height="256" viewBox="0, 0, 256, 256">
  <g id="レイヤー_1">
    <path d="M190.349,9.174 C193.232,9.248 195.716,10.238 197.864,12.128 L201.946,16.21 C206.301,20.564 205.824,29.117 200.673,34.595 C199.523,35.824 188.943,46.489 181.875,53.557 C180.761,54.487 181.268,54.22 180.482,54.568 C180.095,55.293 180.363,54.865 179.575,55.778 C179.256,56.096 179.376,55.976 179.215,56.138 C178.335,56.905 178.766,56.617 177.967,57.066 C177.558,57.862 177.85,57.385 176.943,58.395 C173.691,61.387 170.313,64.698 166.736,68.376 C161.136,74.136 144.889,92.011 142.668,94.233 C140.483,96.468 138.923,96.83 136.033,97.572 L135.782,97.902 C135.653,98.079 135.568,98.203 135.541,98.243 C135.319,98.58 135.063,98.893 134.777,99.179 C133.605,100.351 132.163,100.889 130.741,100.952 C129.965,100.986 129.301,100.881 128.675,100.695 C128.064,100.513 127.576,100.282 127.083,99.995 L126.826,99.83 L125.955,100.757 C124.528,102.27 123.098,103.781 121.648,105.271 C121.886,105.855 122.253,106.402 122.363,107.023 C122.761,109.261 122.085,110.737 120.728,112.407 L24.69,208.956 C22.349,211.31 18.541,211.315 16.193,208.967 L5.103,197.877 C2.755,195.529 2.761,191.721 5.114,189.38 L101.671,93.349 C103.146,91.982 105.04,91.356 107.054,91.714 C107.676,91.825 108.223,92.192 108.807,92.43 C110.602,90.691 112.415,88.97 114.235,87.257 L114.042,86.958 C113.756,86.468 113.525,85.982 113.342,85.375 C113.155,84.752 113.047,84.091 113.078,83.318 C113.134,81.888 113.67,80.436 114.852,79.254 C115.012,79.094 115.181,78.943 115.358,78.802 C115.435,78.741 115.597,78.609 115.813,78.427 C116.412,77.913 116.176,78.123 116.528,77.806 C116.857,75.238 118.164,73.267 119.834,71.392 C122.052,69.175 139.927,52.932 145.69,47.326 C149.368,43.75 152.679,40.371 155.701,37.085 C156.682,36.189 156.211,36.495 157.03,36.05 C157.455,35.296 157.177,35.713 157.933,34.849 C158.107,34.674 158.107,34.674 158.293,34.489 C159.209,33.698 158.778,33.967 159.512,33.576 C159.848,32.811 159.587,33.315 160.517,32.199 C167.916,24.8 178.28,14.517 179.473,13.406 C182.859,10.327 185.908,9.465 190.349,9.174 z M107.276,104.699 L17.842,193.646 L20.425,196.228 L109.377,106.803 L109.375,104.702 L107.276,104.699 z M189.769,21.182 C189.086,21.22 188.361,21.522 187.666,22.174 C181.784,27.92 175.965,33.731 170.147,39.541 C169.256,41.923 169.858,40.932 168.506,42.607 C167.52,43.45 168.012,43.136 167.077,43.619 C166.547,44.593 166.878,44.099 166.036,45.069 C165.23,45.912 164.205,46.439 163.096,46.747 C160.187,49.908 157.118,52.917 154.057,55.929 C145.719,64 136.978,71.643 128.567,79.635 C128.334,82.216 128.659,81.128 127.861,82.968 C127.337,83.801 127.599,83.446 127.107,84.052 C127.853,85.029 127.473,84.411 128.063,86.007 C129.606,86.575 129.035,86.215 129.895,86.869 C130.811,86.217 130.251,86.577 131.624,85.866 C133.278,85.349 132.352,85.521 134.427,85.497 C142.379,77.049 150.088,68.371 158.133,60.01 C161.127,56.93 164.178,53.903 167.316,50.969 C167.506,49.813 168.242,48.884 168.991,48.03 C169.971,47.181 169.472,47.514 170.454,46.983 C170.937,46.057 170.624,46.544 171.46,45.568 C173.141,44.22 172.155,44.806 174.502,43.957 C180.266,38.06 186.216,32.341 191.921,26.385 C192.553,25.713 192.854,24.991 192.892,24.308 L192.891,24.125 C191.909,23.145 190.93,22.163 189.949,21.183 L189.769,21.182 z M167.241,54.654 C167.264,54.794 167.245,54.711 167.314,54.896 L167.241,54.654 z M167.045,53.093 C167.008,53.308 167.008,53.202 167.041,53.409 L167.045,53.093 z M169.789,52.42 C169.79,52.422 169.79,52.424 169.79,52.426 C169.888,52.688 169.985,52.949 170.082,53.211 L169.789,52.42 z M178.825,51.538 L178.822,51.539 L178.856,51.794 L178.825,51.538 z M160.218,46.984 C160.524,47.054 160.385,47.054 160.635,47.019 C160.345,47.022 160.484,47.035 160.218,46.984 z M160.874,43.975 L160.869,43.985 L161.254,44.127 L160.874,43.975 z M176.657,43.585 L176.32,43.606 L176.272,43.614 L176.929,43.599 L176.657,43.585 z M158.533,38.181 L158.531,38.224 L158.54,38.323 L158.533,38.181 z M170.49,37.293 L170.478,37.69 C170.497,37.363 170.5,37.495 170.49,37.293 z M162.479,35.231 L162.543,35.248 L162.545,35.239 L162.479,35.231 z M165.211,32.835 L165.484,32.935 C165.233,32.835 165.329,32.852 165.211,32.835 z" fill="#797979"/>
    <path d="M238.099,50.483 C240.982,50.557 243.466,51.546 245.614,53.437 C247.657,55.479 247.657,55.479 249.696,57.519 C254.051,61.873 253.574,70.426 248.423,75.904 C247.273,77.133 236.693,87.798 229.625,94.866 C228.511,95.796 229.018,95.529 228.232,95.876 C227.845,96.602 228.113,96.174 227.325,97.087 C227.268,97.143 227.268,97.143 227.145,97.266 C227.018,97.393 227.018,97.393 226.965,97.447 C226.085,98.214 226.516,97.926 225.717,98.375 C225.308,99.171 225.6,98.694 224.693,99.704 C221.441,102.696 218.063,106.007 214.486,109.685 C208.886,115.445 192.639,133.32 190.418,135.542 C188.233,137.777 186.673,138.139 183.783,138.881 L183.532,139.211 C183.403,139.388 183.318,139.512 183.291,139.552 C183.069,139.888 182.813,140.202 182.527,140.488 C181.355,141.66 179.913,142.198 178.491,142.261 C177.715,142.295 177.051,142.19 176.425,142.004 C175.814,141.822 175.326,141.591 174.833,141.304 L174.577,141.139 L173.705,142.066 C172.278,143.579 170.849,145.089 169.399,146.579 C169.634,147.151 169.993,147.686 170.106,148.294 C170.51,150.486 169.874,151.946 168.576,153.615 C108.52,216.888 88.594,234.344 68.723,244.325 C68.299,244.538 67.857,244.758 67.342,245.013 C67.027,245.17 65.457,245.947 65.013,246.167 C59.55,248.881 53.993,242.657 57.306,237.535 C57.884,236.641 58.413,235.811 59.278,234.44 C59.33,234.358 59.33,234.358 59.382,234.276 C65.932,223.897 70.126,218.133 80.458,206.266 C94.042,190.666 115.746,168.046 149.428,134.651 C151.319,132.947 154.314,132.201 156.598,133.7 C158.38,131.974 160.179,130.266 161.985,128.566 L161.792,128.267 C161.506,127.777 161.275,127.291 161.092,126.684 C160.905,126.061 160.797,125.4 160.828,124.627 C160.885,123.197 161.42,121.745 162.602,120.563 C162.762,120.403 162.931,120.252 163.108,120.111 C163.185,120.05 163.347,119.918 163.563,119.736 C164.162,119.222 163.926,119.432 164.278,119.115 C164.607,116.547 165.914,114.576 167.584,112.701 C169.802,110.484 187.677,94.241 193.44,88.635 C197.118,85.059 200.43,81.68 203.451,78.394 C204.432,77.498 203.961,77.803 204.78,77.359 C205.205,76.605 204.928,77.022 205.683,76.157 L206.043,75.798 C206.959,75.007 206.528,75.276 207.263,74.885 C207.598,74.119 207.337,74.624 208.267,73.508 C215.666,66.109 226.03,55.825 227.223,54.715 C230.609,51.636 233.658,50.773 238.099,50.483 z M155.047,145.982 C132.786,168.291 110.321,190.458 89.509,214.146 C87.071,216.96 88.311,215.516 85.79,218.481 C111.232,196.786 134.179,172.334 157.218,148.148 L157.201,146.027 C155.206,146.071 155.892,146.283 155.047,145.982 z M237.519,62.491 C236.836,62.529 236.111,62.831 235.416,63.483 C229.534,69.229 223.715,75.04 217.897,80.85 C217.006,83.232 217.608,82.241 216.256,83.916 C215.27,84.759 215.762,84.445 214.827,84.928 C214.297,85.902 214.628,85.408 213.786,86.378 C212.981,87.221 211.955,87.748 210.846,88.056 C207.937,91.217 204.868,94.226 201.807,97.238 C193.469,105.309 184.728,112.952 176.317,120.944 C176.084,123.525 176.409,122.437 175.611,124.277 C175.087,125.11 175.349,124.755 174.857,125.361 C175.603,126.338 175.223,125.72 175.814,127.316 C177.356,127.884 176.785,127.524 177.645,128.178 C178.562,127.526 178.001,127.886 179.374,127.175 C181.028,126.657 180.102,126.829 182.177,126.806 C190.129,118.358 197.838,109.68 205.883,101.319 C208.877,98.239 211.928,95.212 215.066,92.278 C215.256,91.122 215.992,90.193 216.741,89.339 C217.721,88.49 217.222,88.823 218.204,88.292 C218.687,87.366 218.374,87.853 219.21,86.877 C220.891,85.529 219.905,86.114 222.252,85.266 C228.016,79.368 233.966,73.65 239.671,67.694 C240.303,67.022 240.604,66.3 240.642,65.617 L240.641,65.434 C239.661,64.452 238.679,63.473 237.699,62.492 L237.519,62.491 z M214.991,95.963 C215.014,96.103 214.995,96.02 215.064,96.205 L214.991,95.963 z M214.795,94.402 C214.758,94.616 214.758,94.511 214.791,94.718 L214.795,94.402 z M217.54,93.729 C217.54,93.731 217.54,93.733 217.54,93.735 C217.638,93.996 217.735,94.258 217.832,94.52 L217.54,93.729 z M226.575,92.847 L226.572,92.848 L226.606,93.103 L226.575,92.847 z M207.97,88.294 C208.274,88.363 208.135,88.363 208.384,88.328 C208.096,88.331 208.234,88.344 207.97,88.294 z M208.624,85.284 L208.619,85.294 L209.006,85.436 L208.624,85.284 z M224.407,84.894 L224.07,84.915 L224.022,84.923 L224.679,84.908 L224.407,84.894 z M206.283,79.49 L206.282,79.533 L206.29,79.632 L206.283,79.49 z M218.24,78.602 L218.228,78.999 C218.247,78.672 218.25,78.804 218.24,78.602 z M210.228,76.54 L210.293,76.557 L210.296,76.548 L210.228,76.54 z M212.961,74.144 L213.236,74.245 C212.983,74.144 213.079,74.161 212.961,74.144 z" fill="#797979"/>
  </g>
</svg>
