<?xml version="1.0" encoding="UTF-8"?>
<!DOCTYPE svg PUBLIC "-//W3C//DTD SVG 1.1//EN" "http://www.w3.org/Graphics/SVG/1.1/DTD/svg11.dtd">
<svg version="1.1" xmlns="http://www.w3.org/2000/svg" xmlns:xlink="http://www.w3.org/1999/xlink" x="0" y="0" width="256" height="256" viewBox="0, 0, 256, 256">
  <g id="レイヤー_1">
    <path d="M130.987,2.651 C131.048,2.712 131.048,2.712 131.338,3.001 C131.735,3.396 131.735,3.396 132.33,3.989 C133.398,5.053 134.588,6.239 135.869,7.517 C139.531,11.167 143.192,14.822 146.61,18.238 L146.702,18.33 C154.941,26.567 160.397,32.053 161.905,33.638 C167.85,39.884 168.407,54.892 160.959,62.34 C158.094,65.205 130.813,92.447 87.111,136.082 C87.109,136.084 87.109,136.084 87.107,136.086 C70.899,152.269 53.533,169.609 36.167,186.948 C30.089,193.016 24.445,198.652 19.379,203.709 C14.17,208.91 14.17,208.91 13.012,210.066 L7.359,204.405 C8.517,203.249 8.517,203.249 13.727,198.048 C18.792,192.99 24.436,187.355 30.514,181.286 C47.88,163.947 65.246,146.608 81.454,130.425 L81.458,130.42 C125.153,86.793 152.44,59.546 155.302,56.683 C157.498,54.488 158.578,51.002 158.429,47.015 C158.302,43.572 157.212,40.311 156.11,39.154 C154.672,37.643 149.2,32.139 141.046,23.988 C141,23.942 141,23.942 140.954,23.896 C137.539,20.483 133.88,16.83 130.221,13.182 C128.94,11.905 127.751,10.72 126.683,9.656 C126.089,9.064 126.089,9.064 125.692,8.669 C125.403,8.381 125.403,8.381 125.342,8.32 L130.987,2.651 z" fill="#777777"/>
    <path d="M170.102,5.766 C170.163,5.827 170.163,5.827 170.453,6.115 C170.85,6.511 170.85,6.511 171.445,7.103 C172.513,8.168 173.703,9.354 174.984,10.631 C178.646,14.282 182.308,17.937 185.726,21.354 C185.772,21.4 185.772,21.4 185.818,21.446 C194.068,29.693 199.521,35.177 201.039,36.772 C207.343,43.396 207.924,59.021 200.075,66.87 C197.203,69.742 166.671,100.222 117.549,149.255 L117.544,149.26 C99.444,167.328 80.051,186.687 60.657,206.045 C53.869,212.82 47.567,219.112 41.91,224.758 C38.759,227.904 38.759,227.904 36.658,230.001 C35.123,231.533 35.123,231.533 34.799,231.856 L27.735,224.778 C28.058,224.456 28.058,224.456 29.593,222.923 C31.694,220.826 31.694,220.826 34.846,217.68 C40.502,212.034 46.805,205.743 53.592,198.968 C72.986,179.609 92.379,160.251 110.48,142.183 C110.482,142.181 110.482,142.181 110.485,142.178 C159.594,93.157 190.136,62.667 193.004,59.799 C194.981,57.822 195.978,54.606 195.839,50.874 C195.776,49.178 195.475,47.5 194.997,46.072 C194.601,44.886 194.128,44.015 193.795,43.666 C189.32,39.074 184.776,34.549 180.243,30.013 C178.687,28.457 179.216,28.985 178.656,28.426 C175.242,25.013 171.583,21.361 167.924,17.713 C166.643,16.436 165.454,15.251 164.387,14.188 C163.792,13.595 163.792,13.595 163.396,13.201 C163.107,12.912 163.107,12.912 163.046,12.852 L170.102,5.766 z" fill="#777777"/>
    <path d="M211.209,6.407 C211.441,6.638 211.441,6.638 212.485,7.675 C213.501,8.684 214.632,9.809 215.85,11.02 C219.33,14.48 222.811,17.94 226.059,21.171 C226.066,21.177 226.066,21.177 226.072,21.183 C233.49,28.56 238.578,33.624 240.298,35.344 C252.073,47.12 251.298,58.913 238.511,72.288 C235.641,75.29 202.172,108.574 147.568,162.77 C147.497,162.841 147.497,162.841 147.426,162.912 C127.484,182.705 106.118,203.903 84.751,225.096 C77.273,232.513 70.329,239.4 64.097,245.58 C61.916,247.743 59.979,249.663 58.31,251.318 C56.619,252.995 56.619,252.995 56.262,253.349 L47.813,244.827 C48.169,244.474 48.169,244.474 49.861,242.797 C51.53,241.142 53.466,239.222 55.647,237.059 C61.879,230.88 68.823,223.993 76.3,216.576 C97.666,195.384 119.032,174.187 138.973,154.395 C139.044,154.324 139.044,154.324 139.115,154.253 C193.245,100.527 227.089,66.87 229.837,63.996 C238.374,55.066 238.663,50.679 231.812,43.829 C230.104,42.121 225.016,37.057 217.61,29.692 C217.604,29.686 217.604,29.686 217.598,29.679 C214.35,26.45 210.87,22.99 207.39,19.53 C206.172,18.319 205.041,17.195 204.026,16.186 C202.982,15.149 202.982,15.149 202.75,14.918 L211.209,6.407 z" fill="#777777"/>
  </g>
</svg>
