<?xml version="1.0" encoding="UTF-8"?>
<!DOCTYPE svg PUBLIC "-//W3C//DTD SVG 1.1//EN" "http://www.w3.org/Graphics/SVG/1.1/DTD/svg11.dtd">
<svg version="1.1" xmlns="http://www.w3.org/2000/svg" xmlns:xlink="http://www.w3.org/1999/xlink" x="0" y="0" width="256" height="256" viewBox="0, 0, 256, 256">
  <g id="レイヤー_1">
    <path d="M54.203,172.65 L58.047,165.897 C54.693,164.421 55.63,160.66 55.789,158.943 C56.217,156.401 56.676,153.759 55.784,151.144 C55.295,149.785 54.686,148.802 53.898,147.933 C51.767,145.616 50.548,144.339 49.541,143.758 C47.656,142.871 46.68,141.764 47.16,139.416 C47.837,136.109 50.972,136.098 50.972,136.098 C53.416,135.78 57.958,135.188 61.065,132.59 C64.523,129.723 68.282,124.775 68.396,120.636 C68.572,115.094 72.826,87.875 84.467,63.579 C96.848,37.807 118.721,14.364 118.925,14.147 C120.694,12.379 126.652,8.398 132.848,11.244 C136.191,13.116 139.84,16.201 140.01,18.636 C140.18,21.07 138.256,22.361 133.492,27.739 C125.447,36.821 111.781,53.451 104.047,72.28 C96.877,89.739 90.788,132.01 90.178,134.537 C88.18,142.894 78.162,170.445 76.903,173.447" fill-opacity="0" stroke="#797979" stroke-width="12" stroke-linecap="round" stroke-linejoin="round"/>
    <path d="M68.447,200.624 C62.033,200.624 56.834,195.425 56.834,189.011 C56.834,182.598 62.033,177.398 68.447,177.398 C74.861,177.398 80.06,182.598 80.06,189.011 C80.06,195.425 74.861,200.624 68.447,200.624 z" fill-opacity="0" stroke="#797979" stroke-width="8"/>
    <path d="M77.112,195.834 C77.112,195.834 79.604,198.892 84.282,203.949 C74.304,227.711 53.255,244.02 35.881,246.752 C35.881,246.752 51.228,219.68 55.494,212.099 C58.227,207.243 62.481,199.754 62.481,199.754" fill-opacity="0" stroke="#797979" stroke-width="12" stroke-linejoin="round"/>
    <path d="M84.35,204.855 L91.103,201.01 C92.579,204.365 96.34,203.427 98.057,203.269 C100.599,202.84 103.241,202.381 105.856,203.274 C107.215,203.762 108.198,204.372 109.067,205.16 C111.384,207.29 112.661,208.51 113.242,209.516 C114.129,211.402 115.236,212.378 117.584,211.897 C120.891,211.221 120.902,208.085 120.902,208.085 C121.22,205.642 121.812,201.1 124.41,197.993 C127.277,194.534 132.225,190.776 136.364,190.661 C141.906,190.485 169.125,186.232 193.421,174.591 C219.193,162.21 242.636,140.337 242.853,140.133 C244.621,138.364 248.602,132.406 245.756,126.21 C243.884,122.867 240.799,119.218 238.364,119.048 C235.93,118.878 234.639,120.801 229.261,125.566 C220.179,133.611 203.549,147.277 184.72,155.01 C167.261,162.181 124.99,168.269 122.463,168.88 C114.106,170.878 86.555,180.896 83.553,182.154" fill-opacity="0" stroke="#797979" stroke-width="12" stroke-linecap="round" stroke-linejoin="round"/>
    <path d="M61.281,181.946 C61.281,181.946 58.223,179.454 53.165,174.776 C29.403,184.754 13.095,205.803 10.363,223.177 L57.36,196.577" fill-opacity="0" stroke="#797979" stroke-width="12" stroke-linejoin="round"/>
  </g>
</svg>
