<?xml version="1.0" encoding="UTF-8"?>
<!DOCTYPE svg PUBLIC "-//W3C//DTD SVG 1.1//EN" "http://www.w3.org/Graphics/SVG/1.1/DTD/svg11.dtd">
<svg version="1.1" xmlns="http://www.w3.org/2000/svg" xmlns:xlink="http://www.w3.org/1999/xlink" x="0" y="0" width="256" height="256" viewBox="0, 0, 256, 256">
  <g id="レイヤー_1">
    <path d="M127.545,3.728 C130.084,3.674 132.458,4.367 134.777,5.311 C134.922,5.377 135.064,5.45 135.204,5.528 C140.765,8.642 145.077,12.82 145.42,17.737 C145.514,19.087 145.342,20.395 144.887,21.664 C144.272,23.383 143.352,24.68 141.723,26.507 C141.437,26.828 138.526,29.974 137.408,31.237 C125.013,45.229 115.087,59.313 109.022,74.079 C106.704,79.723 104.259,88.853 101.804,100.498 C99.363,112.083 95.209,136.402 95.438,135.452 C93.742,142.549 84.338,169.379 81.861,175.286 L81.605,175.757 C94.486,171.242 107.211,165.896 120.478,162.567 C119.543,162.793 143.861,158.639 155.446,156.198 C167.091,153.743 176.221,151.298 181.865,148.979 C196.631,142.915 210.716,132.989 224.707,120.594 C225.97,119.476 229.116,116.565 229.437,116.279 C231.264,114.65 232.561,113.73 234.28,113.115 C235.872,112.637 234.908,112.871 237.203,112.561 L238.207,112.582 C243.124,112.925 247.303,117.237 250.416,122.798 C250.494,122.938 250.567,123.08 250.633,123.225 C254.166,130.918 251.343,139.071 246.521,143.894 L246.399,144.012 C246.224,144.178 245.743,144.62 245.166,145.14 C244.253,145.963 243.196,146.896 242.009,147.922 C238.655,150.82 234.896,153.907 230.815,157.062 C219.144,166.083 207.159,173.891 195.438,179.522 C184.147,184.931 171.504,189.188 158.691,192.278 C149.259,194.552 140.099,196.047 135.955,196.178 C134.292,196.225 130.792,198.522 128.438,201.361 C127.982,201.906 127.57,202.694 127.227,203.702 C126.709,205.178 126.507,206.738 126.291,208.279 C126.264,208.763 126.29,208.386 126.135,209.4 C125.917,210.487 125.526,211.58 124.896,212.639 C123.502,214.985 121.199,216.684 118.212,217.295 C113.316,218.155 109.853,216.333 107.48,212.03 L107.471,212.036 C107.488,212.066 107.324,211.866 106.94,211.474 C106.432,210.954 105.739,210.299 104.461,209.123 C104.141,208.833 103.826,208.646 103.343,208.472 C103.166,208.411 102.976,208.366 102.766,208.334 C101.907,208.206 100.949,208.288 98.647,208.676 C98.563,208.69 98.563,208.69 98.478,208.705 C98.331,208.729 98.182,208.749 98.033,208.762 C97.943,208.771 97.83,208.785 97.3,208.852 C95.902,209.026 94.858,209.086 93.613,208.977 C91.43,208.667 92.535,208.877 89.691,207.91 L87.773,209.002 C78.047,229.933 59.184,247.542 36.238,252.198 C31.276,252.978 27.609,247.681 30.086,243.312 C30.248,243.027 30.248,243.027 30.976,241.743 C31.683,240.495 32.471,239.104 33.32,237.605 C35.746,233.325 38.172,229.043 40.436,225.044 C40.445,225.028 40.445,225.028 40.454,225.012 C44.853,217.243 48.095,211.51 49.69,208.675 C50.499,207.239 50.039,208.056 51.073,206.223 L12.743,227.917 C8.374,230.391 3.081,226.724 3.861,221.764 C8.446,198.294 26.895,179.43 48.187,169.713 L48.413,169.201 L50.091,166.253 C49.111,163.413 49.342,164.512 49.025,162.331 C48.916,161.086 48.976,160.042 49.15,158.644 C49.217,158.114 49.231,158.001 49.239,157.911 C49.253,157.762 49.272,157.613 49.297,157.466 C49.312,157.381 49.312,157.381 49.326,157.297 C49.714,154.995 49.796,154.037 49.668,153.178 C49.636,152.968 49.591,152.779 49.563,152.693 C49.356,152.118 49.169,151.803 48.906,151.514 C47.703,150.206 47.048,149.512 46.528,149.004 C46.136,148.62 45.936,148.456 45.966,148.473 L45.972,148.464 C41.441,146.174 40.091,142.554 40.707,137.732 C41.318,134.745 43.016,132.442 45.362,131.048 C46.422,130.419 47.515,130.028 48.602,129.809 C49.615,129.654 49.239,129.68 49.722,129.654 C51.276,129.484 52.806,129.17 54.3,128.717 C55.308,128.374 56.096,127.963 56.66,127.49 C59.48,125.153 61.777,121.652 61.824,119.964 C61.955,115.846 63.45,106.685 65.724,97.253 C68.814,84.44 73.071,71.797 78.483,60.5 C84.111,48.785 91.919,36.8 100.94,25.129 C104.095,21.048 107.182,17.29 110.08,13.935 C111.106,12.748 112.039,11.692 112.862,10.779 C113.382,10.202 113.824,9.72 113.99,9.545 L114.107,9.424 C118.137,5.508 122.059,4.178 127.545,3.728 z M74.752,202.497 C72.625,203.683 70.26,204.023 67.872,204.143 C66.218,204.06 66.798,204.169 66.106,204.028 L65.682,204.775 C64.601,206.681 63.521,208.589 62.512,210.372 C62.497,210.399 62.497,210.399 62.482,210.426 C61.597,211.99 60.81,213.384 60.148,214.561 C58.545,217.408 55.301,223.146 50.896,230.925 C50.887,230.941 50.887,230.941 50.878,230.957 L48.564,235.043 C60.551,228.313 70.887,217.115 76.609,204.577 C75.989,203.884 75.363,203.197 74.752,202.497 z M51.482,181.393 C39.243,187.48 27.406,197.138 21.009,209.45 L52.657,191.538 C52.297,190.298 52.556,191.275 52.259,188.531 C52.253,186.648 52.587,184.773 53.32,183.038 C52.704,182.493 52.094,181.942 51.482,181.393 z M237.454,125.209 L237.422,125.237 C237.216,125.42 234.052,128.347 232.664,129.577 C217.752,142.787 202.699,153.395 186.424,160.08 C179.929,162.747 170.232,165.345 157.92,167.94 C145.955,170.462 121.878,174.574 123.283,174.235 C116.918,175.757 90.657,184.96 85.298,187.207 C83.913,187.63 84.541,187.563 83.436,187.561 L83.485,188.531 C83.423,190.153 83.349,191.832 82.706,193.356 L82.906,193.59 C84.525,195.444 83.667,194.474 85.482,196.498 L87.56,195.315 C89.449,194.35 91.635,194.23 93.529,195.333 C94.144,195.884 94.758,196.435 95.373,196.987 C95.373,196.987 95.374,196.988 95.374,196.989 L95.823,196.943 C96.509,196.857 96.232,196.888 96.651,196.843 L96.654,196.843 C100.18,196.249 102.024,196.09 104.539,196.466 C105.45,196.602 106.343,196.816 107.311,197.147 C109.349,197.88 111.026,198.878 112.552,200.262 C114.172,201.76 113.317,200.956 115.111,202.677 C115.479,200.917 115.242,201.867 115.865,199.84 C116.653,197.525 117.738,195.45 119.215,193.683 C123.542,188.464 129.821,184.344 135.598,184.184 C138.764,184.083 147.175,182.711 155.878,180.612 C167.927,177.706 179.791,173.712 190.248,168.702 C201.099,163.489 212.417,156.116 223.476,147.568 C227.377,144.553 230.968,141.602 234.164,138.841 C235.287,137.872 236.28,136.995 237.131,136.227 C237.431,135.957 237.692,135.72 237.91,135.518 L238.056,135.384 C238.547,134.807 238.285,135.139 238.821,134.372 C239.215,133.755 239.552,133.075 239.79,132.388 C240.17,130.954 240.253,131.043 240.06,129.209 C240.029,128.92 239.873,128.658 239.779,128.383 C239.144,127.228 238.328,126.19 237.454,125.209 z M67.872,180.918 C63.667,180.918 60.259,184.326 60.259,188.531 C60.259,192.735 63.667,196.144 67.872,196.143 C72.076,196.144 75.485,192.735 75.485,188.531 C75.485,184.326 72.076,180.918 67.872,180.918 z M128.563,15.834 C126.291,15.913 127.266,15.748 125.614,16.154 C124.927,16.392 124.247,16.729 123.63,17.124 C122.863,17.659 123.195,17.397 122.618,17.888 L122.483,18.034 C122.282,18.253 122.045,18.513 121.775,18.813 C121.007,19.665 120.13,20.658 119.161,21.78 C116.4,24.976 113.449,28.568 110.434,32.468 C101.886,43.528 94.513,54.845 89.302,65.691 C84.29,76.153 80.296,88.017 77.39,100.066 C75.291,108.769 73.919,117.181 73.819,120.321 C73.658,126.123 69.538,132.402 64.338,136.712 C62.552,138.206 60.477,139.292 58.162,140.079 C56.135,140.703 57.084,140.465 55.324,140.833 C57.067,142.651 56.255,141.786 57.768,143.422 C59.124,144.918 60.122,146.595 60.887,148.725 C61.186,149.601 61.4,150.494 61.536,151.405 C61.912,153.92 61.753,155.764 61.159,159.29 L61.158,159.293 C61.114,159.712 61.145,159.436 61.058,160.121 L61.013,160.57 C61.014,160.571 61.014,160.571 61.015,160.572 C61.566,161.186 62.253,161.701 62.669,162.415 C63.859,164.46 63.569,166.356 62.687,168.384 L60.071,172.979 L61.577,174.317 C63.515,173.263 65.71,173.027 67.872,172.918 C69.766,173.02 68.913,172.899 70.441,173.209 C70.439,171.403 70.303,172.255 70.795,170.646 C73.042,165.288 82.245,139.026 83.77,132.648 C83.428,134.067 87.54,109.99 90.062,98.024 C92.657,85.712 95.254,76.015 97.922,69.52 C104.607,53.245 115.215,38.192 128.425,23.28 C129.655,21.892 132.582,18.728 132.765,18.523 L132.793,18.49 C131.847,17.574 130.745,16.84 129.619,16.165 L128.563,15.834 z" fill="#797979"/>
  </g>
</svg>
