<?xml version="1.0" encoding="UTF-8"?>
<!DOCTYPE svg PUBLIC "-//W3C//DTD SVG 1.1//EN" "http://www.w3.org/Graphics/SVG/1.1/DTD/svg11.dtd">
<svg version="1.1" xmlns="http://www.w3.org/2000/svg" xmlns:xlink="http://www.w3.org/1999/xlink" x="0" y="0" width="256" height="256" viewBox="0, 0, 256, 256">
  <g id="レイヤー_1">
    <path d="M182.552,3.262 C186.839,3.451 190.536,5.178 193.986,7.6 C194.109,7.702 194.228,7.809 194.342,7.921 C199.354,12.802 202.749,18.474 201.749,23.613 C201.331,25.76 200.325,27.552 198.75,29.096 C197.725,30.101 196.614,30.902 194.669,32.144 C194.197,32.446 192.361,33.602 192.25,33.672 C191.178,34.35 190.267,34.936 189.308,35.57 C171.467,47.362 156.325,59.991 145.225,74.545 C142.309,78.369 138.808,84.043 134.872,91.23 C132.964,94.714 130.975,98.515 128.915,102.599 C122.968,114.387 111.637,139.054 112.102,138.2 C109.076,143.525 105.652,148.614 102.272,153.717 C107.401,150.39 112.428,146.87 117.777,143.894 C116.936,144.352 141.602,133.022 153.391,127.074 C157.474,125.014 161.275,123.025 164.759,121.117 C171.947,117.181 177.62,113.68 181.444,110.764 C195.999,99.665 208.627,84.522 220.419,66.681 C221.053,65.722 221.639,64.811 222.317,63.739 C222.387,63.629 223.544,61.792 223.845,61.32 C225.088,59.375 225.888,58.264 226.893,57.239 C228.437,55.665 230.229,54.658 232.377,54.24 C237.516,53.24 243.187,56.635 248.069,61.647 C248.18,61.761 248.287,61.88 248.389,62.003 C254.283,69.111 253.607,78.553 249.877,85.014 L249.791,85.159 C249.651,85.387 249.255,86.01 248.776,86.748 C248.017,87.918 247.133,89.251 246.132,90.725 C243.303,94.892 240.085,99.387 236.533,104.051 C226.38,117.379 215.528,129.466 204.339,139.077 C193.556,148.32 180.943,156.702 167.799,163.856 C158.134,169.116 148.54,173.441 144.085,174.788 C141.992,175.411 138.661,179.145 136.819,183.159 C136.54,183.759 136.335,184.49 136.21,185.345 C135.973,186.959 136.033,188.748 136.319,191.057 C136.384,191.571 136.352,191.321 136.416,191.805 L136.479,192.16 C136.779,194.136 136.604,196.289 135.548,198.462 C134.549,200.515 132.883,202.2 130.648,203.317 C125.851,205.558 121.86,204.611 118.248,200.845 L118.24,200.853 C118.26,200.872 118.223,200.842 118.124,200.771 C117.94,200.639 117.677,200.471 117.325,200.262 C116.595,199.83 115.63,199.309 113.859,198.382 C113.323,198.107 112.815,197.963 112.11,197.904 C110.886,197.822 109.631,198.203 106.742,199.522 C106.582,199.595 106.582,199.595 106.42,199.669 C106.284,199.731 106.146,199.788 106.005,199.84 C105.899,199.88 104.986,200.253 104.677,200.373 C102.594,201.181 100.8,201.612 98.713,201.523 C97.274,201.388 97.959,201.511 96.654,201.176 L93.523,204.269 C91.44,206.327 88.176,206.58 85.8,204.869 L83.653,203.323 L83.356,203.648 L83.294,203.717 C84.072,205.052 84.836,206.394 85.451,207.813 C86.306,209.992 85.815,212.469 84.195,214.158 L67.381,231.683 L67.294,231.772 C67.266,231.8 67.266,231.8 67.227,231.837 C66.105,232.933 65.938,233.012 59.133,235.954 C54.176,238.098 48.191,240.657 21.024,252.256 C18.767,253.219 16.151,252.711 14.419,250.973 L9.732,246.271 L5.016,241.571 C3.278,239.838 2.77,237.222 3.734,234.965 C15.332,207.798 17.891,201.814 20.035,196.856 C22.977,190.051 23.056,189.884 24.152,188.762 C24.19,188.724 24.19,188.724 24.218,188.695 L24.306,188.609 L41.831,171.795 C43.52,170.174 45.997,169.684 48.176,170.539 C49.604,171.129 50.935,171.929 52.273,172.695 L52.341,172.634 L52.666,172.336 L51.12,170.189 C49.409,167.813 49.663,164.549 51.72,162.466 L54.813,159.335 C54.478,158.03 54.601,158.715 54.466,157.276 C54.377,155.19 54.808,153.395 55.617,151.313 C55.737,151.003 56.11,150.091 56.149,149.984 C56.201,149.844 56.258,149.705 56.32,149.569 C56.394,149.407 56.394,149.407 56.467,149.247 C57.786,146.358 58.168,145.103 58.093,143.976 C58.026,143.175 57.882,142.666 57.626,142.167 C56.681,140.359 56.159,139.394 55.727,138.664 C55.519,138.313 55.35,138.049 55.218,137.865 C55.147,137.766 55.117,137.73 55.136,137.749 L55.144,137.741 C51.027,133.843 50.577,130.443 52.672,125.341 C53.79,123.106 55.474,121.44 57.528,120.441 C59.7,119.385 61.853,119.21 63.829,119.51 L64.185,119.573 C64.668,119.637 64.419,119.605 64.932,119.67 C67.241,119.957 69.03,120.016 70.644,119.78 C71.5,119.654 72.231,119.449 72.853,119.16 C76.844,117.328 80.578,113.998 81.209,111.88 C82.548,107.449 86.873,97.855 92.134,88.191 C99.288,75.047 107.67,62.434 116.917,51.645 C126.523,40.461 138.61,29.609 151.939,19.457 C156.602,15.904 161.097,12.687 165.264,9.857 C166.738,8.856 168.071,7.972 169.242,7.213 C169.979,6.735 170.603,6.339 170.83,6.198 L170.976,6.112 C174.058,4.237 177.213,3.68 180.722,3.265 L182.552,3.262 z M58.053,203.695 L40.688,221.309 L39.264,219.905 L19.986,239.561 L20.049,239.624 C31.487,234.725 42.947,229.875 54.37,224.94 C56.018,224.22 57.675,223.521 59.307,222.765 L72.499,209.015 C71.122,206.609 71.738,207.747 70.631,205.613 C67.974,206.154 69.257,206.001 66.788,206.126 C63.759,206.045 60.605,205.418 58.053,203.695 z M46.974,183.49 L33.224,196.682 C32.474,198.317 31.764,199.969 31.049,201.619 C26.128,213.048 21.252,224.496 16.365,235.94 L17.159,236.731 L36.412,217.101 L37.859,218.52 L34.991,215.693 L52.317,198.118 C50.331,195.444 49.719,192.139 49.555,188.893 C49.677,186.47 49.526,187.707 50.04,185.186 C48.24,184.255 49.268,184.808 46.974,183.49 z M66.788,179.659 C61.689,179.659 57.555,183.793 57.555,188.893 C57.555,193.992 61.689,198.126 66.788,198.126 C71.887,198.126 76.021,193.992 76.021,188.893 C76.021,183.793 71.887,179.659 66.788,179.659 L66.788,179.659 z M124.632,194.054 C124.656,194.177 124.638,194.092 124.691,194.308 L124.632,194.054 z M234.858,66.438 C234.309,67.217 234.613,66.772 233.957,67.781 C233.681,68.213 232.548,70.014 232.459,70.154 C231.741,71.289 231.113,72.264 230.43,73.298 C217.96,92.164 204.573,108.217 188.721,120.306 C184.326,123.657 178.193,127.442 170.522,131.643 C166.913,133.619 162.994,135.67 158.796,137.788 C146.665,143.908 122.24,155.128 123.505,154.438 C116.902,158.015 90.676,175.915 85.408,179.993 C83.643,180.994 84.695,180.52 82.167,181.213 C83.495,183.589 83.886,186.223 84.021,188.893 L84.002,189.272 C85.02,189.469 84.414,189.288 85.74,190.038 L88.698,192.168 L91.39,189.509 C93.712,187.435 97.347,187.071 99.679,189.413 C100.04,189.305 99.82,189.375 100.334,189.186 C100.75,189.02 101.164,188.848 101.582,188.686 C101.648,188.656 101.59,188.683 101.758,188.606 C106.384,186.494 109.085,185.674 113.012,185.938 C115.363,186.135 117.397,186.708 119.381,187.729 C121.012,188.573 122.635,189.433 124.192,190.407 C123.834,188.105 124.1,185.873 124.337,183.604 C124.622,181.66 125.138,179.822 125.924,178.13 C129.056,171.306 134.598,165.093 140.636,163.294 C144.154,162.231 153.056,158.217 162.062,153.316 C174.515,146.538 186.444,138.61 196.525,129.97 C206.982,120.988 217.302,109.493 226.987,96.779 C230.4,92.297 233.492,87.978 236.204,83.984 C237.157,82.581 237.995,81.318 238.709,80.217 C238.96,79.83 239.179,79.489 239.362,79.201 L239.498,78.986 C240.219,77.707 240.449,76.244 240.635,74.812 C240.775,72.753 240.372,71.486 239.24,69.795 C238.116,68.616 236.803,67.648 235.447,66.758 L234.858,66.438 z M181.177,15.354 C179.721,15.449 178.318,15.87 177.005,16.49 L176.788,16.628 C176.5,16.811 176.16,17.029 175.772,17.281 C174.671,17.995 173.408,18.832 172.005,19.785 C168.011,22.497 163.692,25.589 159.21,29.003 C146.496,38.687 135.002,49.007 126.024,59.459 C117.379,69.545 109.452,81.474 102.674,93.927 C97.772,102.933 93.759,111.835 92.702,115.33 C90.897,121.391 84.683,126.934 77.883,130.055 C76.167,130.851 74.329,131.367 72.386,131.653 C70.124,131.961 67.869,132.032 65.581,131.797 C66.592,133.347 67.418,135.009 68.279,136.644 C69.281,138.593 69.855,140.627 70.058,143.075 C70.316,146.904 69.495,149.606 67.383,154.231 C67.306,154.4 67.333,154.341 67.303,154.408 C67.141,154.826 66.97,155.24 66.803,155.655 C66.614,156.17 66.685,155.95 66.577,156.31 C68.679,158.422 68.529,161.102 67.29,163.582 C67.097,163.97 66.751,164.26 66.481,164.6 L63.821,167.292 L65.951,170.249 C66.648,171.48 66.52,170.969 66.655,171.666 L66.788,171.659 L66.788,171.659 C69.954,171.59 72.003,172.472 74.823,173.664 C75.489,171.31 75.05,172.318 75.996,170.581 C80.075,165.313 97.974,139.087 101.558,132.472 C100.862,133.75 112.081,109.324 118.201,97.193 C120.319,92.996 122.37,89.077 124.346,85.467 C128.547,77.796 132.332,71.663 135.684,67.268 C147.772,51.417 163.825,38.03 182.691,25.559 C183.725,24.876 184.7,24.248 185.835,23.531 C185.976,23.442 187.776,22.308 188.208,22.032 C189.217,21.376 188.772,21.68 189.551,21.131 L189.231,20.543 C188.4,19.143 187.322,17.915 186.194,16.749 C184.748,15.515 182.981,15.361 181.177,15.354 z M61.682,131.298 C61.897,131.351 61.812,131.334 61.935,131.357 L61.682,131.298 z" fill="#797979"/>
  </g>
</svg>
