<?xml version="1.0" encoding="UTF-8"?>
<!DOCTYPE svg PUBLIC "-//W3C//DTD SVG 1.1//EN" "http://www.w3.org/Graphics/SVG/1.1/DTD/svg11.dtd">
<svg version="1.1" xmlns="http://www.w3.org/2000/svg" xmlns:xlink="http://www.w3.org/1999/xlink" x="0" y="0" width="256" height="256" viewBox="0, 0, 256, 256">
  <g id="solid">
    <path d="M192.382,2.353 L193.246,2.357 C195.776,3.389 194.8,2.745 196.342,4.004 L251.942,59.604 C254.286,61.948 254.286,65.747 251.942,68.09 L68.143,251.889 C65.8,254.232 62.001,254.232 59.658,251.889 L4.058,196.289 C1.715,193.946 1.715,190.147 4.058,187.804 L187.857,4.004 C189.25,2.61 190.51,2.418 192.382,2.354 z M192.1,16.732 L186.952,21.88 L198.262,33.122 C199.829,34.68 199.836,37.213 198.279,38.779 C196.721,40.346 194.189,40.354 192.622,38.796 L181.295,27.537 L174.78,34.052 L186.046,45.368 C187.604,46.934 187.599,49.467 186.033,51.025 C184.467,52.584 181.935,52.578 180.376,51.012 L169.124,39.708 L162.585,46.247 L173.85,57.564 C175.408,59.13 175.403,61.662 173.837,63.221 C172.271,64.78 169.739,64.774 168.18,63.208 L156.928,51.904 L150.389,58.443 L161.654,69.76 C163.213,71.326 163.207,73.858 161.641,75.417 C160.076,76.975 157.543,76.97 155.984,75.404 L144.732,64.1 L137.501,71.331 L161.473,95.303 C163.035,96.865 163.035,99.398 161.473,100.96 C159.91,102.522 157.378,102.522 155.816,100.96 L131.844,76.988 L125.315,83.517 L136.618,94.77 C138.184,96.328 138.19,98.861 136.631,100.427 C135.073,101.992 132.54,101.998 130.974,100.44 L119.658,89.174 L113.119,95.713 L124.423,106.966 C125.988,108.524 125.994,111.057 124.436,112.623 C122.877,114.188 120.344,114.194 118.779,112.635 L107.462,101.37 L100.923,107.909 L112.227,119.161 C113.793,120.72 113.798,123.253 112.24,124.818 C110.681,126.384 108.149,126.39 106.583,124.831 L95.266,113.566 L88.751,120.081 L100.01,131.407 C101.568,132.974 101.561,135.507 99.994,137.064 C98.427,138.622 95.894,138.614 94.337,137.047 L83.094,125.738 L76.386,132.446 L100.357,156.418 C101.919,157.98 101.919,160.513 100.357,162.075 C98.795,163.637 96.263,163.637 94.7,162.075 L70.729,138.103 L64.199,144.633 L75.503,155.885 C77.069,157.444 77.075,159.976 75.516,161.542 C73.958,163.108 71.425,163.113 69.859,161.555 L58.543,150.289 L52.004,156.828 L63.307,168.081 C64.873,169.639 64.879,172.172 63.32,173.738 C61.762,175.303 59.229,175.309 57.664,173.751 L46.347,162.485 L39.808,169.024 L51.112,180.277 C52.677,181.835 52.683,184.368 51.125,185.933 C49.566,187.499 47.033,187.505 45.468,185.946 L34.151,174.681 L27.636,181.196 L38.895,192.523 C40.453,194.089 40.445,196.622 38.879,198.179 C37.312,199.737 34.779,199.729 33.222,198.163 L21.979,186.853 L16.786,192.046 L63.9,239.161 L239.214,63.847 L192.1,16.732 z" fill="#797979"/>
  </g>
</svg>
