<?xml version="1.0" encoding="UTF-8"?>
<!DOCTYPE svg PUBLIC "-//W3C//DTD SVG 1.1//EN" "http://www.w3.org/Graphics/SVG/1.1/DTD/svg11.dtd">
<svg version="1.1" xmlns="http://www.w3.org/2000/svg" xmlns:xlink="http://www.w3.org/1999/xlink" x="0" y="0" width="256" height="256" viewBox="0, 0, 256, 256">
  <g id="レイヤー_1">
    <path d="M191.945,9.569 C198.11,9.904 195.323,9.466 200.344,10.622 C207.614,12.716 213.268,17.656 218.865,22.478 C221.953,20.442 225.419,19.431 229.021,18.836 L231.314,18.763 L233.615,18.814 C239.418,19.491 243.866,22.46 247.718,26.675 C256.622,37.484 257.522,56.434 249.208,79.123 C241.897,99.076 230.95,112.646 213.699,126.534 C210.296,129.274 198.657,138.13 199.022,137.847 C181.665,151.302 174.797,160.787 173.586,177.18 C171.378,207.077 190.365,230.406 216.038,235.967 L214.007,245.341 C183.817,238.802 161.447,211.316 164.02,176.474 C164.813,165.738 168.102,156.833 173.84,148.907 C178.438,142.558 184.073,137.299 193.145,130.266 C192.872,130.477 204.402,121.704 207.683,119.063 C223.686,106.179 233.566,93.932 240.201,75.823 C247.455,56.025 246.72,40.551 240.314,32.774 C236.651,28.353 230.944,27.147 225.789,29.635 C230.444,34.474 233.966,40.131 236.178,46.456 C238.898,55.549 236.517,64.3 228.943,71.871 L163.185,137.633 L163.079,137.721 C157.246,144.62 148.948,150.123 144.871,158.404 C143.922,160.597 143.676,162.845 143.676,169.386 C143.676,171.25 142.953,173.04 141.66,174.381 L134.484,181.821 C131.69,184.718 127.064,184.76 124.218,181.914 L110.389,168.083 L71.35,207.122 L74.155,209.928 C76.028,211.801 76.028,214.837 74.155,216.71 L61.489,229.376 C59.616,231.249 56.58,231.249 54.707,229.376 L51.901,226.571 L50.688,227.784 C47.878,230.594 43.323,230.594 40.514,227.784 L37.751,225.022 L9.59,244.592 C5.253,247.607 -0.059,242.421 2.85,238.013 L21.889,209.159 L19.015,206.286 C16.206,203.477 16.206,198.922 19.015,196.112 L78.717,136.411 L64.886,122.582 C62.04,119.736 62.082,115.11 64.979,112.316 L72.419,105.14 C73.76,103.847 75.55,103.124 77.413,103.124 C83.955,103.124 86.203,102.878 88.395,101.929 C96.345,97.352 102.609,90.126 109.08,83.721 L109.166,83.614 L174.927,17.858 C179.886,12.8 185.017,10.459 191.945,9.569 z M28.812,216.083 L24.584,222.491 L30.859,218.13 L28.812,216.083 z M88.89,146.585 L34.276,201.199 L45.601,212.523 L100.214,157.91 L88.89,146.585 z M193.358,24.044 C190.03,24.19 187.519,25.918 185.102,28.032 L119.425,93.704 L119.329,93.82 C103.451,109.567 100.089,112.545 94.112,115.133 C89.771,117.174 85.03,117.288 80.339,117.491 L80.24,117.587 L101.627,138.972 L101.627,138.972 L107.828,145.173 L129.213,166.56 L129.309,166.461 C129.214,161.698 129.908,157.105 131.667,152.688 C134.255,146.71 137.233,143.348 152.98,127.47 L153.096,127.374 L218.769,61.696 C225.828,54.641 223.719,47.588 211.462,35.336 C205.89,29.949 202.351,26.24 194.798,24.112 L193.358,24.044 z" fill="#797979"/>
  </g>
</svg>
