<?xml version="1.0" encoding="UTF-8"?>
<!DOCTYPE svg PUBLIC "-//W3C//DTD SVG 1.1//EN" "http://www.w3.org/Graphics/SVG/1.1/DTD/svg11.dtd">
<svg version="1.1" xmlns="http://www.w3.org/2000/svg" xmlns:xlink="http://www.w3.org/1999/xlink" x="0" y="0" width="256" height="256" viewBox="0, 0, 256, 256">
  <g id="レイヤー_1">
    <path d="M241.612,86.099 L100.191,227.52 L29.48,156.809 L170.901,15.388 L195.892,7.796 L188.459,32.946 L213.61,25.513 L206.177,50.664 L231.327,43.231 L223.894,68.381 L249.045,60.948 L241.612,86.099 z" fill-opacity="0" stroke="#323333" stroke-width="12" stroke-linejoin="round" display="none"/>
    <path d="M15.388,170.901 L156.809,29.48 L227.52,100.191 L86.099,241.612 L61.108,249.204 L68.541,224.054 L43.39,231.487 L50.823,206.336 L25.673,213.769 L33.106,188.619 L7.955,196.052 L15.388,170.901 z" fill-opacity="0" stroke="#323333" stroke-width="12" stroke-linejoin="round" display="none"/>
    <path d="M195.892,7.796 L188.459,32.946 L213.61,25.513 L206.177,50.664 L231.327,43.231 L223.894,68.381 L249.045,60.948 L241.612,86.099 L86.099,241.612 L61.108,249.204 L68.541,224.054 L43.39,231.487 L50.823,206.336 L25.673,213.769 L33.106,188.619 L7.955,196.052 L15.388,170.901 L170.901,15.388 L195.892,7.796 z" fill-opacity="0" stroke="#323333" stroke-width="12" stroke-linejoin="round" display="none"/>
    <path d="M195.372,1.833 C196.247,1.84 195.82,1.84 196.653,1.833 C200.406,2.572 202.469,5.78 201.646,9.496 L197.34,24.065 L211.909,19.759 C216.47,18.411 220.712,22.653 219.364,27.214 L215.058,41.782 L229.627,37.477 C234.188,36.129 238.429,40.37 237.081,44.931 L232.775,59.5 L247.344,55.194 C251.905,53.846 256.147,58.088 254.799,62.649 L247.366,87.799 C247.082,88.759 246.562,89.633 245.854,90.341 L90.341,245.854 C89.644,246.552 88.786,247.066 87.843,247.353 L62.852,254.945 C58.281,256.334 54,252.085 55.354,247.504 L59.659,232.935 L45.091,237.241 C40.53,238.589 36.288,234.347 37.636,229.786 L41.942,215.217 L27.373,219.523 C22.812,220.871 18.571,216.63 19.919,212.069 L24.224,197.5 L9.656,201.806 C5.095,203.154 0.853,198.912 2.201,194.351 L9.634,169.201 C9.918,168.24 10.437,167.367 11.145,166.658 L166.658,11.145 C167.356,10.448 168.214,9.934 169.157,9.647 L194.148,2.055 C194.554,1.948 194.954,1.858 195.372,1.833 z M186.982,16.773 L174.082,20.692 L20.709,174.065 L16.836,187.17 L31.405,182.865 C35.966,181.517 40.208,185.758 38.86,190.319 L34.554,204.888 L49.123,200.582 C53.684,199.234 57.925,203.476 56.577,208.037 L52.271,222.605 L66.84,218.3 C71.401,216.952 75.643,221.193 74.295,225.754 L70.018,240.227 L82.918,236.307 L236.29,82.935 L240.163,69.829 L225.595,74.135 C221.034,75.483 216.792,71.242 218.14,66.681 L222.446,52.112 L207.877,56.418 C203.316,57.766 199.075,53.524 200.423,48.963 L204.728,34.394 L190.16,38.7 C185.599,40.048 181.357,35.807 182.705,31.245 L186.982,16.773 z" fill="#323333"/>
  </g>
</svg>
