<?xml version="1.0" encoding="UTF-8"?>
<!DOCTYPE svg PUBLIC "-//W3C//DTD SVG 1.1//EN" "http://www.w3.org/Graphics/SVG/1.1/DTD/svg11.dtd">
<svg version="1.1" xmlns="http://www.w3.org/2000/svg" xmlns:xlink="http://www.w3.org/1999/xlink" x="0" y="0" width="256" height="256" viewBox="0, 0, 256, 256">
  <g id="line" display="none">
    <path d="M244.899,77.618 C269.525,77.612 267.865,97.569 267.862,122.198 C267.862,146.824 269.525,166.778 244.902,166.775 L109.052,166.327 L87.518,136.179 L230.967,136.179 L230.967,109.494 L68.458,109.494 L46.007,78.063 z" fill-opacity="0" stroke="#797979" stroke-width="12" stroke-linecap="round" stroke-linejoin="round"/>
    <path d="M104.401,160.023 L-16.273,160.022 L26.74,85.651 L50.915,85.651" fill-opacity="0" stroke="#797979" stroke-width="12" stroke-linecap="round" stroke-linejoin="round"/>
    <g>
      <path d="M121.599,101.611 L198.356,101.611 L198.356,142.782 L121.599,142.782 L121.599,101.611 z" fill="#FFFFFF"/>
      <path d="M121.599,101.611 L198.356,101.611 L198.356,142.782 L121.599,142.782 L121.599,101.611 z" fill-opacity="0" stroke="#797979" stroke-width="12" stroke-linejoin="round"/>
    </g>
    <path d="M58.709,97.515 L22.558,160.023" fill-opacity="0" stroke="#797979" stroke-width="4"/>
    <path d="M84.358,110.107 L55.49,160.022" fill-opacity="0" stroke="#797979" stroke-width="4"/>
  </g>
  <g id="solid">
    <path d="M246.794,161.808 C255.94,170.949 258.176,180.43 253.926,190.231 C250.97,197.048 246.811,201.836 234.87,213.676 C233.417,215.117 232.729,215.8 231.896,216.633 C231.06,217.47 230.375,218.159 228.929,219.617 C217.093,231.551 212.306,235.708 205.491,238.662 C195.693,242.909 186.215,240.673 177.063,231.519 L83.737,137.576 C82.411,136.241 81.808,134.349 82.117,132.493 L82.864,128.013 L1.717,46.865 C-1.468,43.68 -0.009,38.242 4.343,37.079 L85.249,15.465 C87.266,14.926 89.418,15.503 90.894,16.979 L100.213,26.298 C102.049,22.663 106.58,22.587 109.394,25.02 L246.786,161.799 L246.794,161.808 z M238.527,170.081 L109.174,41.305 L105.342,64.295 L135.706,94.66 L137.004,93.362 C139.288,91.078 142.991,91.078 145.275,93.362 L198.179,146.266 C200.463,148.55 200.463,152.253 198.179,154.537 L196.881,155.835 L215.223,174.177 C217.507,176.461 217.507,180.164 215.223,182.448 L196.831,200.84 C194.547,203.124 190.844,203.124 188.56,200.84 L170.218,182.498 L169.802,182.913 C167.518,185.197 163.815,185.197 161.531,182.913 L108.627,130.009 C106.343,127.725 106.343,124.022 108.627,121.738 L109.043,121.323 L97.724,110.004 L94.148,131.459 L185.348,223.262 C191.225,229.14 195.642,230.182 200.839,227.93 C205.706,225.82 210.004,222.088 220.624,211.38 C222.081,209.911 222.774,209.214 223.626,208.362 C224.474,207.514 225.17,206.822 226.634,205.371 C237.348,194.746 241.083,190.447 243.195,185.577 C245.961,179.301 242.862,174.58 238.527,170.081 z M127.435,102.931 L105.347,80.843 L63.434,92.04 L85.227,113.834 L88.054,96.871 C88.837,92.179 94.595,90.333 97.959,93.697 L117.314,113.052 L127.435,102.931 z M95.062,54.828 L40.735,69.342 L60.249,88.855 L102.162,77.658 L94.943,70.438 C93.607,69.103 92.999,67.204 93.309,65.341 L95.062,54.828 z M85.009,27.636 L17.157,45.763 L37.551,66.157 L95.766,50.605 L97.51,40.137 L85.009,27.636 z M185.772,150.401 L141.139,105.768 L139.842,107.066 L139.841,107.067 L121.45,125.458 L121.449,125.458 L121.034,125.874 L165.667,170.507 L185.772,150.401 z M188.61,164.106 L178.489,174.227 L192.695,188.433 L202.817,178.312 L188.61,164.106 z" fill="#797979"/>
  </g>
</svg>
