<?xml version="1.0" encoding="UTF-8"?>
<!DOCTYPE svg PUBLIC "-//W3C//DTD SVG 1.1//EN" "http://www.w3.org/Graphics/SVG/1.1/DTD/svg11.dtd">
<svg version="1.1" xmlns="http://www.w3.org/2000/svg" xmlns:xlink="http://www.w3.org/1999/xlink" x="0" y="0" width="256" height="256" viewBox="0, 0, 256, 256">
  <g id="レイヤー_2">
    <path d="M191.971,43.351 C193.573,43.355 192.791,43.355 194.317,43.353 L196.179,43.39 C197.069,43.412 197.976,43.44 199.139,43.48 C203.211,43.619 202.916,43.61 203.59,43.61 C206.443,43.61 208.902,45.619 209.47,48.415 C210.538,53.67 211.226,61.454 212.001,74.653 C212.126,76.765 212.523,83.795 212.568,84.573 C213.17,95.017 213.63,100.399 214.136,102.337 C214.294,102.941 215.282,106.844 215.599,108.039 C216.203,110.32 216.772,112.258 217.409,114.154 C219.002,118.892 220.95,123.084 223.54,127.039 C228.443,134.526 235.505,140.89 245.56,146.14 C248.258,147.549 249.474,150.755 248.388,153.599 C247.276,156.512 243.809,165.396 243.926,165.094 C242.38,169.085 241.338,171.909 240.416,174.658 C237.877,182.224 236.33,189.181 235.213,198.719 C234.812,202.147 231.609,204.53 228.21,203.93 C221.872,202.81 217.127,203.549 209.706,206.242 C209.145,206.446 208.559,206.663 207.825,206.937 C207.474,207.069 206.166,207.561 205.876,207.67 C199.048,210.229 194.858,211.469 189.405,212.19 C182.28,213.132 174.712,212.679 166.052,210.582 C163.563,209.98 160.938,209.069 157.721,207.753 C156.499,207.254 155.238,206.716 153.546,205.979 C153.611,206.007 150.279,204.549 149.323,204.136 C142.798,201.21 136.052,198.791 128.916,198.004 L127.084,198.004 C119.921,198.597 113.227,201.371 106.677,204.136 C105.721,204.549 102.389,206.007 102.454,205.979 C100.762,206.716 99.501,207.254 98.279,207.753 C95.062,209.069 92.437,209.98 89.948,210.582 C81.288,212.679 73.72,213.132 66.595,212.19 C61.142,211.469 56.952,210.229 50.124,207.67 C49.834,207.561 48.526,207.069 48.175,206.937 C47.441,206.663 46.855,206.446 46.294,206.242 C38.873,203.549 34.128,202.81 27.79,203.93 C24.391,204.53 21.188,202.147 20.787,198.719 C19.67,189.181 18.123,182.224 15.584,174.658 C14.662,171.909 13.62,169.085 12.074,165.094 C12.191,165.396 8.724,156.512 7.612,153.599 C6.526,150.755 7.742,147.549 10.44,146.14 C20.495,140.89 27.557,134.526 32.46,127.039 C35.05,123.084 36.998,118.892 38.591,114.154 C39.228,112.258 39.797,110.32 40.401,108.039 C40.718,106.844 41.706,102.941 41.864,102.337 C42.37,100.399 42.83,95.017 43.432,84.573 C43.477,83.795 43.874,76.765 43.999,74.653 C44.774,61.454 45.462,53.67 46.53,48.415 C47.099,45.619 49.557,43.61 52.41,43.61 C53.084,43.61 52.789,43.619 56.861,43.48 C58.024,43.44 58.931,43.412 59.821,43.39 C62.447,43.324 64.486,43.323 66.104,43.41 C67.24,43.472 68.176,43.575 69.016,43.765 C69.784,43.938 70.483,44.177 71.213,44.596 C73.015,45.628 74.421,47.41 74.421,50.045 C74.421,50.639 74.401,51.33 74.361,52.307 C74.341,52.802 74.255,54.731 74.242,55.052 C73.987,61.009 73.992,65.359 74.42,69.776 C74.938,75.108 76.051,79.337 77.747,82.143 C80.362,86.467 84.048,89.678 91.252,94.359 C92.258,95.013 96.389,97.647 97.432,98.324 C100,99.989 102.091,101.411 104.124,102.903 C104.664,103.299 105.194,103.696 105.716,104.096 C110.191,107.523 114.532,112.586 119.554,119.667 C121.56,122.495 127.287,131.044 127.817,131.806 L128,132.064 L128.183,131.806 C128.713,131.044 134.44,122.495 136.446,119.667 C141.468,112.586 145.809,107.523 150.284,104.096 C150.806,103.696 151.336,103.299 151.876,102.903 C153.909,101.411 156,99.989 158.568,98.324 C159.611,97.647 163.742,95.013 164.748,94.359 C171.952,89.678 175.638,86.467 178.253,82.143 C179.949,79.337 181.062,75.108 181.58,69.776 C182.008,65.359 182.013,61.009 181.758,55.052 C181.745,54.731 181.659,52.802 181.639,52.307 C181.599,51.33 181.579,50.639 181.579,50.045 C181.579,47.41 182.985,45.628 184.787,44.596 C185.517,44.177 186.217,43.938 186.984,43.765 C187.824,43.575 188.76,43.472 189.896,43.41 C190.587,43.378 191.278,43.356 191.971,43.351 z M194.234,55.353 L193.779,55.353 C193.966,59.278 193.97,63.204 193.806,67.13 C193.753,68.401 193.618,69.667 193.523,70.935 C192.848,77.896 191.309,83.741 188.521,88.352 C184.74,94.605 179.888,98.832 171.287,104.421 C170.225,105.111 166.088,107.75 165.097,108.392 C162.706,109.942 160.796,111.242 158.975,112.578 C158.5,112.926 158.036,113.274 157.581,113.623 C154.3,116.135 150.611,120.437 146.235,126.609 C144.343,129.276 138.656,137.765 138.031,138.662 C136.641,140.659 135.552,142.102 134.553,143.219 C132.53,145.482 130.843,146.732 128,146.732 C125.157,146.732 123.47,145.482 121.447,143.219 C120.448,142.102 119.359,140.659 117.969,138.662 C117.345,137.765 111.657,129.276 109.765,126.609 C105.389,120.437 101.7,116.135 98.419,113.623 C97.964,113.274 97.5,112.926 97.025,112.578 C95.204,111.242 93.294,109.942 90.903,108.392 C89.912,107.75 85.775,105.111 84.713,104.421 C76.112,98.832 71.26,94.605 67.479,88.352 C64.691,83.741 63.152,77.896 62.477,70.935 C61.952,65.757 62.023,60.545 62.221,55.353 C61.218,55.353 61.918,55.35 60.121,55.386 C58.397,55.434 59.242,55.408 57.586,55.463 C56.752,62.064 56.376,68.717 55.978,75.357 C55.855,77.452 55.458,84.474 55.412,85.264 C54.738,96.947 54.283,102.272 53.474,105.37 C53.333,105.907 52.339,109.838 52.001,111.113 C51.335,113.627 50.696,115.806 49.965,117.979 C48.065,123.631 45.691,128.738 42.499,133.613 C37.007,142.507 29.158,148.372 20.678,154.12 C21.539,156.334 22.4,158.548 23.265,160.761 C24.871,164.909 25.969,167.885 26.961,170.841 C29.344,177.559 30.76,184.537 31.9,191.554 C38.271,191.009 44.441,192.926 50.388,194.962 C50.992,195.181 51.615,195.412 52.383,195.7 C52.744,195.835 54.055,196.328 54.336,196.433 C66.77,201.094 74.126,202.066 87.124,198.919 C90.321,198.146 89.725,198.389 101.917,193.121 C111.896,188.808 118.669,186.643 126.291,186.023 C126.452,186.01 126.614,186.004 126.777,186.004 L129.223,186.004 C129.386,186.004 129.548,186.01 129.709,186.023 C137.331,186.643 144.104,188.808 154.083,193.121 C166.275,198.389 165.679,198.146 168.876,198.919 C181.874,202.066 189.23,201.094 201.664,196.433 C201.945,196.328 203.256,195.835 203.617,195.7 C204.385,195.412 205.008,195.181 205.612,194.962 C210.593,193.065 215.753,191.828 221.077,191.453 C222.083,191.382 223.092,191.52 224.1,191.554 C225.014,184.49 226.861,177.606 229.039,170.841 C230.031,167.885 231.129,164.909 232.735,160.761 C233.599,158.548 234.462,156.334 235.322,154.12 C226.459,149.007 219.349,141.918 213.501,133.613 C210.309,128.738 207.935,123.631 206.035,117.979 C205.304,115.806 204.665,113.627 203.999,111.113 C203.661,109.838 202.667,105.907 202.526,105.37 C201.717,102.272 201.262,96.947 200.588,85.264 C200.542,84.474 200.145,77.452 200.022,75.357 C199.587,68.72 199.284,62.061 198.414,55.463 C196.758,55.408 197.603,55.434 195.879,55.386 L194.234,55.353 z" fill="#383838"/>
  </g>
</svg>
