<?xml version="1.0" encoding="UTF-8"?>
<!DOCTYPE svg PUBLIC "-//W3C//DTD SVG 1.1//EN" "http://www.w3.org/Graphics/SVG/1.1/DTD/svg11.dtd">
<svg version="1.1" xmlns="http://www.w3.org/2000/svg" xmlns:xlink="http://www.w3.org/1999/xlink" x="0" y="0" width="256" height="256" viewBox="0, 0, 256, 256">
  <g id="レイヤー_1">
    <path d="M128.5,64.181 C142.397,64.181 153.663,75.447 153.663,89.345 C153.663,96.835 150.363,103.802 144.761,108.549 C144.354,108.894 143.904,109.183 143.421,109.408 L19.696,167.189 C19.624,167.223 19.551,167.255 19.477,167.286 C16.974,168.336 15.311,170.789 15.311,173.551 C15.311,177.299 18.35,180.338 22.098,180.338 L235.662,180.338 C239.41,180.338 242.449,177.299 242.449,173.551 C242.449,170.667 240.634,168.127 237.968,167.164 C237.815,167.108 237.664,167.047 237.516,166.979 L143.844,124.236 C140.829,122.86 139.5,119.301 140.876,116.287 C142.252,113.272 145.811,111.943 148.825,113.319 L242.479,156.053 C249.843,158.858 254.148,165.869 254.449,173.551 C254.449,183.926 246.038,192.338 235.662,192.338 L22.098,192.338 C11.722,192.338 3.311,183.926 3.311,173.551 C3.368,165.986 7.822,159.473 14.62,156.32 L14.618,156.317 L137.491,98.933 C140.289,96.46 141.465,92.967 141.663,89.345 C141.663,82.075 135.77,76.181 128.5,76.181 C121.23,76.181 115.337,82.075 115.337,89.345 C115.337,92.659 112.65,95.345 109.337,95.345 C106.023,95.345 103.337,92.659 103.337,89.345 C103.337,75.447 114.603,64.181 128.5,64.181 z" fill="#383838"/>
  </g>
</svg>
