<?xml version="1.0" encoding="UTF-8"?>
<!DOCTYPE svg PUBLIC "-//W3C//DTD SVG 1.1//EN" "http://www.w3.org/Graphics/SVG/1.1/DTD/svg11.dtd">
<svg version="1.1" xmlns="http://www.w3.org/2000/svg" xmlns:xlink="http://www.w3.org/1999/xlink" x="0" y="0" width="256" height="256" viewBox="0, 0, 256, 256">
  <g id="レイヤー_1">
    <path d="M158.376,5.856 C160.133,5.827 161.682,6.24 163.18,7.113 C166.447,9.338 168.969,16.741 176.244,41.263 C180.558,55.807 183.583,66.455 194.657,105.791 C194.828,106.4 194.828,106.4 194.999,107.008 C204.169,139.575 209.111,156.825 213.639,171.758 C214.876,175.863 216.156,179.953 217.472,184.033 C218.289,179.164 217.926,181.394 218.572,177.343 C220.765,163.356 223.254,144.175 225.604,123.429 C227.848,103.616 229.797,83.824 230.98,68.809 C231.586,61.13 231.976,54.888 232.123,50.472 C232.177,48.514 232.162,49.432 232.174,47.72 C231.485,47.7 231.973,47.709 230.712,47.729 C227.537,47.814 223.289,48.201 218.267,48.834 C215.986,49.121 213.587,49.454 211.11,49.823 C207.96,50.293 204.845,50.797 201.907,51.3 C200.879,51.476 199.947,51.64 199.13,51.786 C198.643,51.873 198.304,51.935 198.132,51.967 C194.874,52.57 191.743,50.418 191.14,47.16 C190.536,43.901 192.689,40.771 195.947,40.168 C196.001,40.158 196.001,40.158 196.231,40.116 C196.456,40.075 196.718,40.027 197.015,39.974 C197.861,39.822 198.822,39.654 199.88,39.473 C202.899,38.955 206.099,38.438 209.341,37.955 C211.903,37.573 214.39,37.227 216.766,36.928 C222.145,36.25 226.748,35.831 230.39,35.733 C236.45,35.57 239.72,35.995 242.2,38.721 C244.899,41.687 244.712,47.308 242.943,69.752 C241.748,84.914 239.786,104.839 237.528,124.78 C235.161,145.682 232.65,165.021 230.427,179.202 C229.214,186.938 228.099,193.074 227.1,197.407 C226.544,199.822 226.017,201.718 225.484,203.145 C224.806,204.856 225.186,204.045 224.358,205.584 C223.617,207.235 224.091,206.513 222.982,207.78 C212.231,217.814 183.32,230.338 150.838,239.859 C116.713,249.862 87.917,253.986 75.479,249.038 C74.398,248.608 73.466,247.873 72.795,246.923 C65.872,237.116 52.834,200.936 37.31,151.105 C24.315,109.392 13.015,68.897 12.816,62.862 C12.71,59.655 14.144,58.015 16.76,56.107 C18.006,55.199 19.667,54.214 21.779,53.104 C25.552,51.123 30.893,48.687 37.605,45.864 C50.07,40.621 67.032,34.149 85.03,27.735 C102.799,21.404 120.242,15.606 133.57,11.622 C141.733,9.306 149.852,6.404 158.376,5.856 z M156.211,18.137 C154.284,18.483 155.233,18.297 153.363,18.694 C149.376,19.578 143.819,21.083 137.006,23.119 C123.897,27.038 106.645,32.772 89.058,39.039 C71.255,45.383 54.491,51.779 42.258,56.925 C35.834,59.627 30.773,61.936 27.358,63.729 C25.87,64.53 26.586,64.125 25.207,64.938 C31.938,92.766 40.304,120.193 48.767,147.536 C56.178,170.883 63.524,194.286 72.274,217.177 C75.019,224.358 77.759,231.708 81.598,238.393 C101.988,241.778 133.322,232.688 152.54,226.832 C172.676,220.697 193.47,213.662 211.124,201.946 C209.595,198.151 210.248,199.861 209.127,196.827 C207.312,191.801 204.999,184.618 202.155,175.24 C197.596,160.203 192.641,142.908 183.449,110.26 C183.277,109.652 183.277,109.652 183.106,109.043 C172.052,69.777 169.03,59.142 164.739,44.676 C161.974,35.355 159.749,28.203 158.032,23.166 C157.446,21.483 156.881,19.789 156.211,18.137 z" fill="#000000"/>
  </g>
</svg>
