<?xml version="1.0" encoding="UTF-8"?>
<!DOCTYPE svg PUBLIC "-//W3C//DTD SVG 1.1//EN" "http://www.w3.org/Graphics/SVG/1.1/DTD/svg11.dtd">
<svg version="1.1" xmlns="http://www.w3.org/2000/svg" xmlns:xlink="http://www.w3.org/1999/xlink" x="0" y="0" width="256" height="256" viewBox="0, 0, 256, 256">
  <g id="レイヤー_2">
    <path d="M128,3.712 C150.372,3.712 166.962,12.818 177.673,28.313 C185.387,39.473 189.462,53.551 189.462,63.952 C189.335,65.213 189.497,64.788 189.279,65.307 C189.247,66.034 188.733,66.655 188.443,67.293 C188.433,67.317 188.441,67.303 188.413,67.33 L187.842,68.053 C179.067,75.73 168.312,81.248 157.838,86.215 L157.838,120.383 C157.739,121.364 157.861,120.94 157.553,121.674 C160.885,123.029 162.653,126.371 162.827,129.819 C162.827,134.784 158.803,138.808 153.838,138.808 C148.874,138.808 144.849,134.784 144.849,129.819 C144.919,126.353 146.872,123.048 150.123,121.674 C149.815,120.94 149.937,121.364 149.838,120.383 L149.838,89.997 C144.142,92.622 138.321,94.977 132.39,97.016 L132.39,228.123 C139.425,228.364 146.354,229.722 153.223,231.162 C157.236,232.039 161.422,233.063 166.269,234.331 C167.024,234.529 181.333,238.384 184.441,239.131 C186.38,239.582 185.562,239.41 186.888,239.675 C186.923,235.393 186.762,231.112 186.592,226.834 C186.191,217.216 185.451,204.845 184.263,187.103 C184.136,185.208 184.003,183.23 183.856,181.074 C183.71,178.917 182.8,165.588 182.554,161.938 C182.085,154.989 181.747,149.783 181.479,145.349 C180.681,132.135 180.534,127.797 181.24,125.681 C182.115,123.054 184.282,121.546 186.69,121.176 C187.911,120.989 189.072,121.092 190.331,121.376 C191.937,121.74 193.823,122.449 196.105,123.492 C199.751,125.157 204.474,127.713 210.068,130.984 C211.022,131.542 211.997,132.118 212.989,132.711 C220.923,137.528 217.052,135.141 224.607,139.866 L242.165,101.539 L241.154,101.043 C236.46,98.741 231.753,96.439 227.342,94.291 C227.176,94.21 227.176,94.21 227.009,94.129 C216.878,89.196 209.852,85.83 207.654,84.877 C206.821,84.516 205.892,84.127 204.881,83.714 C204.38,83.509 203.86,83.299 203.323,83.084 C201.237,82.251 198.993,81.386 196.748,80.543 C195.961,80.247 195.231,79.975 194.577,79.734 C194.186,79.59 193.909,79.489 193.766,79.436 C190.651,78.304 189.045,74.861 190.177,71.747 C190.932,69.907 192.378,68.465 194.364,67.976 C195.117,67.79 195.914,67.899 196.688,67.86 L197.866,68.159 C198.027,68.217 198.321,68.325 198.729,68.475 C199.405,68.725 200.158,69.005 200.968,69.309 C203.286,70.18 205.605,71.073 207.777,71.941 C208.341,72.167 208.89,72.388 209.42,72.605 C210.505,73.048 211.509,73.47 212.425,73.866 C214.868,74.925 221.885,78.287 232.262,83.339 C232.429,83.421 232.429,83.421 232.596,83.502 C237.019,85.656 241.735,87.963 246.438,90.269 C248.084,91.077 249.611,91.827 250.98,92.499 C251.459,92.735 251.743,92.874 252.251,93.124 C252.623,93.307 252.623,93.307 252.702,93.346 C255.616,94.781 256.859,98.275 255.506,101.228 L232.642,151.14 C231.114,154.477 226.975,155.671 223.904,153.663 C223.846,153.626 223.724,153.546 223.546,153.431 C223.248,153.237 222.9,153.012 222.506,152.757 C221.376,152.029 220.107,151.217 218.725,150.341 C214.78,147.842 210.739,145.343 206.839,143.015 C205.876,142.44 204.933,141.882 204.01,141.343 C200.394,139.199 196.706,137.184 192.953,135.29 C193.088,138.403 193.272,141.515 193.457,144.626 C193.723,149.026 194.06,154.207 194.527,161.131 C194.773,164.774 195.682,178.101 195.829,180.262 C195.975,182.421 196.109,184.402 196.236,186.301 C197.431,204.139 198.175,216.587 198.581,226.335 C198.826,232.206 198.931,236.822 198.884,240.182 C198.858,242.074 198.784,243.598 198.648,244.796 C198.345,247.487 197.979,248.852 196.111,250.454 C193.918,252.333 191.719,252.505 188.426,252.122 C186.655,251.916 184.47,251.481 181.635,250.799 C178.34,250.006 163.839,246.099 163.231,245.94 C158.53,244.71 154.494,243.723 150.662,242.886 C141.608,240.908 134.243,239.908 128.506,240.019 L128,239.978 L127.494,240.019 C121.757,239.908 114.392,240.908 105.338,242.886 C101.506,243.723 97.47,244.71 92.768,245.94 C92.161,246.099 77.66,250.006 74.365,250.799 C71.53,251.481 69.345,251.916 67.574,252.122 C64.281,252.505 62.082,252.333 59.889,250.454 C58.021,248.852 57.655,247.487 57.352,244.796 C57.216,243.598 57.142,242.074 57.116,240.182 C57.069,236.822 57.174,232.206 57.419,226.335 C57.825,216.587 58.569,204.139 59.764,186.301 C59.891,184.402 60.025,182.421 60.171,180.262 C60.318,178.101 61.227,164.774 61.473,161.131 C61.94,154.207 62.277,149.027 62.543,144.626 C62.73,141.515 62.909,138.403 63.047,135.29 C59.271,137.139 55.624,139.234 51.99,141.343 C51.068,141.882 50.124,142.44 49.161,143.015 C45.261,145.343 41.22,147.842 37.275,150.341 C35.894,151.217 34.624,152.029 33.494,152.757 C33.1,153.012 32.752,153.237 32.454,153.431 C32.276,153.546 32.154,153.626 32.096,153.663 C29.025,155.671 24.887,154.477 23.358,151.14 L0.493,101.228 C-0.859,98.275 0.384,94.781 3.298,93.346 C3.377,93.307 3.377,93.307 3.749,93.124 C4.257,92.874 4.541,92.735 5.02,92.499 C6.389,91.827 7.916,91.077 9.561,90.269 C14.265,87.963 18.981,85.656 23.404,83.502 C23.571,83.421 23.571,83.421 23.738,83.339 C34.115,78.287 41.132,74.925 43.575,73.866 C44.491,73.47 45.495,73.048 46.58,72.605 C47.111,72.388 47.659,72.167 48.223,71.941 C50.395,71.073 52.714,70.18 55.032,69.309 C55.842,69.005 56.595,68.725 57.271,68.475 C57.679,68.325 57.973,68.217 58.133,68.159 L59.311,67.86 L60.418,67.859 C63.024,68.108 64.601,69.546 65.823,71.747 C66.955,74.861 65.349,78.304 62.234,79.436 C62.091,79.489 61.814,79.59 61.423,79.734 C60.769,79.975 60.039,80.247 59.252,80.543 C57.007,81.386 54.763,82.251 52.676,83.084 C52.14,83.299 51.62,83.509 51.119,83.714 C50.108,84.127 49.179,84.516 48.346,84.877 C46.148,85.83 39.122,89.196 28.991,94.129 C28.824,94.21 28.824,94.21 28.658,94.291 C24.247,96.439 19.54,98.741 14.846,101.043 L13.835,101.539 L31.393,139.866 C38.948,135.141 35.077,137.528 43.011,132.711 C44.003,132.118 44.978,131.542 45.932,130.984 C51.526,127.713 56.249,125.157 59.895,123.492 C62.177,122.449 64.063,121.74 65.669,121.376 C66.928,121.092 68.089,120.989 69.31,121.176 C71.718,121.546 73.885,123.054 74.76,125.681 C75.466,127.797 75.319,132.135 74.521,145.349 C74.253,149.783 73.915,154.989 73.446,161.938 C73.2,165.588 72.29,178.917 72.144,181.074 C71.997,183.23 71.864,185.208 71.737,187.103 C70.549,204.845 69.809,217.216 69.408,226.834 C69.237,231.112 69.079,235.393 69.112,239.675 C70.438,239.41 69.62,239.582 71.559,239.131 C74.667,238.384 88.976,234.529 89.731,234.331 C94.578,233.063 98.764,232.039 102.777,231.162 C109.885,229.467 117.11,228.533 124.39,228.074 L124.39,97.314 C118.221,95.122 112.092,92.779 106.162,89.997 L106.162,120.383 C106.063,121.364 106.185,120.94 105.877,121.674 C109.209,123.029 110.977,126.371 111.151,129.819 C111.151,134.784 107.126,138.808 102.162,138.808 C97.197,138.808 93.173,134.784 93.173,129.819 C93.242,126.353 95.196,123.048 98.447,121.674 C98.138,120.94 98.261,121.364 98.162,120.383 L98.162,86.246 C92.26,83.54 86.628,80.28 80.985,77.082 C76.534,74.5 71.839,71.713 68.158,68.053 L67.586,67.33 C67.559,67.303 67.567,67.317 67.557,67.293 C67.062,66.727 66.793,66.025 66.721,65.307 C66.503,64.788 66.665,65.213 66.538,63.952 C66.538,53.551 70.613,39.473 78.327,28.313 C89.038,12.818 105.628,3.712 128,3.712 z M153.838,124.83 C151.083,124.83 148.849,127.064 148.849,129.819 C148.849,132.575 151.083,134.808 153.838,134.808 C156.593,134.808 158.827,132.575 158.827,129.819 C158.827,127.064 156.593,124.83 153.838,124.83 z M102.162,124.83 C99.407,124.83 97.173,127.064 97.173,129.819 C97.173,132.575 99.407,134.808 102.162,134.808 C104.917,134.808 107.151,132.575 107.151,129.819 C107.151,127.064 104.917,124.83 102.162,124.83 z M128,48.014 L121.834,48.296 C114.402,48.831 106.957,49.732 99.827,51.998 C97.874,52.618 95.991,53.441 94.073,54.162 C97.448,58.759 101.539,62.779 105.64,66.721 C107.169,68.176 108.806,69.692 110.57,71.294 C112.58,73.118 114.686,74.99 117.178,77.176 C118.487,78.324 122.613,81.924 123.142,82.387 C124.241,83.342 125.326,84.313 126.41,85.284 L127.959,85.822 L129.711,85.177 C131.763,83.34 130.714,84.27 132.857,82.387 C133.387,81.924 137.513,78.324 138.822,77.176 C141.314,74.99 143.42,73.118 145.43,71.294 C147.194,69.692 148.831,68.176 150.36,66.721 C154.437,62.788 158.515,58.796 161.883,54.223 C151.186,49.468 139.552,48.473 128,48.014 z M168.883,58.156 C165.228,63.504 160.525,68.047 155.874,72.517 C153.255,74.976 154.251,74.058 152.906,75.292 C160.619,71.876 167.843,67.491 174.998,63.054 C171.518,59.843 173.519,61.521 168.883,58.156 z M87.076,58.094 C82.453,61.496 84.437,59.794 81.002,63.054 C88.169,67.452 95.512,71.55 103.058,75.259 C101.748,74.058 102.733,74.964 100.126,72.517 C95.515,67.982 90.675,63.515 87.076,58.094 z M128,15.712 L124.624,15.795 C109.255,16.691 97.316,22.704 88.198,35.136 C85.703,38.879 83.439,42.855 82.051,47.154 C95.894,38.768 112.074,36.353 128,36.014 C142.003,36.062 156.091,38.358 168.856,44.307 C170.619,45.128 172.251,46.205 173.949,47.154 C172.713,42.783 170.195,38.932 167.801,35.136 C159.285,22.816 146.343,15.712 128,15.712 z" fill="#383838"/>
  </g>
</svg>
