<?xml version="1.0" encoding="UTF-8"?>
<!DOCTYPE svg PUBLIC "-//W3C//DTD SVG 1.1//EN" "http://www.w3.org/Graphics/SVG/1.1/DTD/svg11.dtd">
<svg version="1.1" xmlns="http://www.w3.org/2000/svg" xmlns:xlink="http://www.w3.org/1999/xlink" x="0" y="0" width="256" height="256" viewBox="0, 0, 256, 256">
  <g id="レイヤー_2">
    <path d="M128,12.406 C136.64,12.406 144.791,13.397 150.993,15.178 C154.304,16.129 157.061,17.302 159.174,18.737 C162.212,20.801 163.189,23.525 164.174,27.074 C166.783,36.484 169.193,43.717 170.931,51.105 C172.005,51.451 171.137,51.171 173.533,51.954 C178.074,53.448 182.616,54.998 186.867,56.526 C188.606,57.151 190.265,57.762 191.831,58.354 C198.01,60.692 202.529,62.658 205.241,64.31 C205.347,64.374 205.47,64.448 205.653,64.555 C205.589,64.517 206.071,64.799 206.213,64.883 C206.756,65.204 207.203,65.478 207.675,65.786 C208.981,66.639 210.196,67.582 211.41,68.73 C214.416,71.571 217.109,75.408 219.551,80.605 C219.768,81.067 219.983,81.54 220.196,82.023 C228.778,101.512 239.655,136.452 251.172,179.527 C251.557,181.067 251.352,182.608 250.607,184.015 C250.404,184.399 250.07,184.698 249.801,185.04 C249.909,186.506 250.386,187.919 250.806,189.318 C250.96,189.807 251.128,190.318 251.353,190.99 C252.565,194.615 252.615,194.772 252.956,196.092 C253.711,199.014 252.178,202.043 249.375,203.164 C246.741,204.218 242.733,205.736 236.517,208.052 L236.208,208.167 C234.827,208.682 229.736,210.574 228.643,210.981 C225.963,211.98 224.152,212.66 222.839,213.162 C219.54,214.426 215.868,212.579 214.915,209.177 C214.071,206.162 213.695,204.874 213.142,203.188 C212.259,200.497 211.394,198.42 210.57,197.055 C210.239,196.534 210.42,196.798 210.023,196.267 C207.833,195.691 206.483,194.21 205.703,192.145 C200.907,175.864 196.124,159.563 190.533,143.532 C190.74,169.311 192.461,195.113 195.781,220.681 C196.138,223.342 194.684,225.915 192.222,226.983 C190.352,227.794 188.237,232 186.437,238.679 C186.156,239.722 185.599,240.669 184.824,241.422 C182.783,243.404 180.469,243.776 177.586,243.524 C176.025,243.388 174.212,243.028 171.886,242.436 C169.408,241.805 158.764,238.69 157.335,238.29 C149.686,236.154 143.452,234.759 137.517,234.008 C134.161,233.584 131.028,233.392 128.116,233.448 C124.972,233.392 121.839,233.584 118.483,234.008 C112.548,234.759 106.314,236.154 98.665,238.29 C97.236,238.69 86.592,241.805 84.114,242.436 C81.788,243.028 79.975,243.388 78.414,243.524 C75.531,243.776 73.217,243.404 71.176,241.422 C70.401,240.669 69.844,239.722 69.563,238.679 C67.763,232 65.648,227.794 63.778,226.983 C61.316,225.915 59.862,223.342 60.219,220.681 C63.302,195.1 65.509,169.319 65.467,143.532 C59.926,159.58 55.051,175.849 50.297,192.145 C49.516,194.541 48.213,195.418 45.977,196.267 C45.58,196.798 45.761,196.534 45.43,197.055 C44.606,198.42 43.741,200.497 42.858,203.188 C42.305,204.874 41.929,206.162 41.085,209.177 C40.132,212.579 36.46,214.426 33.161,213.162 C31.848,212.66 30.037,211.98 27.357,210.981 C26.264,210.574 21.173,208.682 19.792,208.167 L19.483,208.052 C13.267,205.736 9.259,204.218 6.625,203.164 C3.822,202.043 2.289,199.014 3.044,196.092 C3.385,194.772 3.436,194.615 4.647,190.99 C4.872,190.318 5.04,189.807 5.194,189.318 C5.639,187.921 6.042,186.501 6.199,185.04 C4.726,183.502 4.455,181.547 4.828,179.527 C16.346,136.452 27.222,101.512 35.804,82.023 C36.017,81.54 36.232,81.067 36.449,80.605 C38.891,75.408 41.584,71.571 44.59,68.73 C45.804,67.582 47.019,66.639 48.325,65.786 C48.797,65.478 49.244,65.204 49.787,64.883 C49.929,64.799 50.411,64.517 50.347,64.555 C50.53,64.448 50.653,64.374 50.759,64.31 C53.471,62.658 57.99,60.692 64.169,58.354 C65.735,57.762 67.394,57.151 69.133,56.526 C73.384,54.998 77.926,53.448 82.467,51.954 C84.863,51.171 83.995,51.451 85.069,51.105 C87.239,44.32 91.576,28.987 91.826,27.074 C92.324,23.262 93.788,20.801 96.826,18.737 C98.939,17.302 101.696,16.129 105.007,15.178 C112.481,13.05 120.268,12.517 128,12.406 L128,12.406 z M99.197,44.412 C98.011,48.403 96.877,52.436 96.287,56.566 C95.554,60.229 94.294,60.934 90.946,61.82 L90.515,61.957 C89.219,62.372 87.774,62.841 86.217,63.353 C81.772,64.815 77.329,66.331 73.193,67.818 C71.513,68.422 69.917,69.01 68.416,69.577 C62.917,71.659 58.88,73.414 57.002,74.558 C57.137,74.476 55.36,75.524 54.89,75.831 C54.157,76.31 53.501,76.818 52.833,77.45 C50.965,79.216 49.137,81.822 47.31,85.709 C47.135,86.082 46.96,86.465 46.787,86.859 C34.383,116.982 25.624,148.497 17.153,179.91 C18.125,181.592 18.196,183.534 18.202,185.422 C18.106,187.658 17.582,189.942 16.636,192.934 C16.332,193.879 16.452,193.514 16.281,194.032 C18.74,194.97 21.207,195.887 23.673,196.807 C23.827,196.865 23.827,196.865 23.981,196.922 C26.448,197.841 28.916,198.757 31.383,199.675 L31.457,199.445 C32.598,195.967 33.773,193.144 35.159,190.85 C36.221,188.867 37.789,187.381 39.57,186.069 C44.735,168.538 49.976,151.013 56.176,133.815 C58.367,127.809 60.19,123.379 61.637,120.58 C62.576,118.764 63.406,117.485 64.463,116.497 C67.816,113.361 73.29,114.135 75.077,118.901 C77.748,126.028 78.076,143.274 76.787,168.168 C75.881,185.016 74.546,201.845 72.574,218.603 C74.695,220.466 76.131,222.856 77.452,225.308 C79.032,228.733 78.224,226.804 79.774,231.136 C80.343,231.022 79.88,231.117 81.152,230.807 C83.387,230.238 93.828,227.182 95.437,226.733 C103.602,224.452 110.358,222.94 116.977,222.103 C121.24,221.631 118.9,221.84 124,221.539 L124,90.15 C119.289,82.576 116.816,76.561 116.587,75.998 C114.993,72.068 113.825,68.99 112.815,65.956 C111.344,61.751 110.333,57.42 109.778,53.005 C109.464,52.793 109.151,52.579 108.836,52.369 C107.288,51.317 106.063,50.448 104.848,49.522 C100.925,46.317 102.81,48.019 99.197,44.412 z M95.989,175.023 L96.783,175.186 C98.891,175.845 100.066,178.089 99.406,180.198 C97.404,186.595 94.051,193.391 90.128,199.54 C88.94,201.403 86.467,201.949 84.604,200.761 C82.742,199.573 82.195,197.1 83.384,195.237 C86.953,189.643 90.001,183.465 91.771,177.809 C92.596,175.672 93.877,175.26 95.989,175.023 z M156.803,44.412 C153.19,48.019 155.075,46.317 151.152,49.522 C149.937,50.448 148.712,51.317 147.164,52.369 C146.849,52.579 146.536,52.793 146.222,53.005 C145.812,57.441 144.538,61.732 143.185,65.956 C142.175,68.99 141.007,72.068 139.413,75.998 C136.073,84.183 133.229,87.8 132,90.15 C132,92.828 132,221.539 132,221.539 C137.1,221.84 134.76,221.631 139.023,222.103 C145.642,222.94 152.398,224.452 160.563,226.733 C162.172,227.182 172.613,230.238 174.848,230.807 C176.12,231.117 175.657,231.022 176.226,231.136 C177.776,226.804 176.968,228.733 178.548,225.308 C179.691,222.715 181.52,220.645 183.426,218.603 C181.413,201.848 180.172,185.011 179.213,168.168 C177.924,143.274 178.252,126.028 180.923,118.901 C182.71,114.135 188.185,113.361 191.537,116.497 C192.594,117.485 193.424,118.764 194.363,120.58 C195.81,123.379 197.633,127.809 199.824,133.815 C205.988,151.024 211.312,168.524 216.43,186.069 C218.379,187.179 219.644,189.019 220.841,190.85 C222.227,193.144 223.402,195.967 224.543,199.445 L224.617,199.675 C227.084,198.757 229.552,197.84 232.019,196.922 C232.173,196.865 232.173,196.865 232.327,196.807 C234.794,195.889 237.258,194.966 239.719,194.032 C239.547,193.514 239.668,193.879 239.364,192.934 C238.418,189.942 237.894,187.658 237.798,185.422 C237.803,183.739 237.732,183.292 238.224,181.36 C238.354,180.85 238.639,180.394 238.847,179.91 C229.968,148.636 221.997,116.844 209.213,86.859 C209.04,86.465 208.865,86.082 208.69,85.709 C206.863,81.822 205.035,79.216 203.167,77.45 C202.499,76.818 201.843,76.31 201.11,75.831 C200.64,75.524 198.863,74.476 198.998,74.558 C197.12,73.414 193.084,71.659 187.584,69.577 C186.083,69.01 184.487,68.422 182.807,67.818 C178.671,66.331 174.228,64.815 169.783,63.353 C168.226,62.841 166.781,62.372 165.485,61.957 L165.054,61.82 C161.97,61.377 160.351,59.515 159.713,56.566 C159.155,52.428 157.946,48.415 156.803,44.412 z M160.011,175.023 C162.06,174.984 163.439,175.96 164.229,177.809 C165.999,183.465 169.047,189.643 172.616,195.237 C173.805,197.1 173.258,199.573 171.396,200.761 C169.533,201.949 167.06,201.403 165.872,199.54 C161.949,193.391 158.596,186.595 156.594,180.198 C155.934,178.089 157.109,175.845 159.217,175.186 L160.011,175.023 z M128,24.406 L128,24.406 C120.417,24.406 113.363,25.263 108.321,26.712 C106.81,27.156 105.294,27.657 103.928,28.454 C104.377,33.486 108.476,37.03 112.125,39.98 C113.138,40.752 114.199,41.505 115.582,42.445 C115.84,42.62 116.104,42.799 116.442,43.027 C116.5,43.066 117.114,43.479 117.292,43.599 C117.99,44.07 118.477,44.403 118.944,44.73 C120.495,45.815 121.443,47.57 121.501,49.462 C121.607,52.935 122.519,57.118 124.2,62.165 C125.115,64.912 126.201,67.774 127.707,71.488 C127.847,71.831 127.75,71.592 128,72.203 C128.25,71.592 128.153,71.831 128.293,71.488 C129.799,67.774 130.885,64.912 131.8,62.165 C133.481,57.118 134.393,52.935 134.499,49.462 C134.557,47.57 135.505,45.815 137.056,44.73 C137.523,44.403 138.01,44.07 138.708,43.599 C138.886,43.479 139.5,43.066 139.558,43.027 C139.896,42.799 140.16,42.62 140.418,42.445 C141.801,41.505 142.862,40.752 143.875,39.98 C147.482,37.077 151.703,33.456 152.072,28.454 C150.73,27.614 149.176,27.182 147.679,26.712 C141.281,24.915 134.612,24.499 128,24.406 z" fill="#383838"/>
  </g>
</svg>
