<?xml version="1.0" encoding="UTF-8"?>
<!DOCTYPE svg PUBLIC "-//W3C//DTD SVG 1.1//EN" "http://www.w3.org/Graphics/SVG/1.1/DTD/svg11.dtd">
<svg version="1.1" xmlns="http://www.w3.org/2000/svg" xmlns:xlink="http://www.w3.org/1999/xlink" x="0" y="0" width="256" height="256" viewBox="0, 0, 256, 256">
  <g id="レイヤー_2">
    <path d="M236.839,60.386 C239.149,60.42 240.853,61.455 242.163,63.303 C242.597,64.027 243.317,65.298 244.229,67.02 C245.735,69.862 247.239,72.961 248.646,76.225 C251.044,81.791 252.914,87.264 254.051,92.489 C255.464,98.979 255.699,104.849 254.433,109.998 C253.897,112.179 252.188,113.877 250.004,114.4 C228.502,119.552 208.843,130.582 191.141,145.818 C182.82,152.98 175.438,160.637 168.9,168.49 C166.575,171.283 164.516,173.909 162.571,176.511 C161.708,177.665 159.675,180.461 159.426,180.779 C153.137,188.817 141.439,195.616 128,195.616 C114.561,195.616 102.863,188.817 96.574,180.779 C96.325,180.461 94.292,177.665 93.429,176.511 C91.484,173.909 89.425,171.283 87.1,168.49 C80.562,160.637 73.18,152.98 64.859,145.818 C47.157,130.582 27.498,119.552 5.996,114.4 C3.812,113.877 2.103,112.179 1.567,109.998 C0.301,104.849 0.536,98.979 1.949,92.489 C3.086,87.264 4.956,81.791 7.355,76.225 C8.761,72.961 10.265,69.862 11.771,67.02 C12.683,65.298 13.403,64.027 13.837,63.303 C15.126,61.15 17.618,60.026 20.084,60.485 C20.268,60.52 20.7,60.594 21.387,60.702 C22.571,60.889 24.027,61.099 25.763,61.326 C30.772,61.981 36.998,62.639 44.505,63.255 C66.057,65.024 93.508,66.087 127.377,66.087 L128.623,66.087 C162.492,66.087 189.944,65.024 211.495,63.255 C219.002,62.639 225.228,61.981 230.237,61.326 C231.973,61.099 233.429,60.889 234.613,60.702 C235.3,60.594 235.732,60.52 235.916,60.485 L236.839,60.386 z M233.786,72.955 L231.794,73.224 C226.591,73.905 220.173,74.584 212.476,75.215 C190.589,77.011 162.811,78.087 128.623,78.087 L127.377,78.087 C93.189,78.087 65.411,77.011 43.524,75.215 C35.827,74.584 29.409,73.905 24.206,73.224 L22.214,72.955 C19.628,78.074 20.915,75.404 18.375,80.974 C16.259,85.884 14.629,90.655 13.674,95.042 C13.117,97.898 12.548,100.839 12.794,103.763 C35.179,109.584 55.132,121.98 72.687,136.723 C81.546,144.348 89.382,152.476 96.322,160.812 C98.79,163.776 100.977,166.565 103.042,169.328 C104.015,170.631 105.93,173.263 106.025,173.384 C110.204,178.725 118.619,183.616 128,183.616 C137.381,183.616 145.796,178.725 149.975,173.384 C150.07,173.263 151.985,170.631 152.958,169.328 C155.023,166.565 157.21,163.776 159.678,160.812 C166.619,152.476 174.454,144.348 183.313,136.723 C200.748,121.949 220.887,109.514 243.206,103.763 C243.421,100.831 242.894,97.905 242.326,95.042 C241.371,90.655 239.741,85.884 237.625,80.974 C235.085,75.404 236.372,78.074 233.786,72.955 z" fill="#383838"/>
  </g>
</svg>
