<?xml version="1.0" encoding="UTF-8"?>
<!DOCTYPE svg PUBLIC "-//W3C//DTD SVG 1.1//EN" "http://www.w3.org/Graphics/SVG/1.1/DTD/svg11.dtd">
<svg version="1.1" xmlns="http://www.w3.org/2000/svg" xmlns:xlink="http://www.w3.org/1999/xlink" x="0" y="0" width="256" height="256" viewBox="0, 0, 256, 256">
  <g id="レイヤー_2">
    <path d="M197.924,12.701 C200.903,12.847 202.834,14.381 203.879,17.114 C203.904,17.204 203.904,17.204 204.023,17.639 C204.141,18.072 204.281,18.582 204.44,19.168 C204.897,20.843 205.427,22.79 206.024,24.989 C207.728,31.27 209.627,38.31 211.672,45.944 C217.515,67.757 223.357,89.962 228.812,111.239 C229.751,114.903 230.672,118.514 231.574,122.067 C238.647,149.943 244.321,173.471 248.187,191.272 C253.384,215.207 255.093,226.322 252.951,230.644 C252.109,232.342 250.514,233.543 248.649,233.882 C243.315,234.853 234.711,236.138 223.514,237.668 C221.437,237.952 219.282,238.243 217.058,238.54 C208.935,239.623 200.235,240.74 191.536,241.827 C188.492,242.208 185.665,242.557 183.128,242.868 C182.24,242.977 181.451,243.074 180.771,243.156 C180.362,243.206 180.081,243.24 179.933,243.258 C176.97,243.616 174.194,241.741 173.419,238.858 C173.405,238.806 173.375,238.692 173.329,238.524 C173.253,238.242 173.162,237.909 173.057,237.525 C172.756,236.426 172.402,235.15 172,233.71 C170.848,229.594 169.533,225.004 168.078,220.06 C163.921,205.942 159.476,191.825 154.928,178.668 C150.361,165.457 145.94,153.953 141.776,144.672 C138.321,136.972 135.11,130.961 132.254,126.913 C130.874,124.958 129.628,123.536 128.598,122.691 C128.06,122.289 128.271,122.414 128,122.259 C127.728,122.414 127.94,122.289 127.402,122.691 C126.372,123.536 125.126,124.958 123.746,126.913 C120.89,130.961 117.679,136.972 114.224,144.672 C110.06,153.953 105.639,165.457 101.072,178.668 C96.524,191.825 92.079,205.942 87.922,220.06 C86.467,225.004 85.152,229.594 84,233.71 C83.598,235.15 83.244,236.426 82.943,237.525 C82.838,237.909 82.747,238.242 82.671,238.524 C82.625,238.692 82.595,238.806 82.58,238.858 C81.806,241.741 79.03,243.616 76.067,243.258 C75.92,243.24 75.638,243.206 75.229,243.156 C74.549,243.074 73.76,242.977 72.872,242.868 C70.335,242.557 67.508,242.208 64.464,241.827 C55.765,240.74 47.065,239.623 38.942,238.54 C36.718,238.243 34.563,237.952 32.486,237.668 C21.289,236.138 12.686,234.853 7.351,233.882 C5.486,233.543 3.891,232.342 3.049,230.644 C0.907,226.322 2.616,215.207 7.813,191.272 C11.679,173.471 17.353,149.943 24.426,122.067 C25.328,118.514 26.249,114.903 27.188,111.239 C32.643,89.962 38.485,67.757 44.328,45.944 C46.373,38.31 48.272,31.27 49.976,24.989 C50.573,22.79 51.103,20.843 51.56,19.168 C51.719,18.582 51.859,18.072 51.977,17.639 C52.096,17.204 52.096,17.204 52.121,17.114 C52.97,14.013 56.113,12.133 59.247,12.851 C59.335,12.871 59.582,12.923 59.993,13.003 C60.724,13.145 61.631,13.305 62.717,13.48 C65.883,13.989 69.831,14.502 74.602,14.984 C88.361,16.372 105.917,17.207 127.599,17.207 L128.401,17.207 C150.083,17.207 167.639,16.372 181.398,14.984 C186.17,14.502 190.117,13.989 193.283,13.48 C194.369,13.305 195.276,13.145 196.007,13.003 C196.418,12.923 196.665,12.871 196.753,12.851 L197.924,12.701 z M193.74,25.547 C190.045,26.139 186.321,26.525 182.602,26.923 C168.432,28.353 150.475,29.207 128.401,29.207 L127.599,29.207 C105.525,29.207 87.569,28.353 73.398,26.923 C69.676,26.548 65.959,26.108 62.26,25.547 C61.847,27.066 62.081,26.205 61.558,28.131 C59.857,34.4 57.961,41.428 55.92,49.049 C50.087,70.824 44.255,92.988 38.812,114.219 C37.875,117.874 36.957,121.475 36.058,125.018 C29.015,152.772 23.371,176.179 19.54,193.819 C17.387,203.733 15.839,211.686 14.949,217.469 C14.482,220.664 14.726,218.864 14.253,222.875 C20.856,223.953 27.484,224.865 34.111,225.779 C36.175,226.061 38.317,226.35 40.529,226.645 C48.615,227.724 57.283,228.836 65.952,229.92 C71.014,230.549 68.872,230.285 72.377,230.717 L72.444,230.477 C73.61,226.31 74.939,221.669 76.411,216.671 C80.616,202.387 85.115,188.1 89.731,174.748 C94.405,161.227 98.945,149.411 103.275,139.76 C112.021,120.267 119.183,110.115 128,110.115 C136.817,110.115 143.979,120.267 152.725,139.76 C157.055,149.411 161.595,161.227 166.269,174.748 C170.885,188.1 175.384,202.387 179.589,216.671 C181.061,221.669 182.39,226.31 183.556,230.477 L183.623,230.717 C187.128,230.285 184.986,230.549 190.048,229.92 C198.717,228.836 207.385,227.724 215.471,226.645 C217.683,226.35 219.825,226.061 221.889,225.779 C228.517,224.869 235.143,223.945 241.747,222.875 C241.274,218.864 241.518,220.664 241.05,217.469 C240.161,211.686 238.613,203.733 236.46,193.819 C232.629,176.179 226.985,152.772 219.942,125.018 C219.043,121.475 218.125,117.874 217.188,114.219 C211.745,92.988 205.913,70.824 200.08,49.049 C198.039,41.428 196.143,34.4 194.442,28.131 C193.919,26.205 194.153,27.066 193.74,25.547 z" fill="#383838"/>
  </g>
</svg>
