<?xml version="1.0" encoding="UTF-8"?>
<!DOCTYPE svg PUBLIC "-//W3C//DTD SVG 1.1//EN" "http://www.w3.org/Graphics/SVG/1.1/DTD/svg11.dtd">
<svg version="1.1" xmlns="http://www.w3.org/2000/svg" xmlns:xlink="http://www.w3.org/1999/xlink" x="0" y="0" width="256" height="256" viewBox="0, 0, 256, 256">
  <g id="レイヤー_2">
    <path d="M192.063,49.426 L193.233,49.449 L194.404,49.775 C199.535,51.771 203.336,53.47 205.741,54.935 C205.847,55 205.97,55.073 206.153,55.18 C206.089,55.143 206.571,55.425 206.713,55.508 C207.256,55.829 207.703,56.103 208.175,56.411 C209.481,57.265 210.696,58.207 211.91,59.355 C214.916,62.196 217.609,66.034 220.051,71.23 C220.268,71.692 220.483,72.165 220.696,72.648 C230.416,94.723 243.117,136.756 255.971,186.508 C256.735,189.466 255.154,192.527 252.299,193.615 C248.642,195.009 245.552,196.038 241.561,197.238 C241.152,197.361 240.726,197.488 240.249,197.629 C230.091,200.643 227.204,201.571 219.212,204.623 C215.913,205.882 212.246,204.035 211.294,200.635 C206.068,181.971 200.614,163.367 194.62,144.934 L194.637,145.185 C194.882,148.828 195.792,162.155 195.939,164.316 C196.085,166.475 196.219,168.456 196.346,170.355 C197.541,188.193 198.285,200.641 198.691,210.389 C198.936,216.26 199.041,220.876 198.994,224.236 C198.968,226.128 198.893,227.652 198.758,228.85 C198.455,231.541 198.089,232.906 196.221,234.508 C194.028,236.387 191.829,236.559 188.536,236.176 C186.764,235.97 184.58,235.535 181.745,234.853 C178.45,234.06 163.949,230.153 163.341,229.994 C158.64,228.764 154.604,227.777 150.772,226.94 C141.718,224.962 134.352,223.962 128.616,224.073 C128.539,224.074 128.461,224.074 128.384,224.073 C122.648,223.962 115.282,224.962 106.228,226.94 C102.396,227.777 98.36,228.764 93.659,229.994 C93.051,230.153 78.55,234.06 75.255,234.853 C72.42,235.535 70.236,235.97 68.464,236.176 C65.171,236.559 62.972,236.387 60.779,234.508 C58.911,232.906 58.545,231.541 58.242,228.85 C58.107,227.652 58.032,226.128 58.006,224.236 C57.959,220.876 58.064,216.26 58.309,210.389 C58.715,200.641 59.459,188.193 60.654,170.355 C60.781,168.456 60.915,166.475 61.061,164.316 C61.208,162.155 62.118,148.828 62.363,145.185 L62.38,144.934 C56.358,163.358 50.956,181.978 45.706,200.635 C44.754,204.035 41.087,205.882 37.788,204.623 C29.796,201.571 26.91,200.643 16.75,197.629 C16.274,197.488 15.848,197.361 15.439,197.238 C11.448,196.038 8.358,195.009 4.701,193.615 C1.846,192.527 0.265,189.466 1.029,186.508 C13.883,136.756 26.584,94.723 36.304,72.648 C36.517,72.165 36.732,71.692 36.949,71.23 C39.391,66.034 42.084,62.196 45.09,59.355 C46.304,58.207 47.519,57.265 48.825,56.411 C49.297,56.103 49.744,55.829 50.287,55.508 C50.429,55.425 50.911,55.143 50.847,55.18 C51.03,55.073 51.153,55 51.259,54.935 C53.327,53.675 56.403,52.255 60.475,50.614 C63.548,49.375 67.044,50.863 68.283,53.936 C69.522,57.009 68.035,60.505 64.961,61.744 C61.457,63.156 58.865,64.353 57.502,65.183 C57.637,65.101 55.86,66.149 55.39,66.456 C54.657,66.935 54.001,67.444 53.333,68.075 C51.465,69.842 49.637,72.447 47.81,76.334 C47.635,76.707 47.46,77.09 47.287,77.484 C33.189,111.989 23.425,148.169 14.035,184.188 C17.117,185.225 15.499,184.702 18.893,185.745 C19.287,185.864 19.7,185.987 20.164,186.125 C25.45,187.682 30.73,189.269 35.919,191.131 C41.879,170.212 48.017,149.329 55.166,128.78 C57.781,121.348 59.971,115.777 61.66,112.264 C62.66,110.185 63.521,108.717 64.486,107.638 C65.755,106.22 67.209,105.252 69.515,105.231 C72.833,105.199 74.83,107.273 75.65,109.735 C76.356,111.851 76.209,116.189 75.411,129.403 C75.144,133.837 74.805,139.043 74.336,145.992 C74.09,149.642 73.18,162.971 73.034,165.128 C72.888,167.284 72.754,169.262 72.627,171.157 C71.439,188.899 70.699,201.27 70.299,210.888 C70.127,215.166 69.969,219.447 70.002,223.729 C71.328,223.464 70.51,223.636 72.449,223.185 C75.558,222.438 89.866,218.583 90.621,218.385 C95.468,217.117 99.655,216.093 103.667,215.216 C111.829,213.375 120.122,212.102 128.5,212.076 L128.384,212.075 L128.616,212.075 L128.5,212.076 C136.884,211.953 145.164,213.504 153.333,215.216 C157.345,216.093 161.532,217.117 166.379,218.385 C167.134,218.583 181.442,222.438 184.551,223.185 C186.49,223.636 185.672,223.464 186.998,223.729 C187.033,219.447 186.872,215.166 186.701,210.888 C186.301,201.27 185.561,188.899 184.373,171.157 C184.246,169.262 184.112,167.284 183.966,165.128 C183.82,162.971 182.91,149.642 182.664,145.992 C182.195,139.043 181.856,133.837 181.589,129.403 C180.791,116.189 180.644,111.851 181.35,109.735 C182.17,107.273 184.167,105.199 187.485,105.231 C189.791,105.252 191.245,106.22 192.514,107.638 C193.479,108.717 194.34,110.185 195.34,112.264 C197.029,115.777 199.219,121.348 201.834,128.78 C208.997,149.325 215.104,170.217 221.081,191.131 C226.261,189.245 231.555,187.695 236.836,186.125 C237.3,185.987 237.713,185.864 238.107,185.745 C241.501,184.702 239.883,185.225 242.965,184.188 C232.804,148.437 224.513,111.725 209.713,77.484 C209.54,77.09 209.365,76.707 209.19,76.334 C207.363,72.447 205.535,69.842 203.667,68.075 C202.999,67.444 202.343,66.935 201.609,66.456 C201.14,66.149 199.363,65.101 199.498,65.183 C197.869,64.191 194.557,62.711 190.052,60.958 C186.964,59.756 185.435,56.278 186.637,53.19 C187.432,51.367 188.91,49.958 190.906,49.513 L192.063,49.426 z" fill="#383838"/>
    <path d="M128.266,27.323 L131.693,27.329 C138.631,27.929 146.344,27.644 152.728,30.962 C154.637,32.075 155.281,34.524 154.168,36.432 C153.055,38.341 150.606,38.985 148.697,37.872 C142.592,34.31 112.905,34.564 107.219,37.701 C105.285,38.768 102.852,38.065 101.785,36.131 C100.718,34.197 101.42,31.763 103.355,30.696 C111.199,27.337 119.897,27.44 128.266,27.323 z" fill="#383838"/>
    <path d="M168.044,27.272 C169.88,27.652 169.143,27.336 170.336,28.005 C172.244,29.351 174.284,31.894 177.099,36.021 C177.506,36.618 177.929,37.248 178.383,37.932 C179.121,39.047 181.442,42.613 181.723,43.04 C182.809,44.69 183.514,45.702 183.941,46.217 C185.1,47.618 185.168,49.624 184.108,51.1 C178.885,58.376 173.802,65.259 167.543,73.584 C167.05,74.239 155.939,88.955 152.926,92.995 C151.146,95.382 147.474,95.056 146.142,92.392 C145.87,91.848 144.76,90.295 142.888,87.868 C141.85,86.522 137.441,80.911 136.563,79.782 C136.19,79.302 135.834,78.843 135.49,78.397 C131.752,73.55 129.21,70.004 127.597,67.239 C126.489,65.34 127.121,62.903 129.013,61.782 C143.859,52.984 156.49,41.904 164.658,29.119 C165.626,27.69 166.472,27.581 168.044,27.272 z M168.446,37.663 C160.067,49.521 148.654,58.584 136.628,66.485 C138.283,68.884 140.053,71.199 141.825,73.511 C142.162,73.948 142.511,74.399 142.878,74.87 C143.735,75.972 148.158,81.602 149.223,82.982 L149.837,83.783 C153.602,78.776 157.377,73.777 161.148,68.776 C166.138,62.154 171.067,55.486 175.925,48.765 C175.602,48.307 175.908,48.742 175.041,47.439 C174.741,46.984 172.429,43.431 171.714,42.351 C171.279,41.695 170.876,41.094 170.49,40.529 C169.281,38.781 169.958,39.739 168.446,37.663 z" fill="#383838"/>
    <path d="M87.175,27.272 C88.669,27.332 89.667,27.995 90.561,29.119 C98.729,41.904 111.361,52.984 126.207,61.782 C128.098,62.903 128.731,65.34 127.623,67.239 C126.01,70.004 123.468,73.55 119.73,78.397 C119.386,78.843 119.03,79.302 118.657,79.782 C117.779,80.911 113.37,86.522 112.332,87.868 C110.46,90.295 109.35,91.848 109.078,92.392 C107.746,95.056 104.074,95.382 102.293,92.995 C99.281,88.955 88.17,74.239 87.677,73.584 C81.418,65.259 76.335,58.376 71.111,51.1 C70.051,49.624 70.12,47.618 71.279,46.217 C71.706,45.702 72.411,44.69 73.497,43.04 C73.778,42.613 76.099,39.047 76.837,37.932 C77.29,37.248 77.713,36.618 78.12,36.021 C80.935,31.894 82.976,29.351 84.884,28.005 C86.076,27.336 85.34,27.652 87.175,27.272 z M86.773,37.663 C85.262,39.739 85.939,38.781 84.729,40.529 C84.344,41.094 83.941,41.695 83.506,42.351 C82.79,43.431 80.479,46.984 80.179,47.439 C79.312,48.742 79.617,48.307 79.295,48.765 C84.134,55.499 89.095,62.144 94.071,68.776 C97.844,73.777 101.617,78.777 105.383,83.783 L105.997,82.982 C107.062,81.602 111.485,75.972 112.342,74.87 C112.709,74.399 113.058,73.948 113.395,73.511 C115.193,71.218 116.902,68.859 118.592,66.485 C106.304,58.874 95.426,49.245 86.773,37.663 z" fill="#383838"/>
    <path d="M127.61,94.604 C125.422,94.604 123.648,92.83 123.648,90.642 C123.648,88.454 125.422,86.68 127.61,86.68 C129.798,86.68 131.572,88.454 131.572,90.642 C131.572,92.83 129.798,94.604 127.61,94.604 z" fill="#383838"/>
    <path d="M127.61,112.236 C125.422,112.236 123.648,110.462 123.648,108.274 C123.648,106.086 125.422,104.312 127.61,104.312 C129.798,104.312 131.572,106.086 131.572,108.274 C131.572,110.462 129.798,112.236 127.61,112.236 z" fill="#383838"/>
    <path d="M127.61,131.209 C125.422,131.209 123.648,129.436 123.648,127.248 C123.648,125.06 125.422,123.286 127.61,123.286 C129.798,123.286 131.572,125.06 131.572,127.248 C131.572,129.436 129.798,131.209 127.61,131.209 z" fill="#383838"/>
    <path d="M127.61,148.841 C125.422,148.841 123.648,147.068 123.648,144.88 C123.648,142.692 125.422,140.918 127.61,140.918 C129.798,140.918 131.572,142.692 131.572,144.88 C131.572,147.068 129.798,148.841 127.61,148.841 z" fill="#383838"/>
    <path d="M127.61,165.499 C125.422,165.499 123.648,163.725 123.648,161.537 C123.648,159.349 125.422,157.576 127.61,157.576 C129.798,157.576 131.572,159.349 131.572,161.537 C131.572,163.725 129.798,165.499 127.61,165.499 z" fill="#383838"/>
    <path d="M127.61,183.131 C125.422,183.131 123.648,181.357 123.648,179.169 C123.648,176.981 125.422,175.208 127.61,175.208 C129.798,175.208 131.572,176.981 131.572,179.169 C131.572,181.357 129.798,183.131 127.61,183.131 z" fill="#383838"/>
    <path d="M127.61,202.105 C125.422,202.105 123.648,200.331 123.648,198.143 C123.648,195.955 125.422,194.181 127.61,194.181 C129.798,194.181 131.572,195.955 131.572,198.143 C131.572,200.331 129.798,202.105 127.61,202.105 z" fill="#383838"/>
  </g>
</svg>
