<?xml version="1.0" encoding="UTF-8"?>
<!DOCTYPE svg PUBLIC "-//W3C//DTD SVG 1.1//EN" "http://www.w3.org/Graphics/SVG/1.1/DTD/svg11.dtd">
<svg version="1.1" xmlns="http://www.w3.org/2000/svg" xmlns:xlink="http://www.w3.org/1999/xlink" x="0" y="0" width="256" height="256" viewBox="0, 0, 256, 256">
  <g id="レイヤー_1">
    <path d="M57.056,14.471 L58.332,14.571 C81.772,18.929 115.326,21.408 133.509,20.839 C156.212,20.13 189.362,17.43 200.645,14.645 C204,13.817 207.359,15.986 207.984,19.384 C209.154,25.742 210.486,32.3 214.385,51.166 C214.411,51.29 214.411,51.29 214.437,51.414 C217.99,68.607 219.599,76.573 220.809,83.227 C221.396,86.452 235.749,134.992 237.757,142.045 C239.084,146.71 240.335,151.178 241.519,155.492 C248.527,181.028 253.027,200.551 254.583,213.722 C254.892,216.333 253.464,218.841 251.061,219.909 C242.502,223.713 230.681,225.725 216.897,226.314 C210.561,226.59 204.215,226.523 197.882,226.211 C196.38,226.137 194.883,225.989 193.384,225.878 C192.51,228.477 192.21,231.218 191.925,233.93 C191.649,236.827 189.335,239.108 186.435,239.342 C168.695,240.402 149.695,240.259 132.67,234.537 C132.313,236.15 132.446,235.333 132.273,236.99 C132.024,240.222 129.253,242.672 126.015,242.523 C107.399,241.044 88.527,238.225 70.807,232.111 C70.697,232.757 70.775,232.315 70.55,233.431 C69.888,236.409 67.098,238.416 64.065,238.097 C43.622,235.945 24.802,229.89 5.237,217.884 C2.927,216.467 1.854,213.676 2.62,211.076 C8.621,190.699 35.566,95.101 39.256,81.011 C44.168,62.254 49.418,37.281 51.269,19.837 C51.581,17.771 52.729,15.95 54.683,15.039 C55.42,14.696 56.265,14.661 57.056,14.471 z M62.41,27.436 C59.793,46.53 55.672,65.398 50.864,84.052 C39.283,126.086 27.572,168.089 15.442,209.969 C29.098,218.051 44.166,222.973 59.782,225.429 C60.163,223.573 59.929,224.606 60.521,222.341 C61.542,218.868 65.383,217.084 68.695,218.543 C85.49,225.057 103.498,228.376 121.379,230.146 L121.973,228.28 C122.009,228.176 122.206,227.599 122.261,227.438 C122.573,226.518 122.763,225.902 122.933,225.219 C123.847,221.564 127.864,219.645 131.281,221.232 C146.793,227.686 164.089,228.22 180.654,227.673 C181.063,224.717 182.003,221.874 183.016,219.081 C183.16,218.701 183.644,217.439 183.689,217.322 C184.676,214.73 187.312,213.153 190.063,213.507 C205.862,215.142 222.185,215.231 237.751,211.657 C239.187,211.327 240.583,210.838 241.999,210.428 C239.17,192.928 234.6,175.756 229.947,158.668 C228.774,154.392 227.533,149.96 226.215,145.33 C224.537,139.434 209.724,89.342 209.003,85.374 C207.817,78.855 206.216,70.925 202.685,53.843 C202.66,53.719 202.66,53.719 202.634,53.595 C200.869,44.898 198.997,36.222 197.315,27.508 C176.328,30.686 155.085,32.079 133.884,32.833 C109.961,33.237 86.043,31.02 62.41,27.436 z" fill="#383838"/>
    <path d="M63.655,84.045 L64.46,84.142 C72.628,85.973 97.438,87.674 123.311,88.098 C153.177,88.587 178.974,87.375 192.703,84.424 C194.863,83.96 196.99,85.334 197.454,87.494 C197.919,89.654 196.544,91.781 194.384,92.245 C179.886,95.362 153.627,96.595 123.18,96.097 C96.769,95.664 71.583,93.937 62.71,91.948 C60.555,91.465 59.199,89.326 59.682,87.17 C60.388,84.87 61.468,84.438 63.655,84.045 z" fill="#383838"/>
    <path d="M81.372,102.548 C83.576,102.7 85.24,104.609 85.088,106.813 C83.01,136.987 77.738,177.418 72.541,208.168 C72.173,210.347 70.108,211.814 67.93,211.446 C65.752,211.078 64.284,209.013 64.653,206.835 C69.81,176.323 75.049,136.138 77.107,106.263 C77.259,104.06 79.168,102.396 81.372,102.548 z" fill="#383838"/>
    <path d="M130.72,105.615 C132.929,105.572 134.753,107.329 134.796,109.537 C134.894,114.67 134.96,119.979 134.995,125.472 C135.115,144.063 134.91,162.374 134.418,187.455 C134.415,187.587 134.06,205.165 133.983,209.423 C133.944,211.632 132.121,213.39 129.912,213.35 C127.703,213.31 125.945,211.488 125.985,209.279 C126.062,205.01 126.417,187.422 126.42,187.298 C126.911,162.281 127.114,144.03 126.995,125.523 C126.96,120.063 126.895,114.788 126.797,109.69 C126.755,107.482 128.511,105.657 130.72,105.615 z" fill="#383838"/>
    <path d="M179.178,99.836 C181.381,99.674 183.299,101.328 183.462,103.531 C183.828,108.5 184.232,113.67 184.677,119.115 C185.347,127.303 186.084,135.828 187.014,146.22 C187.358,150.062 189.276,171.244 189.786,176.988 C190.777,188.166 191.482,196.617 192.023,204.021 C192.185,206.224 190.529,208.141 188.326,208.302 C186.123,208.463 184.206,206.808 184.045,204.604 C183.507,197.25 182.805,188.835 181.817,177.695 C181.308,171.96 179.39,150.782 179.046,146.933 C178.115,136.523 177.375,127.978 176.704,119.767 C176.257,114.301 175.852,109.111 175.483,104.12 C175.321,101.917 176.975,99.999 179.178,99.836 z" fill="#383838"/>
  </g>
</svg>
