<?xml version="1.0" encoding="UTF-8"?>
<!DOCTYPE svg PUBLIC "-//W3C//DTD SVG 1.1//EN" "http://www.w3.org/Graphics/SVG/1.1/DTD/svg11.dtd">
<svg version="1.1" xmlns="http://www.w3.org/2000/svg" xmlns:xlink="http://www.w3.org/1999/xlink" x="0" y="0" width="256" height="256" viewBox="0, 0, 256, 256">
  <g id="レイヤー_2">
    <path d="M153.919,-0 C158.552,0.502 162.942,2.127 167.294,3.704 C174.082,6.195 182.639,9.858 191.439,14.009 C212.168,23.787 226.722,32.189 229.343,37.542 C230.904,40.729 230.345,43.349 228.314,49.192 C227.078,52.745 223.197,54.624 219.644,53.389 C216.092,52.153 214.213,48.272 215.448,44.719 C215.884,43.429 215.699,44.017 216.016,42.96 L215.481,42.559 C213.71,41.288 211.205,39.712 208.116,37.929 C202.037,34.42 193.995,30.275 185.628,26.328 C177.167,22.337 168.969,18.828 162.601,16.491 C159.348,15.296 156.652,14.438 154.681,13.965 L154.394,13.903 C153.896,14.663 154.173,14.228 153.574,15.216 C152.144,17.62 150.318,21.08 148.083,25.601 C144.611,32.625 143.008,36.066 133.244,57.262 C132.987,57.821 132.743,58.349 132.508,58.859 C117.401,91.624 111.489,103.224 106.344,107.007 C100.373,111.397 92.247,112.707 70.034,114.517 C69.427,114.566 67.173,114.749 67.368,114.733 C66.291,114.821 65.481,114.887 64.687,114.952 C62.656,115.12 60.947,115.266 59.314,115.413 C37.517,117.371 25.382,120.295 20.967,125.255 C16.191,130.621 15.419,137.526 18.258,145.387 C20.849,152.56 26.304,159.604 31.725,163.279 C36.165,166.29 49.745,170.49 68.118,174.559 C71.79,175.372 74.108,179.008 73.295,182.68 C72.482,186.353 68.845,188.67 65.173,187.857 C44.988,183.387 30.503,178.907 24.081,174.553 C16.272,169.258 9.013,159.885 5.448,150.015 C1.029,137.782 2.387,125.643 10.793,116.199 C15.236,111.208 22.185,107.953 31.657,105.671 C38.747,103.963 46.848,102.857 58.096,101.847 C59.765,101.697 61.505,101.548 63.566,101.378 C64.367,101.312 65.183,101.245 66.265,101.157 C66.072,101.173 68.324,100.99 68.928,100.941 C76.325,100.243 83.783,99.807 91.095,98.42 C93.513,97.961 96.089,97.44 98.192,96.087 L98.199,96.077 C98.34,95.926 98.528,95.701 98.75,95.409 C99.281,94.714 99.929,93.746 100.674,92.531 C102.177,90.08 104.005,86.734 106.154,82.516 C109.751,75.459 113.717,67.083 120.138,53.156 C120.373,52.647 120.616,52.12 120.873,51.563 C130.713,30.201 132.318,26.756 135.873,19.565 C142.094,6.981 144.845,2.354 148.812,0.688 C151.491,-0.161 149.818,0.228 153.919,-0 z" fill="#383838"/>
    <path d="M172.671,50.784 C175.81,50.753 178.936,51.013 182.059,51.282 C189.26,51.932 198.474,53.255 208.048,54.987 C230.602,59.067 246.834,63.416 250.752,67.908 C253.548,71.113 253.451,75.049 252.117,85.873 C251.232,93.06 249.638,102.794 247.496,114.177 C243.154,137.255 236.989,164.887 231,187.853 C225.826,207.69 223.414,216.148 220.253,224.5 C215.76,236.373 210.997,243.561 204.129,246.428 C197.081,249.371 173.735,252.648 148.231,254.562 C119.783,256.696 97.171,256.578 87.945,253.376 C79.031,250.283 69.594,243.108 63.595,234.497 C56.161,223.824 54.331,211.748 60.006,200.45 C63.059,194.374 69.08,189.363 77.893,184.633 C84.436,181.122 92.054,177.961 103.032,173.96 C105.734,172.976 114.902,169.703 116.436,169.148 C121.395,167.353 125.01,165.974 128.142,164.654 C131.891,162.836 136.263,161.491 139.22,158.401 C139.38,158.088 139.293,158.266 139.476,157.864 C139.747,157.24 140.058,156.383 140.395,155.32 C141.093,153.116 141.861,150.148 142.695,146.454 C144.169,139.929 145.768,131.545 147.813,119.884 C148.339,116.886 148.881,113.755 149.583,109.663 C153.612,86.178 154.229,82.667 155.803,74.789 C158.561,60.984 160.023,55.791 163.426,53.152 C166.15,51.065 169.412,51.062 172.671,50.784 z M174.198,64.453 L172.532,64.458 L172.238,64.473 C171.951,65.349 172.107,64.851 171.782,65.968 C171.021,68.67 170.151,72.496 169.16,77.458 C167.622,85.154 167.005,88.663 163.007,111.966 C162.303,116.074 161.758,119.22 161.229,122.237 C156.342,150.097 153.598,162.249 149.922,166.841 C146.844,170.687 141.6,173.766 133.429,177.207 C130.038,178.635 126.231,180.088 121.072,181.956 C119.494,182.527 110.345,185.792 107.696,186.758 C86.384,194.524 75.215,200.518 72.178,206.564 C68.953,212.983 69.994,219.853 74.772,226.711 C79.131,232.969 86.223,238.361 92.41,240.508 C99.125,242.838 120.914,242.952 147.212,240.979 C171.061,239.19 193.738,236.006 198.882,233.858 C201.199,232.891 204.265,228.264 207.514,219.679 C210.436,211.958 212.781,203.737 217.82,184.416 C223.729,161.758 229.826,134.432 234.11,111.659 C236.203,100.534 237.754,91.065 238.598,84.208 C238.915,81.678 239.172,79.14 239.287,76.593 L238.66,76.341 C236.621,75.572 233.793,74.699 230.348,73.776 C223.568,71.959 214.727,70.037 205.623,68.39 C196.419,66.725 187.592,65.457 180.836,64.848 C176.98,64.536 179.192,64.687 174.198,64.453 z" fill="#383838"/>
    <path d="M223.342,80.484 L224.257,80.579 C226.713,81.086 228.292,83.488 227.785,85.943 L222.767,110.231 C222.26,112.687 219.858,114.267 217.402,113.759 C214.947,113.252 213.367,110.85 213.875,108.394 L218.892,84.106 C219.65,81.483 220.867,80.972 223.342,80.484 z" fill="#383838"/>
    <path d="M203.012,77.667 L203.93,77.715 C206.408,78.098 208.108,80.417 207.725,82.895 L204.66,102.765 C204.278,105.243 201.959,106.942 199.48,106.56 C197.002,106.178 195.303,103.859 195.685,101.381 L198.751,81.51 C199.374,78.852 200.564,78.28 203.012,77.667 z" fill="#383838"/>
    <path d="M184.125,73.709 L185.041,73.787 C187.506,74.248 189.13,76.62 188.669,79.085 L184.211,102.908 C183.75,105.373 181.378,106.997 178.913,106.536 C176.449,106.075 174.824,103.703 175.285,101.238 L179.744,77.414 C180.452,74.777 181.659,74.243 184.125,73.709 z" fill="#383838"/>
  </g>
</svg>
