<?xml version="1.0" encoding="UTF-8"?>
<!DOCTYPE svg PUBLIC "-//W3C//DTD SVG 1.1//EN" "http://www.w3.org/Graphics/SVG/1.1/DTD/svg11.dtd">
<svg version="1.1" xmlns="http://www.w3.org/2000/svg" xmlns:xlink="http://www.w3.org/1999/xlink" x="0" y="0" width="256" height="256" viewBox="0, 0, 256, 256">
  <g id="solid">
    <path d="M159.519,25.543 C161.982,25.769 163.666,27.037 164.798,29.181 C167.735,36.198 169.693,43.568 171.431,50.956 C172.505,51.302 171.637,51.022 174.033,51.805 C178.574,53.299 183.116,54.849 187.367,56.376 C189.106,57.002 190.765,57.612 192.331,58.205 C198.51,60.543 203.029,62.509 205.741,64.161 C205.847,64.225 205.97,64.299 206.153,64.406 C206.089,64.368 206.571,64.65 206.713,64.734 C207.256,65.055 207.703,65.329 208.175,65.637 C209.481,66.49 210.696,67.433 211.91,68.581 C214.916,71.422 217.609,75.259 220.051,80.456 C220.268,80.918 220.483,81.391 220.696,81.874 C229.278,101.363 240.155,136.303 251.672,179.378 C252.057,180.918 251.852,182.459 251.107,183.866 C250.904,184.25 250.57,184.549 250.301,184.891 C250.409,186.357 250.886,187.77 251.306,189.169 C251.46,189.658 251.628,190.169 251.853,190.841 C253.065,194.466 253.115,194.623 253.456,195.943 C254.211,198.865 252.678,201.894 249.875,203.015 C247.241,204.069 243.233,205.587 237.017,207.903 L236.708,208.018 C235.327,208.533 230.236,210.425 229.143,210.832 C226.463,211.831 224.652,212.511 223.339,213.013 C220.04,214.277 216.368,212.43 215.415,209.028 C214.571,206.013 214.195,204.725 213.642,203.039 C212.759,200.348 211.894,198.271 211.07,196.906 C210.739,196.385 210.92,196.649 210.523,196.117 C208.333,195.542 206.983,194.06 206.203,191.996 C202.653,179.846 199.046,167.709 195.116,155.676 C195.683,163.638 196.118,171.609 196.509,179.581 C197.307,197.269 197.315,211.433 196.306,221.905 C196.097,224.078 194.725,225.965 192.722,226.834 C190.852,227.645 188.737,231.851 186.937,238.53 C186.656,239.573 186.099,240.52 185.324,241.273 C183.283,243.255 180.969,243.627 178.086,243.375 C176.525,243.239 174.712,242.879 172.386,242.287 C169.908,241.655 159.264,238.541 157.835,238.141 C150.186,236.005 143.952,234.61 138.017,233.859 C134.661,233.435 131.528,233.243 128.616,233.299 C128.539,233.3 128.461,233.3 128.384,233.299 C125.472,233.243 122.339,233.435 118.983,233.859 C113.048,234.61 106.814,236.005 99.165,238.141 C97.736,238.541 87.092,241.655 84.614,242.287 C82.288,242.879 80.475,243.239 78.914,243.375 C76.031,243.627 73.717,243.255 71.676,241.273 C70.901,240.52 70.344,239.573 70.063,238.53 C68.263,231.851 66.148,227.645 64.278,226.834 C62.275,225.965 60.903,224.078 60.694,221.905 C59.685,211.433 59.693,197.269 60.491,179.581 C60.851,171.607 61.339,163.639 61.884,155.676 C57.964,167.713 54.343,179.844 50.797,191.996 C50.016,194.392 48.713,195.269 46.477,196.117 C46.08,196.649 46.261,196.385 45.93,196.906 C45.106,198.271 44.241,200.348 43.358,203.039 C42.805,204.725 42.429,206.013 41.585,209.028 C40.632,212.43 36.96,214.277 33.661,213.013 C32.348,212.511 30.537,211.831 27.857,210.832 C26.764,210.425 21.673,208.533 20.292,208.018 L19.983,207.903 C13.767,205.587 9.759,204.069 7.125,203.015 C4.322,201.894 2.789,198.865 3.544,195.943 C3.885,194.623 3.935,194.466 5.147,190.841 C5.372,190.169 5.54,189.658 5.694,189.169 C6.139,187.771 6.542,186.352 6.699,184.891 C5.226,183.353 4.955,181.398 5.328,179.378 C16.845,136.303 27.722,101.363 36.304,81.874 C36.517,81.391 36.732,80.918 36.949,80.456 C39.391,75.259 42.084,71.422 45.09,68.581 C46.304,67.433 47.519,66.49 48.825,65.637 C49.297,65.329 49.744,65.054 50.287,64.734 C50.429,64.65 50.911,64.368 50.847,64.406 C51.03,64.299 51.153,64.225 51.259,64.161 C53.971,62.509 58.49,60.543 64.669,58.205 C66.235,57.612 67.894,57.002 69.633,56.376 C73.884,54.849 78.426,53.299 82.967,51.805 C85.363,51.022 84.495,51.302 85.569,50.956 C87.224,43.549 89.311,36.207 92.202,29.181 C93.254,26.718 95.812,25.25 98.47,25.585 C99.661,25.736 100.858,25.929 102.154,26.173 C103.12,26.356 104.088,26.556 105.391,26.838 C105.627,26.889 105.869,26.942 106.189,27.011 C106.588,27.099 106.588,27.099 106.987,27.186 C107.636,27.327 108.118,27.431 108.597,27.532 C115.275,28.947 120.655,29.593 128.5,29.593 C137.017,29.593 142.423,28.949 148.722,27.546 C149.057,27.471 152.589,26.658 153.642,26.434 C155.408,26.057 156.943,25.785 158.53,25.585 L159.519,25.543 z M101.578,38.296 C99.649,44.226 97.672,50.223 96.787,56.417 C96.054,60.08 94.794,60.785 91.446,61.671 L91.015,61.808 C89.719,62.223 88.274,62.692 86.717,63.204 C82.272,64.666 77.829,66.182 73.693,67.669 C72.013,68.273 70.417,68.861 68.916,69.428 C63.416,71.51 59.38,73.265 57.502,74.409 C57.637,74.327 55.86,75.375 55.39,75.682 C54.657,76.161 54.001,76.669 53.333,77.301 C51.465,79.067 49.637,81.673 47.81,85.56 C47.635,85.933 47.46,86.316 47.287,86.71 C34.883,116.833 26.124,148.348 17.653,179.761 C18.625,181.443 18.696,183.385 18.702,185.273 C18.606,187.509 18.082,189.793 17.136,192.785 C16.832,193.73 16.952,193.365 16.781,193.883 C19.24,194.821 21.707,195.738 24.173,196.658 C24.327,196.716 24.327,196.716 24.481,196.773 C26.948,197.692 29.416,198.608 31.883,199.526 L31.957,199.296 C33.098,195.818 34.273,192.995 35.659,190.701 C36.721,188.718 38.29,187.232 40.07,185.919 C45.238,168.375 50.508,150.845 56.731,133.641 C58.923,127.653 60.752,123.217 62.192,120.419 C63.123,118.612 63.938,117.345 64.972,116.363 C68.389,113.119 74.012,114.046 75.65,118.96 C76.287,120.871 76.207,123.191 75.622,131.838 C75.424,134.776 74.295,150.138 73.983,154.641 C73.324,164.125 72.832,172.319 72.479,180.122 C72.074,189.45 71.778,198.79 71.97,208.128 C72.093,214.13 72.125,214.356 72.412,217.942 C74.915,219.75 76.517,222.495 77.952,225.159 C79.532,228.584 78.724,226.655 80.274,230.987 C80.843,230.873 80.38,230.968 81.652,230.658 C83.887,230.089 94.328,227.033 95.937,226.584 C104.102,224.303 110.858,222.791 117.477,221.954 C121.13,221.451 124.817,221.306 128.5,221.301 L128.384,221.301 L128.616,221.301 L128.5,221.301 C132.187,221.199 135.863,221.549 139.523,221.954 C146.142,222.791 152.898,224.303 161.063,226.584 C162.672,227.033 173.113,230.089 175.348,230.658 C176.62,230.968 176.157,230.873 176.726,230.987 C178.276,226.655 177.468,228.584 179.048,225.159 C180.464,222.493 182.093,219.743 184.588,217.942 C185.474,205.352 185.031,192.718 184.521,180.122 C184.168,172.319 183.676,164.125 183.017,154.641 C182.705,150.138 181.577,134.776 181.378,131.838 C180.793,123.191 180.713,120.871 181.35,118.96 C182.988,114.046 188.611,113.119 192.028,116.363 C193.062,117.345 193.877,118.612 194.808,120.419 C196.248,123.217 198.077,127.653 200.269,133.641 C206.46,150.855 211.807,168.362 216.93,185.919 C218.879,187.03 220.144,188.869 221.341,190.701 C222.727,192.995 223.902,195.818 225.043,199.296 L225.117,199.526 C227.584,198.608 230.052,197.691 232.519,196.773 C232.673,196.716 232.673,196.716 232.827,196.658 C235.294,195.74 237.758,194.817 240.219,193.883 C240.047,193.365 240.168,193.73 239.864,192.785 C238.918,189.793 238.394,187.509 238.298,185.273 C238.303,183.59 238.232,183.143 238.724,181.211 C238.854,180.701 239.139,180.244 239.347,179.761 C230.468,148.487 222.497,116.695 209.713,86.71 C209.54,86.316 209.365,85.933 209.19,85.56 C207.363,81.673 205.535,79.067 203.667,77.301 C202.999,76.669 202.343,76.161 201.61,75.682 C201.14,75.375 199.363,74.327 199.498,74.409 C197.62,73.265 193.584,71.51 188.084,69.428 C186.583,68.861 184.987,68.273 183.307,67.669 C179.171,66.182 174.728,64.666 170.283,63.204 C168.726,62.692 167.281,62.223 165.985,61.808 L165.554,61.671 C162.469,61.228 160.851,59.366 160.213,56.417 C159.279,50.237 157.382,44.248 155.432,38.327 C154.064,38.632 152.699,38.949 151.332,39.259 C144.208,40.846 137.933,41.593 128.5,41.593 C119.751,41.593 113.557,40.85 106.11,39.272 C105.604,39.165 105.102,39.057 104.433,38.911 C104.028,38.823 104.028,38.823 103.632,38.736 C103.318,38.667 103.082,38.616 102.853,38.567 L101.578,38.296 z M130.782,16.409 C124.949,16.409 119.015,16.297 113.275,17.475 C111.15,18.077 109.914,20.287 110.515,22.413 C111.116,24.539 113.326,25.775 115.452,25.174 C119.025,24.164 137.661,24.082 141.491,25.227 C143.607,25.86 145.836,24.657 146.469,22.54 C147.101,20.423 145.898,18.195 143.782,17.562 C139.534,16.546 135.122,16.551 130.782,16.409 z M161.214,164.409 C159.774,164.713 158.794,164.906 157.925,166.225 L146.968,183.036 C145.762,184.887 146.284,187.365 148.135,188.572 C149.986,189.778 152.464,189.256 153.67,187.405 L164.627,170.593 C165.833,168.743 165.311,166.264 163.46,165.058 C162.281,164.449 163.006,164.734 161.214,164.409 z M142.699,164.409 C140.906,164.734 141.631,164.448 140.452,165.058 C138.601,166.264 138.079,168.743 139.285,170.593 L143.58,177.183 C144.786,179.034 147.265,179.556 149.115,178.35 C150.966,177.143 151.488,174.665 150.282,172.814 L145.987,166.225 C145.115,165.142 144.143,164.489 142.699,164.409 z M161.214,142.328 C159.774,142.632 158.794,142.825 157.925,144.144 L146.968,160.955 C145.762,162.806 146.284,165.284 148.135,166.49 C149.986,167.697 152.464,167.174 153.67,165.323 L164.627,148.512 C165.833,146.661 165.311,144.183 163.46,142.977 C162.281,142.367 163.006,142.653 161.214,142.328 z M142.699,142.328 C140.906,142.653 141.631,142.367 140.452,142.977 C138.601,144.183 138.079,146.661 139.285,148.512 L143.58,155.101 C144.786,156.952 147.265,157.475 149.115,156.268 C150.966,155.062 151.488,152.584 150.282,150.733 L145.987,144.144 C145.115,143.06 144.143,142.408 142.699,142.328 z M161.214,120.338 C159.773,120.641 158.794,120.835 157.925,122.153 L146.968,138.965 C145.762,140.816 146.284,143.294 148.135,144.5 C149.986,145.706 152.464,145.184 153.67,143.333 L164.627,126.522 C165.833,124.671 165.311,122.193 163.46,120.986 C162.281,120.377 163.006,120.663 161.214,120.338 z M142.699,120.338 C140.906,120.663 141.631,120.377 140.452,120.986 C138.601,122.193 138.079,124.671 139.285,126.522 L143.58,133.111 C144.786,134.962 147.265,135.484 149.115,134.278 C150.966,133.072 151.488,130.594 150.282,128.743 L145.987,122.153 C145.115,121.07 144.143,120.417 142.699,120.338 z M161.214,98.256 C159.773,98.56 158.794,98.753 157.925,100.072 L146.968,116.883 C145.762,118.734 146.284,121.212 148.135,122.419 C149.986,123.625 152.464,123.102 153.67,121.252 L164.627,104.44 C165.833,102.59 165.311,100.111 163.46,98.905 C162.281,98.295 163.006,98.581 161.214,98.256 z M142.699,98.256 C140.906,98.581 141.631,98.295 140.452,98.905 C138.601,100.111 138.079,102.59 139.285,104.44 L143.58,111.03 C144.786,112.88 147.265,113.403 149.115,112.197 C150.966,110.99 151.488,108.512 150.282,106.661 L145.987,100.072 C145.115,98.989 144.143,98.336 142.699,98.256 z M95.786,164.409 C93.994,164.734 94.719,164.449 93.54,165.058 C91.689,166.264 91.167,168.743 92.373,170.593 L103.33,187.405 C104.536,189.256 107.014,189.778 108.865,188.572 C110.716,187.365 111.238,184.887 110.032,183.036 L99.075,166.225 C98.202,165.142 97.23,164.489 95.786,164.409 z M114.301,164.409 C112.861,164.713 111.881,164.906 111.013,166.225 L106.718,172.814 C105.512,174.665 106.034,177.143 107.885,178.35 C109.735,179.556 112.214,179.034 113.42,177.183 L117.715,170.593 C118.921,168.743 118.399,166.264 116.548,165.058 C115.369,164.448 116.094,164.734 114.301,164.409 z M95.786,142.328 C93.994,142.653 94.719,142.367 93.54,142.977 C91.689,144.183 91.167,146.661 92.373,148.512 L103.33,165.323 C104.536,167.174 107.014,167.697 108.865,166.49 C110.716,165.284 111.238,162.806 110.032,160.955 L99.075,144.144 C98.202,143.06 97.23,142.408 95.786,142.328 z M114.301,142.328 C112.861,142.632 111.881,142.825 111.013,144.144 L106.718,150.733 C105.512,152.584 106.034,155.062 107.885,156.268 C109.735,157.475 112.214,156.952 113.42,155.101 L117.715,148.512 C118.921,146.661 118.399,144.183 116.548,142.977 C115.369,142.367 116.094,142.653 114.301,142.328 z M95.786,120.338 C93.994,120.663 94.719,120.377 93.54,120.986 C91.689,122.193 91.167,124.671 92.373,126.522 L103.33,143.333 C104.536,145.184 107.014,145.706 108.865,144.5 C110.716,143.294 111.238,140.816 110.032,138.965 L99.075,122.153 C98.202,121.07 97.23,120.417 95.786,120.338 z M114.301,120.338 C112.861,120.641 111.881,120.835 111.013,122.153 L106.718,128.743 C105.512,130.594 106.034,133.072 107.885,134.278 C109.735,135.484 112.214,134.962 113.42,133.111 L117.715,126.522 C118.921,124.671 118.399,122.193 116.548,120.986 C115.369,120.377 116.094,120.663 114.301,120.338 z M95.786,98.256 C93.994,98.581 94.719,98.295 93.54,98.905 C91.689,100.111 91.167,102.59 92.373,104.44 L103.33,121.252 C104.536,123.102 107.014,123.625 108.865,122.419 C110.716,121.212 111.238,118.734 110.032,116.883 L99.075,100.072 C98.202,98.989 97.23,98.336 95.786,98.256 z M114.301,98.256 C112.861,98.56 111.881,98.753 111.013,100.072 L106.718,106.661 C105.512,108.512 106.034,110.99 107.885,112.197 C109.735,113.403 112.214,112.88 113.42,111.03 L117.715,104.44 C118.921,102.59 118.399,100.111 116.548,98.905 C115.369,98.295 116.094,98.581 114.301,98.256 z" fill="#383838"/>
  </g>
</svg>
