<?xml version="1.0" encoding="UTF-8"?>
<!DOCTYPE svg PUBLIC "-//W3C//DTD SVG 1.1//EN" "http://www.w3.org/Graphics/SVG/1.1/DTD/svg11.dtd">
<svg version="1.1" xmlns="http://www.w3.org/2000/svg" xmlns:xlink="http://www.w3.org/1999/xlink" x="0" y="0" width="256" height="256" viewBox="0, 0, 256, 256">
  <g id="レイヤー_2">
    <path d="M166.5,30.52 L167.963,30.79 C168.046,30.816 168.194,30.863 168.41,30.931 C168.767,31.044 169.18,31.176 169.645,31.324 C170.97,31.749 172.445,32.227 174.033,32.749 C178.574,34.243 183.116,35.793 187.367,37.321 C189.106,37.946 190.765,38.557 192.331,39.149 C198.51,41.488 203.029,43.453 205.741,45.105 C205.847,45.17 205.97,45.243 206.153,45.35 C206.089,45.313 206.571,45.595 206.713,45.678 C207.256,45.999 207.703,46.273 208.175,46.581 C209.481,47.435 210.696,48.377 211.91,49.525 C214.916,52.366 217.609,56.204 220.051,61.4 C220.268,61.863 220.483,62.335 220.696,62.818 C230.416,84.893 243.117,126.926 255.971,176.678 C256.735,179.637 255.154,182.697 252.299,183.785 C248.642,185.179 245.552,186.208 241.561,187.408 C241.152,187.531 240.726,187.658 240.25,187.799 C230.091,190.813 227.204,191.741 219.212,194.793 C215.913,196.052 212.246,194.205 211.294,190.805 C206.068,172.141 200.614,153.537 194.62,135.104 L194.637,135.355 C194.882,138.998 195.792,152.325 195.939,154.486 C196.085,156.645 196.219,158.626 196.346,160.525 C197.541,178.363 198.285,190.811 198.691,200.559 C198.936,206.43 199.041,211.046 198.994,214.406 C198.968,216.298 198.893,217.822 198.758,219.02 C198.455,221.711 198.089,223.076 196.221,224.678 C194.028,226.558 191.829,226.73 188.536,226.346 C186.764,226.14 184.58,225.705 181.745,225.023 C178.45,224.231 163.949,220.324 163.341,220.165 C158.64,218.935 154.604,217.947 150.772,217.11 C141.718,215.132 134.352,214.133 128.616,214.243 C128.539,214.245 128.461,214.245 128.384,214.243 C122.648,214.133 115.282,215.132 106.228,217.11 C102.396,217.947 98.36,218.935 93.659,220.165 C93.051,220.324 78.55,224.231 75.255,225.023 C72.42,225.705 70.236,226.14 68.464,226.346 C65.171,226.73 62.972,226.558 60.779,224.678 C58.911,223.076 58.545,221.711 58.242,219.02 C58.107,217.822 58.032,216.298 58.006,214.406 C57.959,211.046 58.064,206.43 58.309,200.559 C58.715,190.811 59.459,178.363 60.654,160.525 C60.781,158.626 60.915,156.645 61.061,154.486 C61.208,152.325 62.118,138.998 62.363,135.355 L62.38,135.104 C56.358,153.528 50.956,172.149 45.706,190.805 C44.754,194.205 41.087,196.052 37.788,194.793 C29.796,191.741 26.91,190.813 16.75,187.799 C16.274,187.658 15.848,187.531 15.439,187.408 C11.448,186.208 8.358,185.179 4.701,183.785 C1.846,182.697 0.265,179.637 1.029,176.678 C13.883,126.926 26.584,84.893 36.304,62.818 C36.517,62.335 36.732,61.863 36.949,61.4 C39.391,56.204 42.084,52.366 45.09,49.525 C46.304,48.377 47.519,47.435 48.825,46.581 C49.297,46.273 49.744,45.999 50.287,45.678 C50.429,45.595 50.911,45.313 50.847,45.35 C51.03,45.243 51.153,45.17 51.259,45.105 C53.971,43.453 58.49,41.488 64.669,39.149 C66.235,38.557 67.894,37.946 69.633,37.321 C73.884,35.793 78.426,34.243 82.967,32.749 C84.555,32.227 86.03,31.749 87.355,31.324 C87.82,31.176 88.233,31.044 88.59,30.931 C88.806,30.863 88.954,30.816 89.037,30.79 C91.998,30.017 95.786,31.42 96.531,34.699 C102.706,46.977 116.362,54.386 128.5,59.62 C140.311,54.019 154.641,47.282 160.469,34.699 C160.827,33.116 162.319,31.643 163.752,31.02 C164.606,30.649 165.584,30.687 166.5,30.52 z M169.132,43.772 C160.529,57.504 145.242,65.463 130.805,71.693 C129.33,72.307 127.671,72.307 126.195,71.693 C111.883,65.359 96.32,57.615 87.868,43.772 L86.717,44.148 C82.272,45.611 77.829,47.127 73.693,48.613 C72.013,49.217 70.417,49.805 68.916,50.373 C63.416,52.454 59.38,54.209 57.502,55.353 C57.637,55.271 55.86,56.319 55.39,56.626 C54.657,57.106 54.001,57.614 53.333,58.245 C51.465,60.012 49.637,62.617 47.81,66.504 C47.635,66.877 47.46,67.261 47.287,67.654 C33.189,102.16 23.425,138.339 14.035,174.358 C17.117,175.395 15.499,174.872 18.893,175.916 C19.287,176.034 19.7,176.157 20.164,176.295 C25.45,177.852 30.73,179.439 35.919,181.301 C41.879,160.383 48.017,139.499 55.166,118.951 C57.781,111.518 59.971,105.948 61.66,102.435 C62.66,100.355 63.521,98.887 64.486,97.809 C65.755,96.391 67.209,95.423 69.515,95.401 C72.833,95.369 74.83,97.443 75.65,99.905 C76.356,102.021 76.209,106.359 75.411,119.573 C75.144,124.008 74.805,129.213 74.336,136.163 C74.09,139.812 73.18,153.141 73.034,155.298 C72.888,157.454 72.754,159.432 72.627,161.327 C71.439,179.069 70.699,191.44 70.299,201.059 C70.127,205.336 69.969,209.617 70.002,213.899 C71.328,213.635 70.51,213.806 72.449,213.355 C75.558,212.608 89.866,208.753 90.621,208.555 C95.468,207.287 99.655,206.263 103.667,205.386 C111.829,203.545 120.122,202.272 128.5,202.246 L128.384,202.245 L128.616,202.245 L128.5,202.246 C136.884,202.123 145.164,203.674 153.333,205.386 C157.345,206.263 161.532,207.287 166.379,208.555 C167.134,208.753 181.442,212.608 184.551,213.355 C186.49,213.806 185.672,213.635 186.998,213.899 C187.033,209.617 186.872,205.336 186.701,201.059 C186.301,191.44 185.561,179.069 184.373,161.327 C184.246,159.432 184.113,157.454 183.966,155.298 C183.82,153.141 182.91,139.812 182.664,136.163 C182.195,129.213 181.856,124.008 181.589,119.573 C180.791,106.359 180.644,102.021 181.35,99.905 C182.17,97.443 184.167,95.369 187.485,95.401 C189.791,95.423 191.245,96.391 192.514,97.809 C193.479,98.887 194.34,100.355 195.34,102.435 C197.029,105.948 199.219,111.518 201.834,118.951 C208.997,139.495 215.104,160.388 221.081,181.301 C226.261,179.415 231.555,177.865 236.836,176.295 C237.3,176.157 237.713,176.034 238.107,175.916 C241.501,174.872 239.883,175.395 242.965,174.358 C232.804,138.607 224.513,101.896 209.713,67.654 C209.54,67.261 209.365,66.877 209.19,66.504 C207.363,62.617 205.535,60.012 203.667,58.245 C202.999,57.614 202.343,57.106 201.61,56.626 C201.14,56.319 199.363,55.271 199.498,55.353 C197.62,54.209 193.584,52.454 188.084,50.373 C186.583,49.805 184.987,49.217 183.307,48.613 C179.171,47.127 174.728,45.611 170.283,44.148 L169.132,43.772 z" fill="#383838"/>
    <path d="M105.526,29.379 C107.333,29.614 106.595,29.365 107.802,29.915 C113.908,33.477 143.595,33.224 149.281,30.087 C151.215,29.019 153.648,29.722 154.715,31.657 C155.782,33.591 155.08,36.024 153.145,37.091 C145.047,41.559 112.365,41.839 103.771,36.826 C101.863,35.713 101.219,33.263 102.332,31.355 C103.134,29.995 104.103,29.753 105.526,29.379 z" fill="#383838"/>
  </g>
</svg>
