<?xml version="1.0" encoding="UTF-8"?>
<!DOCTYPE svg PUBLIC "-//W3C//DTD SVG 1.1//EN" "http://www.w3.org/Graphics/SVG/1.1/DTD/svg11.dtd">
<svg version="1.1" xmlns="http://www.w3.org/2000/svg" xmlns:xlink="http://www.w3.org/1999/xlink" x="0" y="0" width="256" height="256" viewBox="0, 0, 256, 256">
  <g id="レイヤー_2">
    <path d="M166.814,30.545 L168.31,30.911 L201.729,43.69 C201.864,43.742 201.997,43.798 202.128,43.859 L252.704,67.519 C255.688,68.915 256.989,72.456 255.616,75.452 L232.752,125.365 C231.223,128.701 227.085,129.896 224.013,127.887 C223.956,127.85 223.834,127.77 223.656,127.655 C223.358,127.461 223.01,127.236 222.615,126.981 C221.486,126.253 220.216,125.441 218.835,124.565 C214.89,122.066 210.849,119.567 206.949,117.239 C205.986,116.664 205.042,116.106 204.12,115.567 C200.504,113.423 196.816,111.408 193.063,109.514 C193.197,112.628 193.382,115.739 193.567,118.85 C193.833,123.251 194.17,128.432 194.637,135.355 C194.882,138.998 195.792,152.325 195.939,154.486 C196.085,156.645 196.219,158.626 196.346,160.525 C197.541,178.363 198.285,190.811 198.691,200.559 C198.936,206.43 199.041,211.046 198.994,214.406 C198.968,216.298 198.893,217.822 198.758,219.02 C198.455,221.711 198.089,223.076 196.221,224.678 C194.028,226.558 191.829,226.73 188.536,226.346 C186.764,226.14 184.58,225.705 181.745,225.023 C178.45,224.231 163.949,220.324 163.341,220.165 C158.64,218.935 154.604,217.947 150.772,217.11 C141.718,215.132 134.352,214.133 128.615,214.243 C128.539,214.245 128.461,214.245 128.384,214.243 C122.648,214.133 115.282,215.132 106.228,217.11 C102.396,217.947 98.36,218.935 93.659,220.165 C93.051,220.324 78.55,224.231 75.255,225.023 C72.42,225.705 70.236,226.14 68.464,226.346 C65.171,226.73 62.972,226.558 60.779,224.678 C58.911,223.076 58.545,221.711 58.242,219.02 C58.107,217.822 58.032,216.298 58.006,214.406 C57.959,211.046 58.064,206.43 58.309,200.559 C58.715,190.811 59.459,178.363 60.654,160.525 C60.781,158.626 60.915,156.645 61.061,154.486 C61.208,152.325 62.118,138.998 62.363,135.355 C62.83,128.432 63.167,123.251 63.433,118.85 C63.621,115.739 63.799,112.627 63.937,109.514 C60.162,111.363 56.514,113.458 52.88,115.567 C51.958,116.106 51.014,116.664 50.051,117.239 C46.151,119.567 42.11,122.066 38.165,124.565 C36.784,125.441 35.514,126.253 34.384,126.981 C33.99,127.236 33.642,127.461 33.344,127.655 C33.166,127.77 33.044,127.85 32.986,127.887 C29.915,129.896 25.777,128.701 24.248,125.365 L1.384,75.452 C0.011,72.456 1.312,68.915 4.296,67.519 L54.872,43.859 C55.003,43.798 55.136,43.742 55.271,43.69 L88.689,30.911 C92.669,29.389 96.923,32.384 96.831,36.644 L96.83,36.675 C96.795,45.104 100.779,51.003 107.884,55.193 C113.779,58.469 121.632,60.154 128.5,60.154 C135.012,60.154 142.895,58.447 148.851,55.178 C156.268,51.165 159.923,45.041 160.169,36.674 L160.169,36.644 C160.201,34.266 161.545,31.714 163.961,30.933 C164.874,30.638 165.863,30.675 166.814,30.545 z M171.183,44.856 C169.116,54.201 162.677,60.985 154.626,65.696 C146.746,70.023 136.901,72.154 128.5,72.154 C119.732,72.154 109.907,70.046 102.055,65.681 C93.712,61.214 88.219,53.904 85.797,44.864 L59.76,54.821 L14.772,75.866 L32.283,114.091 C39.838,109.365 35.967,111.752 43.901,106.935 C44.894,106.342 45.868,105.766 46.822,105.208 C52.416,101.937 57.139,99.381 60.785,97.716 C63.068,96.674 64.953,95.964 66.559,95.601 C67.818,95.316 68.98,95.213 70.2,95.4 C72.608,95.77 74.775,97.278 75.65,99.905 C76.356,102.021 76.209,106.359 75.411,119.573 C75.144,124.008 74.805,129.213 74.336,136.163 C74.09,139.812 73.18,153.141 73.034,155.298 C72.888,157.454 72.754,159.432 72.627,161.327 C71.439,179.069 70.699,191.44 70.299,201.059 C70.127,205.336 69.969,209.617 70.002,213.899 C71.328,213.635 70.51,213.806 72.449,213.355 C75.558,212.608 89.866,208.753 90.621,208.555 C95.468,207.287 99.655,206.263 103.667,205.386 C111.829,203.545 120.122,202.272 128.5,202.246 L128.384,202.245 L128.615,202.245 L128.5,202.246 C136.884,202.123 145.164,203.674 153.333,205.386 C157.345,206.263 161.532,207.287 166.379,208.555 C167.134,208.753 181.442,212.608 184.551,213.355 C186.49,213.806 185.672,213.635 186.998,213.899 C187.033,209.617 186.872,205.336 186.701,201.059 C186.301,191.44 185.561,179.069 184.373,161.327 C184.246,159.432 184.112,157.454 183.966,155.298 C183.82,153.141 182.91,139.812 182.664,136.163 C182.195,129.213 181.856,124.008 181.589,119.573 C180.791,106.359 180.644,102.021 181.35,99.905 C182.225,97.278 184.392,95.77 186.8,95.4 C188.02,95.213 189.182,95.316 190.441,95.601 C192.047,95.964 193.932,96.674 196.215,97.716 C199.861,99.381 204.584,101.937 210.178,105.208 C211.132,105.766 212.106,106.342 213.099,106.935 C221.033,111.752 217.162,109.365 224.717,114.091 L242.227,75.866 L197.24,54.821 L171.183,44.856 z" fill="#383838"/>
    <path d="M105.526,29.379 C107.333,29.614 106.595,29.365 107.802,29.915 C113.908,33.477 143.595,33.224 149.281,30.087 C151.215,29.019 153.648,29.722 154.715,31.657 C155.782,33.591 155.08,36.024 153.145,37.091 C145.047,41.559 112.365,41.839 103.771,36.826 C101.863,35.713 101.219,33.263 102.332,31.355 C103.134,29.995 104.103,29.753 105.526,29.379 z" fill="#383838"/>
  </g>
</svg>
