<?xml version="1.0" encoding="UTF-8"?>
<!DOCTYPE svg PUBLIC "-//W3C//DTD SVG 1.1//EN" "http://www.w3.org/Graphics/SVG/1.1/DTD/svg11.dtd">
<svg version="1.1" xmlns="http://www.w3.org/2000/svg" xmlns:xlink="http://www.w3.org/1999/xlink" x="0" y="0" width="256" height="256" viewBox="0, 0, 256, 256">
  <g id="レイヤー_1">
    <path d="M121.763,3.772 L127.18,3.785 C134.337,3.834 141.361,4.008 146.705,4.273 C149.545,4.414 151.876,4.579 153.611,4.766 C154.611,4.874 155.44,4.992 156.13,5.132 C157.949,5.5 158.917,5.834 160.218,7.229 C161.339,8.431 161.805,9.784 161.9,11.146 C161.948,11.841 161.893,12.471 161.771,13.104 C161.628,13.849 161.39,14.595 161.061,15.434 C160.576,16.667 159.848,18.192 158.878,20.046 C157.26,23.139 154.958,27.16 152.114,31.911 C151.794,32.447 151.467,32.99 151.136,33.54 C148.946,37.169 146.604,40.963 144.262,44.696 C142.868,46.911 143.475,45.95 142.443,47.58 C142.836,49.353 142.598,48.28 143.156,50.799 C144.126,55.181 145.206,60.076 146.37,65.363 C149.695,80.469 153.019,95.692 156.123,110.064 C156.338,111.059 156.551,112.048 156.762,113.029 C165.63,154.169 170.437,177.769 170.437,181.649 C170.437,186.64 163.664,201.719 154.066,219.826 C149.762,227.945 145.487,235.444 141.97,240.995 C136.571,249.519 133.999,252.732 129.887,253.188 C127.723,253.429 126.059,252.739 124.438,251.562 C123.564,250.927 122.693,250.115 121.761,249.106 C120.227,247.445 118.439,245.146 116.413,242.267 C112.689,236.973 108.19,229.744 103.748,221.952 C93.596,204.145 86.563,188.871 86.563,182.57 C90.063,155.074 96.266,127.875 102.08,100.793 C105.879,83.102 109.302,65.008 114.609,47.669 C113.68,46.369 114.291,47.225 112.779,45.097 C110.1,41.314 107.419,37.47 104.914,33.794 C104.542,33.249 104.176,32.71 103.816,32.179 C100.614,27.444 98.01,23.426 96.159,20.317 C95.054,18.46 94.214,16.925 93.641,15.675 C93.259,14.845 92.974,14.102 92.783,13.366 C92.293,11.477 92.264,9.797 93.593,7.81 C94.854,5.922 96.058,5.41 98.06,4.936 C98.8,4.76 99.666,4.624 100.705,4.505 C102.453,4.306 104.788,4.15 107.657,4.032 C112.356,3.825 117.061,3.818 121.763,3.772 z M131.277,52.66 L125.537,52.733 C117.793,82.825 111.527,113.298 105.398,143.754 C103.686,152.264 102.036,160.787 100.502,169.331 C99.723,173.669 98.713,178.148 98.563,182.57 C98.563,185.784 105.371,200.569 114.173,216.008 C118.44,223.494 122.745,230.413 126.228,235.362 C127.937,237.74 127.046,236.547 128.905,238.94 C131.028,235.865 130.058,237.325 131.833,234.574 C135.165,229.315 139.293,222.073 143.463,214.206 C147.543,206.508 151.385,198.736 154.187,192.499 C155.615,189.32 156.739,186.613 157.496,184.531 C157.862,183.526 158.132,182.692 158.3,182.062 C158.402,181.68 158.437,181.481 158.437,181.649 C158.437,179.181 153.139,153.166 145.032,115.558 C144.821,114.578 144.608,113.591 144.393,112.597 C141.294,98.242 137.972,83.034 134.65,67.942 C133.488,62.66 132.408,57.769 131.44,53.392 L131.277,52.66 z M121.815,15.772 C117.258,15.766 112.703,15.856 108.149,16.022 L107.614,16.047 C109.579,19.236 111.664,22.349 113.756,25.456 C114.108,25.975 114.465,26.502 114.829,27.036 C117.29,30.646 119.931,34.432 122.572,38.161 C124.029,40.213 123.468,39.378 124.284,40.521 L132.754,40.45 C133.321,39.555 132.872,40.265 134.096,38.319 C136.404,34.641 138.711,30.905 140.86,27.341 C141.185,26.803 141.504,26.272 141.817,25.749 C143.689,22.641 145.504,19.499 147.255,16.321 L146.111,16.259 C140.953,16.003 134.095,15.833 127.097,15.784 L121.815,15.772 z" fill="#383838"/>
  </g>
</svg>
