<?xml version="1.0" encoding="UTF-8"?>
<!DOCTYPE svg PUBLIC "-//W3C//DTD SVG 1.1//EN" "http://www.w3.org/Graphics/SVG/1.1/DTD/svg11.dtd">
<svg version="1.1" xmlns="http://www.w3.org/2000/svg" xmlns:xlink="http://www.w3.org/1999/xlink" x="0" y="0" width="256" height="256" viewBox="0, 0, 256, 256">
  <g id="レイヤー_1">
    <path d="M167.949,2.55 C170.261,2.626 169.246,2.553 170.998,2.719 C173.553,3.001 177.052,3.636 181.279,4.572 C189.75,6.448 200.584,9.406 210.935,12.699 C222.602,16.41 232.92,20.298 240.418,23.927 C244.787,26.041 248.221,28.072 250.683,30.084 C254.435,33.15 256.528,36.544 255.609,40.763 C254.225,47.121 241.695,83.306 227.069,123.129 C212.456,162.073 198.25,201.245 181.363,239.284 C181.359,239.792 181.373,239.354 180.996,240.546 C180.274,242.203 179.218,243.027 177.593,243.673 C176.953,243.978 177.219,243.93 176.839,243.973 C176.427,244.137 176.685,244.07 176.045,244.064 C174.883,244.198 175.407,244.235 174.468,244.051 C174.163,244.048 174.333,244.069 173.963,243.952 C172.961,243.756 173.437,243.928 172.537,243.435 L116.479,219.289 C113.436,217.979 112.031,214.449 113.342,211.405 C114.379,209.138 115.582,208.741 117.74,207.882 C118.912,207.88 118.311,207.888 119.543,207.856 C120.13,207.846 120.677,208.091 121.226,208.268 L168.984,228.839 C167.578,189.485 166.654,150.112 165.057,110.765 C164.133,88.414 163.228,76.747 161.912,70.39 L161.793,69.879 L161.568,70.333 C159.409,74.801 156.615,81.413 153.213,90.062 C147.46,104.689 140.485,123.73 130.425,151.975 C129.945,153.324 129.453,154.706 128.945,156.134 C127.006,161.589 118.898,184.453 116.862,190.175 C112.379,202.777 109.024,212.102 106.107,220.041 C96.392,246.475 94.163,251.855 90.151,253.503 C86.594,254.965 81.54,253.621 70.938,249.731 C63.213,246.895 53.355,242.81 43.376,238.327 C33.273,233.788 23.758,229.16 16.665,225.31 C6.299,219.681 2.181,216.849 1.362,212.595 C0.752,209.425 3.721,199.841 11.428,177.539 C17.811,159.069 26.33,135.6 34.877,112.985 C44.294,88.072 53.125,65.813 60.09,49.601 C63.95,40.62 67.208,33.557 69.796,28.617 C71.226,25.887 72.469,23.767 73.572,22.223 C74.715,20.68 75.913,19.003 77.764,18.241 C78.429,17.967 79.169,17.931 79.871,17.776 L81.123,17.801 C81.802,17.859 82.467,18.032 83.089,18.313 L162.89,54.437 C169.774,55.708 172.262,61.771 173.663,67.957 C175.161,75.194 176.094,87.221 177.047,110.269 C178.275,143.787 179.325,177.31 180.408,210.833 C192.891,180.488 204.456,149.775 215.804,118.992 C218.973,110.336 219.968,107.641 223.61,97.534 C227.705,86.168 231.749,74.783 235.694,63.365 C238.4,55.535 241.26,47.699 243.487,39.715 L243.091,39.377 C241.484,38.064 238.787,36.469 235.19,34.728 C228.29,31.388 218.466,27.687 207.297,24.134 C197.277,20.947 186.788,18.083 178.685,16.289 C176.324,15.769 173.955,15.277 171.565,14.91 C168.747,24.643 164.936,34.129 160.257,43.118 C158.685,46.036 155.046,47.126 152.129,45.555 C149.212,43.983 148.121,40.344 149.692,37.427 C151.626,33.839 154.476,27.359 156.862,21.137 C159.163,15.135 160.687,9.939 160.758,9.132 C160.994,6.462 162.199,4.382 164.277,3.354 C165.215,2.891 166.111,2.688 167.093,2.598 L167.949,2.55 z M82.169,31.069 C80.978,33.107 81.56,32.069 80.425,34.185 C78.007,38.801 74.864,45.615 71.116,54.339 C64.231,70.361 55.461,92.467 46.102,117.227 C37.594,139.739 29.113,163.101 22.769,181.459 C19.648,190.492 17.153,197.999 15.475,203.415 C14.843,205.447 14.238,207.487 13.69,209.543 L14.213,209.911 C16.094,211.204 18.876,212.855 22.391,214.764 C29.19,218.455 38.445,222.956 48.294,227.381 C58.032,231.756 67.638,235.737 75.073,238.465 C78.885,239.865 82.039,240.902 84.341,241.514 L84.745,241.617 C86.261,238.216 85.599,239.753 86.751,237.016 C88.768,232.147 91.438,225.167 94.843,215.901 C97.744,208.01 101.086,198.718 105.556,186.153 C107.59,180.438 115.697,157.575 117.639,152.113 C118.147,150.684 118.64,149.3 119.121,147.949 C129.223,119.586 136.231,100.454 142.046,85.669 C145.549,76.764 148.446,69.908 150.763,65.113 C151.797,63.028 151.367,63.83 151.998,62.679 L82.169,31.069 z" fill="#383838"/>
  </g>
</svg>
