<?xml version="1.0" encoding="UTF-8"?>
<!DOCTYPE svg PUBLIC "-//W3C//DTD SVG 1.1//EN" "http://www.w3.org/Graphics/SVG/1.1/DTD/svg11.dtd">
<svg version="1.1" xmlns="http://www.w3.org/2000/svg" xmlns:xlink="http://www.w3.org/1999/xlink" x="0" y="0" width="256" height="256" viewBox="0, 0, 256, 256">
  <g id="レイヤー_2">
    <path d="M209.902,37.027 C212.791,37.139 214.705,38.591 215.82,41.199 C215.84,41.261 215.84,41.261 215.933,41.554 C216.026,41.845 216.135,42.188 216.26,42.582 C216.617,43.708 217.032,45.019 217.498,46.5 C218.83,50.73 220.314,55.485 221.912,60.658 C226.478,75.439 231.044,90.614 235.307,105.334 C236.462,109.322 237.581,113.23 238.661,117.048 C244.134,136.404 248.434,152.884 251.247,165.621 C254.949,182.381 256.079,191.606 253.812,196.178 C252.971,197.876 251.376,199.077 249.511,199.416 C242.121,200.761 227.931,203.819 209.002,208.092 C208.102,208.295 207.193,208.5 206.276,208.708 C196.513,210.919 186.209,213.288 176.009,215.657 C172.439,216.486 169.137,217.256 166.184,217.947 C165.151,218.189 164.235,218.404 163.447,218.589 C162.974,218.7 162.649,218.776 162.483,218.815 C159.184,219.591 155.898,217.484 155.227,214.162 C155.21,214.077 155.171,213.89 155.111,213.608 C155.007,213.124 154.881,212.559 154.734,211.919 C154.311,210.076 153.802,208.017 153.21,205.797 C151.519,199.465 149.499,193.137 147.168,187.271 C141.103,172.009 134.107,163.135 128,163.135 C121.893,163.135 114.897,172.009 108.832,187.271 C106.501,193.137 104.481,199.465 102.79,205.797 C102.198,208.017 101.689,210.076 101.266,211.919 C101.119,212.559 100.993,213.124 100.889,213.608 C100.829,213.89 100.79,214.077 100.773,214.162 C100.102,217.484 96.816,219.591 93.517,218.815 C93.351,218.776 93.026,218.7 92.553,218.589 C91.765,218.404 90.849,218.189 89.816,217.947 C86.863,217.256 83.561,216.486 79.991,215.657 C69.791,213.288 59.487,210.919 49.724,208.708 C48.807,208.5 47.898,208.295 46.998,208.092 C28.069,203.819 13.879,200.761 6.489,199.416 C4.624,199.077 3.029,197.876 2.188,196.178 C-0.079,191.606 1.051,182.381 4.753,165.621 C7.566,152.884 11.866,136.404 17.339,117.048 C18.419,113.23 19.538,109.322 20.693,105.334 C24.956,90.614 29.522,75.439 34.088,60.658 C35.686,55.485 37.17,50.73 38.502,46.5 C38.968,45.019 39.383,43.708 39.74,42.582 C39.865,42.188 39.974,41.845 40.067,41.554 C40.16,41.261 40.16,41.261 40.18,41.199 C41.129,38.228 44.195,36.48 47.235,37.176 C47.349,37.202 47.649,37.266 48.142,37.361 C49.01,37.53 50.083,37.72 51.366,37.926 C55.094,38.526 59.739,39.13 65.348,39.695 C81.5,41.325 102.098,42.305 127.531,42.305 L128.469,42.305 C153.902,42.305 174.5,41.325 190.652,39.695 C196.261,39.13 200.906,38.526 204.634,37.926 C205.917,37.72 206.99,37.53 207.858,37.361 C208.351,37.266 208.651,37.202 208.765,37.176 L209.902,37.027 z M205.975,49.859 C201.292,50.621 196.572,51.13 191.856,51.635 C175.292,53.306 154.294,54.305 128.469,54.305 L127.531,54.305 C101.706,54.305 80.708,53.306 64.144,51.635 C59.422,51.173 54.715,50.571 50.025,49.859 L49.948,50.104 C48.622,54.314 47.145,59.048 45.553,64.2 C41.007,78.918 36.461,94.027 32.219,108.672 C31.071,112.636 29.959,116.52 28.887,120.312 C23.472,139.464 19.224,155.741 16.471,168.208 C14.939,175.143 13.895,180.793 13.38,185 C13.14,187.145 13.249,185.992 13.071,188.459 C25.3,190.915 37.473,193.645 49.64,196.386 C50.543,196.59 51.455,196.796 52.375,197.004 C62.161,199.221 72.486,201.594 82.706,203.968 C85.273,204.565 87.841,205.162 90.408,205.762 L91.197,202.702 C93,195.948 95.157,189.188 97.68,182.839 C100.996,174.494 104.703,167.471 108.902,162.145 C114.403,155.169 120.738,151.135 128,151.135 C135.262,151.135 141.597,155.169 147.098,162.145 C151.297,167.471 155.004,174.494 158.32,182.839 C160.843,189.188 163,195.948 164.803,202.702 L165.592,205.762 C168.159,205.162 170.727,204.565 173.294,203.968 C183.514,201.594 193.839,199.221 203.625,197.004 C204.545,196.796 205.457,196.59 206.36,196.386 C218.54,193.707 230.685,190.844 242.929,188.459 C242.751,185.992 242.86,187.145 242.62,185 C242.105,180.793 241.061,175.143 239.529,168.208 C236.776,155.741 232.528,139.464 227.113,120.312 C226.041,116.52 224.929,112.636 223.781,108.672 C219.539,94.027 214.993,78.918 210.447,64.2 C208.855,59.048 207.378,54.314 206.052,50.104 L205.975,49.859 z" fill="#383838"/>
    <path d="M107.422,64.103 C109.631,64.103 111.422,65.894 111.422,68.103 C111.422,70.343 111.449,77.926 111.507,92.881 C111.509,93.352 111.509,93.352 111.51,93.823 C111.591,114.596 111.599,116.677 111.599,118.054 C111.599,120.721 113.766,123.44 118.424,126.871 C119.305,127.52 123.014,130.101 123.873,130.745 C125.64,132.071 125.997,134.579 124.671,136.345 C123.345,138.112 120.838,138.47 119.071,137.144 C118.357,136.608 114.687,134.055 113.679,133.312 C107.127,128.486 103.599,124.058 103.599,118.054 C103.599,116.695 103.591,114.554 103.511,93.855 C103.509,93.383 103.509,93.383 103.507,92.912 C103.449,77.932 103.422,70.359 103.422,68.103 C103.422,65.894 105.213,64.103 107.422,64.103 z" fill="#383838"/>
    <path d="M128,87.427 C124.118,87.427 120.972,84.28 120.972,80.399 C120.972,76.517 124.118,73.37 128,73.37 C131.882,73.37 135.028,76.517 135.028,80.399 C135.028,84.28 131.882,87.427 128,87.427 z" fill="#383838"/>
    <path d="M128,113.778 C124.118,113.778 120.972,110.631 120.972,106.75 C120.972,102.868 124.118,99.722 128,99.722 C131.882,99.722 135.028,102.868 135.028,106.75 C135.028,110.631 131.882,113.778 128,113.778 z" fill="#383838"/>
  </g>
</svg>
