<?xml version="1.0" encoding="UTF-8"?>
<!DOCTYPE svg PUBLIC "-//W3C//DTD SVG 1.1//EN" "http://www.w3.org/Graphics/SVG/1.1/DTD/svg11.dtd">
<svg version="1.1" xmlns="http://www.w3.org/2000/svg" xmlns:xlink="http://www.w3.org/1999/xlink" x="0" y="0" width="212.109" height="239.252" viewBox="0, 0, 212.109, 239.252">
  <g id="レイヤー_1" transform="translate(-21.099, -8.111)">
    <path d="M128.056,8.111 L128.056,8.111 C98.183,8.111 73.965,32.328 73.965,62.202 C74.255,73.658 77.445,84.692 84.318,93.983 C81.307,93.424 78.252,93.135 75.19,93.091 C45.317,93.091 21.099,117.308 21.099,147.182 C21.099,177.055 45.317,201.272 75.19,201.272 C92.362,200.491 109.186,193.092 119.084,178.553 C115.682,190.815 111.667,207.474 109.114,215.402 C106.561,223.331 95.263,238.193 95.91,239.27 C97.215,241.441 98.705,244.818 100.263,245.771 C101.82,246.724 123.308,247.384 128.005,247.363 L126.303,247.363 C131,247.384 153.01,246.583 154.045,245.771 C155.08,244.959 157.093,241.441 158.398,239.27 C159.045,238.193 147.747,223.331 145.194,215.402 C142.641,207.474 138.626,190.815 135.224,178.553 C145.123,193.092 161.946,200.491 179.118,201.272 C208.992,201.272 233.209,177.055 233.209,147.182 C233.209,117.308 208.992,93.091 179.118,93.091 C176.056,93.135 173.001,93.424 169.991,93.983 C176.863,84.692 180.053,73.658 180.343,62.202 C180.343,32.328 156.126,8.111 126.252,8.111 L128.056,8.111 z" fill="#383838"/>
  </g>
</svg>
