<?xml version="1.0" encoding="UTF-8"?>
<!DOCTYPE svg PUBLIC "-//W3C//DTD SVG 1.1//EN" "http://www.w3.org/Graphics/SVG/1.1/DTD/svg11.dtd">
<svg version="1.1" xmlns="http://www.w3.org/2000/svg" xmlns:xlink="http://www.w3.org/1999/xlink" x="0" y="0" width="226.109" height="253.252" viewBox="0, 0, 226.109, 253.252">
  <g id="レイヤー_1" transform="translate(-14.099, -1.111)">
    <path d="M128.556,8.611 L128.556,8.611 C98.683,8.611 74.465,32.828 74.465,62.702 C74.755,74.158 77.945,85.192 84.818,94.483 C81.807,93.924 78.752,93.635 75.69,93.591 C45.817,93.591 21.599,117.808 21.599,147.682 C21.599,177.555 45.817,201.772 75.69,201.772 C92.862,200.991 109.686,193.592 119.584,179.053 C116.182,191.315 112.167,207.974 109.614,215.902 C107.061,223.831 95.763,238.693 96.41,239.77 C97.715,241.941 99.205,245.318 100.763,246.271 C102.32,247.224 123.808,247.884 128.505,247.863 L126.803,247.863 C131.5,247.884 153.51,247.083 154.545,246.271 C155.58,245.459 157.593,241.941 158.898,239.77 C159.545,238.693 148.247,223.831 145.694,215.902 C143.141,207.974 139.126,191.315 135.724,179.053 C145.623,193.592 162.446,200.991 179.618,201.772 C209.492,201.772 233.709,177.555 233.709,147.682 C233.709,117.808 209.492,93.591 179.618,93.591 C176.556,93.635 173.501,93.924 170.491,94.483 C177.363,85.192 180.553,74.158 180.843,62.702 C180.843,32.828 156.626,8.611 126.752,8.611 L128.556,8.611 z" fill-opacity="0" stroke="#383838" stroke-width="12" stroke-linejoin="round"/>
  </g>
</svg>
