<?xml version="1.0" encoding="UTF-8"?>
<!DOCTYPE svg PUBLIC "-//W3C//DTD SVG 1.1//EN" "http://www.w3.org/Graphics/SVG/1.1/DTD/svg11.dtd">
<svg version="1.1" xmlns="http://www.w3.org/2000/svg" xmlns:xlink="http://www.w3.org/1999/xlink" x="0" y="0" width="256" height="256" viewBox="0, 0, 256, 256">
  <g id="レイヤー_1">
    <path d="M128.276,0.401 L129.083,0.403 C131.489,1.324 130.549,0.748 132.045,1.874 C132.09,1.915 132.09,1.915 132.303,2.11 C132.597,2.379 132.763,2.531 133.048,2.792 C133.863,3.538 134.807,4.405 135.871,5.382 C138.908,8.175 142.292,11.3 145.936,14.681 C156.348,24.344 166.761,34.134 176.484,43.451 C177.66,44.578 178.82,45.693 179.964,46.794 C184.644,51.303 189.021,55.568 193.048,59.551 C198.072,64.52 203.627,70.161 209.627,76.372 C210.903,77.694 212.198,79.039 213.509,80.406 C222.64,89.928 232.203,100.125 241.622,110.32 C244.918,113.888 247.961,117.202 250.679,120.176 C251.631,121.217 252.474,122.142 253.2,122.94 C253.454,123.22 253.675,123.463 253.863,123.67 C254.053,123.879 254.053,123.879 254.093,123.923 C256.165,126.21 256.165,129.695 254.093,131.981 C254.053,132.026 254.053,132.026 253.863,132.234 C253.675,132.441 253.454,132.685 253.2,132.964 C252.474,133.762 251.631,134.687 250.679,135.729 C247.961,138.703 244.918,142.016 241.622,145.584 C232.203,155.78 222.64,165.976 213.509,175.499 C212.198,176.866 210.903,178.211 209.627,179.532 C203.627,185.743 198.072,191.385 193.048,196.353 C189.021,200.337 184.644,204.602 179.964,209.11 C178.82,210.212 177.66,211.326 176.484,212.453 C166.761,221.771 156.348,231.56 145.936,241.223 C142.292,244.605 138.908,247.73 135.871,250.522 C134.807,251.5 133.863,252.366 133.048,253.112 C132.763,253.374 132.597,253.526 132.303,253.794 C132.09,253.989 132.09,253.989 132.045,254.03 C129.754,256.122 126.246,256.122 123.955,254.03 C123.91,253.989 123.91,253.989 123.697,253.794 C123.403,253.526 123.237,253.374 122.952,253.112 C122.137,252.366 121.193,251.5 120.129,250.522 C117.092,247.73 113.708,244.605 110.064,241.223 C99.652,231.56 89.239,221.771 79.516,212.453 C78.34,211.326 77.18,210.212 76.036,209.11 C71.356,204.602 66.979,200.337 62.952,196.353 C57.928,191.385 52.373,185.743 46.373,179.532 C45.097,178.211 43.802,176.866 42.491,175.499 C33.36,165.976 23.797,155.78 14.378,145.584 C11.082,142.016 8.039,138.703 5.321,135.729 C4.369,134.687 3.526,133.762 2.8,132.964 C2.546,132.685 2.325,132.441 2.137,132.234 C2.033,132.12 2.033,132.12 1.966,132.046 C1.94,132.017 1.94,132.017 1.922,131.998 C1.916,131.991 1.916,131.991 1.911,131.986 C1.909,131.984 1.909,131.984 1.908,131.982 L1.907,131.981 C-0.165,129.695 -0.165,126.21 1.907,123.923 C1.947,123.879 1.947,123.879 2.137,123.67 C2.325,123.463 2.546,123.22 2.8,122.94 C3.526,122.142 4.369,121.217 5.321,120.176 C8.039,117.202 11.082,113.888 14.378,110.32 C23.797,100.125 33.36,89.928 42.491,80.406 C43.802,79.039 45.097,77.694 46.373,76.372 C52.373,70.161 57.928,64.52 62.952,59.551 C66.979,55.568 71.356,51.303 76.036,46.794 C77.18,45.693 78.34,44.578 79.516,43.451 C89.239,34.134 99.652,24.344 110.064,14.681 C113.708,11.3 117.092,8.175 120.129,5.382 C121.193,4.405 122.137,3.538 122.952,2.792 C123.237,2.531 123.403,2.379 123.697,2.11 C123.91,1.915 123.91,1.915 123.955,1.874 C125.293,0.628 126.536,0.46 128.276,0.401 z" fill="#383838"/>
  </g>
</svg>
