<?xml version="1.0" encoding="UTF-8"?>
<!DOCTYPE svg PUBLIC "-//W3C//DTD SVG 1.1//EN" "http://www.w3.org/Graphics/SVG/1.1/DTD/svg11.dtd">
<svg version="1.1" xmlns="http://www.w3.org/2000/svg" xmlns:xlink="http://www.w3.org/1999/xlink" x="0" y="0" width="256" height="256" viewBox="0, 0, 256, 256">
  <g id="レイヤー_1">
    <path d="M71.199,28.099 C73.652,28.63 72.66,28.219 74.271,29.07 C74.37,29.134 74.552,29.253 74.811,29.424 C75.237,29.706 75.73,30.034 76.283,30.405 C77.859,31.462 79.612,32.658 81.5,33.971 C86.895,37.725 92.292,41.668 97.345,45.625 C100.323,47.957 103.096,50.229 105.628,52.423 C108.367,54.797 112.29,58.476 117.125,63.164 C117.419,63.449 117.716,63.737 118.015,64.028 C121.194,67.12 124.545,70.429 127.861,73.737 L128,73.876 L128.139,73.737 C131.455,70.429 134.806,67.12 137.985,64.028 C138.284,63.737 138.581,63.449 138.875,63.164 C143.71,58.476 147.633,54.797 150.372,52.423 C152.904,50.229 155.677,47.957 158.655,45.625 C163.708,41.668 169.105,37.725 174.5,33.971 C176.388,32.658 178.141,31.462 179.717,30.405 C180.27,30.034 180.763,29.706 181.189,29.424 C181.448,29.253 181.63,29.134 181.729,29.07 C183.34,28.219 182.348,28.63 184.801,28.099 C186.766,28.086 188.205,28.874 189.564,30.195 C189.646,30.29 189.802,30.473 190.029,30.738 C190.405,31.179 190.841,31.691 191.332,32.268 C192.734,33.916 194.295,35.759 195.976,37.751 C200.781,43.446 205.586,49.204 210.075,54.672 C210.534,55.231 210.988,55.785 211.436,56.333 C216.876,62.984 221.387,68.655 224.711,73.058 C227.627,76.923 231.072,81.644 234.938,87.059 C235.379,87.675 235.824,88.3 236.273,88.931 C240.437,94.786 244.818,101.055 249.149,107.322 C250.664,109.515 252.065,111.552 253.318,113.38 C253.756,114.021 254.145,114.589 254.48,115.08 C254.682,115.375 254.821,115.579 254.893,115.685 C256.582,118.165 256.179,121.511 253.95,123.52 C253.826,123.631 253.826,123.631 253.237,124.162 C252.43,124.889 252.43,124.889 251.221,125.979 C249.049,127.935 246.63,130.115 244.024,132.462 C236.58,139.17 229.134,145.877 222.184,152.137 C222.177,152.144 222.177,152.144 222.169,152.151 C211.27,161.968 202.631,169.747 197.095,174.729 C191.407,179.847 181.695,187.785 168.958,197.83 C168.273,198.37 167.581,198.916 166.881,199.466 C159.166,205.532 150.905,211.933 142.644,218.271 C139.753,220.489 137.068,222.541 134.658,224.376 C133.815,225.019 133.065,225.589 132.419,226.08 C132.031,226.375 131.763,226.578 131.623,226.684 C129.481,228.307 126.519,228.307 124.377,226.684 C124.279,226.61 124.093,226.468 123.82,226.262 C123.367,225.918 122.839,225.516 122.24,225.06 C120.53,223.759 118.598,222.285 116.482,220.666 C110.439,216.042 104.14,211.187 97.901,206.333 C79.999,192.404 66.197,181.29 58.905,174.729 C53.369,169.747 44.73,161.968 33.831,152.151 C33.823,152.144 33.823,152.144 33.815,152.137 C26.866,145.877 19.42,139.17 11.976,132.462 C9.37,130.115 6.951,127.935 4.779,125.979 C3.57,124.889 3.57,124.889 2.763,124.162 C2.174,123.631 2.174,123.631 2.05,123.52 C-0.179,121.511 -0.582,118.165 1.106,115.685 C1.179,115.579 1.318,115.375 1.52,115.08 C1.855,114.589 2.244,114.021 2.682,113.38 C3.935,111.552 5.336,109.515 6.851,107.322 C11.182,101.055 15.563,94.786 19.727,88.931 C20.177,88.3 20.621,87.675 21.062,87.059 C24.928,81.644 28.373,76.923 31.289,73.058 C34.613,68.655 39.124,62.984 44.564,56.333 C45.012,55.785 45.466,55.231 45.925,54.672 C50.414,49.204 55.219,43.446 60.024,37.751 C61.705,35.759 63.266,33.916 64.668,32.268 C65.159,31.691 65.595,31.179 65.971,30.738 C66.198,30.473 66.354,30.29 66.436,30.195 C67.905,28.515 69.127,28.396 71.199,28.099 z M183.905,42.062 L181.353,43.822 C176.131,47.455 170.91,51.27 166.053,55.073 C163.225,57.288 160.603,59.436 158.231,61.491 C155.705,63.681 151.913,67.237 147.228,71.779 C146.938,72.06 146.646,72.343 146.352,72.63 C143.213,75.683 139.897,78.957 136.614,82.232 C135.465,83.379 134.402,84.443 133.452,85.398 C133.12,85.732 132.825,86.029 132.572,86.284 C132.317,86.541 132.317,86.541 132.265,86.593 C129.917,88.967 126.083,88.967 123.735,86.593 C123.683,86.541 123.683,86.541 123.428,86.284 C123.175,86.029 122.88,85.732 122.548,85.398 C121.598,84.443 120.535,83.379 119.386,82.232 C116.103,78.957 112.787,75.683 109.648,72.63 C109.354,72.343 109.062,72.06 108.772,71.779 C104.087,67.237 100.295,63.681 97.769,61.491 C95.397,59.436 92.775,57.288 89.947,55.073 C85.09,51.27 79.869,47.455 74.646,43.822 L72.095,42.062 C70.014,44.518 70.981,43.376 69.195,45.49 C64.423,51.146 59.65,56.865 55.2,62.286 C54.746,62.839 54.297,63.387 53.853,63.93 C48.504,70.471 44.079,76.032 40.868,80.287 C38.023,84.056 34.638,88.697 30.827,94.033 C30.392,94.643 29.951,95.261 29.506,95.886 C25.378,101.692 21.026,107.917 16.724,114.144 C15.071,116.538 15.985,115.213 13.984,118.12 C15.992,119.929 18,121.738 20.008,123.547 C27.452,130.254 34.897,136.961 41.847,143.22 C41.854,143.227 41.854,143.227 41.862,143.234 C52.76,153.05 61.398,160.829 66.932,165.809 C73.935,172.11 87.602,183.115 105.27,196.862 C111.481,201.695 117.755,206.53 123.774,211.136 C126.212,213 124.804,211.924 128,214.363 C130.45,212.497 132.895,210.624 135.339,208.75 C143.565,202.439 151.791,196.066 159.464,190.032 C160.159,189.486 160.847,188.944 161.527,188.407 C174.067,178.519 183.632,170.7 189.068,165.809 C194.602,160.829 203.24,153.05 214.138,143.234 C214.146,143.227 214.146,143.227 214.153,143.22 C221.103,136.961 228.548,130.254 235.992,123.547 C238,121.738 240.008,119.929 242.016,118.12 C240.015,115.213 240.929,116.538 239.276,114.144 C234.974,107.917 230.622,101.692 226.494,95.886 C226.049,95.261 225.608,94.643 225.173,94.033 C221.362,88.697 217.977,84.056 215.132,80.287 C211.921,76.032 207.496,70.471 202.147,63.93 C201.703,63.387 201.254,62.839 200.8,62.286 C196.35,56.865 191.577,51.146 186.805,45.49 C185.019,43.376 185.986,44.518 183.905,42.062 z" fill="#383838"/>
  </g>
</svg>
