<?xml version="1.0" encoding="UTF-8"?>
<!DOCTYPE svg PUBLIC "-//W3C//DTD SVG 1.1//EN" "http://www.w3.org/Graphics/SVG/1.1/DTD/svg11.dtd">
<svg version="1.1" xmlns="http://www.w3.org/2000/svg" xmlns:xlink="http://www.w3.org/1999/xlink" x="0" y="0" width="256" height="256" viewBox="0, 0, 256, 256">
  <g id="レイヤー_1">
    <path d="M128.775,0.941 C130.542,1.411 129.818,1.113 131,1.695 L235.862,62.237 C237.718,63.309 238.862,65.289 238.862,67.433 L238.862,188.517 C238.862,190.661 237.718,192.641 235.862,193.713 L131,254.255 C129.144,255.327 126.856,255.327 125,254.255 L20.138,193.713 C18.282,192.641 17.138,190.661 17.138,188.517 L17.138,67.433 C17.138,65.289 18.282,63.309 20.138,62.237 L125,1.695 C126.323,0.909 127.302,0.941 128.775,0.941 z" fill="#383838"/>
  </g>
</svg>
