<?xml version="1.0" encoding="UTF-8"?>
<!DOCTYPE svg PUBLIC "-//W3C//DTD SVG 1.1//EN" "http://www.w3.org/Graphics/SVG/1.1/DTD/svg11.dtd">
<svg version="1.1" xmlns="http://www.w3.org/2000/svg" xmlns:xlink="http://www.w3.org/1999/xlink" x="0" y="0" width="256" height="256" viewBox="0, 0, 256, 256">
  <g id="レイヤー_1">
    <path d="M127.995,1.162 C129.266,1.158 130.504,1.557 131.533,2.302 C151.833,16.997 179.649,47.795 206.996,84.144 C218.583,99.545 229.169,114.796 236.925,127.202 C245.378,140.723 249.829,149.563 249.829,154.345 C249.835,159.948 240.406,174.872 226.482,193.492 C211.862,213.044 200.636,225.626 194.607,226.777 C189.636,227.726 183.439,225.467 174.919,220.822 L173.796,220.193 C175.868,223.266 177.902,226.364 179.86,229.511 C180.886,231.177 181.669,232.533 182.215,233.613 C182.577,234.33 182.855,234.96 183.06,235.579 C183.236,236.11 183.363,236.637 183.422,237.235 C183.561,238.62 183.355,240.019 182.348,241.468 C181.664,242.454 180.713,243.727 179.54,245.244 C179.397,245.429 179.397,245.429 179.254,245.613 C178.403,246.708 177.495,247.857 176.588,248.99 C176.27,249.387 175.975,249.753 175.71,250.081 C175.55,250.28 175.435,250.422 175.372,250.5 C174.312,251.803 172.755,252.603 171.079,252.704 C171.009,252.709 171.009,252.709 170.681,252.728 C170.231,252.755 169.979,252.77 169.553,252.796 C168.335,252.869 166.965,252.95 165.473,253.037 C161.213,253.286 156.835,253.535 152.583,253.768 C151.38,253.833 150.202,253.897 149.051,253.958 C138.394,254.526 131,254.849 128.038,254.838 C124.699,254.85 115.997,254.455 103.609,253.778 C99.323,253.544 94.9,253.292 90.593,253.041 C89.085,252.952 87.698,252.87 86.466,252.797 C86.034,252.771 85.78,252.756 85.324,252.729 C84.992,252.709 84.992,252.709 80.754,250.649 L80.633,250.48 L80.627,250.499 C80.628,250.499 80.628,250.499 80.628,250.499 L80.627,250.499 L80.627,250.499 C80.627,250.498 80.627,250.498 80.626,250.497 C80.624,250.495 80.624,250.495 80.621,250.491 C80.614,250.483 80.614,250.483 80.604,250.47 C80.577,250.437 80.577,250.437 80.537,250.388 C80.438,250.265 80.438,250.265 80.289,250.081 C80.025,249.753 79.73,249.387 79.412,248.99 C78.505,247.857 77.597,246.708 76.746,245.612 C76.603,245.429 76.603,245.429 76.46,245.244 C75.287,243.727 74.336,242.454 73.652,241.468 C72.645,240.019 72.439,238.62 72.578,237.235 C72.637,236.637 72.764,236.11 72.94,235.579 C73.145,234.96 73.423,234.33 73.785,233.613 C74.331,232.533 75.114,231.177 76.14,229.51 C78.093,226.361 80.134,223.267 82.204,220.193 L81.081,220.822 C72.561,225.467 66.364,227.726 61.393,226.777 C55.364,225.626 44.138,213.044 29.518,193.492 C15.594,174.872 6.165,159.948 6.171,154.352 C6.171,149.563 10.622,140.723 19.075,127.202 C26.831,114.796 37.417,99.545 49.004,84.144 C76.351,47.795 104.167,16.998 124.467,2.302 C125.485,1.565 126.709,1.166 127.966,1.162 L127.995,1.162 z M128,14.697 C101.31,36.655 79.426,63.961 58.593,91.358 C47.204,106.497 36.811,121.468 29.25,133.563 C25.555,140.313 20.528,146.695 18.204,154.121 C18.26,154.083 18.217,154.105 18.272,154.25 C18.489,154.836 18.852,155.637 19.349,156.613 C20.4,158.676 21.972,161.372 23.975,164.541 C27.917,170.781 33.34,178.565 39.128,186.306 C45.039,194.21 50.926,201.531 55.732,206.917 C58.218,209.704 60.363,211.915 62.053,213.432 C62.839,214.139 63.495,214.665 63.978,214.991 L63.987,214.997 C68.027,214.264 71.739,212.185 75.338,210.286 C76.891,209.439 78.522,208.501 80.23,207.479 C84.077,205.175 93.094,199.299 93.654,199.01 C100.952,195.257 108.127,201.401 104.258,208.954 C103.735,209.975 92.88,225.819 93.718,224.583 C93.516,224.881 93.317,225.175 93.121,225.465 C90.203,229.786 87.944,233.228 86.357,235.804 C85.656,236.957 85.947,236.462 85.474,237.28 L85.953,237.903 C86.088,238.077 86.088,238.077 86.222,238.251 C87.749,240.199 87.056,239.322 88.298,240.885 C89.854,240.977 88.855,240.918 91.294,241.061 C95.587,241.312 99.994,241.563 104.264,241.796 C116.321,242.454 125,242.849 128.038,242.838 C130.712,242.848 138.057,242.527 148.413,241.975 C149.557,241.914 150.73,241.851 151.928,241.786 C156.163,241.554 160.527,241.306 164.773,241.057 C167.172,240.916 166.196,240.974 167.702,240.885 C168.944,239.322 168.251,240.199 169.778,238.251 C169.913,238.077 169.913,238.077 170.047,237.903 L170.526,237.28 C170.053,236.462 170.344,236.957 169.643,235.804 C168.056,233.228 165.797,229.786 162.879,225.466 C162.683,225.175 162.484,224.881 162.282,224.583 C163.116,225.814 152.265,209.975 151.742,208.955 C147.873,201.401 155.049,195.257 162.346,199.011 C162.907,199.299 171.923,205.175 175.77,207.479 C177.478,208.501 179.109,209.439 180.662,210.286 C184.307,211.995 187.934,214.473 192.013,214.997 L192.022,214.991 C192.505,214.665 193.161,214.139 193.947,213.432 C195.637,211.915 197.782,209.704 200.268,206.917 C205.074,201.531 210.961,194.21 216.872,186.306 C222.66,178.565 228.083,170.781 232.025,164.541 C234.028,161.372 235.601,158.676 236.651,156.613 C237.148,155.637 237.511,154.836 237.728,154.251 C237.783,154.105 237.739,154.085 237.797,154.121 C235.083,146.843 230.83,140.15 226.75,133.563 C219.189,121.468 208.796,106.497 197.407,91.358 C176.098,64.47 155.172,36.103 128,14.697 z" fill="#383838"/>
  </g>
</svg>
