<?xml version="1.0" encoding="UTF-8"?>
<!DOCTYPE svg PUBLIC "-//W3C//DTD SVG 1.1//EN" "http://www.w3.org/Graphics/SVG/1.1/DTD/svg11.dtd">
<svg version="1.1" xmlns="http://www.w3.org/2000/svg" xmlns:xlink="http://www.w3.org/1999/xlink" x="0" y="0" width="256" height="256" viewBox="0, 0, 256, 256">
  <g id="レイヤー_1">
    <path d="M127.995,1.162 C129.266,1.158 130.504,1.557 131.533,2.302 C151.833,16.997 179.649,47.795 206.996,84.144 C218.583,99.545 229.169,114.796 236.925,127.202 C245.378,140.723 249.829,149.563 249.829,154.345 C249.835,159.948 240.406,174.872 226.482,193.492 C211.862,213.044 200.636,225.626 194.607,226.777 C189.636,227.726 183.439,225.467 174.919,220.822 L173.796,220.193 C175.868,223.266 177.902,226.364 179.86,229.511 C180.886,231.177 181.669,232.533 182.215,233.613 C182.577,234.33 182.855,234.96 183.06,235.579 C183.236,236.11 183.363,236.637 183.422,237.235 C183.561,238.62 183.355,240.019 182.348,241.468 C181.664,242.454 180.713,243.727 179.54,245.244 C179.397,245.429 179.397,245.429 179.254,245.613 C178.403,246.708 177.495,247.857 176.588,248.99 C176.27,249.387 175.975,249.753 175.71,250.081 C175.55,250.28 175.435,250.422 175.372,250.5 C174.312,251.803 172.755,252.603 171.079,252.704 C171.009,252.709 171.009,252.709 170.681,252.728 C170.231,252.755 169.979,252.77 169.553,252.796 C168.335,252.869 166.965,252.95 165.473,253.037 C161.213,253.286 156.835,253.535 152.583,253.768 C151.38,253.833 150.202,253.897 149.051,253.958 C138.394,254.526 131,254.849 128.038,254.838 C124.699,254.85 115.997,254.455 103.609,253.778 C99.323,253.544 94.9,253.292 90.593,253.041 C89.085,252.952 87.698,252.87 86.466,252.797 C86.034,252.771 85.78,252.756 85.324,252.729 C84.992,252.709 84.992,252.709 80.754,250.649 L80.633,250.48 L80.627,250.499 C80.628,250.499 80.628,250.499 80.628,250.499 L80.627,250.499 L80.627,250.499 C80.627,250.498 80.627,250.498 80.626,250.497 C80.624,250.495 80.624,250.495 80.621,250.491 C80.614,250.483 80.614,250.483 80.604,250.47 C80.577,250.437 80.577,250.437 80.537,250.388 C80.438,250.265 80.438,250.265 80.289,250.081 C80.025,249.753 79.73,249.387 79.412,248.99 C78.505,247.857 77.597,246.708 76.746,245.612 C76.603,245.429 76.603,245.429 76.46,245.244 C75.287,243.727 74.336,242.454 73.652,241.468 C72.645,240.019 72.439,238.62 72.578,237.235 C72.637,236.637 72.764,236.11 72.94,235.579 C73.145,234.96 73.423,234.33 73.785,233.613 C74.331,232.533 75.114,231.177 76.14,229.51 C78.093,226.361 80.134,223.267 82.204,220.193 L81.081,220.822 C72.561,225.467 66.364,227.726 61.393,226.777 C55.364,225.626 44.138,213.044 29.518,193.492 C15.594,174.872 6.165,159.948 6.171,154.352 C6.171,149.563 10.622,140.723 19.075,127.202 C26.831,114.796 37.417,99.545 49.004,84.144 C76.351,47.795 104.167,16.997 124.467,2.302 C125.485,1.565 126.709,1.166 127.966,1.162 L127.995,1.162 z" fill="#383838"/>
  </g>
</svg>
