<?xml version="1.0" encoding="UTF-8"?>
<!DOCTYPE svg PUBLIC "-//W3C//DTD SVG 1.1//EN" "http://www.w3.org/Graphics/SVG/1.1/DTD/svg11.dtd">
<svg version="1.1" xmlns="http://www.w3.org/2000/svg" xmlns:xlink="http://www.w3.org/1999/xlink" x="0" y="0" width="256" height="256" viewBox="0, 0, 256, 256">
  <g id="レイヤー_1">
    <path d="M51.924,55.087 L57.542,70.069 L67.142,95.669 L70.182,103.775 L57.924,103.775 L57.924,174.884 C71.677,177.454 81.58,187.797 84.273,201.382 L155.321,201.382 L155.321,189.124 L163.428,192.164 L189.028,201.764 L204.009,207.382 L189.028,213 L163.428,222.6 L155.321,225.64 L155.321,213.382 L84.422,213.382 C81.396,229.842 68.228,239.76 51.924,240.583 C33.588,240.583 18.723,225.718 18.723,207.382 C18.976,191.152 30.187,178.093 45.924,174.884 L45.924,103.775 L33.666,103.775 L36.706,95.669 L46.306,70.069 L51.924,55.087 z M51.924,186.181 C40.215,186.181 30.723,195.673 30.723,207.382 C30.723,219.091 40.215,228.583 51.924,228.583 C63.633,228.583 73.125,219.091 73.125,207.382 C73.125,195.673 63.633,186.181 51.924,186.181 z M51.424,199.915 C55.272,199.915 58.391,203.034 58.391,206.882 C58.391,210.73 55.272,213.849 51.424,213.849 C47.576,213.849 44.457,210.73 44.457,206.882 C44.457,203.034 47.576,199.915 51.424,199.915 z" fill="#000000"/>
    <path d="M214.794,190.438 C215.306,190.439 215.783,190.7 216.058,191.132 L222.521,201.262 L229.292,191.106 C229.57,190.689 230.039,190.439 230.54,190.439 L235.126,190.438 C236.33,190.439 237.043,191.786 236.366,192.782 L226.732,206.947 L237.012,221.979 C237.693,222.974 236.981,224.325 235.774,224.325 L230.756,224.325 C230.249,224.325 229.776,224.069 229.499,223.644 L222.431,212.784 L215.131,223.661 C214.852,224.076 214.385,224.325 213.885,224.325 L209.3,224.325 C208.098,224.325 207.384,222.982 208.057,221.986 L218.217,206.95 L208.62,192.779 C207.946,191.784 208.659,190.439 209.862,190.439 L214.794,190.438 z" fill="#000000"/>
    <path d="M113.939,140.85 C114.767,140.85 115.439,141.522 115.439,142.35 L115.439,145.811 C115.439,146.151 115.323,146.482 115.11,146.747 L97.895,168.276 L114.458,168.276 C115.286,168.276 115.958,168.948 115.958,169.776 L115.958,173.237 C115.958,174.065 115.286,174.737 114.458,174.737 L89.887,174.737 C89.059,174.737 88.387,174.065 88.387,173.237 L88.387,169.776 C88.387,169.435 88.503,169.104 88.717,168.838 L105.969,147.311 L91.358,147.311 C90.529,147.311 89.858,146.639 89.858,145.811 L89.858,142.35 C89.858,141.522 90.529,140.85 91.358,140.85 L113.939,140.85 z" fill="#000000"/>
    <path d="M42.883,15.417 C43.398,15.417 43.878,15.682 44.152,16.118 L52.125,28.785 L59.903,16.132 C60.176,15.688 60.66,15.417 61.181,15.417 L65.853,15.417 C67.042,15.417 67.758,16.734 67.113,17.732 L55.543,35.615 L55.543,47.804 C55.544,48.632 54.872,49.304 54.044,49.304 L49.934,49.304 C49.106,49.304 48.434,48.632 48.434,47.804 L48.434,35.619 L36.739,17.738 C36.087,16.741 36.802,15.417 37.995,15.417 L42.883,15.417 z" fill="#000000"/>
  </g>
</svg>
