<?xml version="1.0" encoding="UTF-8"?>
<!DOCTYPE svg PUBLIC "-//W3C//DTD SVG 1.1//EN" "http://www.w3.org/Graphics/SVG/1.1/DTD/svg11.dtd">
<svg version="1.1" xmlns="http://www.w3.org/2000/svg" xmlns:xlink="http://www.w3.org/1999/xlink" x="0" y="0" width="256" height="256" viewBox="0, 0, 256, 256">
  <g id="line" display="none">
    <path d="M12.657,100.746 C12.657,84.084 64.521,70.578 128.5,70.578 C192.479,70.578 244.343,84.084 244.343,100.746" fill-opacity="0" stroke="#383838" stroke-width="12"/>
    <path d="M12.657,149.679 C12.657,133.018 64.521,119.511 128.5,119.511 C192.479,119.511 244.343,133.018 244.343,149.679" fill-opacity="0" stroke="#383838" stroke-width="8"/>
    <g>
      <path d="M12.657,100.746 C12.657,117.407 64.521,130.913 128.5,130.913 C192.479,130.913 244.343,117.407 244.343,100.746 L244.343,149.679 C244.343,166.34 192.479,179.846 128.5,179.846 C64.521,179.846 12.657,166.34 12.657,149.679 L12.657,100.746 z" fill="#FFFFFF"/>
      <path d="M12.657,100.746 C12.657,117.407 64.521,130.913 128.5,130.913 C192.479,130.913 244.343,117.407 244.343,100.746 L244.343,149.679 C244.343,166.34 192.479,179.846 128.5,179.846 C64.521,179.846 12.657,166.34 12.657,149.679 L12.657,100.746 z" fill-opacity="0" stroke="#383838" stroke-width="12" stroke-linejoin="round"/>
    </g>
    <g>
      <path d="M215.077,178.135 C204.256,177.807 191.803,175.431 176.804,177.083 L176.804,128.15 C187.644,128.055 201.1,129.157 215.077,129.202 C223.435,129.229 227.616,145.51 227.616,157.964 C227.617,170.319 221.707,178.337 215.077,178.135 z" fill="#FFFFFF"/>
      <path d="M215.077,178.135 C204.256,177.807 191.803,175.431 176.804,177.083 L176.804,128.15 C187.644,128.055 201.1,129.157 215.077,129.202 C223.435,129.229 227.616,145.51 227.616,157.964 C227.617,170.319 221.707,178.337 215.077,178.135 z" fill-opacity="0" stroke="#383838" stroke-width="12" stroke-linejoin="round"/>
    </g>
    <g>
      <path d="M176.804,124.145 L176.804,183.65 C160.783,185.667 144.634,186.307 128.5,186.413 C112.35,186.534 96.238,185.416 80.196,183.65 L80.196,124.145 C96.217,126.162 112.366,126.802 128.5,126.909 C144.65,127.03 160.762,125.912 176.804,124.145 z" fill="#FFFFFF"/>
      <path d="M176.804,124.145 L176.804,183.65 C160.783,185.667 144.634,186.307 128.5,186.413 C112.35,186.534 96.238,185.416 80.196,183.65 L80.196,124.145 C96.217,126.162 112.366,126.802 128.5,126.909 C144.65,127.03 160.762,125.912 176.804,124.145 z" fill-opacity="0" stroke="#383838" stroke-width="12" stroke-linejoin="round"/>
    </g>
  </g>
  <g id="solid">
    <path d="M128,64.078 C159.622,64.078 189.309,67.348 211.426,73.107 C224.981,77.086 248.545,82.834 249.843,100.245 L249.843,149.178 C249.042,159.624 239.855,165.79 231.127,169.723 C228.753,177.686 222.814,183.319 214.394,183.632 C211.264,183.537 209.528,183.409 202.541,182.817 C196.868,182.317 191.185,181.953 185.487,181.999 C184.425,182.007 183.365,182.101 182.304,182.152 L182.304,183.149 C182.304,186.173 180.054,188.725 177.054,189.102 C162.22,190.97 146.689,191.79 128.045,191.913 C112.727,192.028 96.777,191.067 79.039,189.113 C75.998,188.779 73.696,186.209 73.696,183.149 L73.696,181.869 C63.852,180.82 54.197,178.55 44.574,176.317 C20.403,170.022 6.157,161.251 6.157,149.179 L6.156,100.245 C7.6,82.924 30.842,76.869 44.574,73.107 C66.691,67.348 96.378,64.078 128,64.078 L128,64.078 z M170.304,130.302 C156.244,131.874 142.094,132.238 127.96,132.409 C117.317,132.341 106.672,132.034 96.053,131.276 C92.596,131.029 89.148,130.66 85.696,130.353 L85.696,177.743 C99.734,179.264 113.846,179.895 127.96,179.913 C142.084,179.726 156.258,179.445 170.304,177.807 L170.304,176.583 L170.304,176.583 L170.304,130.302 z M182.304,133.7 L182.304,170.139 C189.393,169.691 196.489,170.301 203.553,170.859 C210.285,171.43 211.937,171.552 214.759,171.638 C217.602,171.724 221.117,166.354 221.116,157.464 C221.116,151.601 220.095,145.196 218.356,140.511 C217.513,138.241 216.555,136.518 215.622,135.491 C215.047,134.859 214.744,134.702 214.557,134.702 C208.936,134.684 203.997,134.533 195.225,134.168 C186.612,133.822 190.919,133.978 182.304,133.7 z M18.157,117.116 L18.156,149.178 C18.157,150.745 20.014,153.108 24.406,155.812 C29.646,159.039 37.567,162.092 47.598,164.704 C56.203,166.822 64.901,168.658 73.696,169.786 L73.696,132.936 C63.852,131.887 54.197,129.616 44.574,127.383 C35.638,124.685 25.994,122.463 18.157,117.116 z M237.843,117.116 C232.676,120.552 226.803,122.465 221,124.484 C225.39,127.135 227.784,131.709 229.606,136.335 C231.657,142.267 232.927,148.564 233.061,154.856 C234.966,153.379 237.474,151.791 237.843,149.179 L237.843,117.116 z M128,76.078 C97.338,76.078 68.651,79.238 47.598,84.72 C37.567,87.332 29.646,90.386 24.406,93.612 C20.014,96.316 18.157,98.68 18.157,100.245 C18.699,103.381 21.953,105.28 24.406,106.879 C29.646,110.105 37.567,113.159 47.598,115.771 C53.786,117.445 60.094,118.584 66.403,119.683 C70.325,119.118 74.245,118.529 78.163,117.934 C78.722,117.781 78.4,117.869 79.127,117.67 L80.09,117.686 C95.988,115.699 112.001,115.242 128,115.011 C139.84,115.039 142.947,114.905 156.942,115.919 C162.995,116.358 169.018,117.135 175.055,117.743 L175.648,117.681 C177.542,117.677 176.54,117.543 178.631,118.229 C182.097,118.755 185.564,119.272 189.032,119.781 C195.559,118.803 202,117.358 208.402,115.771 C218.433,113.159 226.354,110.105 231.594,106.879 C235.987,104.175 237.844,101.811 237.843,100.245 C237.301,97.11 234.047,95.211 231.594,93.612 C226.354,90.386 218.433,87.332 208.402,84.72 C187.349,79.238 158.662,76.078 128,76.078 L128,76.078 z" fill="#383838"/>
  </g>
  <g id="レイヤー_2"/>
</svg>
