<?xml version="1.0" encoding="UTF-8"?>
<!DOCTYPE svg PUBLIC "-//W3C//DTD SVG 1.1//EN" "http://www.w3.org/Graphics/SVG/1.1/DTD/svg11.dtd">
<svg version="1.1" xmlns="http://www.w3.org/2000/svg" xmlns:xlink="http://www.w3.org/1999/xlink" x="0" y="0" width="256" height="256" viewBox="0, 0, 256, 256">
  <g id="レイヤー_1">
    <path d="M74.24,94.771 C78.347,94.771 84.214,96.021 87.891,97.712 L88.067,97.797 L88.459,97.993 C91.209,99.083 94.155,99.719 97.111,99.847 L155.337,99.847 C158.275,99.74 161.213,99.125 163.936,98.017 L164.402,97.786 L164.523,97.726 L164.647,97.671 C168.368,96.035 174.196,94.771 178.207,94.771 L194.31,94.771 C200.842,94.771 206.145,100.081 206.144,106.606 L206.144,121.971 L241.154,121.971 C244.468,121.971 247.154,124.657 247.154,127.971 C247.154,131.285 244.468,133.971 241.154,133.971 L206.144,133.971 L206.144,150.007 C206.145,156.537 200.843,161.841 194.31,161.841 L178.207,161.841 C174.093,161.841 168.237,160.593 164.556,158.9 L164.445,158.848 L164.002,158.633 C161.25,157.534 158.298,156.898 155.337,156.771 L97.111,156.771 C94.168,156.878 91.226,157.495 88.499,158.605 L88.024,158.837 L87.917,158.889 L87.809,158.937 C84.098,160.578 78.254,161.841 74.24,161.841 L58.137,161.841 C51.614,161.841 46.303,156.534 46.303,150.007 L46.303,133.971 L11.294,133.971 C7.98,133.971 5.294,131.285 5.294,127.971 C5.294,124.657 7.98,121.971 11.294,121.971 L46.303,121.971 L46.303,106.606 C46.303,100.083 51.615,94.771 58.137,94.771 L74.24,94.771 z M73.994,106.771 L58.303,106.771 L58.303,149.841 L73.994,149.841 L73.994,106.771 z M181.229,106.771 L178.207,106.771 C175.249,106.888 172.301,107.544 169.548,108.628 L169.137,108.832 L168.982,108.906 C165.303,110.598 159.447,111.847 155.337,111.847 L148.849,111.847 L148.849,144.771 L155.337,144.771 C159.354,144.771 165.186,146.034 168.9,147.676 L169.094,147.765 L169.589,148.006 C172.316,149.131 175.265,149.721 178.207,149.841 L181.229,149.841 L181.229,106.771 z M194.144,106.771 L186.923,106.771 L186.923,149.841 L194.144,149.841 L194.144,106.771 z M88.93,110.693 L88.93,145.906 C91.603,145.176 94.351,144.869 97.111,144.771 L103.873,144.771 L103.873,111.847 L97.111,111.847 C94.334,111.887 91.624,111.271 88.93,110.693 z M133.855,111.847 L118.867,111.847 L118.867,144.771 L133.855,144.771 L133.855,111.847 z" fill="#383838"/>
  </g>
</svg>
