<?xml version="1.0" encoding="UTF-8"?>
<!DOCTYPE svg PUBLIC "-//W3C//DTD SVG 1.1//EN" "http://www.w3.org/Graphics/SVG/1.1/DTD/svg11.dtd">
<svg version="1.1" xmlns="http://www.w3.org/2000/svg" xmlns:xlink="http://www.w3.org/1999/xlink" x="0" y="0" width="256" height="256" viewBox="0, 0, 256, 256">
  <g id="solid">
    <path d="M128,5.107 C176.884,5.107 216.513,44.736 216.513,93.62 C216.408,129.61 194.439,161.537 161.504,175.463 L161.504,217.389 C161.504,220.703 158.818,223.389 155.504,223.389 L147.752,223.389 L147.752,244.893 C147.752,248.207 145.066,250.893 141.752,250.893 C138.438,250.893 135.752,248.207 135.752,244.893 L135.752,223.389 L120.248,223.389 L120.248,244.893 C120.248,248.207 117.562,250.893 114.248,250.893 C110.934,250.893 108.248,248.207 108.248,244.893 L108.248,223.389 L100.496,223.389 C97.182,223.389 94.496,220.703 94.496,217.389 L94.496,175.463 C60.561,161.581 40.403,129.836 39.487,93.62 C39.487,44.736 79.116,5.107 128,5.107 z M135.752,181.693 C131.044,182.17 133.626,181.99 128,182.132 C122.374,181.99 124.956,182.17 120.248,181.693 L120.248,211.389 L135.752,211.389 L135.752,181.693 z M106.496,179.472 L106.496,211.389 L108.248,211.389 L108.248,179.83 L106.496,179.472 z M149.504,179.472 L147.752,179.83 L147.752,211.389 L149.504,211.389 L149.504,179.472 z M128,17.107 C85.743,17.107 51.487,51.363 51.487,93.62 C51.487,135.877 85.743,170.132 128,170.132 C170.257,170.132 204.513,135.877 204.513,93.62 C204.513,51.363 170.257,17.107 128,17.107 z M128,20.859 C168.185,20.859 200.761,53.435 200.761,93.62 C200.761,133.804 168.185,166.38 128,166.38 C87.815,166.38 55.239,133.804 55.239,93.62 C55.239,53.435 87.815,20.859 128,20.859 z M128,28.859 C92.234,28.859 63.239,57.853 63.239,93.62 C63.239,129.386 92.234,158.38 128,158.38 C163.766,158.38 192.761,129.386 192.761,93.62 C192.761,57.853 163.766,28.859 128,28.859 z M169.256,117.124 C171.466,117.124 173.256,118.915 173.256,121.124 C173.256,123.333 171.466,125.124 169.256,125.124 L86.744,125.124 C84.535,125.124 82.744,123.333 82.744,121.124 C82.744,118.915 84.535,117.124 86.744,117.124 L169.256,117.124 z M176.132,103.372 C178.342,103.372 180.132,105.163 180.132,107.372 C180.132,109.581 178.342,111.372 176.132,111.372 L79.868,111.372 C77.659,111.372 75.868,109.581 75.868,107.372 C75.868,105.163 77.659,103.372 79.868,103.372 L176.132,103.372 z M183.008,89.62 C185.218,89.62 187.009,91.411 187.008,93.62 C187.009,95.829 185.218,97.62 183.008,97.62 L72.992,97.62 C70.782,97.62 68.992,95.829 68.992,93.62 C68.992,91.411 70.782,89.62 72.992,89.62 L183.008,89.62 z M176.132,75.867 C178.342,75.868 180.132,77.659 180.132,79.868 C180.132,82.077 178.342,83.868 176.132,83.868 L79.868,83.867 C77.659,83.868 75.868,82.077 75.868,79.868 C75.868,77.659 77.659,75.868 79.868,75.868 L176.132,75.867 z M169.256,62.115 C171.466,62.116 173.256,63.906 173.256,66.115 C173.256,68.325 171.466,70.116 169.256,70.115 L86.744,70.115 C84.535,70.116 82.744,68.325 82.744,66.115 C82.744,63.906 84.535,62.116 86.744,62.115 L169.256,62.115 z" fill="#383838"/>
  </g>
</svg>
