<?xml version="1.0" encoding="UTF-8"?>
<!DOCTYPE svg PUBLIC "-//W3C//DTD SVG 1.1//EN" "http://www.w3.org/Graphics/SVG/1.1/DTD/svg11.dtd">
<svg version="1.1" xmlns="http://www.w3.org/2000/svg" xmlns:xlink="http://www.w3.org/1999/xlink" x="0" y="0" width="256" height="256" viewBox="0, 0, 256, 256">
  <g id="solid">
    <path d="M57.583,8.833 L57.583,24.499 L68.416,24.499 L68.416,8.833 L79.25,8.833 L79.25,24.499 L90.083,24.499 L90.083,8.833 L100.917,8.833 L100.917,24.499 L111.75,24.499 L111.75,8.833 L122.583,8.833 L122.583,24.499 L133.417,24.499 L133.417,8.833 L144.25,8.833 L144.25,24.499 L155.083,24.499 L155.083,8.833 L165.917,8.833 L165.917,24.499 L176.75,24.499 L176.75,8.833 L187.584,8.833 L187.584,24.499 L198.417,24.499 L198.417,8.833 L209.25,8.833 L209.25,24.499 L214.667,24.499 C223.964,24.5 231.501,32.036 231.501,41.333 L231.501,46.75 L247.167,46.75 L247.167,57.583 L231.501,57.583 L231.501,68.416 L247.167,68.416 L247.167,79.25 L231.501,79.25 L231.501,90.083 L247.167,90.083 L247.167,100.916 L231.501,100.916 L231.501,111.75 L247.167,111.75 L247.167,122.583 L231.501,122.583 L231.501,133.417 L247.167,133.417 L247.167,144.25 L231.501,144.25 L231.501,155.083 L247.167,155.083 L247.167,165.917 L231.501,165.917 L231.501,176.75 L247.167,176.75 L247.167,187.584 L231.501,187.584 L231.501,198.417 L247.167,198.417 L247.167,209.25 L231.501,209.25 L231.501,214.667 C231.501,223.964 223.964,231.501 214.667,231.501 L209.25,231.501 L209.25,247.167 L198.417,247.167 L198.417,231.501 L187.584,231.501 L187.584,247.167 L176.75,247.167 L176.75,231.501 L165.917,231.501 L165.917,247.167 L155.083,247.167 L155.083,231.501 L144.25,231.501 L144.25,247.167 L133.417,247.167 L133.417,231.501 L122.583,231.501 L122.583,247.167 L111.75,247.167 L111.75,231.501 L100.917,231.501 L100.917,247.167 L90.083,247.167 L90.083,231.501 L79.25,231.501 L79.25,247.167 L68.416,247.167 L68.416,231.501 L57.583,231.501 L57.583,247.167 L46.75,247.167 L46.75,231.501 L41.333,231.501 C32.036,231.501 24.499,223.964 24.499,214.667 L24.499,209.25 L8.833,209.25 L8.833,198.417 L24.499,198.417 L24.499,187.584 L8.833,187.584 L8.833,176.75 L24.499,176.75 L24.499,165.917 L8.833,165.917 L8.833,155.083 L24.499,155.083 L24.499,144.25 L8.833,144.25 L8.833,133.417 L24.499,133.417 L24.499,122.583 L8.833,122.583 L8.833,111.75 L24.499,111.75 L24.499,100.917 L8.833,100.917 L8.833,90.083 L24.499,90.083 L24.499,79.25 L8.833,79.25 L8.833,68.416 L24.499,68.416 L24.499,57.583 L8.833,57.583 L8.833,46.75 L24.499,46.75 L24.499,41.333 C24.499,32.036 32.036,24.5 41.333,24.499 L46.75,24.499 L46.75,8.833 L57.583,8.833 z M214.667,36.499 L41.333,36.499 C38.663,36.5 36.499,38.663 36.499,41.333 L36.499,214.667 C36.499,217.337 38.663,219.501 41.333,219.501 L214.667,219.501 C217.337,219.501 219.501,217.337 219.501,214.667 L219.501,41.333 C219.501,38.663 217.337,36.5 214.667,36.499 z M59.712,42.75 C69.08,42.75 76.674,50.344 76.674,59.712 C76.674,69.08 69.08,76.674 59.712,76.674 C50.344,76.674 42.75,69.08 42.75,59.712 C42.75,50.344 50.344,42.75 59.712,42.75 z M59.712,50.75 C54.762,50.75 50.75,54.762 50.75,59.712 C50.75,64.661 54.762,68.674 59.712,68.674 C64.661,68.674 68.674,64.661 68.674,59.712 C68.674,54.762 64.661,50.75 59.712,50.75 z" fill="#000000"/>
  </g>
  <g id="aex-solid">
    <path d="M57.101,120.905 L60.847,130.892 L68.047,150.092 L70.073,155.497 L61.101,155.497 L61.101,179.341 C67.235,180.685 72.451,185.737 73.68,191.999 L97.502,191.999 L97.502,183.027 L102.907,185.053 L122.107,192.253 L132.094,195.999 L122.107,199.744 L102.907,206.944 L97.502,208.971 L97.502,199.999 L73.761,199.999 C72.2,207.979 64.823,212.814 57.102,213.204 C47.6,213.204 39.897,205.501 39.897,195.999 C40.052,188.247 45.3,180.932 53.101,179.341 L53.101,155.497 L44.129,155.497 L46.156,150.092 L53.356,130.892 L57.101,120.905 z M57.102,186.795 C52.018,186.795 47.897,190.916 47.897,195.999 C47.897,201.083 52.018,205.204 57.102,205.204 C62.186,205.204 66.307,201.083 66.307,195.999 C66.307,190.916 62.186,186.795 57.102,186.795 z" fill="#000000"/>
    <path d="M57.102,199.381 C55.234,199.381 53.72,197.867 53.72,195.999 C53.72,194.132 55.234,192.617 57.102,192.617 C58.97,192.617 60.484,194.132 60.484,195.999 C60.484,197.867 58.97,199.381 57.102,199.381 z" fill="#000000"/>
    <path d="M136.167,187.002 C136.679,187.002 137.156,187.263 137.432,187.695 L139.933,191.615 L142.563,187.67 C142.841,187.253 143.31,187.002 143.811,187.002 L146.037,187.002 C147.241,187.002 147.955,188.35 147.277,189.346 L142.897,195.787 L147.59,202.649 C148.271,203.645 147.558,204.996 146.352,204.996 L143.916,204.996 C143.409,204.996 142.936,204.74 142.659,204.314 L139.865,200.021 L136.971,204.332 C136.693,204.747 136.226,204.996 135.726,204.996 L133.5,204.996 C132.298,204.996 131.584,203.652 132.257,202.656 L136.897,195.79 L132.531,189.343 C131.856,188.347 132.57,187.002 133.773,187.002 L136.167,187.002 z" fill="#000000"/>
    <path d="M52.713,102.038 C53.228,102.038 53.708,102.303 53.982,102.739 L57.192,107.838 L60.318,102.752 C60.591,102.309 61.075,102.038 61.596,102.038 L63.864,102.038 C65.053,102.038 65.769,103.355 65.123,104.353 L59.631,112.843 L59.631,118.532 C59.631,119.36 58.959,120.032 58.131,120.032 L56.136,120.032 C55.307,120.032 54.636,119.36 54.636,118.532 L54.636,112.847 L49.084,104.359 C48.432,103.361 49.148,102.038 50.34,102.038 L52.713,102.038 z" fill="#000000"/>
    <path d="M87.207,162.929 C88.036,162.929 88.707,163.601 88.707,164.429 L88.707,166.109 C88.707,166.45 88.591,166.78 88.379,167.046 L81.024,176.243 L87.459,176.243 C88.288,176.243 88.959,176.915 88.959,177.743 L88.959,179.423 C88.959,180.252 88.288,180.923 87.459,180.923 L75.531,180.923 C74.703,180.923 74.031,180.252 74.031,179.423 L74.031,177.743 C74.031,177.402 74.147,177.071 74.361,176.805 L81.731,167.609 L76.245,167.609 C75.417,167.609 74.745,166.938 74.745,166.109 L74.745,164.429 C74.745,163.601 75.417,162.929 76.245,162.929 L87.207,162.929 z" fill="#000000"/>
  </g>
</svg>
