<?xml version="1.0" encoding="UTF-8"?>
<!DOCTYPE svg PUBLIC "-//W3C//DTD SVG 1.1//EN" "http://www.w3.org/Graphics/SVG/1.1/DTD/svg11.dtd">
<svg version="1.1" xmlns="http://www.w3.org/2000/svg" xmlns:xlink="http://www.w3.org/1999/xlink" x="0" y="0" width="256" height="256" viewBox="0, 0, 256, 256">
  <g id="solid">
    <path d="M129.291,15.798 C162.637,15.896 189.788,42.975 190.634,76.426 L190.636,76.577 L190.65,167.034 L194.144,167.034 C197.458,167.034 200.144,169.72 200.144,173.034 L200.144,192.587 C200.144,195.901 197.458,198.588 194.144,198.588 L167.99,198.587 L167.99,231.678 C167.99,234.992 165.304,237.678 161.99,237.678 C158.676,237.678 155.99,234.992 155.99,231.678 L155.99,198.587 L102.556,198.587 L102.556,245.274 C102.556,248.588 99.87,251.275 96.556,251.274 C93.242,251.275 90.556,248.588 90.556,245.274 L90.556,198.587 L45.431,198.587 C42.118,198.588 39.431,195.901 39.431,192.588 L39.431,173.034 C39.431,169.72 42.118,167.034 45.431,167.034 L67.894,167.034 L67.895,76.532 C68.147,43.23 95.535,16.648 129.121,15.8 L129.291,15.798 z M188.144,179.034 L51.431,179.034 L51.431,186.587 L188.144,186.587 L188.144,179.034 z M129.338,27.8 C102.498,28.528 80.786,49.783 79.894,76.578 L79.894,167.034 L178.65,167.034 L178.636,76.692 C177.873,49.786 156.006,28.554 129.338,27.8 z" fill="#000000"/>
  </g>
</svg>
