<?xml version="1.0" encoding="UTF-8"?>
<!DOCTYPE svg PUBLIC "-//W3C//DTD SVG 1.1//EN" "http://www.w3.org/Graphics/SVG/1.1/DTD/svg11.dtd">
<svg version="1.1" xmlns="http://www.w3.org/2000/svg" xmlns:xlink="http://www.w3.org/1999/xlink" x="0" y="0" width="256" height="256" viewBox="0, 0, 256, 256">
  <g id="solid">
    <path d="M57.583,8.833 L57.583,24.499 L68.416,24.499 L68.416,8.833 L79.25,8.833 L79.25,24.499 L90.083,24.499 L90.083,8.833 L100.917,8.833 L100.917,24.499 L111.75,24.499 L111.75,8.833 L122.583,8.833 L122.583,24.499 L133.417,24.499 L133.417,8.833 L144.25,8.833 L144.25,24.499 L155.083,24.499 L155.083,8.833 L165.917,8.833 L165.917,24.499 L176.75,24.499 L176.75,8.833 L187.584,8.833 L187.584,24.499 L198.417,24.499 L198.417,8.833 L209.25,8.833 L209.25,24.499 L214.667,24.499 C223.964,24.5 231.501,32.036 231.501,41.333 L231.501,46.75 L247.167,46.75 L247.167,57.583 L231.501,57.583 L231.501,68.416 L247.167,68.416 L247.167,79.25 L231.501,79.25 L231.501,90.083 L247.167,90.083 L247.167,100.916 L231.501,100.916 L231.501,111.75 L247.167,111.75 L247.167,122.583 L231.501,122.583 L231.501,133.417 L247.167,133.417 L247.167,144.25 L231.501,144.25 L231.501,155.083 L247.167,155.083 L247.167,165.917 L231.501,165.917 L231.501,176.75 L247.167,176.75 L247.167,187.584 L231.501,187.584 L231.501,198.417 L247.167,198.417 L247.167,209.25 L231.501,209.25 L231.501,214.667 C231.501,223.964 223.964,231.501 214.667,231.501 L209.25,231.501 L209.25,247.167 L198.417,247.167 L198.417,231.501 L187.584,231.501 L187.584,247.167 L176.75,247.167 L176.75,231.501 L165.917,231.501 L165.917,247.167 L155.083,247.167 L155.083,231.501 L144.25,231.501 L144.25,247.167 L133.417,247.167 L133.417,231.501 L122.583,231.501 L122.583,247.167 L111.75,247.167 L111.75,231.501 L100.917,231.501 L100.917,247.167 L90.083,247.167 L90.083,231.501 L79.25,231.501 L79.25,247.167 L68.416,247.167 L68.416,231.501 L57.583,231.501 L57.583,247.167 L46.75,247.167 L46.75,231.501 L41.333,231.501 C32.036,231.501 24.499,223.964 24.499,214.667 L24.499,209.25 L8.833,209.25 L8.833,198.417 L24.499,198.417 L24.499,187.584 L8.833,187.584 L8.833,176.75 L24.499,176.75 L24.499,165.917 L8.833,165.917 L8.833,155.083 L24.499,155.083 L24.499,144.25 L8.833,144.25 L8.833,133.417 L24.499,133.417 L24.499,122.583 L8.833,122.583 L8.833,111.75 L24.499,111.75 L24.499,100.917 L8.833,100.917 L8.833,90.083 L24.499,90.083 L24.499,79.25 L8.833,79.25 L8.833,68.416 L24.499,68.416 L24.499,57.583 L8.833,57.583 L8.833,46.75 L24.499,46.75 L24.499,41.333 C24.499,32.036 32.036,24.5 41.333,24.499 L46.75,24.499 L46.75,8.833 L57.583,8.833 z M214.667,36.499 L41.333,36.499 C38.663,36.5 36.499,38.663 36.499,41.333 L36.499,214.667 C36.499,217.337 38.663,219.501 41.333,219.501 L214.667,219.501 C217.337,219.501 219.501,217.337 219.501,214.667 L219.501,41.333 C219.501,38.663 217.337,36.5 214.667,36.499 z M59.712,42.75 C69.08,42.75 76.674,50.344 76.674,59.712 C76.674,69.08 69.08,76.674 59.712,76.674 C50.344,76.674 42.75,69.08 42.75,59.712 C42.75,50.344 50.344,42.75 59.712,42.75 z M59.712,50.75 C54.762,50.75 50.75,54.762 50.75,59.712 C50.75,64.661 54.762,68.674 59.712,68.674 C64.661,68.674 68.674,64.661 68.674,59.712 C68.674,54.762 64.661,50.75 59.712,50.75 z" fill="#000000"/>
  </g>
</svg>
