<?xml version="1.0" encoding="UTF-8"?>
<!DOCTYPE svg PUBLIC "-//W3C//DTD SVG 1.1//EN" "http://www.w3.org/Graphics/SVG/1.1/DTD/svg11.dtd">
<svg version="1.1" xmlns="http://www.w3.org/2000/svg" xmlns:xlink="http://www.w3.org/1999/xlink" x="0" y="0" width="256" height="256" viewBox="0, 0, 256, 256">
  <g id="line_のコピー">
    <path d="M48.417,50.261 C54.575,50.673 51.957,50.241 56.321,51.185 C67.589,54.437 76.69,64.785 76.029,76.931 L161.027,99.706 C161.853,97.506 164.124,96.659 166.262,96.444 L240.6,96.444 C243.914,96.444 246.6,99.13 246.6,102.444 L246.6,199.739 C246.6,203.052 243.914,205.739 240.6,205.739 L15.4,205.739 C12.087,205.739 9.4,203.052 9.4,199.739 L9.4,131.414 C9.4,128.1 12.087,125.414 15.4,125.414 L71.734,125.414 L71.734,111.234 C71.734,107.92 74.42,105.234 77.734,105.234 L95.911,105.234 C99.225,105.234 101.911,107.92 101.911,111.234 L101.911,125.414 L160.262,125.414 L160.262,111.924 L67.943,87.187 C64.742,86.33 62.842,83.04 63.7,79.839 C65.654,72.545 61.023,64.868 53.216,62.776 C45.409,60.684 37.559,65.017 35.605,72.311 C34.747,75.512 31.457,77.411 28.256,76.553 C25.055,75.696 23.156,72.406 24.013,69.205 C26.649,60.039 33.969,53.012 43.32,50.91 C44.991,50.534 46.718,50.478 48.417,50.261 z M234.6,108.444 L172.262,108.444 L172.262,131.414 C172.262,134.727 169.576,137.414 166.262,137.414 L21.4,137.414 L21.4,193.739 L234.6,193.739 L234.6,108.444 z M89.911,117.234 L83.734,117.234 L83.734,125.413 L89.911,125.413 L89.911,117.234 z" fill="#000000"/>
  </g>
</svg>
