<?xml version="1.0" encoding="UTF-8"?>
<!DOCTYPE svg PUBLIC "-//W3C//DTD SVG 1.1//EN" "http://www.w3.org/Graphics/SVG/1.1/DTD/svg11.dtd">
<svg version="1.1" xmlns="http://www.w3.org/2000/svg" xmlns:xlink="http://www.w3.org/1999/xlink" x="0" y="0" width="256" height="256" viewBox="0, 0, 256, 256">
  <g id="レイヤー_1">
    <path d="M127.674,11.741 C148.097,11.773 175.918,22.213 176.782,46.209 L176.782,46.209 L176.782,120.708 C176.807,127.608 173.69,133.582 169.414,138.784 L169.414,138.856 L164.413,138.856 L164.413,145.255 C164.413,148.392 170.191,153.09 173.283,155.798 C179.372,161.186 186.53,166.764 188.376,175.1 L188.871,175.1 L188.871,182.498 L188.738,182.498 L188.738,189.075 L188.881,190.498 L188.881,243.602 C188.881,248.02 185.299,251.602 180.881,251.602 C176.463,251.602 172.881,248.02 172.881,243.602 L172.881,190.498 L172.94,189.911 L172.802,189.911 C172.802,189.911 172.802,182.513 172.802,180.959 C172.802,177.134 166.114,170.683 162.815,167.872 C155.431,161.435 148.425,155.369 148.425,147.534 L148.425,138.856 L135.641,138.856 L135.641,175.1 L135.708,175.1 L135.708,182.498 L135.641,182.498 L135.641,189.903 L135.606,189.903 L135.666,190.498 L135.666,243.602 C135.666,248.02 132.085,251.602 127.666,251.602 C123.248,251.602 119.666,248.02 119.666,243.602 L119.666,190.498 L119.726,189.903 L119.706,189.903 L119.706,138.856 L106.922,138.856 L106.922,147.534 C106.922,155.369 99.909,161.435 92.533,167.872 C89.29,170.901 83.042,176.075 82.582,180.595 L82.582,182.498 L82.545,182.498 L82.545,189.911 L82.533,189.911 L82.592,190.498 L82.592,243.602 C82.592,248.02 79.011,251.602 74.592,251.602 C70.174,251.602 66.592,248.02 66.592,243.602 L66.592,190.498 L66.651,189.911 L66.61,189.911 L66.61,182.498 L66.602,182.498 L66.602,175.1 L66.972,175.1 C68.771,166.799 75.98,161.12 82.057,155.798 C85.134,153.09 90.92,148.392 90.92,145.255 L90.92,138.856 L85.993,138.856 C81.317,133.581 78.558,127.359 78.558,120.708 L78.55,120.708 L78.55,46.209 L78.551,46.209 C79.573,21.979 107.132,12.105 127.674,11.741 L127.674,11.741 z M151.458,78.014 L135.486,78.014 L135.486,93.994 L119.499,78.021 L103.519,78.021 L103.519,117.979 L119.506,117.979 L119.506,101.991 L135.493,117.964 L151.458,117.964 L151.458,78.014 z" fill="#383838"/>
  </g>
</svg>
