<?xml version="1.0" encoding="UTF-8"?>
<!DOCTYPE svg PUBLIC "-//W3C//DTD SVG 1.1//EN" "http://www.w3.org/Graphics/SVG/1.1/DTD/svg11.dtd">
<svg version="1.1" xmlns="http://www.w3.org/2000/svg" xmlns:xlink="http://www.w3.org/1999/xlink" x="0" y="0" width="256" height="256" viewBox="0, 0, 256, 256">
  <g id="レイヤー_1_のコピー">
    <path d="M128.006,10.835 C163.365,10.835 192.028,30.904 192.028,55.66 L192.027,55.671 L192.027,135.191 L192.027,135.2 C191.862,140.518 190.839,146.147 188.044,150.776 C190.788,155.505 191.833,160.963 192.028,166.352 C191.928,169.104 192.055,167.897 191.753,169.982 C192.055,172.067 191.928,170.86 192.028,173.611 C191.819,188.351 181.862,200.538 169.531,207.661 L169.531,236.859 C169.532,241.83 165.502,245.859 160.531,245.859 C155.561,245.859 151.532,241.83 151.531,236.859 L151.531,215.257 C143.908,217.555 135.932,218.283 128.007,218.423 C121.659,218.364 115.344,217.597 109.125,216.343 C107.559,216.028 106.03,215.549 104.482,215.152 L104.482,236.859 C104.483,241.83 100.453,245.859 95.483,245.859 C90.512,245.859 86.483,241.83 86.483,236.859 L86.482,207.869 C81.711,205.361 77.856,201.665 74.15,197.832 L73.916,198.123 C73.067,198.83 71.806,198.714 71.099,197.865 C65.164,190.73 61.972,182.588 61.972,174.092 L61.972,166.8 C62.125,161.437 63.153,156.031 65.756,151.288 C63.023,146.582 62.334,141.121 61.974,135.796 L61.974,135.705 L61.972,135.693 L61.972,77.639 L61.972,77.638 L61.972,56.165 C61.98,45.636 66.406,36.59 75.053,28.101 L75.718,27.668 C76.483,27.66 76.09,27.672 76.898,27.628 C77.521,27.829 77.274,27.69 77.674,27.978 C91.25,15.423 110.074,11.427 128.007,10.835 L128.006,10.835 z M78.306,29.758 C78.298,30.562 78.401,30.149 77.855,30.955 C69.924,38.741 65.979,46.804 65.972,56.166 L65.972,77.639 L65.972,77.639 L65.972,135.637 C66.115,140.768 67.219,145.738 69.743,150.22 C70.138,150.857 70.144,151.661 69.758,152.303 C67.335,156.337 66.097,161.342 65.972,166.845 L65.972,174.092 C66.092,181.014 68.392,187.808 72.637,193.313 L72.637,188.845 C72.723,184.618 73.057,180.37 73.808,176.207 C74.979,170.841 77.464,167.146 77.463,161.474 C77.464,159.561 76.377,156.868 74.751,155.242 C73.259,153.235 72.63,151.813 72.637,149.17 L72.637,112.693 L72.637,112.693 L72.637,75.929 C72.637,72.931 74.062,71.005 76.468,70.049 L76.477,70.041 L88.724,65.167 C84.779,60.514 82.748,54.88 82.534,48.821 C82.558,43.264 84.527,37.969 87.884,33.574 L78.306,29.758 z M128,20.391 C104.978,20.391 86.534,33.303 86.534,48.821 C86.534,64.338 104.978,77.251 128,77.251 C151.022,77.251 169.466,64.338 169.466,48.821 C169.466,33.303 151.022,20.391 128,20.391 L128,20.391 z" fill="#1C1C1C"/>
    <path d="M67.631,188.48 L70.632,193.468 C69.417,191.95 68.419,190.255 67.631,188.48 z" fill="#1C1C1C"/>
    <path d="M65.592,183.409 L67.178,187.46 C65.803,184.366 66.272,185.738 65.592,183.409 z" fill="#1C1C1C"/>
    <path d="M64.338,177.779 L65.1,181.727 C64.472,179.577 64.787,180.88 64.338,177.779 z" fill="#1C1C1C"/>
    <path d="M64.022,174.637 L64.092,176.076 C64.007,175.495 64.071,175.971 64.022,174.637 z" fill="#1C1C1C"/>
    <path d="M66.075,146.536 C67.299,149.617 66.62,148.215 68.044,150.773 C66.404,153.326 65.582,156.224 64.86,159.132 C65.324,156.151 66.541,153.403 67.969,150.776 C66.612,148.2 67.264,149.605 66.075,146.536 z" fill="#1C1C1C"/>
    <path d="M64.082,136.899 C64.183,138.471 64.089,137.117 64.569,140.941 C64.086,137.115 64.17,138.47 64.082,136.899 z" fill="#1C1C1C"/>
    <path d="M63.972,77.139 L63.972,77.139 L63.972,135.193 L63.973,135.193 L63.972,135.2 L63.972,135.2 L63.972,55.666 L63.972,55.666 L63.972,77.139 z" fill="#1C1C1C"/>
    <path d="M88.936,62.538 L90.209,64.249 C89.028,62.713 89.403,63.317 88.936,62.538 z" fill="#1C1C1C"/>
    <path d="M86.711,58.644 L87.076,59.44 C86.823,59.019 86.959,59.278 86.711,58.644 z" fill="#1C1C1C"/>
    <path d="M85.312,54.782 L85.551,55.669 L85.592,55.791 C85.352,55.178 85.453,55.512 85.312,54.782 z" fill="#1C1C1C"/>
    <path d="M64.079,53.284 L64.068,53.379 C64.07,53.33 64.067,53.362 64.079,53.284 z" fill="#1C1C1C"/>
    <path d="M84.641,51.229 L84.767,51.973 C84.639,51.313 84.657,51.563 84.641,51.229 z" fill="#1C1C1C"/>
    <path d="M64.743,48.765 L64.717,48.876 C64.727,48.81 64.719,48.847 64.743,48.765 z" fill="#1C1C1C"/>
    <path d="M84.733,46.789 L84.631,47.493 C84.649,47.115 84.628,47.351 84.733,46.789 z" fill="#1C1C1C"/>
    <path d="M85.567,42.86 L85.291,43.805 C85.405,43.196 85.319,43.513 85.567,42.86 z" fill="#1C1C1C"/>
    <path d="M86.915,39.422 L86.603,40.125 C86.814,39.567 86.698,39.795 86.915,39.422 z" fill="#1C1C1C"/>
    <path d="M73.539,32.121 L70.26,36.29 C71.157,34.759 72.312,33.393 73.539,32.121 z" fill="#1C1C1C"/>
    <path d="M33.43,15.303 L33.451,15.304" fill-opacity="0" stroke="#383838" stroke-width="1" stroke-linejoin="round"/>
  </g>
</svg>
