<?xml version="1.0" encoding="UTF-8"?>
<!DOCTYPE svg PUBLIC "-//W3C//DTD SVG 1.1//EN" "http://www.w3.org/Graphics/SVG/1.1/DTD/svg11.dtd">
<svg version="1.1" xmlns="http://www.w3.org/2000/svg" xmlns:xlink="http://www.w3.org/1999/xlink" x="0" y="0" width="256" height="256" viewBox="0, 0, 256, 256">
  <g id="レイヤー_1">
    <path d="M178.328,224.612 L178.328,241.42 L167.396,241.42 L167.396,224.612 L178.328,224.612 z" fill="#515151"/>
    <path d="M198.962,19.201 C208.652,19.201 216.514,27.069 216.514,36.76 L216.516,107.844 L225.198,107.844 L225.198,135.685 L216.517,135.685 L216.52,207.054 C216.52,216.756 208.665,224.612 198.962,224.612 L132.935,224.612 L132.935,241.42 L121.997,241.42 L121.997,224.612 L87.542,224.612 L87.542,241.42 L76.603,241.42 L76.603,224.612 L57.038,224.612 C47.342,224.612 39.48,216.756 39.48,207.054 L39.48,135.685 L30.802,135.685 L30.802,107.844 L39.48,107.844 L39.48,36.76 C39.48,27.069 47.342,19.201 57.038,19.201 L198.962,19.201 z M198.356,193.328 L198.356,193.328 C191.682,193.328 186.271,198.74 186.271,205.414 C186.271,212.089 191.682,217.5 198.356,217.5 C205.031,217.5 210.442,212.089 210.442,205.414 C210.442,198.74 205.031,193.328 198.356,193.328 z M57.631,193.328 L57.631,193.328 C50.956,193.328 45.545,198.74 45.545,205.414 C45.545,212.089 50.956,217.5 57.631,217.5 C64.306,217.5 69.717,212.089 69.717,205.414 C69.717,198.74 64.306,193.328 57.631,193.328 z M127.795,70.546 C99.504,70.546 76.57,93.48 76.57,121.771 C76.57,150.062 99.504,172.996 127.795,172.996 C156.086,172.996 179.02,150.062 179.02,121.771 C179.02,93.48 156.086,70.546 127.795,70.546 z M127.917,80.882 C147.6,80.882 164.03,94.74 167.995,113.225 L123.699,162.647 C103.051,160.535 86.937,143.077 86.937,121.862 C86.937,99.229 105.283,80.882 127.917,80.882 z M198.356,25.361 C191.682,25.361 186.271,30.772 186.271,37.447 C186.271,44.122 191.682,49.533 198.356,49.533 C205.031,49.533 210.442,44.122 210.442,37.447 C210.442,30.772 205.031,25.361 198.356,25.361 z M57.631,25.361 C50.956,25.361 45.545,30.772 45.545,37.447 C45.545,44.122 50.956,49.533 57.631,49.533 C64.306,49.533 69.717,44.122 69.717,37.447 C69.717,30.772 64.306,25.361 57.631,25.361 z" fill="#515151"/>
  </g>
</svg>
