<?xml version="1.0" encoding="UTF-8"?>
<!DOCTYPE svg PUBLIC "-//W3C//DTD SVG 1.1//EN" "http://www.w3.org/Graphics/SVG/1.1/DTD/svg11.dtd">
<svg version="1.1" xmlns="http://www.w3.org/2000/svg" xmlns:xlink="http://www.w3.org/1999/xlink" x="0" y="0" width="256" height="256" viewBox="0, 0, 256, 256">
  <g id="レイヤー_1">
    <path d="M168.683,11.823 C183.876,11.823 193.442,21.736 193.442,38.998 L193.442,89.712 C193.442,96.39 194.955,102.288 197.794,107.891 C199.95,112.143 202.284,115.406 206.765,120.893 L206.765,120.894 C213.719,129.412 217.038,138.3 217.025,146.008 C216.948,148.527 215.474,150.791 213.033,151.654 C212.317,151.77 211.601,151.886 210.886,152.002 C210.878,152.001 210.87,152 210.863,151.999 C211.858,156.746 211.84,161.653 211.961,166.476 C211.827,179.85 205.319,192.341 195.057,202.728 C194.049,203.37 190.688,209.647 188.949,216.896 C187.023,224.198 185.936,232.721 185.954,238.65 L159.17,238.65 C159.206,229.859 160.543,219.775 163.058,210.111 C165.777,200.437 168.897,191.361 176.119,183.809 C182.61,177.461 185.356,170.185 185.213,166.476 C185.031,160.616 185.232,164.044 184.379,156.207 C183.65,156.461 182.96,156.886 182.193,156.969 C179.63,157.244 178.051,156.169 176.503,154.337 C166.61,139.501 150.31,128.156 138.03,128.156 L117.97,128.156 C105.686,128.156 89.386,139.499 79.497,154.336 C78.157,156.156 76.125,157.221 73.807,156.969 C73.031,156.884 72.332,156.455 71.595,156.198 C70.814,163.588 71.053,160.156 70.778,166.485 C70.644,170.185 73.381,177.479 79.872,183.827 C87.076,191.361 90.214,200.446 92.934,210.137 C95.457,219.82 96.785,229.895 96.803,238.677 L70.055,238.677 C70.073,232.739 68.994,224.224 67.069,216.922 C65.321,209.656 61.933,203.388 60.952,202.746 C50.699,192.386 44.199,179.904 44.039,166.494 C44.16,161.667 44.157,156.758 45.094,151.999 C41.573,151.737 39.2,149.514 38.975,145.997 C38.975,139.41 43.464,128.166 49.012,120.456 C49.762,119.409 53.107,114.941 53.975,113.728 C59.837,105.539 62.567,98.812 62.567,89.712 L62.567,38.998 C62.567,21.736 72.133,11.823 87.326,11.823 C94.056,11.823 98.458,12.559 105.85,14.478 C106.053,14.531 106.295,14.594 106.736,14.709 C113.908,16.573 117.715,17.208 124.104,17.208 L131.905,17.208 C138.294,17.208 142.101,16.573 149.272,14.709 C149.713,14.594 149.956,14.531 150.158,14.478 C157.55,12.559 161.953,11.823 168.683,11.823 z M168.683,23.823 C163.163,23.823 159.666,24.407 153.174,26.093 C152.975,26.145 152.736,26.207 152.292,26.322 C144.22,28.421 139.501,29.208 131.905,29.208 L124.104,29.208 C116.507,29.208 111.788,28.421 103.717,26.322 C103.273,26.207 103.034,26.145 102.835,26.093 C96.342,24.407 92.846,23.823 87.326,23.823 C78.858,23.823 74.567,28.27 74.567,38.998 L74.567,89.712 C74.567,101.691 70.926,110.665 63.733,120.713 C62.765,122.065 59.42,126.533 58.761,127.453 C56.476,130.563 54.805,134.043 53.337,137.593 C60.175,136.667 67.858,138.174 73.447,142.415 C84.431,128.642 99.82,117.051 117.97,116.156 L138.03,116.156 C156.279,116.825 171.434,128.866 182.552,142.415 C188.387,138.111 195.966,136.68 203.035,137.644 C201.865,134.224 199.638,131.322 197.47,128.483 L197.47,128.483 C192.478,122.371 189.74,118.542 187.091,113.316 C183.427,106.088 181.442,98.347 181.442,89.711 L181.442,38.998 C181.442,28.27 177.151,23.823 168.683,23.823 z" fill="#383838"/>
  </g>
</svg>
