<?xml version="1.0" encoding="UTF-8"?>
<!DOCTYPE svg PUBLIC "-//W3C//DTD SVG 1.1//EN" "http://www.w3.org/Graphics/SVG/1.1/DTD/svg11.dtd">
<svg version="1.1" xmlns="http://www.w3.org/2000/svg" xmlns:xlink="http://www.w3.org/1999/xlink" x="0" y="0" width="256" height="256" viewBox="0, 0, 256, 256">
  <g id="レイヤー_1">
    <path d="M209.424,7.254 L209.424,40.277 C213.829,42.95 216.025,47.509 216.279,52.541 L216.28,201.72 C216.254,206.877 213.61,211.153 209.425,213.982 L209.424,246.986 L187.617,246.986 L187.617,216.251 L64.04,216.251 L64.04,247 L42.239,247 L42.239,211.809 C39.404,209.179 38.25,205.479 38.059,201.72 L38.059,52.541 C38.097,48.737 39.542,45.155 42.232,42.466 L42.232,7.261 L64.025,7.261 L64.025,38.017 L187.617,38.017 L187.617,7.254 L209.424,7.254 z M190.488,175.544 C181.961,175.544 175.048,182.456 175.048,190.983 C175.048,199.511 181.961,206.423 190.488,206.423 C199.015,206.423 205.928,199.511 205.928,190.983 C205.928,182.456 199.015,175.544 190.488,175.544 z M63.749,175.26 L63.749,175.26 C55.222,175.26 48.309,182.173 48.309,190.7 C48.309,199.227 55.222,206.14 63.749,206.14 C72.276,206.14 79.189,199.227 79.189,190.7 C79.189,182.173 72.276,175.26 63.749,175.26 z M127.166,75.155 C98.461,75.155 75.191,98.425 75.191,127.13 C75.191,155.835 98.461,179.105 127.166,179.105 C155.871,179.105 179.141,155.835 179.141,127.13 C179.141,98.425 155.871,75.155 127.166,75.155 z M190.758,48.805 C182.231,48.805 175.318,55.717 175.318,64.245 C175.318,72.772 182.231,79.684 190.758,79.684 C199.285,79.684 206.198,72.772 206.198,64.245 C206.198,55.717 199.285,48.805 190.758,48.805 z M64.018,48.536 C55.491,48.536 48.578,55.448 48.578,63.975 C48.578,72.503 55.491,79.415 64.018,79.415 C72.545,79.415 79.458,72.503 79.458,63.975 C79.458,55.448 72.545,48.536 64.018,48.536 z" fill="#383838"/>
    <path d="M171.806,127.436 C171.806,152.054 151.85,172.011 127.231,172.011 C102.613,172.011 82.656,152.054 82.656,127.436 C82.656,102.818 102.613,82.861 127.231,82.861 C151.85,82.861 171.806,102.818 171.806,127.436 z" fill="#383838"/>
  </g>
</svg>
