<?xml version="1.0" encoding="UTF-8"?>
<!DOCTYPE svg PUBLIC "-//W3C//DTD SVG 1.1//EN" "http://www.w3.org/Graphics/SVG/1.1/DTD/svg11.dtd">
<svg version="1.1" xmlns="http://www.w3.org/2000/svg" xmlns:xlink="http://www.w3.org/1999/xlink" x="0" y="0" width="256" height="256" viewBox="0, 0, 256, 256">
  <g id="solid">
    <path d="M127.953,13.52 C136.62,13.444 145.284,15.122 154.218,18.063 C156.108,18.676 157.978,19.347 159.832,20.061 C160.203,19.882 159.862,20.042 160.936,19.82 L160.936,19.82 C162.771,20.201 162.034,19.884 163.227,20.553 C165.135,21.9 167.176,24.442 169.991,28.569 C170.398,29.166 170.821,29.796 171.274,30.481 C172.012,31.595 174.333,35.161 174.614,35.589 C174.862,35.962 175.111,36.335 175.359,36.709 C175.363,36.715 175.368,36.722 175.373,36.728 C176.54,36.588 175.891,36.641 177.322,36.606 L177.322,36.606 L178.507,36.878 C188.174,40.152 196.929,43.851 201.826,46.834 C201.932,46.899 202.055,46.972 202.237,47.079 C202.174,47.042 202.656,47.324 202.798,47.407 C203.341,47.728 203.788,48.002 204.26,48.31 C205.566,49.164 206.781,50.106 207.995,51.254 C211.001,54.095 213.693,57.933 216.135,63.129 C216.353,63.592 216.568,64.064 216.78,64.547 C217.656,66.536 218.54,68.708 219.44,71.078 C221.819,77.337 224.266,84.807 227.289,94.829 C228.964,100.38 234.892,120.647 235.471,122.601 C237.185,128.388 239.213,134.251 242.387,142.836 C242.844,144.07 243.267,145.209 244.003,147.186 C249.986,163.251 252.301,169.953 254.52,178.544 L254.212,178.623 C254.774,180.865 254.873,181.68 253.576,183.57 C253.08,184.259 252.583,184.694 252.024,185.074 C251.576,185.379 251.135,185.606 250.579,185.851 C249.688,186.245 248.263,186.776 246.099,187.512 C240.345,189.47 229.984,192.671 213.839,197.41 C210.631,198.352 207.272,196.49 206.371,193.271 C200.53,172.569 194.391,151.93 187.112,131.682 C187.665,144.574 188.261,157.466 189.049,170.346 C189.282,174.083 190.278,177.98 194.61,193.168 C194.94,194.328 195.219,195.31 195.483,196.251 C200.765,215.032 202.271,223.982 199.097,230.289 C196.673,235.104 188.386,236.923 169.369,239.308 C155.753,241.015 139.615,242.26 128.104,242.482 L127.989,242.472 L127.873,242.482 C116.363,242.26 100.224,241.015 86.608,239.308 C67.591,236.923 59.304,235.104 56.881,230.289 C53.706,223.982 55.212,215.032 60.494,196.251 C60.758,195.31 61.037,194.328 61.368,193.168 C65.7,177.98 66.695,174.083 66.928,170.346 C67.711,157.465 68.315,144.574 68.865,131.682 C61.588,151.931 55.447,172.568 49.606,193.271 C48.705,196.49 45.346,198.352 42.139,197.41 C25.994,192.671 15.632,189.47 9.878,187.512 C7.714,186.776 6.289,186.245 5.398,185.851 C4.842,185.606 4.402,185.379 3.953,185.074 C3.395,184.694 2.897,184.259 2.401,183.57 C1.011,181.776 1.332,180.716 1.765,178.623 L1.457,178.544 C3.677,169.953 5.991,163.251 11.974,147.186 C12.71,145.209 13.134,144.07 13.59,142.836 C16.764,134.251 18.792,128.388 20.507,122.601 C21.086,120.647 27.014,100.38 28.688,94.829 C31.711,84.807 34.159,77.337 36.537,71.078 C37.438,68.708 38.321,66.536 39.197,64.547 C39.41,64.064 39.625,63.592 39.842,63.129 C42.284,57.933 44.977,54.095 47.982,51.254 C49.196,50.106 50.412,49.164 51.717,48.31 C52.189,48.002 52.636,47.728 53.18,47.407 C53.321,47.324 53.804,47.042 53.74,47.079 C53.922,46.972 54.046,46.899 54.151,46.834 C59.048,43.851 67.803,40.152 77.47,36.879 L77.705,36.825 C78.042,36.341 77.76,36.748 78.531,35.589 C78.812,35.161 81.133,31.595 81.871,30.481 C82.324,29.796 82.747,29.166 83.154,28.569 C85.969,24.442 88.01,21.9 89.918,20.553 C91.11,19.884 90.374,20.201 92.209,19.82 C93.654,20.038 92.939,19.805 94.329,20.59 C98.312,19.079 102.408,17.903 106.509,16.763 C114.1,14.76 121.334,13.579 127.953,13.52 z M76.978,49.789 C71.235,51.719 65.713,54.2 60.394,57.082 C60.53,57 58.753,58.048 58.283,58.355 C57.549,58.835 56.894,59.343 56.226,59.974 C54.357,61.741 52.529,64.346 50.702,68.233 C50.527,68.606 50.353,68.99 50.179,69.383 C49.392,71.172 48.585,73.155 47.754,75.341 C45.496,81.284 43.126,88.519 40.177,98.294 C38.52,103.788 32.604,124.013 32.012,126.01 C30.205,132.108 28.104,138.185 24.845,146.998 C24.385,148.243 23.959,149.389 23.22,151.374 C20.116,159.65 17.052,167.942 14.518,176.413 C22.861,179.17 31.282,181.685 39.707,184.18 C45.763,163.009 52.191,141.922 59.896,121.284 C62.679,113.929 65.09,108.289 66.978,104.705 C68.068,102.634 69.017,101.155 70.055,100.089 C71.335,98.775 72.779,97.886 74.965,97.866 C78.216,97.837 80.289,99.896 81.114,102.37 C81.846,104.568 81.662,112.669 80.863,131.987 C80.3,145.603 79.484,161.828 78.905,171.094 C78.589,176.151 77.641,179.862 72.907,196.459 C72.581,197.606 72.306,198.574 72.046,199.499 C69.932,207.017 68.659,212.163 67.928,216.503 C67.593,218.862 67.137,221.271 67.379,223.661 C68.706,224.117 70.084,224.41 71.449,224.725 C75.578,225.631 81.332,226.552 88.101,227.401 C101.34,229.052 114.653,230.096 127.989,230.481 C134.658,230.288 130.816,230.432 139.512,229.977 C145.126,216.758 148.877,202.762 151.842,188.73 C152.977,183.362 154.018,177.838 154.143,172.334 C154.143,170.602 154.202,167.296 154.324,161.763 C154.389,158.833 154.672,146.658 154.72,144.549 C154.787,141.618 154.845,138.984 154.899,136.473 C155.121,126.035 155.253,117.972 155.287,111.848 C155.307,108.307 155.292,105.509 155.241,103.507 C155.215,102.485 155.18,101.685 155.137,101.131 L155.116,100.897 C152.054,95.974 149.606,90.641 145.994,86.073 C133.005,86.361 119.881,85.883 107.197,82.866 C104.246,82.125 101.831,81.318 99.908,80.492 C98.654,79.954 97.799,79.495 97.298,79.162 C95.987,78.291 95.309,76.733 95.564,75.18 C95.587,75.046 95.61,74.911 95.633,74.775 C96.065,72.366 96.657,69.983 97.422,67.657 L95.933,68.396 C93.406,69.764 91.315,71.194 89.828,72.618 C87.985,74.383 84.984,73.994 83.651,71.819 C81.39,68.13 79.688,62.657 77.998,54.821 C77.64,53.148 77.312,51.468 76.978,49.789 z M112.774,161.273 C116.909,161.273 120.261,164.625 120.261,168.76 C120.261,172.895 116.909,176.247 112.774,176.247 C108.639,176.247 105.287,172.895 105.287,168.76 C105.287,164.625 108.639,161.273 112.774,161.273 z M143.226,161.273 C147.361,161.273 150.713,164.625 150.713,168.76 C150.713,172.895 147.361,176.247 143.226,176.247 C139.091,176.247 135.739,172.895 135.739,168.76 C135.739,164.625 139.091,161.273 143.226,161.273 z M143.226,134.174 C147.361,134.174 150.713,137.527 150.713,141.662 C150.713,145.797 147.361,149.149 143.226,149.149 C139.091,149.149 135.739,145.797 135.739,141.662 C135.739,137.527 139.091,134.174 143.226,134.174 z M112.774,134.174 C116.909,134.174 120.261,137.527 120.261,141.662 C120.261,145.797 116.909,149.149 112.774,149.149 C108.639,149.149 105.287,145.797 105.287,141.662 C105.287,137.527 108.639,134.174 112.774,134.174 z M112.774,107.076 C116.909,107.076 120.261,110.428 120.261,114.563 C120.261,118.698 116.909,122.05 112.774,122.05 C108.639,122.05 105.287,118.698 105.287,114.563 C105.287,110.428 108.639,107.076 112.774,107.076 z M143.226,107.076 C147.361,107.076 150.713,110.428 150.713,114.563 C150.713,118.698 147.361,122.05 143.226,122.05 C139.091,122.05 135.739,118.698 135.739,114.563 C135.739,110.428 139.091,107.076 143.226,107.076 z M176.355,48.835 C175.963,50.833 175.569,52.83 175.147,54.821 C173.457,62.657 171.755,68.13 169.494,71.819 C168.161,73.994 165.16,74.383 163.317,72.618 C161.829,71.194 159.739,69.764 157.211,68.396 L155.723,67.657 C156.558,69.968 157.032,72.376 157.512,74.775 C157.535,74.911 157.558,75.046 157.58,75.18 C157.836,76.733 157.158,78.291 155.847,79.162 C155.346,79.495 154.491,79.954 153.237,80.492 L152.088,80.953 C155.84,86.412 159.601,91.949 162.557,97.893 C163.53,99.96 163.478,109.356 162.897,136.644 C162.843,139.159 162.785,141.796 162.718,144.731 C162.67,146.844 162.387,159.015 162.322,161.94 C162.201,167.405 162.143,170.685 162.143,172.334 C160.81,191.028 155.205,212.024 148.432,229.349 C154.933,228.912 161.407,228.167 167.876,227.401 C174.645,226.552 180.4,225.631 184.528,224.725 C185.895,224.414 187.269,224.109 188.598,223.661 C188.808,221.269 188.412,218.863 188.049,216.503 C187.319,212.163 186.046,207.017 183.932,199.499 C183.671,198.574 183.397,197.606 183.07,196.459 C178.336,179.862 177.388,176.151 177.072,171.094 C176.494,161.828 175.677,145.603 175.114,131.987 C174.316,112.669 174.131,104.568 174.864,102.37 C175.688,99.896 177.761,97.837 181.013,97.866 C183.199,97.886 184.642,98.775 185.922,100.089 C186.96,101.155 187.909,102.634 189,104.705 C190.887,108.289 193.298,113.929 196.082,121.284 C203.83,141.908 210.164,163.025 216.271,184.18 C224.68,181.641 233.132,179.219 241.459,176.413 C238.978,167.929 235.835,159.655 232.758,151.374 C232.019,149.389 231.593,148.243 231.132,146.998 C227.873,138.185 225.772,132.108 223.965,126.01 C223.373,124.013 217.458,103.788 215.8,98.294 C212.852,88.519 210.481,81.284 208.223,75.341 C207.392,73.155 206.586,71.172 205.798,69.383 C205.625,68.99 205.45,68.606 205.275,68.233 C203.448,64.346 201.62,61.741 199.752,59.974 C199.083,59.343 198.428,58.835 197.694,58.355 C197.225,58.048 195.448,57 195.583,57.082 C189.509,53.636 182.935,51.126 176.355,48.835 z M244.749,184.53 C245.125,184.877 244.889,184.677 245.482,185.102 L244.749,184.53 z M11.228,184.53 L10.495,185.101 C11.088,184.677 10.852,184.877 11.228,184.531 L11.228,184.53 z M243.622,183.07 L243.693,183.334 C243.978,183.668 244.22,184.041 244.543,184.34 L243.622,183.07 z M12.355,183.07 L11.434,184.34 C11.751,184.039 12.011,183.675 12.284,183.334 L12.355,183.07 z M91.499,30.634 C90.296,32.288 90.874,31.473 89.763,33.077 C89.378,33.642 88.975,34.243 88.54,34.899 C87.824,35.98 85.513,39.532 85.213,39.987 C84.13,41.614 84.651,40.856 83.657,42.268 C84.373,45.891 85.053,49.522 85.818,53.135 C86.505,56.666 87.526,60.107 88.616,63.529 C90.59,62.154 89.437,62.903 92.126,61.361 C94.581,60.032 97.187,58.857 99.79,57.841 C101.355,57.23 102.586,56.802 103.322,56.57 C106.665,55.517 109.649,58.965 108.128,62.122 C108.097,62.185 108.03,62.329 107.93,62.547 C107.759,62.923 107.566,63.359 107.357,63.849 C106.756,65.257 106.154,66.798 105.593,68.414 C104.595,71.448 105.116,69.742 104.088,73.55 C105.722,74.223 107.444,74.652 109.146,75.108 C117.339,77.072 125.793,77.886 134.207,78.053 C124.973,71.693 115.442,65.444 107.496,57.455 C105.788,55.643 104.025,53.219 102.118,50.159 C100.555,47.65 98.935,44.781 97.05,41.242 C95.944,39.164 92.329,32.197 92.443,32.415 C91.74,31.079 92.056,31.672 91.499,30.634 z M161.645,30.634 C161.089,31.672 161.405,31.079 160.702,32.415 C160.816,32.197 157.201,39.164 156.094,41.242 C154.21,44.781 152.59,47.65 151.027,50.159 C149.12,53.219 147.357,55.643 145.649,57.455 C142.148,61.17 137.952,64.263 132.708,67.268 L132.653,67.298 C136.412,70.015 140.281,72.578 144.204,75.051 C147.403,74.174 145.785,74.67 149.057,73.55 C148.029,69.742 148.55,71.448 147.552,68.414 C146.991,66.798 146.389,65.257 145.788,63.849 C145.579,63.359 145.386,62.923 145.215,62.547 C145.115,62.329 145.048,62.185 145.017,62.122 C143.496,58.965 146.48,55.517 149.822,56.57 C150.559,56.802 151.79,57.23 153.355,57.841 C155.958,58.857 158.564,60.032 161.019,61.361 C163.708,62.903 162.554,62.154 164.529,63.529 C165.746,60.146 166.541,56.637 167.327,53.135 C168.083,49.52 168.781,45.893 169.488,42.268 C168.494,40.856 169.015,41.614 167.932,39.987 C167.632,39.532 165.321,35.98 164.605,34.899 C164.17,34.243 163.767,33.642 163.381,33.077 C162.271,31.473 162.849,32.288 161.645,30.634 L161.645,30.634 z M128.024,21.52 C122.16,21.572 115.55,22.651 108.55,24.498 C103.007,26.04 106.243,25.09 98.876,27.462 C99.118,27.914 98.897,27.501 99.53,28.704 C99.434,28.521 103.029,35.449 104.112,37.482 C105.919,40.875 107.457,43.598 108.908,45.929 C110.559,48.578 112.035,50.607 113.318,51.969 C117,55.749 121.237,58.927 125.438,62.099 L128.73,60.327 C133.346,57.682 136.937,55.035 139.827,51.969 C141.11,50.607 142.586,48.578 144.236,45.929 C145.688,43.598 147.226,40.875 149.033,37.482 C150.116,35.449 153.711,28.521 153.614,28.704 C154.385,27.239 154.026,27.914 154.688,26.68 C153.706,26.317 152.71,25.992 151.716,25.662 C143.545,22.972 135.7,21.452 128.024,21.52 z" fill="#383838"/>
  </g>
</svg>
