<?xml version="1.0" encoding="UTF-8"?>
<!DOCTYPE svg PUBLIC "-//W3C//DTD SVG 1.1//EN" "http://www.w3.org/Graphics/SVG/1.1/DTD/svg11.dtd">
<svg version="1.1" xmlns="http://www.w3.org/2000/svg" xmlns:xlink="http://www.w3.org/1999/xlink" x="0" y="0" width="256" height="256" viewBox="0, 0, 256, 256">
  <g id="line_のコピー">
    <path d="M128,16.863 L128,16.863 L128,16.863 C136.64,16.863 144.791,17.853 150.993,19.635 C154.304,20.586 157.061,21.758 159.174,23.193 C162.35,25.462 163.048,26.685 164.089,30.32 C167.214,38.493 169.211,47.019 170.96,55.571 C172.005,55.908 171.147,55.631 173.533,56.411 C178.074,57.905 182.616,59.454 186.867,60.982 C188.606,61.608 190.265,62.218 191.831,62.811 C198.01,65.149 202.529,67.114 205.241,68.767 C205.347,68.831 205.47,68.904 205.653,69.011 C205.589,68.974 206.071,69.256 206.213,69.34 C206.756,69.66 207.203,69.934 207.675,70.243 C208.981,71.096 210.196,72.039 211.41,73.186 C214.416,76.028 217.109,79.865 219.551,85.062 C219.768,85.524 219.983,85.997 220.196,86.48 C220.642,87.493 221.142,88.547 221.737,89.734 C222.285,90.827 225.276,96.531 226.164,98.317 C228.156,102.326 229.724,105.992 231.105,110.073 C232.094,112.996 232.777,115.878 233.968,121.636 C233.963,121.612 234.262,123.057 234.346,123.465 C235.285,127.996 235.886,130.563 236.612,132.922 C236.774,133.45 236.991,134.028 237.27,134.675 C237.704,135.684 238.087,136.457 239.195,138.609 C241.054,142.224 241.894,144.067 242.608,146.5 C243.309,148.888 243.545,150.687 243.842,154.526 C243.9,155.274 243.926,155.593 243.961,155.988 C244.121,157.813 244.308,159.035 244.618,160.129 C244.912,161.171 245.439,162.194 246.907,164.658 C246.908,164.659 246.908,164.659 246.908,164.66 C248.957,168.098 249.8,169.744 250.474,172.201 C251.105,174.503 251.183,176.356 251.051,179.668 C251.045,179.819 251.045,179.819 251.038,179.967 C250.943,182.33 250.972,183.234 251.172,183.983 C251.557,185.523 251.352,187.065 250.607,188.472 C250.404,188.856 250.07,189.155 249.801,189.497 C249.909,190.963 250.386,192.376 250.806,193.775 C250.96,194.263 251.128,194.775 251.353,195.447 C252.565,199.072 252.615,199.228 252.956,200.549 C253.711,203.471 252.178,206.499 249.375,207.62 C246.741,208.674 242.733,210.193 236.517,212.509 L236.208,212.624 C234.827,213.139 229.736,215.031 228.643,215.438 C225.963,216.436 224.152,217.116 222.839,217.619 C219.54,218.883 215.868,217.036 214.915,213.634 C214.071,210.619 213.695,209.331 213.142,207.645 C212.259,204.954 211.394,202.877 210.57,201.512 C210.239,200.991 210.42,201.255 210.023,200.723 C207.833,200.148 206.483,198.666 205.703,196.602 C205.448,195.725 205.041,194.956 203.988,193.312 C203.805,193.027 203.701,192.865 203.612,192.726 C202.184,190.491 201.401,189.005 200.802,186.993 C200.217,185.028 199.982,183.165 199.813,180.293 C199.797,180.029 199.787,179.848 199.759,179.345 C199.62,176.81 199.507,175.776 199.281,175.038 C198.917,173.852 198.354,172.654 197.17,170.463 C195.174,166.767 194.688,165.788 194.045,163.769 C193.538,162.284 193.203,160.753 192.881,159.22 C193.57,162.162 193.828,165.168 194.057,168.172 C194.503,174.792 194.17,178.913 193.17,183.312 C193.161,183.352 192.749,185.106 192.662,185.522 C192.409,186.724 192.34,187.566 192.434,188.78 C192.512,189.791 192.666,190.811 192.907,191.962 C193.201,193.369 194.837,199.563 194.713,199.074 C195.519,202.268 196.103,205.149 196.551,208.437 C197.36,214.37 197.174,218.229 196.263,222.305 C196.198,222.599 195.993,223.479 195.961,223.622 C195.88,223.979 195.832,224.224 195.801,224.424 C195.755,224.726 195.75,224.91 195.781,225.138 C196.138,227.798 194.684,230.372 192.222,231.44 C192.164,231.465 192.091,231.501 191.997,231.552 C191.825,231.645 191.611,231.772 191.281,231.977 C191.379,231.916 190.409,232.526 190.092,232.72 C188.85,233.482 187.705,234.098 186.343,234.699 C175.99,238.826 164.498,239.125 153.493,239.059 C144.981,239.007 136.488,238.505 127.999,237.92 C110.628,238.8 86.18,241.345 69.657,234.699 C68.295,234.098 67.15,233.482 65.908,232.72 C65.591,232.526 64.621,231.916 64.719,231.977 C64.389,231.772 64.175,231.645 64.003,231.552 C63.909,231.501 63.836,231.465 63.778,231.44 C61.316,230.372 59.862,227.798 60.219,225.138 C60.25,224.91 60.245,224.726 60.199,224.424 C60.168,224.224 60.12,223.979 60.039,223.622 C60.007,223.479 59.803,222.599 59.737,222.305 C58.826,218.229 58.64,214.37 59.449,208.437 C59.897,205.149 60.481,202.268 61.287,199.074 C61.163,199.563 62.799,193.369 63.093,191.962 C63.334,190.811 63.488,189.791 63.566,188.78 C63.66,187.566 63.591,186.724 63.338,185.522 C63.251,185.106 62.839,183.352 62.83,183.312 C61.83,178.913 61.497,174.792 61.943,168.172 C62.055,165.15 62.587,162.188 63.119,159.22 C62.852,160.766 62.416,162.273 61.955,163.769 C61.312,165.788 60.827,166.767 58.83,170.463 C57.647,172.654 57.083,173.852 56.719,175.038 C56.493,175.776 56.38,176.81 56.241,179.345 C56.213,179.848 56.203,180.029 56.187,180.293 C56.018,183.165 55.783,185.028 55.198,186.993 C54.599,189.005 53.816,190.491 52.388,192.726 C52.3,192.865 52.195,193.027 52.012,193.312 C50.959,194.956 50.552,195.725 50.297,196.602 C49.516,198.998 48.213,199.874 45.977,200.723 C45.58,201.255 45.761,200.991 45.43,201.512 C44.606,202.877 43.741,204.954 42.858,207.645 C42.305,209.33 41.929,210.619 41.085,213.634 C40.132,217.036 36.46,218.883 33.161,217.619 C31.848,217.116 30.037,216.436 27.357,215.438 C26.264,215.031 21.173,213.139 19.792,212.624 L19.483,212.509 C13.267,210.193 9.259,208.674 6.625,207.62 C3.822,206.499 2.289,203.471 3.044,200.549 C3.385,199.228 3.436,199.072 4.647,195.447 C4.872,194.775 5.04,194.263 5.194,193.775 C5.639,192.377 6.042,190.958 6.199,189.497 C4.726,187.959 4.455,186.004 4.828,183.983 C5.028,183.234 5.058,182.33 4.962,179.967 C4.956,179.819 4.956,179.819 4.949,179.668 C4.817,176.356 4.895,174.503 5.526,172.201 C6.2,169.744 7.043,168.098 9.092,164.66 C9.092,164.659 9.092,164.659 9.093,164.658 C10.561,162.194 11.088,161.171 11.382,160.129 C11.692,159.035 11.879,157.813 12.039,155.988 C12.074,155.593 12.1,155.274 12.158,154.526 C12.455,150.687 12.691,148.888 13.392,146.5 C14.106,144.067 14.946,142.224 16.805,138.609 C17.913,136.457 18.296,135.684 18.73,134.675 C19.009,134.028 19.226,133.45 19.388,132.922 C20.114,130.563 20.715,127.996 21.654,123.465 C21.739,123.057 22.037,121.612 22.032,121.636 C23.223,115.878 23.906,112.996 24.895,110.073 C26.277,105.992 27.844,102.326 29.836,98.317 C30.724,96.531 33.715,90.827 34.263,89.734 C34.858,88.547 35.358,87.493 35.804,86.48 C36.017,85.997 36.232,85.524 36.449,85.062 C38.891,79.865 41.584,76.028 44.59,73.186 C45.804,72.039 47.019,71.096 48.325,70.243 C48.797,69.934 49.244,69.66 49.787,69.34 C49.929,69.256 50.411,68.974 50.347,69.011 C50.53,68.904 50.653,68.831 50.759,68.767 C53.471,67.114 57.99,65.149 64.169,62.811 C65.735,62.218 67.394,61.608 69.133,60.982 C73.384,59.454 77.926,57.905 82.467,56.411 C84.853,55.631 83.995,55.908 85.04,55.571 C86.836,46.946 88.844,38.347 91.961,30.093 C92.497,27.039 94.425,24.974 96.826,23.193 C98.939,21.758 101.696,20.586 105.007,19.635 C111.209,17.853 119.36,16.863 128,16.863 z M181.059,193.851 C171.124,195.957 160.863,196.601 150.721,196.481 C144.19,196.404 137.772,195.943 131.404,194.513 C131.272,195.683 131.389,194.641 131.084,197.642 C130.743,201.197 130.482,204.675 130.335,207.923 C130.274,209.295 130.233,210.608 130.215,211.854 C130.15,216.329 130.48,221.039 131.071,225.646 L131.135,226.108 C142.945,226.84 154.832,227.579 166.659,226.69 C171.726,226.309 176.756,225.599 181.5,223.72 C182.354,223.324 183.169,222.852 183.98,222.376 C184.125,221.546 184.037,222.009 184.253,220.989 C184.299,220.788 184.501,219.918 184.552,219.689 C185.157,216.98 185.274,214.554 184.661,210.058 C184.278,207.251 183.782,204.798 183.078,202.01 C182.932,201.429 182.779,200.844 182.583,200.106 C182.545,199.961 182.189,198.628 182.086,198.24 C181.675,196.681 181.401,195.564 181.161,194.42 L181.059,193.851 z M74.945,193.827 L74.839,194.42 C74.6,195.564 74.325,196.681 73.914,198.24 C73.811,198.628 73.456,199.961 73.417,200.106 C73.221,200.844 73.069,201.429 72.922,202.01 C72.219,204.798 71.722,207.251 71.339,210.058 C70.726,214.554 70.843,216.98 71.448,219.689 C71.499,219.918 71.702,220.788 71.747,220.989 C71.963,222.009 71.875,221.546 72.02,222.376 C72.826,222.863 73.655,223.308 74.5,223.72 C83.598,227.139 93.7,227.166 103.296,227.062 C109.894,226.99 116.506,226.688 123.087,226.231 C122.42,221.428 122.248,216.581 122.216,211.738 C122.235,210.407 122.278,209.012 122.344,207.562 C122.497,204.166 122.767,200.558 123.12,196.878 L123.332,194.796 C111.975,197.033 100.146,196.854 88.654,195.853 C84.058,195.432 79.432,194.946 74.945,193.827 z M157.11,48.777 C150.988,55.81 141.154,59.996 132,61.033 L132,108.988 C135.771,110.42 139.932,110.752 143.925,110.987 C152.294,111.48 160.646,110.978 168.985,110.256 C171.183,110.028 173.149,111.625 173.377,113.822 C173.605,116.019 172.008,117.985 169.811,118.213 C167.672,118.399 165.537,118.639 163.394,118.77 C153.465,119.379 140.89,119.89 131.195,117.098 L131.066,117.929 C130.505,121.878 130.18,126.245 130.215,130.876 C130.249,135.356 130.567,139.653 131.074,143.617 C131.406,146.012 131.251,145.007 131.515,146.634 L131.538,146.585 C135.538,148.198 140.037,148.553 144.301,148.76 C149.465,149.01 153.965,149.015 159.144,148.8 C165.559,148.533 172.228,148.15 178.509,146.694 C178.787,138.941 178.374,130.811 180.923,123.358 C181.885,120.791 184.213,118.737 187.632,119.108 C189.764,119.34 191.078,120.316 192.258,121.716 C193.231,122.87 194.141,124.48 195.2,126.747 C197.04,130.689 199.429,136.927 202.291,145.252 C203.012,147.348 203.382,149.158 203.919,152.589 C204.564,156.714 204.834,158.105 205.478,160.125 C205.796,161.123 206.16,161.857 207.728,164.76 C209.27,167.613 210.092,169.361 210.754,171.523 C211.372,173.541 211.544,175.115 211.741,178.685 C211.768,179.171 211.778,179.342 211.792,179.585 C211.91,181.589 212.054,182.733 212.303,183.569 C212.5,184.23 212.858,184.909 213.724,186.265 C213.805,186.392 213.901,186.542 214.09,186.836 C215.487,189.096 214.872,187.977 215.961,190.179 C218.115,191.376 219.527,193.296 220.841,195.307 C222.227,197.601 223.402,200.424 224.543,203.902 L224.617,204.132 C227.084,203.214 229.552,202.297 232.019,201.379 L232.327,201.264 C234.794,200.346 237.258,199.423 239.719,198.488 C239.547,197.971 239.668,198.336 239.364,197.391 C238.418,194.398 237.894,192.115 237.798,189.879 C237.671,187.178 238.062,186.194 239.075,183.837 C238.892,182.392 238.997,180.931 239.048,179.481 C239.054,179.334 239.054,179.334 239.06,179.19 C239.145,177.07 239.105,176.118 238.901,175.375 C238.614,174.328 238.085,173.294 236.601,170.805 C236.6,170.803 236.6,170.803 236.599,170.802 C234.582,167.418 233.751,165.802 233.07,163.394 C232.517,161.436 232.227,159.546 232.006,157.036 C231.967,156.587 231.94,156.243 231.878,155.454 C231.645,152.441 231.483,151.204 231.094,149.881 C230.665,148.418 230.038,147.042 228.524,144.099 C227.283,141.686 226.832,140.775 226.248,139.42 C225.808,138.398 225.441,137.422 225.143,136.451 C224.273,133.624 223.609,130.787 222.596,125.901 C222.51,125.488 222.211,124.038 222.217,124.066 C221.128,118.801 220.514,116.214 219.738,113.92 C218.545,110.394 217.184,107.213 215.417,103.656 C214.605,102.021 211.626,96.342 211.009,95.11 C210.33,93.756 209.747,92.527 209.213,91.316 C209.04,90.922 208.865,90.539 208.69,90.166 C206.863,86.278 205.035,83.673 203.167,81.907 C202.499,81.275 201.843,80.767 201.11,80.287 C200.64,79.98 198.863,78.933 198.998,79.015 C197.12,77.871 193.084,76.115 187.584,74.034 C186.083,73.466 184.487,72.879 182.807,72.275 C178.671,70.788 174.228,69.272 169.783,67.81 C168.226,67.298 166.781,66.829 165.485,66.414 L165.054,66.277 C161.97,65.834 160.351,63.972 159.713,61.022 C159.139,56.885 158.151,52.818 157.11,48.777 z M98.917,48.673 C97.843,52.742 96.876,56.852 96.287,61.022 C95.554,64.686 94.294,65.391 90.946,66.277 L90.515,66.414 C89.219,66.829 87.774,67.298 86.217,67.81 C81.772,69.272 77.329,70.788 73.193,72.275 C71.513,72.879 69.917,73.466 68.416,74.034 C62.917,76.115 58.88,77.871 57.002,79.015 C57.137,78.933 55.36,79.98 54.89,80.287 C54.157,80.767 53.501,81.275 52.833,81.907 C50.965,83.673 49.137,86.278 47.31,90.166 C47.135,90.539 46.96,90.922 46.787,91.316 C46.253,92.527 45.67,93.756 44.991,95.11 C44.374,96.342 41.395,102.021 40.583,103.656 C38.816,107.213 37.455,110.394 36.262,113.92 C35.486,116.214 34.872,118.801 33.783,124.066 C33.789,124.038 33.49,125.488 33.404,125.901 C32.391,130.787 31.727,133.624 30.857,136.451 C30.559,137.422 30.192,138.398 29.752,139.42 C29.169,140.775 28.717,141.686 27.476,144.099 C25.962,147.042 25.335,148.418 24.906,149.881 C24.517,151.204 24.355,152.441 24.122,155.454 C24.06,156.243 24.033,156.587 23.994,157.036 C23.773,159.546 23.483,161.436 22.93,163.394 C22.249,165.802 21.418,167.418 19.401,170.802 C19.4,170.803 19.4,170.803 19.399,170.805 C17.915,173.294 17.386,174.328 17.099,175.375 C16.895,176.118 16.855,177.07 16.94,179.19 C16.946,179.334 16.946,179.334 16.952,179.481 C16.993,180.655 17.039,181.639 17.012,182.85 C17.004,183.18 16.954,183.508 16.925,183.837 C18.032,185.695 18.196,187.776 18.202,189.879 C18.106,192.115 17.582,194.398 16.636,197.391 C16.332,198.336 16.453,197.971 16.281,198.488 C18.74,199.426 21.207,200.344 23.673,201.264 L23.981,201.379 C26.448,202.297 28.916,203.214 31.383,204.132 L31.456,203.902 C32.598,200.424 33.773,197.601 35.159,195.307 C36.305,193.11 38.092,191.615 40.039,190.179 C41.128,187.977 40.513,189.096 41.91,186.836 C42.099,186.542 42.195,186.392 42.276,186.265 C43.142,184.909 43.5,184.23 43.697,183.569 C43.946,182.733 44.09,181.589 44.208,179.585 C44.223,179.342 44.232,179.171 44.259,178.685 C44.456,175.115 44.628,173.541 45.246,171.523 C45.908,169.361 46.73,167.613 48.272,164.76 C49.84,161.857 50.204,161.123 50.522,160.125 C51.166,158.105 51.436,156.714 52.081,152.589 C52.618,149.158 52.988,147.348 53.709,145.252 C56.571,136.927 58.96,130.689 60.8,126.747 C61.859,124.48 62.769,122.87 63.742,121.716 C64.922,120.316 66.236,119.34 68.368,119.108 C71.787,118.736 74.115,120.791 75.077,123.358 C77.434,130.834 77.411,138.868 77.491,146.636 C86.346,148.655 95.457,148.821 104.49,148.954 C110.801,148.937 117.372,148.82 123.467,146.984 C123.331,146.145 123.457,146.927 123.138,144.632 C122.593,140.367 122.252,135.755 122.215,130.937 C122.152,126.478 122.501,122.027 123.047,117.605 C111.515,120.162 97.81,119.222 86.189,118.213 C83.992,117.985 82.395,116.019 82.623,113.822 C82.851,111.625 84.817,110.028 87.015,110.256 C95.333,111.065 103.722,111.479 112.075,110.987 C116,110.756 120.311,110.5 124,108.988 L124,61.033 C114.694,59.704 105.033,56.164 98.917,48.673 z M76.98,154.708 C76.703,156.31 76.91,155.4 76.255,157.414 C76.13,157.755 75.713,158.825 75.718,158.813 C75.539,159.282 75.406,159.656 75.279,160.056 C74.657,162.025 74.205,164.672 73.916,168.977 C73.549,174.425 73.787,177.379 74.531,180.651 C74.512,180.564 74.96,182.477 75.082,183.056 C75.437,185.033 75.339,184.149 75.448,185.7 C84.932,188.128 94.761,188.35 104.49,188.493 C110.786,188.476 117.354,188.365 123.435,186.532 L123.144,184.653 C122.549,180.54 122.195,176.416 122.206,172.522 C122.207,172.202 122.21,171.885 122.216,171.57 C122.257,169.393 122.388,166.848 122.594,164.002 C122.738,162.016 122.915,159.924 123.119,157.77 L123.368,155.249 C112.001,157.496 100.158,157.316 88.654,156.314 C81.921,155.643 85.821,156.114 76.98,154.708 z M179.024,154.734 C169.71,156.453 160.186,157.054 150.721,156.942 C144.204,156.865 137.793,156.409 131.438,154.981 C131.275,156.497 131.4,155.317 131.083,158.523 C130.885,160.622 130.712,162.656 130.573,164.58 C130.376,167.294 130.253,169.705 130.214,171.721 C130.209,171.993 130.206,172.267 130.206,172.545 C130.196,176 130.518,179.752 131.061,183.507 C131.395,185.659 131.243,184.76 131.497,186.209 L131.538,186.124 C135.538,187.737 140.037,188.092 144.301,188.299 C149.465,188.549 153.965,188.554 159.144,188.338 C166.338,188.039 173.526,187.388 180.548,185.76 C180.66,184.149 180.559,185.053 180.918,183.056 C181.04,182.477 181.488,180.564 181.469,180.651 C182.213,177.379 182.451,174.425 182.084,168.977 C181.795,164.672 181.343,162.025 180.721,160.056 C180.594,159.656 180.461,159.282 180.282,158.813 C180.287,158.825 179.87,157.755 179.744,157.414 C179.092,155.408 179.297,156.31 179.024,154.734 z M190.506,147.897 L190.502,150.063 C190.511,151.608 190.633,152.26 191.001,153.255 C191.085,153.483 191.463,154.455 191.49,154.527 C191.748,155.201 191.957,155.789 192.163,156.441 L192.763,158.64 C192.23,155.544 192.46,156.943 192.063,154.444 C191.632,151.689 191.364,150.377 190.943,149.153 L190.506,147.897 z M65.493,147.897 L65.057,149.153 C64.636,150.377 64.368,151.689 63.937,154.444 C63.54,156.943 63.77,155.544 63.237,158.64 L63.837,156.44 C64.043,155.789 64.252,155.201 64.51,154.527 C64.537,154.455 64.915,153.483 64.999,153.255 C65.367,152.26 65.489,151.608 65.498,150.063 L65.493,147.897 z M127.999,28.863 C121.368,28.835 114.743,29.5 108.32,31.168 C106.807,31.613 105.289,32.116 103.921,32.914 C105.77,44.295 118.077,48.149 128.037,49.415 C137.853,48.313 150.381,44.05 152.079,32.914 C150.735,32.072 149.178,31.639 147.679,31.168 C142.637,29.72 135.584,28.863 128,28.863 L127.999,28.863 z" fill="#383838"/>
  </g>
</svg>
