<?xml version="1.0" encoding="UTF-8"?>
<!DOCTYPE svg PUBLIC "-//W3C//DTD SVG 1.1//EN" "http://www.w3.org/Graphics/SVG/1.1/DTD/svg11.dtd">
<svg version="1.1" xmlns="http://www.w3.org/2000/svg" xmlns:xlink="http://www.w3.org/1999/xlink" x="0" y="0" width="256" height="256" viewBox="0, 0, 256, 256">
  <g id="solid">
    <path d="M78.766,11.786 C89.779,12.031 99.816,15.891 109.094,21.585 C122.271,30.175 133.112,43.883 138.907,57.605 C139.392,58.753 139.881,59.935 140.374,61.149 C142.074,65.318 143.663,69.531 145.2,73.763 C151.509,69.508 158.673,66.893 166.056,65.271 C168.382,64.832 170.755,64.693 173.104,64.405 L176.452,64.298 C184.261,64.282 191.762,66.294 199.096,68.77 C223.1,78.031 235.255,95.771 237.654,118.402 C239.197,132.959 236.41,148.44 232.619,157.956 C232.233,158.923 231.845,159.921 231.317,161.291 C231.19,161.62 230.601,163.154 230.439,163.575 C229.638,165.662 228.821,167.742 227.931,169.792 C238.708,168.585 247.52,172.917 252.398,182.686 C257.157,194.323 253.138,206.487 241.833,212.239 C234.654,215.221 227.49,218.244 220.375,221.377 C219.15,221.92 217.965,222.451 216.823,222.969 C210.576,225.802 205.793,228.163 202.971,229.846 C201.04,230.998 199.036,232.351 196.976,233.875 C193.177,236.685 185.168,243.572 185.94,242.982 C184.166,244.337 181.786,244.595 179.763,243.652 C179.68,243.613 179.68,243.613 179.28,243.427 C178.885,243.243 178.425,243.029 177.906,242.789 C176.422,242.1 174.764,241.333 172.971,240.507 C167.85,238.146 162.681,235.786 157.794,233.585 C157.383,233.399 156.976,233.216 156.572,233.035 C147.861,229.121 141.156,226.218 137.357,224.753 C133.519,223.272 127.102,221.033 118.812,218.257 C118.222,218.06 117.624,217.86 117.019,217.658 C111.604,215.852 105.798,213.951 99.992,212.072 C97.96,211.414 96.072,210.806 94.379,210.263 C93.787,210.073 93.261,209.905 92.808,209.76 C92.537,209.673 92.35,209.613 92.255,209.583 C89.278,208.635 87.528,205.56 88.231,202.515 C88.246,202.453 88.246,202.453 88.311,202.173 C88.375,201.897 88.452,201.572 88.539,201.199 C88.79,200.137 89.083,198.906 89.416,197.521 C90.368,193.568 91.454,189.166 92.657,184.425 L92.868,183.605 C89.508,185.258 92.317,183.875 84.455,187.784 C82.682,188.669 81.042,189.491 79.575,190.229 C79.062,190.487 78.607,190.716 78.215,190.913 C77.82,191.113 77.82,191.113 77.738,191.154 C75.746,192.16 73.359,191.977 71.543,190.679 C72.254,191.187 64.231,184.709 60.419,182.056 C58.245,180.543 56.135,179.208 54.108,178.084 C51.289,176.52 46.557,174.361 40.389,171.788 C39.139,171.266 37.837,170.73 36.487,170.182 C29.246,167.312 22.014,164.413 14.712,161.705 C2.973,156.447 -0.879,144.201 3.225,132.499 C7.592,122.295 16.634,118.288 27.274,118.843 C26.335,116.906 25.512,114.916 24.669,112.936 C24.455,112.428 23.728,110.7 23.634,110.476 C23.058,109.11 22.636,108.12 22.218,107.16 C18.129,97.768 14.858,82.382 15.943,67.784 C17.631,45.088 29.223,26.975 52.924,16.965 C58.861,14.468 65.119,12.727 71.539,12.065 C73.937,11.817 76.357,11.879 78.766,11.786 z M176.792,76.364 L173.905,76.381 C165.114,76.83 157.223,80.211 149.964,84.992 C149.38,85.418 149.592,85.264 149.328,85.457 C149.972,87.313 149.45,85.803 150.86,89.999 C155.025,102.513 159.116,115.903 162.962,129.29 C164.307,133.974 165.526,138.324 166.597,142.23 C166.973,143.598 167.303,144.814 167.585,145.864 C167.684,146.232 167.771,146.553 167.843,146.826 C167.917,147.103 167.917,147.103 167.933,147.164 C168.732,150.185 167.079,153.313 164.133,154.355 C164.04,154.388 163.855,154.454 163.587,154.549 C163.139,154.707 162.619,154.892 162.034,155.1 C160.36,155.696 158.494,156.362 156.484,157.083 C150.745,159.142 145.005,161.223 139.652,163.197 C139.104,163.399 138.562,163.599 138.027,163.797 C129.75,166.86 123.346,169.321 119.53,170.933 C115.32,172.736 111.184,174.708 107.056,176.689 C106.109,180.245 105.208,183.813 104.288,187.375 C103.232,191.527 102.208,195.688 101.199,199.851 L103.687,200.655 C109.524,202.544 115.362,204.456 120.814,206.274 C121.425,206.477 122.028,206.679 122.623,206.878 C131.076,209.709 137.621,211.993 141.676,213.557 C145.743,215.126 152.583,218.087 161.49,222.089 C161.897,222.272 162.308,222.457 162.723,222.643 C167.645,224.861 172.844,227.235 177.994,229.609 C180.83,230.918 179.726,230.407 181.308,231.139 C181.965,230.566 181.661,230.83 182.22,230.347 C184.788,228.138 187.251,226.142 189.839,224.228 C192.201,222.481 194.527,220.91 196.824,219.541 C200.134,217.566 205.236,215.047 211.867,212.04 C213.041,211.508 214.257,210.963 215.512,210.407 C219.938,208.445 224.6,206.447 229.636,204.335 C231.53,203.541 236.653,201.412 236.911,201.298 C241.669,199.189 243.846,193.006 241.427,187.549 C239.208,182.543 233.798,180.492 227.116,182.023 C224.176,182.697 219.172,183.924 212.712,185.545 C212.405,185.622 212.405,185.622 212.098,185.699 C208.361,186.638 204.391,187.645 200.446,188.651 C199.065,189.004 197.786,189.331 196.64,189.624 C196.24,189.727 196.003,189.788 195.578,189.897 C195.268,189.976 195.268,189.976 195.204,189.993 C191.995,190.818 188.724,188.885 187.899,185.676 C187.074,182.466 189.007,179.196 192.216,178.371 C192.283,178.354 192.283,178.354 192.594,178.273 C193.021,178.164 193.259,178.103 193.662,178 C194.811,177.705 196.095,177.377 197.48,177.024 C201.438,176.014 205.421,175.004 209.175,174.061 C209.483,173.984 209.483,173.984 209.791,173.906 C212.235,173.294 211.378,173.507 212.36,173.263 C215.62,169.179 217.368,164.086 219.241,159.262 C219.401,158.847 219.989,157.315 220.118,156.98 C220.661,155.57 221.065,154.533 221.471,153.514 C224.592,145.682 227.038,132.093 225.721,119.667 C223.773,101.29 214.331,87.51 194.776,79.966 C189.934,78.106 184.86,76.832 179.675,76.441 L176.792,76.364 z M78.341,23.782 C71.123,23.549 64.247,25.416 57.593,28.02 C38.285,36.174 29.28,50.244 27.91,68.673 C26.984,81.134 29.855,94.64 33.221,102.37 C33.661,103.382 34.099,104.41 34.692,105.816 C34.789,106.046 35.514,107.77 35.725,108.269 C37.869,112.867 39.46,118.012 42.947,121.824 C43.941,122.037 43.076,121.851 45.54,122.387 C45.89,122.463 45.89,122.463 46.24,122.539 C50.008,123.361 54.003,124.242 57.969,125.122 C59.357,125.43 60.643,125.716 61.794,125.973 C62.197,126.063 62.435,126.116 62.863,126.211 C63.175,126.281 63.175,126.281 63.241,126.296 C66.475,127.02 68.51,130.228 67.786,133.462 C67.062,136.696 63.853,138.73 60.62,138.006 C60.555,137.992 60.555,137.992 60.245,137.922 C59.82,137.827 59.583,137.774 59.182,137.685 C58.034,137.429 56.753,137.144 55.369,136.837 C51.416,135.959 47.435,135.082 43.683,134.264 C43.335,134.188 43.335,134.188 42.986,134.112 C36.476,132.694 31.434,131.624 28.473,131.043 C21.747,129.722 16.404,131.942 14.343,137.015 C12.097,142.546 14.467,148.657 19.289,150.615 C19.55,150.721 24.743,152.691 26.671,153.429 C31.781,155.385 36.513,157.239 41.004,159.064 C42.388,159.627 43.724,160.177 45.01,160.713 C51.562,163.447 56.618,165.754 59.929,167.59 C62.337,168.926 64.784,170.474 67.273,172.206 C69.873,174.015 72.348,175.9 74.937,177.991 C75.474,178.427 75.185,178.192 75.802,178.696 C77.38,177.904 76.283,178.454 79.092,177.049 C84.185,174.505 89.323,171.961 94.184,169.585 C94.574,169.394 94.961,169.206 95.344,169.019 C104.112,164.744 110.849,161.573 114.862,159.878 C118.892,158.176 125.423,155.666 133.863,152.543 C134.402,152.343 134.949,152.141 135.501,151.937 C140.891,149.95 146.663,147.857 152.433,145.787 L154.888,144.909 C153.764,140.799 152.598,136.7 151.428,132.604 C147.625,119.364 143.581,106.127 139.475,93.789 C135.931,83.143 132.503,73.663 129.255,65.663 C128.783,64.499 128.315,63.369 127.853,62.274 C122.948,50.66 113.611,38.854 102.541,31.637 C96.908,27.983 90.63,25.326 83.97,24.286 C82.108,23.996 80.217,23.95 78.341,23.782 z" fill="#383838"/>
    <path d="M242.411,212.728 L242.318,212.771 L242.377,212.74 L242.411,212.728 z" fill="#383838"/>
    <path d="M15.222,162.195 L15.256,162.206 L15.318,162.235 L15.222,162.195 z" fill="#383838"/>
  </g>
</svg>
