<?xml version="1.0" encoding="UTF-8"?>
<!DOCTYPE svg PUBLIC "-//W3C//DTD SVG 1.1//EN" "http://www.w3.org/Graphics/SVG/1.1/DTD/svg11.dtd">
<svg version="1.1" xmlns="http://www.w3.org/2000/svg" xmlns:xlink="http://www.w3.org/1999/xlink" x="0" y="0" width="256" height="256" viewBox="0, 0, 256, 256">
  <g id="solid">
    <path d="M197.868,6.321 C200.7,6.412 202.6,7.813 203.757,10.339 C203.838,10.57 203.982,10.992 204.181,11.585 C204.507,12.561 204.87,13.674 205.261,14.904 C206.373,18.413 207.485,22.178 208.525,26.061 C209.687,30.403 210.687,34.627 211.474,38.643 C212.694,44.87 213.365,50.383 213.365,55.053 C213.365,61.045 212.83,68.702 211.677,80.481 C211.265,84.7 208.775,108.591 208.027,116.241 C203.593,161.609 201.765,199.699 203.21,241.397 C203.313,244.374 201.218,246.975 198.288,247.508 C192.876,248.493 185.956,249.108 177.833,249.426 C169.371,249.758 160.375,249.744 151.892,249.524 C150.576,249.49 149.389,249.453 148.348,249.417 C147.982,249.404 147.66,249.392 147.385,249.381 C147.217,249.374 147.103,249.37 147.037,249.367 C143.853,249.23 141.332,246.628 141.295,243.441 C141.294,243.387 141.294,243.387 141.291,243.11 C141.288,242.835 141.283,242.509 141.278,242.135 C141.264,241.066 141.246,239.825 141.224,238.426 C141.161,234.427 141.079,229.97 140.976,225.171 C140.683,211.46 140.28,197.75 139.752,184.963 C138.819,162.366 137.592,145.135 136.07,135.675 C134.8,127.788 132.679,118.963 130.398,112.329 C129.079,108.69 129.856,110.678 128,106.392 C126.144,110.678 126.921,108.69 125.602,112.329 C123.321,118.963 121.2,127.788 119.93,135.675 C118.408,145.135 117.182,162.366 116.248,184.963 C115.72,197.75 115.317,211.46 115.024,225.171 C114.921,229.97 114.839,234.427 114.776,238.426 C114.754,239.825 114.736,241.066 114.722,242.135 C114.717,242.509 114.712,242.835 114.709,243.11 C114.706,243.387 114.706,243.387 114.705,243.441 C114.668,246.628 112.147,249.23 108.963,249.367 C108.897,249.37 108.783,249.374 108.615,249.381 C108.34,249.392 108.018,249.404 107.652,249.417 C106.612,249.453 105.424,249.49 104.108,249.524 C95.625,249.744 86.629,249.758 78.167,249.426 C70.044,249.108 63.124,248.493 57.712,247.508 C54.782,246.975 52.687,244.374 52.79,241.397 C54.235,199.699 52.407,161.609 47.973,116.241 C47.225,108.591 44.735,84.7 44.323,80.481 C43.17,68.702 42.635,61.045 42.635,55.053 C42.635,50.383 43.306,44.87 44.526,38.643 C45.313,34.627 46.313,30.403 47.475,26.061 C48.515,22.178 49.627,18.413 50.739,14.904 C51.13,13.674 51.493,12.561 51.819,11.585 C52.018,10.992 52.162,10.57 52.243,10.339 C53.251,7.453 56.268,5.787 59.247,6.469 C59.335,6.489 59.582,6.541 59.993,6.621 C60.725,6.763 61.631,6.923 62.717,7.098 C65.883,7.607 69.831,8.121 74.602,8.602 C88.361,9.99 105.917,10.826 127.599,10.826 L128.4,10.826 C150.083,10.826 167.639,9.99 181.398,8.602 C186.17,8.121 190.117,7.607 193.283,7.098 C194.369,6.923 195.276,6.763 196.007,6.621 C196.419,6.541 196.665,6.489 196.753,6.469 L197.868,6.321 z M190.732,220.091 C179.462,221.38 167.956,222.064 156.649,220.762 C155.377,220.615 154.124,220.339 152.861,220.128 L152.973,224.913 C153.065,229.125 153.142,233.336 153.211,237.548 C161.009,237.698 160.774,237.732 171.148,237.615 C173.221,237.591 175.292,237.495 177.364,237.436 C181.934,237.227 186.516,237.019 191.056,236.43 C190.711,220.854 190.668,226.301 190.732,220.091 z M65.225,219.687 C65.29,226.302 65.251,220.721 64.944,236.43 C69.486,237.006 74.065,237.232 78.636,237.436 C86.683,237.769 94.739,237.703 102.789,237.548 C102.854,233.336 102.939,229.125 103.026,224.913 L103.127,220.61 C90.563,222.158 77.732,221.424 65.225,219.687 z M56.883,38.138 L56.302,40.951 C55.218,46.482 54.635,51.275 54.635,55.053 C54.635,60.545 55.149,67.902 56.266,79.312 C56.673,83.482 59.164,107.373 59.916,115.074 C62.439,140.269 64.211,165.543 64.944,190.857 C65.183,199.116 65.105,207.381 65.186,215.644 C73.216,216.862 81.352,217.415 89.473,217.412 C94.061,217.41 98.687,217.28 103.223,216.545 C103.434,205.849 103.85,195.158 104.258,184.468 C105.211,161.4 106.46,143.85 108.083,133.769 C109.456,125.236 111.736,115.75 114.254,108.427 C115.695,104.238 117.195,100.781 118.77,98.184 C121.195,94.183 123.959,91.696 128,91.696 C132.042,91.696 134.805,94.183 137.23,98.184 C138.805,100.781 140.305,104.238 141.746,108.427 C144.264,115.75 146.544,125.236 147.917,133.769 C149.54,143.85 150.789,161.4 151.742,184.468 C152.168,194.974 152.518,205.485 152.764,215.997 C160.379,217.744 168.244,217.48 175.994,217.279 C184.447,216.828 179.516,217.178 190.773,216.019 C190.417,182.29 193.039,148.635 196.084,115.073 C196.837,107.373 199.327,83.482 199.734,79.312 C200.851,67.902 201.365,60.545 201.365,55.053 C201.365,51.275 200.782,46.482 199.698,40.951 L199.123,38.168 C193.734,39.694 193.471,39.878 186.904,41.055 C163.268,45.29 135.069,45.785 111.084,44.941 C92.904,44.301 74.479,43.002 56.883,38.138 z M194.003,19.126 C190.221,19.734 186.41,20.134 182.602,20.541 C168.432,21.971 150.476,22.826 128.401,22.826 L127.599,22.826 C105.525,22.826 87.569,21.971 73.398,20.541 C69.587,20.161 65.783,19.7 61.997,19.126 C60.045,25.52 61.028,22.176 59.067,29.164 C58.1,32.885 58.515,31.188 57.796,34.25 C71.539,38.281 86.012,39.571 100.254,40.43 C115.362,41.34 130.531,41.471 145.656,40.928 C163.287,40.294 181.163,39.07 198.214,34.292 C197.485,31.188 197.904,32.899 196.933,29.164 C194.972,22.176 195.955,25.52 194.003,19.126 z" fill="#383838"/>
  </g>
</svg>
