<?xml version="1.0" encoding="UTF-8"?>
<!DOCTYPE svg PUBLIC "-//W3C//DTD SVG 1.1//EN" "http://www.w3.org/Graphics/SVG/1.1/DTD/svg11.dtd">
<svg version="1.1" xmlns="http://www.w3.org/2000/svg" xmlns:xlink="http://www.w3.org/1999/xlink" x="0" y="0" width="256" height="256" viewBox="0, 0, 256, 256">
  <g id="solid">
    <path d="M22.683,22.696 C28.173,17.597 35.33,11.379 43.406,12.24 L43.391,12.174 C44.729,11.868 46.554,11.801 48.727,12.255 C51.972,12.934 55.185,14.664 58.115,17.593 C60.498,19.976 62.161,21.648 69.365,28.9 C71.067,30.613 72.277,31.831 73.484,33.045 C84.157,43.78 90.197,49.794 92.407,51.838 C93.259,52.627 96.163,53.142 110.144,54.872 C113.222,55.253 115.655,55.595 117.973,55.991 C127.145,57.559 133.413,59.798 137.523,63.964 C143.515,70.036 186.469,112.973 237.595,164.042 C238.506,164.951 239.29,165.996 239.972,167.157 C241.168,169.192 242.024,171.525 242.648,174.074 C242.965,175.368 243.201,176.64 243.372,177.85 C243.477,178.594 243.539,179.176 243.567,179.549 L243.44,179.559 C246.934,195.544 232.991,212.35 222.889,222.902 C212.621,232.589 195.241,247.219 179.613,243.469 L179.61,243.507 C179.237,243.477 178.655,243.416 177.911,243.311 C176.701,243.14 175.429,242.904 174.135,242.587 C171.586,241.963 169.253,241.107 167.218,239.911 C166.057,239.229 165.013,238.445 164.103,237.534 C113.034,186.408 70.097,143.454 64.025,137.462 C59.859,133.352 57.62,127.084 56.052,117.912 C55.656,115.594 55.314,113.161 54.933,110.083 C53.203,96.102 52.688,93.198 51.9,92.346 C49.855,90.136 43.841,84.096 33.106,73.423 C31.892,72.216 30.674,71.006 28.961,69.304 C21.709,62.1 20.037,60.437 17.654,58.054 C14.725,55.124 12.995,51.911 12.316,48.666 C11.915,46.929 11.936,45.143 12.224,43.393 C11.529,35.335 17.455,28.158 22.683,22.696 z M49.636,26.084 C47.822,31.54 44.053,36.058 40.137,40.15 C36.104,44.085 31.563,47.741 26.181,49.611 C29.919,53.345 33.67,57.067 37.418,60.791 C39.132,62.494 40.351,63.705 41.567,64.914 C52.513,75.797 58.488,81.798 60.707,84.196 C62.994,86.667 64.156,90.12 65.088,95.376 C65.409,97.188 65.695,99.187 66.021,101.805 C66.167,102.973 66.709,107.534 66.842,108.609 C67.202,111.52 67.521,113.785 67.881,115.89 C69.05,122.73 70.612,127.104 72.453,128.921 C78.56,134.946 121.433,177.836 172.593,229.054 C172.735,229.196 172.971,229.373 173.297,229.565 C174.187,230.087 175.479,230.562 176.988,230.931 C177.865,231.146 178.751,231.311 179.586,231.428 C180.069,231.496 180.404,231.532 180.539,231.542 C182.758,232.505 186.53,232.479 192.224,230.137 C199.129,227.297 207.11,221.71 214.404,214.417 C221.697,207.123 227.601,199.264 230.124,192.237 C232.018,186.962 231.558,180.008 231.489,179.525 C231.372,178.69 231.207,177.804 230.992,176.927 C230.623,175.418 230.148,174.126 229.626,173.236 C229.434,172.91 229.257,172.674 229.115,172.532 C177.897,121.372 135.007,78.499 128.982,72.392 C127.165,70.551 122.791,68.989 115.951,67.82 C113.846,67.46 111.581,67.141 108.67,66.781 C107.595,66.648 103.034,66.106 101.866,65.96 C99.248,65.634 97.249,65.348 95.437,65.027 C90.181,64.095 86.728,62.933 84.257,60.646 C81.859,58.427 75.858,52.452 64.975,41.506 C63.766,40.29 62.555,39.071 60.852,37.357 C57.115,33.597 53.383,29.834 49.636,26.084 z M191.53,191.543 C200.932,182.142 211.473,175.192 220.509,172.362 C222.617,171.702 224.861,172.876 225.521,174.984 C226.182,177.092 225.008,179.336 222.9,179.997 C215.211,182.405 205.736,188.651 197.187,197.2 L193.87,200.689 C187.743,207.721 182.075,215.415 179.534,224.508 C179.001,226.652 176.831,227.958 174.687,227.424 C172.543,226.891 171.238,224.721 171.771,222.577 C174.119,213.135 181.388,201.685 191.53,191.543 z M28.34,28.353 C24.893,31.799 22.261,35.558 20.94,38.771 C20.37,40.157 20.091,41.337 20.085,42.183 C20.106,42.601 20.079,42.43 20.134,42.698 C20.402,42.754 20.232,42.727 20.65,42.747 C21.496,42.741 22.675,42.462 24.061,41.893 C27.274,40.571 31.034,37.939 34.48,34.493 C37.926,31.047 40.558,27.287 41.88,24.074 C42.449,22.688 42.728,21.509 42.734,20.663 C42.714,20.245 42.741,20.415 42.685,20.147 C42.417,20.091 42.588,20.119 42.17,20.098 C41.324,20.104 40.144,20.383 38.758,20.953 C35.545,22.274 31.786,24.906 28.34,28.353 z" fill="#383838"/>
  </g>
</svg>
