<?xml version="1.0" encoding="UTF-8"?>
<!DOCTYPE svg PUBLIC "-//W3C//DTD SVG 1.1//EN" "http://www.w3.org/Graphics/SVG/1.1/DTD/svg11.dtd">
<svg version="1.1" xmlns="http://www.w3.org/2000/svg" xmlns:xlink="http://www.w3.org/1999/xlink" x="0" y="0" width="256" height="256" viewBox="0, 0, 256, 256">
  <g id="path" display="none">
    <path d="M94.249,96.834 C65.776,129.504 30.275,144.443 14.955,130.201 C-0.364,115.96 10.299,77.93 38.772,45.259 C67.245,12.589 102.746,-2.351 118.065,11.891 C133.385,26.133 122.722,64.163 94.249,96.834 z" fill-opacity="0" stroke="#000000" stroke-width="12"/>
    <path d="M226.234,221.81 C205.157,245.993 178.879,257.052 167.539,246.51 C156.199,235.967 164.092,207.817 185.168,183.634 C206.245,159.45 232.523,148.392 243.863,158.934 C255.203,169.476 247.31,197.627 226.234,221.81 z" fill-opacity="0" stroke="#000000" stroke-width="12"/>
    <path d="M118.065,11.891 L243.863,158.934" fill-opacity="0" stroke="#000000" stroke-width="12"/>
    <path d="M14.955,130.201 L167.539,246.51" fill-opacity="0" stroke="#000000" stroke-width="12"/>
    <path d="M99.954,89.132 L132.724,114.192 L152.642,97.486 L121.8,50.58" fill-opacity="0" stroke="#000000" stroke-width="12"/>
    <path d="M132.724,114.192 L141.077,148.889 L174.489,135.594 L175.774,165.595" fill-opacity="0" stroke="#000000" stroke-width="12"/>
  </g>
  <g id="レイヤー_2">
    <path d="M101.653,-0.113 L104.482,-0.029 C111,0.322 116.505,2.966 121.57,6.902 C123.602,8.978 122.753,7.954 124.195,9.91 L247.766,154.351 C262.16,169.765 250.869,195.206 241.529,209.969 C236.864,217.343 234.996,219.34 230.176,225.158 C217.627,239.626 183.755,268.023 163.292,250.665 L12.959,136.072 C11.432,135.113 12.359,135.752 10.289,134.001 C-8.236,116.779 3.328,75.535 33.668,40.723 C51.402,20.897 74.115,2.006 101.653,-0.113 z M130.195,35.383 C130.039,39.977 128.795,44.425 127.648,48.841 L157.075,93.594 L160.009,98.056 L155.917,101.488 L138.846,115.806 L144.709,140.16 L171.69,129.424 L179.541,126.3 L179.902,134.743 L181.188,164.744 L169.199,165.257 L168.275,143.698 L142.714,153.869 L136.282,156.428 L134.662,149.699 L126.807,117.07 L100.763,97.154 L98.191,100.181 C82.122,117.852 62.272,135.436 38.062,140.119 C164.071,236.143 163.02,235.36 171.043,241.521 C178.989,248.907 201.999,239.224 221.13,217.273 C240.339,195.232 247.331,170.295 239.197,162.734 L130.195,35.383 z M102.93,11.873 C78.683,13.197 58.139,31.327 42.714,48.607 C29.886,63.937 17.938,81.669 14.19,101.692 C12.717,109.561 12.434,118.892 18.335,125.081 L20.162,126.474 C42.041,138.195 76.138,106.868 89.145,92.297 C95.486,84.481 92.407,88.461 98.381,80.356 L131.969,105.911 L144.114,95.725 L122.514,62.875 L114.664,50.138 C116.923,42.933 115.921,46.575 117.669,39.211 C119.028,31.953 119.284,24.028 115.043,17.673 L113.228,15.551 C110.383,12.89 106.637,12.314 102.931,11.873 L102.93,11.873 z" fill="#000000"/>
    <path d="M224.137,152.115 C226.186,152.161 227.524,153.193 228.237,155.073 C228.809,157.207 227.543,159.4 225.41,159.973 C213.863,163.07 200.015,172.686 188.184,186.262 C175.907,200.349 167.967,216.217 166.572,228.619 C166.325,230.815 164.345,232.394 162.15,232.147 C159.955,231.9 158.375,229.921 158.622,227.725 C160.216,213.552 168.882,196.233 182.153,181.005 C194.956,166.315 210.104,155.795 223.337,152.246 L224.137,152.115 z" fill="#000000"/>
  </g>
</svg>
