<?xml version="1.0" encoding="UTF-8"?>
<!DOCTYPE svg PUBLIC "-//W3C//DTD SVG 1.1//EN" "http://www.w3.org/Graphics/SVG/1.1/DTD/svg11.dtd">
<svg version="1.1" xmlns="http://www.w3.org/2000/svg" xmlns:xlink="http://www.w3.org/1999/xlink" x="0" y="0" width="256" height="256" viewBox="0, 0, 256, 256">
  <g id="solid">
    <path d="M34.813,34.573 C48.519,21.287 71.381,4.694 91.817,8.947 L99.023,11.494 L125.428,21.479 C126.224,21.78 126.947,22.247 127.549,22.849 L245.437,140.737 C246.695,141.995 247.33,143.746 247.171,145.518 C247.159,145.652 247.136,145.92 247.105,146.303 C247.053,146.95 246.998,147.678 246.944,148.467 C246.791,150.719 246.674,153.005 246.617,155.175 C246.595,155.979 246.583,156.752 246.579,157.489 C246.566,160.279 246.69,162.459 246.924,163.642 C249.946,178.903 239.208,203.005 220.947,221.265 C202.69,239.523 178.606,250.247 163.342,247.225 C162.158,246.991 159.978,246.867 157.189,246.88 C156.451,246.883 155.678,246.896 154.875,246.917 C152.705,246.975 150.418,247.092 148.166,247.245 C147.377,247.299 146.65,247.353 146.002,247.405 C145.619,247.436 145.351,247.459 145.218,247.471 C143.446,247.631 141.695,246.996 140.437,245.738 L22.548,127.85 C21.946,127.248 21.48,126.525 21.179,125.729 L11.193,99.324 C9.916,95.679 8.93,91.579 8.66,87.673 C7.289,67.887 21.775,47.96 34.813,34.573 z M128.611,40.882 C127.798,63.355 113.225,83.441 98.111,98.954 C84.292,112.537 61.388,129.236 41.111,129.442 L146.969,235.3 L147.351,235.273 C149.757,235.109 152.203,234.984 154.556,234.922 C155.444,234.898 156.304,234.884 157.132,234.88 C160.665,234.863 163.508,235.025 165.672,235.454 C176.354,237.568 196.761,228.482 212.462,212.78 C228.167,197.076 237.267,176.65 235.153,165.973 C234.725,163.809 234.563,160.965 234.579,157.433 C234.583,156.604 234.597,155.744 234.621,154.856 C234.684,152.504 234.809,150.058 234.972,147.652 L234.999,147.27 L128.611,40.882 z M27.731,109.13 L31.946,120.277 L32.135,120.466 C35.689,121.733 39.694,121.731 43.397,121.292 C62.005,119.086 79.466,105.963 92.455,93.297 C103.676,81.758 113.854,68.3 118.614,52.706 C120.636,46.082 121.819,38.589 119.227,31.963 L109.477,28.276 C111.715,49.312 97.494,69.076 83.591,83.35 C69.024,97.214 49.111,112.024 27.731,109.13 z M43.299,43.058 C23.37,62.986 15.668,86.496 23.668,94.496 C31.667,102.495 55.177,94.793 75.106,74.865 C95.034,54.936 102.736,31.426 94.737,23.427 C86.737,15.427 63.227,23.129 43.299,43.058 z" fill="#1C1C1C"/>
    <path d="M43.416,83.728 C39.002,88.141 33.256,89.551 30.581,86.876 C27.906,84.201 29.315,78.454 33.729,74.041 C38.142,69.627 43.889,68.218 46.564,70.893 C49.239,73.567 47.829,79.314 43.416,83.728 z" fill="#1C1C1C"/>
  </g>
</svg>
