<?xml version="1.0" encoding="UTF-8"?>
<!DOCTYPE svg PUBLIC "-//W3C//DTD SVG 1.1//EN" "http://www.w3.org/Graphics/SVG/1.1/DTD/svg11.dtd">
<svg version="1.1" xmlns="http://www.w3.org/2000/svg" xmlns:xlink="http://www.w3.org/1999/xlink" x="0" y="0" width="256" height="256" viewBox="0, 0, 256, 256">
  <g id="path" display="none">
    <path d="M72.036,186.865 C74.086,179.136 77.141,170.998 81.138,162.669" fill-opacity="0" stroke="#000000" stroke-width="6" stroke-linecap="round"/>
    <path d="M154.072,145.553 C110.207,193.66 55.341,215.055 31.526,193.34 C7.711,171.624 23.964,115.022 67.829,66.915 C111.694,18.808 166.56,-2.587 190.375,19.128 C214.191,40.843 197.937,97.445 154.072,145.553 z" fill-opacity="0" stroke="#000000" stroke-width="12"/>
    <path d="M89.589,4.428 C96.377,4.463 101.251,6.068 106.794,9.911 L107.777,10.703 L246.91,134.08 C264.205,149.422 254.498,185.654 227.644,215.94 C200.783,246.223 165.981,260.194 148.677,244.855 L9.551,121.48 L9.551,121.481 C-7.753,106.142 1.954,69.906 28.808,39.618 C42.571,24.706 59.439,10.343 79.729,5.65 C84.259,4.602 85.038,4.73 89.589,4.428 z M116.388,33.752 C115.234,56.094 102.774,76.048 88.507,92.556 C73.838,108.795 55.481,123.319 33.46,127.27 L156.328,236.227 C167.239,245.899 195.839,234.418 219.016,208.289 C242.186,182.157 250.164,152.382 239.258,142.708 L116.388,33.752 z M90.668,15.953 C69.569,16.716 50.986,32.366 37.435,47.269 C14.266,73.402 6.289,103.179 17.201,112.851 L17.201,112.851 C28.105,122.518 56.713,111.033 79.88,84.904 C103.05,58.786 111.031,29.003 100.127,19.332 C96.967,16.692 94.587,16.415 90.668,15.953 z M31.192,82.736 C34.538,72.477 46.823,54.935 54.134,57.318 C61.447,59.708 61.015,81.122 57.665,91.381 C54.313,101.649 45.679,108.037 38.362,105.646 C31.05,103.261 27.84,93.005 31.192,82.736" fill="#000000" display="none"/>
    <g>
      <path d="M130.455,127.993 C88.634,157.483 30.166,162.297 11,136.386 C-7.034,112.006 33.162,75.747 58.513,57.65 C111.501,19.825 161.63,-3.101 184.34,19.751 C213.655,49.25 161.63,106.011 130.455,127.993 z" fill="#FFFFFF"/>
      <path d="M130.455,127.993 C88.634,157.483 30.166,162.297 11,136.386 C-7.034,112.006 33.162,75.747 58.513,57.65 C111.501,19.825 161.63,-3.101 184.34,19.751 C213.655,49.25 161.63,106.011 130.455,127.993 z" fill-opacity="0" stroke="#000000" stroke-width="12"/>
    </g>
    <path d="M190.375,19.128 L239.733,64.105 C263.405,85.976 246.779,142.47 202.599,190.288 C158.418,238.106 103.413,259.139 79.741,237.268 L31.526,193.34" fill-opacity="0" stroke="#000000" stroke-width="12"/>
    <path d="M32.587,106.774 C23.224,112.854 19.094,123.166 23.363,129.809 C27.633,136.46 38.674,136.912 48.039,130.833 C57.394,124.76 71.699,107.841 67.433,101.193 C63.163,94.552 41.941,100.698 32.587,106.774" fill-opacity="0" stroke="#000000" stroke-width="8" stroke-linecap="round" stroke-linejoin="round"/>
  </g>
  <g id="レイヤー_2">
    <path d="M164.688,4.356 C164.688,4.356 153.637,4.461 164.688,4.355 C175.74,4.25 185.305,7.536 193.953,14.41 L193.953,14.41 L193.953,14.411 L193.954,14.411 L193.956,14.413 L243.341,59.415 C270.29,84.314 252.685,144.135 206.542,194.077 C160.399,244.019 102.155,266.291 75.237,241.421 L27.021,197.492 L27.021,197.492 L27.02,197.49 C13.642,185.132 12.508,165.729 15.619,148.867 C11.632,146.612 8.563,143.182 5.713,139.672 C-4.499,125.867 -0.62,108.929 13.253,90.74 C23.297,77.571 38.412,64.013 54.564,52.484 C83.305,31.967 108.909,17.407 130.357,9.993 C137.492,7.549 146.251,5.449 152.343,4.756 C158.435,4.063 164.688,4.356 164.688,4.356 z M206.592,42.162 C207.272,47.295 206.803,53.877 206.106,58.965 C201.407,93.252 180.499,124.046 158.042,149.312 C138.773,170.035 116.299,188.719 89.976,199.744 C79.616,204.084 67.266,208.173 55.847,207.522 L83.349,232.578 C103.745,251.422 155.51,231.627 197.728,185.934 C239.946,140.24 255.593,87.073 235.228,68.257 L206.592,42.162 z M192.977,64.194 C190.946,69.692 187.714,74.676 184.667,79.649 C172.153,99.146 151.756,119.705 133.449,132.614 C103.164,153.073 62.897,166.491 26.821,154.532 C25.07,167.064 25.829,179.169 35.105,188.623 C55.624,207.333 107.258,187.198 149.175,141.227 C168.434,118.858 186.907,93.713 192.977,64.194 z M161.32,16.525 C127.991,16.925 104.576,33.471 61.536,62.25 C45.951,72.671 31.998,85.951 22.794,98.018 C11.783,112.454 9.117,124.096 15.36,132.536 C17.502,135.14 16.378,133.975 18.691,136.069 C23.607,140.953 25.254,140.379 29.271,142.662 C53.528,152.307 84.292,145.004 106.96,134.215 C113.821,130.949 120.257,127.067 126.534,122.807 C143.629,110.753 162.933,91.295 174.568,73.167 C188.305,51.766 190.63,34.464 179.621,23.698 C175.343,19.515 168.97,16.433 161.32,16.525 z" fill="#000000"/>
    <path d="M59.158,94.292 C63.683,94.214 68.023,95.233 70.799,99.032 C73.999,104.019 71.689,110.83 66.084,118.574 C61.673,124.669 55.421,130.81 50.217,134.188 C39.19,141.346 25.657,140.787 19.998,131.972 C14.348,123.178 19.397,110.57 30.409,103.419 L30.409,103.419 C36.725,99.417 43.859,96.993 51.098,95.299 C53.746,94.665 56.451,94.468 59.158,94.292 z M59.358,102.321 C54.325,102.765 56.525,102.44 52.735,103.13 C46.32,104.472 39.101,107.313 34.766,110.128 L34.766,110.128 L34.766,110.129 C27.05,115.139 23.841,123.153 26.729,127.648 C29.606,132.129 38.152,132.482 45.861,127.478 C50.198,124.662 55.746,119.213 59.604,113.883 C61.594,111.133 63.023,108.574 63.73,106.49 C64.31,104.779 64.312,103.735 64.068,103.356 C63.828,102.983 62.897,102.561 61.12,102.391 L59.358,102.321 z" fill="#000000"/>
  </g>
</svg>
