<?xml version="1.0" encoding="UTF-8"?>
<!DOCTYPE svg PUBLIC "-//W3C//DTD SVG 1.1//EN" "http://www.w3.org/Graphics/SVG/1.1/DTD/svg11.dtd">
<svg version="1.1" xmlns="http://www.w3.org/2000/svg" xmlns:xlink="http://www.w3.org/1999/xlink" x="0" y="0" width="256" height="256" viewBox="0, 0, 256, 256">
  <g id="レイヤー_2">
    <path d="M122.146,5.159 C124.15,5.188 125.418,6.163 126.817,7.444 C148.862,35.551 157.053,53.017 155.806,75.774 C154.885,92.575 146.724,109.612 125.424,140.378 C116.095,153.854 112.971,163.257 112.959,174.381 C112.955,177.638 113.088,179.665 113.696,186.972 C114.337,194.688 114.569,199.289 114.446,205.086 C114.334,210.369 107.941,212.938 104.204,209.202 C97.285,202.282 94.731,199.653 90.866,195.291 C82.387,185.72 76.064,176.538 72.012,166.944 C66.873,154.773 65.776,142.607 69.546,130.58 C70.067,128.918 70.65,127.239 71.296,125.532 C73.603,119.434 76.55,113.31 81.024,104.977 C80.733,105.52 90.099,88.396 92.818,83.148 C105.292,59.065 112.701,37.63 116.143,10.394 C116.704,7.202 118.384,6.007 121.326,5.194 L122.146,5.159 z M125.801,26.052 C122.028,48.065 113.537,68.857 103.473,88.667 C100.681,94.058 91.248,111.304 91.596,110.654 C87.349,118.564 84.603,124.27 82.519,129.779 C81.953,131.274 81.447,132.734 80.997,134.169 C75.687,151.111 82.908,168.213 99.848,187.333 C101.398,189.069 100.722,188.327 101.866,189.569 L101.737,187.966 C101.098,180.284 100.955,178.096 100.959,174.368 C100.974,160.731 104.881,148.97 115.558,133.548 C135.677,104.486 143.059,89.077 143.824,75.118 C145.015,56.803 136.284,40.43 125.801,26.052 z" fill="#383838"/>
    <path d="M146.564,126.353 C148.74,126.755 147.838,126.438 149.331,127.107 C151.054,128.047 159.336,132.507 161.508,133.7 C165.943,136.137 169.254,138.069 172.172,139.966 C182.896,146.937 188.419,153.744 188.688,162.885 C189.14,178.253 167.123,201.048 134.158,222.098 C128.538,225.687 122.133,218.802 126.119,213.455 C132.405,205.023 137.598,189.222 140.39,171.289 C142.889,155.246 142.952,140.063 140.846,134.498 C139.709,131.231 141.39,127.58 144.8,126.591 C145.37,126.426 145.976,126.433 146.564,126.353 z M154.205,143.387 C154.735,153.338 153.692,163.301 152.248,173.135 C150.828,181.856 149.05,190.571 146.181,198.944 C154.864,192.21 163.409,185.017 170.265,176.365 C173.212,172.646 176.516,168.175 176.693,163.238 C176.568,158.989 173.386,155.068 165.632,150.027 C163.008,148.322 159.927,146.524 155.73,144.217 C154.912,143.769 155.419,144.047 154.205,143.387 z" fill="#383838"/>
    <path d="M91.517,209.104 C92.962,209.14 93.954,209.764 94.858,210.82 C96.12,212.634 95.672,215.127 93.858,216.388 L89.96,219.099 L130.011,242.223 L169.492,219.429 L165.184,216.735 C163.312,215.564 162.743,213.096 163.914,211.223 C165.086,209.35 167.554,208.781 169.426,209.952 L179.375,216.174 C181.933,217.774 181.867,221.522 179.254,223.03 L132.011,250.305 C130.774,251.02 129.249,251.02 128.011,250.305 L80.503,222.877 C77.965,221.411 77.813,217.802 80.22,216.129 L89.291,209.82 C90.451,209.175 89.735,209.483 91.517,209.104 z" fill="#383838"/>
  </g>
</svg>
