<?xml version="1.0" encoding="UTF-8"?>
<!DOCTYPE svg PUBLIC "-//W3C//DTD SVG 1.1//EN" "http://www.w3.org/Graphics/SVG/1.1/DTD/svg11.dtd">
<svg version="1.1" xmlns="http://www.w3.org/2000/svg" xmlns:xlink="http://www.w3.org/1999/xlink" x="0" y="0" width="256" height="256" viewBox="0, 0, 256, 256">
  <g id="レイヤー_1">
    <path d="M39.296,1.081 C43.599,1.304 47.914,1.36 52.206,1.75 C68.671,3.246 86.368,8.267 99.553,18.576 C93.667,33.871 84.539,47.771 73.501,59.837 C80.28,69.152 88.105,77.678 95.882,86.163 C109.82,73.228 122.741,58.835 138.246,47.7 C126.953,63.224 113.672,77.24 100.468,91.142 C109.868,101.313 119.456,111.309 129.068,121.28 C142.276,109.157 154.39,95.425 169.159,85.107 C158.673,99.819 146.257,113.128 133.79,126.174 C142.398,135.063 151.06,143.899 159.748,152.71 C169.438,143.894 178.299,133.785 189.26,126.469 C181.835,137.39 172.752,147.135 163.726,156.745 C174.277,167.419 184.865,178.058 195.503,188.646 C200.698,186.982 206.117,186.303 211.506,185.666 C214.122,185.436 216.754,185.455 219.378,185.349 C231.228,185.475 242.647,188.69 252.179,195.798 C253.713,197.255 255.423,198.881 255.442,201.145 C254.639,207.564 236.587,212.779 224.552,224.011 C213.319,236.047 208.104,254.099 201.685,254.901 C196.461,254.378 193.089,247.526 191.189,243.358 C184.48,228.636 184.962,212.193 188.664,196.778 C177.83,186.027 166.951,175.321 156.048,164.64 C149.328,170.517 135.865,186.443 127.91,189.645 C129.883,184.46 134.554,179.931 138.097,175.852 C142.595,170.673 147.242,165.62 151.956,160.639 C143.132,151.988 134.248,143.398 125.361,134.81 C116.277,143.926 107.236,153.117 97.568,161.624 C94.269,164.526 90.785,167.893 86.725,169.72 C89.788,162.896 95.749,157.017 100.657,151.483 C107.106,144.213 113.717,137.09 120.418,130.052 C110.449,120.478 100.461,110.922 90.33,101.521 C80.635,111.241 70.983,121.03 60.715,130.152 C57.163,133.308 53.446,136.927 49.114,139.01 C52.648,131.722 58.985,125.466 64.338,119.485 C71.195,111.824 78.203,104.301 85.307,96.869 C76.473,89.459 68.615,80.571 58.938,74.186 C47.02,84.419 33.832,93.95 18.899,99.23 C5.156,74.503 -4.211,45.122 3.124,19.193 C5.822,19.354 7.677,21.566 10.129,19.932 C11.526,19 8.088,10.406 6.508,8.343 L8.322,6.177 C15.178,3.737 22.375,2.1 29.641,1.534 C32.853,1.283 36.078,1.232 39.296,1.082 z" fill="#F42300"/>
  </g>
</svg>
