<?xml version="1.0" encoding="UTF-8"?>
<!DOCTYPE svg PUBLIC "-//W3C//DTD SVG 1.1//EN" "http://www.w3.org/Graphics/SVG/1.1/DTD/svg11.dtd">
<svg version="1.1" xmlns="http://www.w3.org/2000/svg" xmlns:xlink="http://www.w3.org/1999/xlink" x="0" y="0" width="256" height="256" viewBox="0, 0, 256, 256">
  <g id="レイヤー_2">
    <path d="M89.638,209.104 C91.084,209.14 92.075,209.764 92.98,210.82 C94.241,212.634 93.793,215.127 91.98,216.388 L88.081,219.099 L128.133,242.223 L167.613,219.429 L163.306,216.735 C161.433,215.564 160.864,213.096 162.035,211.223 C163.207,209.35 165.675,208.781 167.548,209.952 L177.496,216.174 C180.054,217.774 179.988,221.522 177.376,223.03 L130.133,250.305 C128.895,251.02 127.37,251.02 126.133,250.305 L78.625,222.877 C76.086,221.411 75.934,217.802 78.341,216.129 L87.412,209.82 C88.572,209.175 87.856,209.483 89.638,209.104 z" fill="#383838"/>
    <path d="M120.268,5.159 C122.271,5.188 123.54,6.163 124.938,7.444 C146.983,35.551 155.174,53.017 153.927,75.774 C153.758,80 152.936,84.148 151.812,88.211 L215.011,25.012 L231.982,41.983 L147.043,126.922 L147.452,127.107 C149.176,128.047 157.457,132.507 159.63,133.7 C164.065,136.137 167.376,138.069 170.294,139.966 C181.017,146.937 186.54,153.744 186.809,162.885 C187.261,178.253 165.245,201.048 132.28,222.098 C126.659,225.687 120.254,218.802 124.24,213.455 C130.526,205.023 135.719,189.222 138.512,171.289 C139.737,163.121 140.569,154.861 140.463,146.592 C140.414,142.709 140.283,138.608 139.088,134.876 L112.951,161.013 C111.515,165.332 111.252,169.875 111.08,174.381 C111.077,177.638 111.21,179.665 111.817,186.972 C112.458,194.688 112.69,199.289 112.567,205.086 C112.455,210.369 106.062,212.938 102.326,209.202 C95.406,202.282 92.852,199.653 88.987,195.291 C85.341,191.06 86.878,192.956 84.299,189.665 L40.989,232.976 L24.018,216.005 L71.054,168.97 L70.134,166.944 C64.994,154.773 63.897,142.607 67.667,130.58 C68.188,128.918 68.771,127.239 69.417,125.532 C71.724,119.434 74.671,113.31 79.146,104.977 C78.854,105.52 88.22,88.396 90.939,83.148 C103.413,59.065 110.822,37.63 114.265,10.394 C114.825,7.202 116.506,6.007 119.447,5.194 L120.268,5.159 z M152.327,143.387 C152.857,153.338 151.813,163.301 150.369,173.135 C148.949,181.856 147.171,190.571 144.302,198.944 C152.985,192.21 161.53,185.017 168.386,176.365 C171.334,172.646 174.637,168.175 174.814,163.238 C174.689,158.989 171.507,155.068 163.753,150.027 C161.13,148.322 158.049,146.524 153.851,144.217 C153.033,143.769 153.541,144.047 152.327,143.387 z M99.082,174.882 L92.848,181.116 C95.867,185.009 94.177,182.922 97.969,187.333 C99.519,189.069 98.843,188.327 99.987,189.569 L99.858,187.966 C99.496,183.611 99.102,179.255 99.082,174.882 z M123.922,26.052 C120.149,48.065 111.658,68.857 101.594,88.667 C98.802,94.058 89.369,111.304 89.718,110.654 C85.47,118.564 82.725,124.27 80.64,129.779 C80.075,131.274 79.568,132.734 79.118,134.169 C76.715,141.825 77.081,148.972 79.109,156.653 C79.391,157.722 79.877,158.726 80.261,159.762 L127.354,112.67 C134.45,101.15 140.792,88.787 141.945,75.118 C143.136,56.803 134.406,40.43 123.922,26.052 z" fill="#383838"/>
  </g>
</svg>
