<?xml version="1.0" encoding="UTF-8"?>
<!DOCTYPE svg PUBLIC "-//W3C//DTD SVG 1.1//EN" "http://www.w3.org/Graphics/SVG/1.1/DTD/svg11.dtd">
<svg version="1.1" xmlns="http://www.w3.org/2000/svg" xmlns:xlink="http://www.w3.org/1999/xlink" x="0" y="0" width="256" height="256" viewBox="0, 0, 256, 256">
  <g id="レイヤー_1" display="none">
    <path d="M158.69,0.676 C160.423,0.903 161.536,1.778 162.49,3.162 C180.964,30.684 198.165,56.887 214.396,83.693 C234.609,117.434 254.721,163 254.721,163 C254.721,163 213.305,194.339 178.883,214.498 C144.461,234.657 94.811,255.324 94.811,255.324 C94.811,255.324 58.903,201.3 45.582,178.228 C2.151,96.185 2.634,96.73 1.857,95.579 C0.592,93.227 1.472,90.296 3.824,89.031 C6.265,87.717 9.029,85.559 12.745,82.116 C15.093,79.941 25.011,70.201 24.891,70.317 C37.806,57.809 49.211,48.376 64.079,38.891 C66.39,37.417 68.751,35.968 71.165,34.546 C82.668,27.768 94.061,22.58 106.449,18.164 C111.271,16.445 116.087,14.891 121.833,13.163 C124.199,12.451 133.323,9.775 135.502,9.117 C144.946,6.263 150.834,4.055 155.924,1.256 C157.4,0.627 156.5,0.906 158.69,0.676 z M150.556,14.252 C146.558,15.871 142.417,17.102 138.299,18.373 C136.071,19.046 126.94,21.724 124.619,22.422 C119.016,24.108 114.346,25.615 109.696,27.272 C97.858,31.492 87.018,36.429 76.074,42.877 C73.759,44.241 71.495,45.63 69.28,47.043 C55.033,56.132 44.104,65.172 31.618,77.263 C27.803,81.004 23.991,84.749 20.13,88.442 C21.749,87.756 20.513,88.255 23.935,87.216 C26.018,86.651 35.955,84.269 35.182,84.459 C40.721,83.099 45.452,81.799 50.477,80.194 C64.081,75.85 77.611,69.897 92.042,61.394 C97.233,58.335 102.169,55.128 106.932,51.743 C116.024,45.282 123.705,38.83 133.284,29.977 C134.69,28.678 141.759,22.069 143.66,20.325 C147.7,16.662 145.412,18.698 150.556,14.252 z" fill="#000000"/>
  </g>
  <g id="path" display="none">
    <path d="M9.916,93.663 C26.46,83.65 49.322,52.189 78.244,36.819 C104.143,23.055 141.137,19.214 158.723,8.187 C173.83,30.583 193.679,59.178 209.796,87.892 C224.71,114.462 236.494,138.192 247.327,161.794 C233.398,172.241 189.818,201.678 175.361,209.772 C160.903,217.865 121.107,236.283 98.364,248.464 C86.284,227.771 71.682,209.776 55.477,182.318 C44.879,164.36 16.881,108.466 9.916,93.663 z" fill-opacity="0" stroke="#F42300" stroke-width="12" stroke-linejoin="round"/>
    <path d="M159.364,10.952 C138.549,25.72 128.251,48.769 92.459,68.629 C48.865,92.819 40.468,83.587 9.916,93.663" fill-opacity="0" stroke="#F42300" stroke-width="12"/>
  </g>
  <g id="レイヤー_3">
    <path d="M159.607,2.272 C161.34,2.52 162.545,3.624 163.697,4.832 C165.211,7.077 174.481,20.759 177.309,24.959 C182.918,33.287 187.601,40.348 192.093,47.285 C200.894,60.878 208.429,73.198 215.028,84.956 C229.014,109.873 240.874,133.353 252.78,159.291 C253.959,161.858 253.187,164.899 250.927,166.594 C235.307,178.309 191.923,207.376 178.291,215.007 C174.223,217.285 168.194,220.376 159.403,224.73 C155.98,226.425 152.305,228.23 147.096,230.779 C145.649,231.487 140.389,234.059 140.583,233.964 C137.939,235.257 135.931,236.24 133.972,237.201 C133.19,237.585 132.434,237.956 131.697,238.318 C118.1,244.998 108.666,249.752 101.196,253.753 C98.351,255.277 94.809,254.276 93.182,251.489 C90.727,247.283 88.053,242.997 84.941,238.242 C79.513,230.16 74.116,222.053 68.573,214.048 C62.161,204.696 56.157,195.08 50.31,185.368 C41.217,169.961 14.269,117.005 4.487,96.218 C3.179,93.439 4.181,90.121 6.809,88.53 C10.597,86.237 15.097,82.465 21.494,76.364 C23.237,74.701 36.135,62.045 40.302,58.126 C53.11,46.082 63.944,37.624 75.428,31.521 C84.215,26.851 94.265,23.127 107.746,19.159 C110.643,18.307 113.591,17.471 117.508,16.384 C118.219,16.187 118.945,15.986 119.905,15.721 C119.79,15.752 121.742,15.213 122.277,15.065 C124.187,14.537 125.578,14.15 126.931,13.77 C141.67,9.629 149.771,6.719 155.536,3.104 C157.279,2.236 156.209,2.642 158.846,2.188 L159.607,2.272 z M158.781,18.98 C154.628,22.256 150.932,26.063 147.265,29.863 C145.797,31.404 137.886,39.922 135.448,42.462 C130.452,47.666 125.951,51.984 121.059,56.144 C113.333,62.713 104.988,68.539 95.37,73.875 C72.118,86.778 59.356,90.805 39.528,93.534 C39.142,93.588 38.768,93.639 38.192,93.717 C31.531,94.6 24.879,95.621 18.393,97.407 C32.01,124.941 45.483,152.542 60.644,179.269 C65.483,187.572 70.747,195.613 76.033,203.635 C82.309,213.007 88.784,222.246 94.981,231.67 C98.435,237.005 96.559,234.061 100.579,240.521 C109.12,236.062 117.761,231.799 126.405,227.547 C127.145,227.184 127.904,226.812 128.687,226.427 C130.652,225.464 132.663,224.479 135.311,223.184 C135.118,223.278 140.377,220.707 141.822,220 C147.015,217.459 150.675,215.661 154.077,213.976 C162.695,209.708 168.589,206.686 172.43,204.536 C195.44,190.534 218.031,175.717 239.816,159.864 C229.079,136.346 217.099,113.43 204.564,90.829 C198.101,79.315 190.694,67.204 182.02,53.807 C177.572,46.938 172.927,39.934 167.356,31.662 C160.975,22.219 163.834,26.445 158.781,18.98 z M136.868,23.403 L130.176,25.322 C128.805,25.708 127.4,26.098 125.476,26.631 C124.94,26.779 122.987,27.319 123.102,27.287 C122.146,27.551 121.424,27.751 120.717,27.947 C116.855,29.019 113.961,29.839 111.134,30.671 C98.363,34.429 88.988,37.904 81.06,42.117 C70.699,47.624 60.621,55.492 48.523,66.868 C43.135,72 37.825,77.212 32.498,82.405 C35.032,82.034 33.675,82.228 36.569,81.827 C37.141,81.75 37.511,81.699 37.892,81.646 C56.309,79.112 67.654,75.532 89.548,63.382 C98.458,58.439 106.152,53.067 113.285,47.002 C117.836,43.132 122.055,39.085 126.791,34.151 C130.173,30.59 133.515,26.991 136.868,23.403 z" fill="#000000"/>
    <path d="M68.571,214.046 L68.573,214.048 L68.637,214.145 L68.571,214.046 z" fill="#000000"/>
  </g>
</svg>
