<?xml version="1.0" encoding="UTF-8"?>
<!DOCTYPE svg PUBLIC "-//W3C//DTD SVG 1.1//EN" "http://www.w3.org/Graphics/SVG/1.1/DTD/svg11.dtd">
<svg version="1.1" xmlns="http://www.w3.org/2000/svg" xmlns:xlink="http://www.w3.org/1999/xlink" x="0" y="0" width="256" height="256" viewBox="0, 0, 256, 256">
  <g id="レイヤー_1">
    <path d="M127.125,13.703 C128.181,13.751 127.666,13.736 128.67,13.749 L129.615,14.14 L222.754,67.913 C223.957,68.607 224.697,69.89 224.697,71.278 L224.697,107.689 C224.697,109.077 223.957,110.36 222.754,111.054 L130.269,164.45 C129.067,165.144 127.586,165.144 126.384,164.45 L1.713,92.471 C-0.877,90.976 -0.877,87.237 1.713,85.741 L125.73,14.14 C126.204,13.92 126.603,13.743 127.125,13.703 z M127.673,21.992 L11.427,89.106 L128.326,156.598 L213.203,107.594 L187.336,92.66 C184.746,91.165 184.746,87.425 187.336,85.93 L212.876,71.184 L127.673,21.992 z M216.926,77.82 L197.051,89.295 L216.926,100.77 L216.926,77.82 z M235.484,153.355 C234.103,153.725 233.162,153.964 232.389,155.289 C231.316,157.148 231.953,159.524 233.811,160.597 L244.572,166.81 L128.326,233.924 L11.428,166.433 L20.629,161.12 C22.488,160.047 23.124,157.671 22.051,155.812 C20.978,153.954 18.602,153.317 16.743,154.39 L1.713,163.067 C-0.877,164.563 -0.877,168.302 1.713,169.798 L126.384,241.777 C127.586,242.471 129.067,242.471 130.269,241.777 L254.287,170.175 C256.877,168.68 256.877,164.94 254.287,163.445 L237.697,153.867 C236.521,153.337 237.24,153.576 235.484,153.355 z M235.484,115.659 C234.103,116.029 233.162,116.268 232.389,117.593 C231.316,119.451 231.953,121.828 233.811,122.901 L244.572,129.114 L128.326,196.228 L11.428,128.736 L20.629,123.424 C22.488,122.351 23.124,119.974 22.051,118.116 C20.978,116.257 18.602,115.621 16.743,116.694 L1.713,125.371 C-0.877,126.867 -0.877,130.606 1.713,132.101 L126.384,204.08 C127.586,204.774 129.067,204.774 130.269,204.08 L254.287,132.479 C256.877,130.983 256.877,127.244 254.287,125.749 L237.697,116.17 C236.521,115.641 237.24,115.88 235.484,115.659 z M65.136,77.945 C63.715,78.325 62.747,78.571 61.951,79.935 C60.846,81.848 61.502,84.295 63.415,85.399 L134.493,126.437 C136.406,127.541 138.853,126.886 139.957,124.972 C141.062,123.059 140.406,120.613 138.493,119.508 L67.415,78.471 C66.204,77.926 66.944,78.172 65.136,77.945 z M96.585,57.565 C95.163,57.946 94.195,58.192 93.399,59.556 C92.294,61.469 92.95,63.915 94.863,65.02 L165.941,106.057 C167.855,107.162 170.301,106.506 171.406,104.593 C172.51,102.68 171.855,100.234 169.941,99.129 L98.863,58.092 C97.653,57.547 98.392,57.793 96.585,57.565 z M81.112,66.787 C79.69,67.168 78.722,67.414 77.926,68.777 C76.821,70.691 77.477,73.137 79.39,74.241 L150.468,115.279 C152.381,116.383 154.828,115.728 155.932,113.815 C157.037,111.901 156.381,109.455 154.468,108.35 L83.39,67.313 C82.179,66.768 82.919,67.014 81.112,66.787 z" fill="#F42300"/>
  </g>
</svg>
