<?xml version="1.0" encoding="UTF-8"?>
<!DOCTYPE svg PUBLIC "-//W3C//DTD SVG 1.1//EN" "http://www.w3.org/Graphics/SVG/1.1/DTD/svg11.dtd">
<svg version="1.1" xmlns="http://www.w3.org/2000/svg" xmlns:xlink="http://www.w3.org/1999/xlink" x="0" y="0" width="256" height="256" viewBox="0, 0, 256, 256">
  <g id="line" display="none">
    <path d="M93.668,6.066 C100.231,6.101 104.943,7.704 110.302,11.54 L111.252,12.332 L245.767,135.527 C262.488,150.847 253.103,187.025 227.141,217.267 C201.171,247.505 167.524,261.455 150.795,246.14 L16.287,122.946 C-5.825,100.17 19.612,59.974 34.904,41.204 C48.211,26.314 64.519,11.972 84.135,7.286 C88.516,6.239 89.269,6.367 93.669,6.066 z M119.577,35.346 C118.462,57.656 106.416,77.58 92.622,94.064 C78.44,110.279 60.693,124.782 39.403,128.727 L158.192,237.524 C168.741,247.182 196.392,235.718 218.799,209.627 C241.2,183.533 248.913,153.802 238.369,144.142 L119.577,35.346 z M94.711,17.574 C74.312,18.335 56.346,33.963 43.246,48.844 C20.846,74.938 13.134,104.671 23.683,114.329 L23.683,114.329 C34.225,123.982 61.883,112.514 84.281,86.424 C106.683,60.344 114.399,30.604 103.856,20.948 C100.801,18.312 98.5,18.035 94.711,17.574 z" fill="#000000"/>
    <g>
      <path d="M42.652,14.018 L81.108,16.897 C85.637,17.064 88.173,18.454 91.001,20.579 C101.483,30.324 94.187,56.345 74.705,78.699 C55.223,101.054 30.932,111.275 20.45,101.531 C18.185,98.938 19.063,100.336 17.726,97.397 L8.667,56.276 L42.652,14.018 z" fill="#FFFFFF"/>
      <path d="M42.652,14.018 L81.108,16.897 C85.637,17.064 88.173,18.454 91.001,20.579 C101.483,30.324 94.187,56.345 74.705,78.699 C55.223,101.054 30.932,111.275 20.45,101.531 C18.185,98.938 19.063,100.336 17.726,97.397 L8.667,56.276 L42.652,14.018 z" fill-opacity="0" stroke="#000000" stroke-width="12" stroke-linejoin="round"/>
    </g>
    <g>
      <path d="M39.853,47.227 C29.386,59.237 16.335,64.729 10.703,59.494 C5.071,54.258 8.991,40.277 19.459,28.267 C29.926,16.257 42.977,10.765 48.609,16 C54.24,21.236 50.32,35.217 39.853,47.227 z" fill="#FFFFFF"/>
      <path d="M39.853,47.227 C29.386,59.237 16.335,64.729 10.703,59.494 C5.071,54.258 8.991,40.277 19.459,28.267 C29.926,16.257 42.977,10.765 48.609,16 C54.24,21.236 50.32,35.217 39.853,47.227 z" fill-opacity="0" stroke="#000000" stroke-width="12"/>
    </g>
    <g>
      <path d="M5.62,28.099 L21.292,42.453 C22.881,43.908 26.452,42.427 29.27,39.146 C32.088,35.864 33.084,32.024 31.495,30.569 L15.823,16.215 z" fill="#FFFFFF"/>
      <path d="M5.62,28.099 L21.292,42.453 C22.881,43.908 26.452,42.427 29.27,39.146 C32.088,35.864 33.084,32.024 31.495,30.569 L15.823,16.215 z" fill-opacity="0" stroke="#000000" stroke-width="8" stroke-linecap="round" stroke-linejoin="round"/>
    </g>
    <g>
      <path d="M5.229,28.554 C6.938,30.12 10.784,28.526 13.817,24.993 C16.852,21.46 17.924,17.325 16.214,15.759 C14.502,14.193 10.658,15.787 7.623,19.32 C4.59,22.853 3.517,26.988 5.229,28.554 z" fill="#FFFFFF"/>
      <path d="M5.229,28.554 C6.938,30.12 10.784,28.526 13.817,24.993 C16.852,21.46 17.924,17.325 16.214,15.759 C14.502,14.193 10.658,15.787 7.623,19.32 C4.59,22.853 3.517,26.988 5.229,28.554 z" fill-opacity="0" stroke="#000000" stroke-width="6" stroke-linecap="round" stroke-linejoin="round"/>
    </g>
  </g>
  <g id="レイヤー_2">
    <path d="M93.668,6.065 L96.047,6.153 C101.383,6.425 105.956,8.615 110.302,11.54 L111.252,12.331 L245.767,135.527 C262.488,150.847 253.103,187.025 227.141,217.267 C201.171,247.505 167.524,261.455 150.795,246.14 L16.287,122.945 C7.171,113.395 6.047,99.915 9.433,87.641 L2.807,57.566 C2.658,56.138 2.564,56.664 2.729,55.964 C1.696,50.554 2.62,45.121 4.6,40.016 C5.286,38.246 6.297,36.619 7.146,34.921 L2.918,31.049 C2.438,30.297 2.219,29.969 2.025,29.603 C-0.246,25.312 2.754,20.634 5.225,17.257 C7.797,14.253 10.725,12.444 14.634,11.889 C16.497,11.625 17.436,12.456 18.524,13.265 L22.331,16.751 C26.535,12.932 31.622,10.482 36.972,8.735 C38.526,8.336 40.146,8.264 41.733,8.028 L42.656,8.055 L43.1,8.034 L74.738,10.403 C81.675,7.84 78.522,8.812 84.135,7.286 C87.245,6.404 90.465,6.272 93.669,6.066 L93.668,6.065 z M119.577,35.346 C118.462,57.656 106.416,77.58 92.622,94.064 C78.44,110.279 60.693,124.782 39.403,128.727 L158.191,237.523 C168.741,247.182 196.392,235.718 218.799,209.627 C241.2,183.533 248.913,153.802 238.369,144.142 L119.577,35.346 z M96.612,17.835 L96.612,17.835 C110.867,39.338 92.865,65.744 79.228,82.641 C67.461,95.245 52.702,108.805 34.72,111.012 C29.946,111.598 24.322,111.283 20.145,108.619 C20.81,110.853 22.084,112.682 23.683,114.329 L23.683,114.329 C34.225,123.982 61.883,112.514 84.281,86.424 C106.683,60.344 114.399,30.604 103.856,20.948 C101.886,19.023 99.223,18.373 96.612,17.835 L96.612,17.835 z M56.173,21.045 C57.684,31.365 49.9,43.032 43.707,50.515 C37.655,57.189 30.371,63.524 21.441,65.86 C20.014,66.233 18.524,66.293 17.065,66.509 L23.452,95.502 C24.601,97.166 24.439,96.982 24.674,97.249 C29.532,101.04 36.827,98.927 41.893,96.656 C53.015,91.671 62.037,83.674 70.182,74.757 C78.621,64.631 86.484,53.054 89.179,39.911 C90.156,35.148 90.705,28.99 87.077,25.144 C85.274,23.63 83.184,23.038 80.887,22.893 L56.173,21.045 z M42.317,20.08 L42.317,20.08 C41.103,20.061 39.475,20.43 37.592,21.223 C33.711,23.151 35.837,21.959 31.318,24.982 L34.197,27.619 C37.912,31.023 36.352,37.038 32.305,41.752 C28.206,46.524 22.431,48.919 18.59,45.403 L16.377,43.375 C15.219,46.04 15.738,44.696 14.815,47.404 C14.232,49.484 14.04,51.269 14.195,52.597 C14.299,53.491 14.514,53.965 14.747,54.182 C14.945,54.366 15.33,54.503 16.096,54.515 C17.31,54.534 18.938,54.165 20.821,53.373 C25.24,51.513 30.247,47.696 34.661,42.631 C39.087,37.553 42.255,31.979 43.598,27.191 C44.181,25.111 44.373,23.326 44.218,21.998 C44.114,21.104 43.899,20.63 43.666,20.413 C43.468,20.229 43.083,20.092 42.317,20.08 L42.317,20.08 z M18.303,23.91 C17.256,25.917 17.914,24.845 16.215,27.055 C14.237,29.117 15.241,28.268 13.279,29.69 L23.304,38.872 C24.48,38.379 25.378,37.449 26.235,36.54 C27.227,35.385 27.91,34.144 28.163,33.168 L28.202,32.977 L18.303,23.91 z M14.085,18.159 L13.627,18.313 C12.462,18.797 11.092,19.843 9.88,21.254 C8.662,22.673 7.811,24.219 7.478,25.502 L7.355,26.154 L7.812,26 C8.978,25.516 10.347,24.47 11.56,23.058 C12.778,21.639 13.629,20.094 13.962,18.811 L14.085,18.159 z" fill="#000000"/>
  </g>
</svg>
