<?xml version="1.0" encoding="UTF-8"?>
<!DOCTYPE svg PUBLIC "-//W3C//DTD SVG 1.1//EN" "http://www.w3.org/Graphics/SVG/1.1/DTD/svg11.dtd">
<svg version="1.1" xmlns="http://www.w3.org/2000/svg" xmlns:xlink="http://www.w3.org/1999/xlink" x="0" y="0" width="256" height="256" viewBox="0, 0, 256, 256">
  <g id="solid">
    <path d="M209.931,6.18 C212.446,6.382 214.392,7.534 216.245,9.131 C218.2,11.052 219.528,13.67 220.368,16.707 C221.911,22.282 221.764,28.686 219.123,32.151 C216.429,35.685 204.844,48.062 186.507,67.2 C186.138,67.585 186.138,67.585 185.769,67.97 C178.456,75.599 170.622,83.724 162.788,91.818 C160.047,94.651 157.501,97.277 155.216,99.631 C154.416,100.455 153.706,101.187 153.094,101.817 C152.755,102.166 152.755,102.166 152.534,102.393 C152.375,102.557 152.375,102.557 152.342,102.591 C152.033,102.908 151.691,103.19 151.321,103.431 C149.865,104.327 148.135,104.516 146.461,104.5 C144.364,106.641 142.226,108.741 140.091,110.844 C140.067,110.869 140.067,110.869 140.042,110.893 C135.426,115.439 133.614,117.249 131.702,119.265 C130.538,120.491 129.637,121.495 129.008,122.266 C128.575,122.815 128.752,122.576 128.465,122.975 C128.084,124.423 128.856,125.677 129.7,126.796 C130.523,127.579 131.592,127.885 132.662,128.107 C132.929,128.137 133.191,128.012 133.455,127.964 C133.853,127.677 133.614,127.855 134.163,127.422 C134.935,126.792 135.938,125.892 137.165,124.728 C139.181,122.815 140.99,121.003 145.536,116.388 C145.561,116.363 145.561,116.363 145.585,116.338 C147.405,114.493 149.22,112.644 151.064,110.824 C150.884,108.576 151.004,106.227 152.111,104.222 C152.353,103.852 152.635,103.509 152.952,103.201 C152.986,103.168 152.986,103.168 153.15,103.009 C153.377,102.788 153.377,102.788 153.726,102.449 C154.356,101.837 155.087,101.127 155.912,100.327 C158.266,98.042 160.892,95.496 163.725,92.755 C171.819,84.921 179.944,77.087 187.573,69.774 C187.958,69.405 187.958,69.405 188.343,69.036 C207.481,50.699 219.857,39.113 223.392,36.42 C226.104,34.383 229.165,34.404 232.413,34.194 C237.436,34.758 235.309,34.347 238.836,35.175 C241.873,36.015 244.491,37.343 246.412,39.298 C249.203,42.14 250.161,46.037 248.735,49.96 C248.435,50.784 248.131,51.671 247.764,52.782 C243.808,64.749 242.921,67.089 239.005,74.196 C233.503,84.182 225.32,94.934 213.237,107.468 C211.466,109.305 209.452,111.221 207.192,113.235 C204.62,115.526 201.762,117.916 198.526,120.505 C196.271,122.308 193.951,124.116 191.047,126.344 C190.656,126.644 185.732,130.408 184.474,131.379 C182.316,133.047 180.811,134.247 179.7,135.194 C179.129,135.681 178.685,136.083 178.374,136.391 L178.243,136.525 C178.146,136.765 178.207,136.611 178.069,136.989 L177.959,137.309 C177.809,137.757 177.662,138.206 177.514,138.654 C177.223,139.526 176.973,140.222 176.684,140.932 C174.716,145.78 171.666,149.181 166.56,150.465 C164.668,150.941 162.908,150.501 161.521,149.563 C160.793,149.071 160.259,148.513 159.799,147.885 L159.588,147.55 L84.546,222.592 L84.545,222.593 L84.542,222.596 L84.073,223.064 L83.879,223.237 C72.457,234.782 58.205,242.514 42.822,247.337 C33.68,249.636 20.005,252.263 11.843,245.906 C11.76,245.868 11.812,245.897 11.703,245.797 L11.401,245.562 L11.145,245.284 L10.867,245.028 L10.632,244.726 C10.532,244.618 10.562,244.669 10.523,244.586 C4.249,236.187 6.673,222.948 9.093,213.608 C13.493,198.054 21.987,184.125 33.191,172.551 L33.365,172.356 L109.118,96.603 C108.331,96.225 108.832,96.485 107.657,95.744 C107.03,95.284 106.472,94.75 105.98,94.022 C105.042,92.635 104.602,90.875 105.078,88.983 C106.362,83.877 109.763,80.827 114.611,78.858 C115.321,78.57 116.016,78.32 116.889,78.029 C117.125,77.95 118.096,77.631 117.817,77.722 C118.14,77.616 118.359,77.542 118.554,77.474 C118.932,77.336 118.778,77.396 119.018,77.3 L119.152,77.168 C119.46,76.858 119.862,76.414 120.349,75.843 C121.296,74.732 122.496,73.227 124.163,71.069 C125.135,69.811 128.899,64.887 129.199,64.496 C131.427,61.592 133.234,59.272 135.038,57.017 C137.627,53.781 140.016,50.923 142.308,48.351 C144.321,46.091 146.238,44.077 148.075,42.306 C160.609,30.223 171.361,22.04 181.347,16.538 C188.454,12.622 190.794,11.735 202.761,7.779 C203.872,7.412 204.759,7.108 205.582,6.808 C207.975,6.117 206.542,6.42 209.931,6.18 z M122.214,100.477 L42.225,180.467 L42.106,180.62 C38.684,184.406 38.485,186.237 40.335,189.183 C41.334,190.774 42.901,192.59 45.449,195.152 C45.824,195.529 51.612,201.188 53.466,203.105 C55.742,205.459 55.711,209.204 53.396,211.519 L27.126,237.789 C31.372,237.711 35.533,236.834 39.626,235.77 C52.336,232.258 65.323,224.845 76.06,214.107 C85.376,204.791 85.376,189.686 76.06,180.37 C73.717,178.027 73.717,174.228 76.06,171.884 L117.785,130.159 C116.084,127.333 116.14,124.088 116.57,120.945 C116.678,120.158 117.011,119.418 117.232,118.654 C120.502,112.256 126.456,107.437 131.51,102.454 C128.985,101.959 130.393,102.24 127.288,101.603 C123.203,100.726 124.89,101.118 122.214,100.477 z M62.721,182.813 L64.249,182.819 C66.396,183.269 67.987,184.221 69.563,185.645 C73.583,189.666 73.583,196.184 69.563,200.204 C65.542,204.225 59.024,204.225 55.004,200.204 C50.983,196.184 50.983,189.666 55.004,185.645 C57.66,183.132 59.236,182.932 62.721,182.813 z M61.988,188.667 C59.79,189.363 60.665,188.877 59.246,189.888 C57.569,191.565 57.569,194.285 59.246,195.962 C60.924,197.639 63.643,197.639 65.32,195.962 C66.997,194.285 66.997,191.565 65.32,189.888 C64.216,188.987 64.915,189.447 63.103,188.709 L61.988,188.667 z M30.207,195.616 C25.85,202.09 23.094,209.439 20.659,216.804 C19.396,220.855 18.979,225.094 18.641,229.303 L40.663,207.281 C39.427,206.053 38.174,204.841 36.938,203.612 C34.418,201.182 32.182,198.501 30.207,195.616 z M153.381,125.523 C148.253,129.946 144.189,136.445 137.776,139.198 C134.022,140.479 129.831,140.62 126.27,138.645 L88.417,176.497 C91.487,180.89 93.47,185.865 94.471,191.123 C94.735,192.509 94.709,193.934 94.827,195.34 L155.408,134.759 C154.425,130.653 154.92,132.819 153.94,128.255 C153.404,125.646 153.583,126.558 153.381,125.523 z M231.391,46.207 C230.497,46.26 230.884,46.214 230.227,46.315 C218.716,56.426 207.711,67.108 196.645,77.701 C196.261,78.069 196.261,78.069 195.877,78.437 C188.264,85.735 180.152,93.556 172.07,101.377 C169.242,104.115 166.619,106.657 164.269,108.938 C163.09,110.082 163.493,109.691 163.059,110.112 C163.171,111.306 163.302,112.241 163.459,113.389 C163.949,116.826 164.757,121.32 165.69,125.818 C166.623,130.169 166.147,128.077 167.107,132.098 C167.579,130.903 167.265,131.614 168.137,130.006 C169.393,128.047 171.638,126.132 177.138,121.883 C178.425,120.889 183.373,117.107 183.743,116.823 C186.587,114.64 188.849,112.879 191.03,111.134 C194.112,108.669 196.812,106.411 199.209,104.276 C201.255,102.452 203.054,100.741 204.597,99.139 C215.985,87.327 223.535,77.407 228.495,68.405 C231.927,62.177 232.654,60.258 236.37,49.016 C236.946,47.303 236.738,47.895 236.972,47.233 C236.188,46.88 236.63,47.054 235.635,46.74 C234.289,46.368 232.726,46.176 231.391,46.207 z M208.31,18.571 C207.648,18.805 208.239,18.597 206.527,19.173 C195.285,22.889 193.366,23.616 187.138,27.048 C178.136,32.008 168.216,39.558 156.403,50.945 C154.802,52.489 153.091,54.288 151.267,56.334 C149.132,58.731 146.874,61.43 144.409,64.513 C142.664,66.694 140.902,68.955 138.72,71.8 C138.436,72.17 134.654,77.118 133.66,78.405 C129.411,83.905 127.496,86.15 125.537,87.406 C123.929,88.277 124.64,87.964 123.445,88.435 C127.466,89.396 125.373,88.919 129.725,89.853 C134.223,90.786 138.717,91.593 142.154,92.084 C143.288,92.253 144.261,92.351 145.431,92.483 C145.852,92.049 145.461,92.453 146.605,91.274 C148.886,88.924 151.428,86.301 154.165,83.472 C161.987,75.391 169.808,67.279 177.106,59.666 C177.474,59.282 177.474,59.282 177.842,58.897 C187.951,47.433 199.661,37.269 209.228,25.316 C209.329,24.659 209.282,25.046 209.336,24.152 C209.367,22.816 209.175,21.253 208.803,19.907 C208.489,18.913 208.663,19.355 208.31,18.571 z" fill="#383838"/>
  </g>
</svg>
