<?xml version="1.0" encoding="UTF-8"?>
<!DOCTYPE svg PUBLIC "-//W3C//DTD SVG 1.1//EN" "http://www.w3.org/Graphics/SVG/1.1/DTD/svg11.dtd">
<svg version="1.1" xmlns="http://www.w3.org/2000/svg" xmlns:xlink="http://www.w3.org/1999/xlink" x="0" y="0" width="256" height="256" viewBox="0, 0, 256, 256">
  <g id="solid">
    <path d="M145.222,5.946 C146.839,5.993 148.086,6.694 149.272,7.713 L149.272,7.713 C150.242,8.798 151.209,10.308 151.03,11.852 C151.279,19.912 151.916,27.953 152.535,35.991 C152.628,37.197 152.669,37.725 152.72,38.392 C152.952,41.403 153.118,43.628 153.271,45.82 C153.305,46.298 153.33,46.656 153.395,47.557 C153.687,51.637 153.805,53.506 153.893,55.847 C153.932,56.863 153.956,57.838 153.967,58.855 L153.967,84.716 C158.808,87.955 163.107,91.904 167.341,95.882 C168.366,96.858 172.778,101.121 173.93,102.216 C189.29,116.502 194.401,123.476 195.777,135.025 C196.626,142.155 197.472,156.696 197.554,171.394 C197.674,193.056 196.259,213.611 192.868,231.368 C191.719,237.385 187.175,242.053 180.77,245.435 C175.95,247.98 170.203,249.625 166.367,249.625 C164.695,249.649 163.358,249.669 160.347,249.713 C144.194,249.953 137.008,250.036 127.951,250.054 L108.81,249.899 L108.773,249.898 L89.72,249.625 C85.797,249.625 80.05,247.98 75.23,245.435 C68.825,242.053 64.281,237.385 63.132,231.368 C59.741,213.611 58.327,193.056 58.446,171.394 C58.528,156.697 59.374,142.155 60.223,135.025 C61.599,123.476 66.71,116.502 82.023,102.261 C83.222,101.12 87.635,96.857 88.66,95.881 C92.802,91.783 97.302,88.105 102.033,84.716 L102.033,58.854 C102.033,55.477 102.378,50.311 103.518,35.125 C103.529,34.984 103.529,34.984 103.539,34.844 C104.583,20.945 104.97,15.052 104.97,11.956 C105.281,7.79 107.436,6.05 111.473,6.05 L111.479,5.978 C111.536,5.983 111.647,5.992 111.815,6.005 C112.1,6.028 112.43,6.054 112.799,6.082 C113.858,6.161 115.02,6.241 116.244,6.315 C119.716,6.525 122.987,6.651 125.652,6.652 L127.928,6.625 L128.072,6.625 L130.268,6.651 C135.029,6.64 139.781,6.334 144.526,5.977 L144.529,6.008 L145.03,5.956 L145.03,5.956 L145.03,5.968 L145.222,5.946 z M141.967,85.479 C137.398,86.518 132.666,86.594 128,86.632 C123.34,86.553 118.594,86.562 114.033,85.479 L114.033,87.923 C114.033,89.989 112.971,91.909 111.221,93.006 C106.491,95.973 102.514,99.26 96.934,104.572 C95.953,105.507 91.536,109.774 90.243,111.003 C76.861,123.449 73.071,128.62 72.139,136.444 C71.346,143.108 70.525,157.201 70.446,171.46 C70.33,192.409 71.694,212.231 74.919,229.117 C75.626,232.82 84.728,237.625 89.805,237.626 L108.929,237.899 L127.988,238.054 C136.915,238.036 144.067,237.953 160.17,237.714 C163.182,237.67 164.52,237.65 166.28,237.625 C171.273,237.625 180.374,232.82 181.081,229.117 C184.306,212.231 185.67,192.409 185.554,171.46 C185.475,157.201 184.654,143.108 183.861,136.444 C182.929,128.62 179.139,123.449 165.709,110.958 C164.464,109.774 160.048,105.507 159.066,104.573 C153.486,99.26 149.51,95.973 144.779,93.006 C143.029,91.909 141.967,89.989 141.967,87.923 L141.967,85.479 z M128,141.346 C132.87,141.346 141.73,142.189 149.192,143.613 C159.958,145.667 167.583,148.68 170.715,153.084 C173.886,157.543 174.385,171.222 172.878,188.798 C171.504,204.837 168.945,218.53 166.382,220.908 C163.156,223.903 159.575,225.427 154.234,226.15 C149.899,226.736 145.944,226.824 132.64,226.803 C130.518,226.799 129.363,226.798 128,226.798 C126.638,226.798 125.482,226.799 123.361,226.803 C110.056,226.824 106.102,226.736 101.766,226.15 C96.425,225.427 92.845,223.903 89.618,220.908 C87.056,218.53 84.496,204.837 83.122,188.798 C81.616,171.222 82.115,157.543 85.285,153.084 C88.418,148.68 96.042,145.667 106.808,143.613 C114.27,142.189 123.13,141.346 128,141.346 L128,141.346 z M128,145.346 C123.383,145.346 114.773,146.165 107.558,147.542 C97.79,149.406 90.863,152.143 88.545,155.403 C86.189,158.715 85.702,172.063 87.107,188.457 C87.727,195.686 88.664,202.863 89.714,208.482 C90.708,213.795 91.815,217.49 92.339,217.976 C97.019,222.32 100.855,222.839 123.354,222.803 C125.478,222.799 126.635,222.798 128,222.798 L129.003,222.798 C131.693,222.801 130.479,222.8 132.646,222.803 C155.146,222.839 158.981,222.32 163.661,217.976 C164.185,217.49 165.293,213.795 166.286,208.482 C167.336,202.863 168.274,195.686 168.893,188.457 C170.298,172.063 169.811,158.715 167.455,155.403 C165.137,152.143 158.21,149.406 148.442,147.542 C141.227,146.165 132.618,145.346 128,145.346 L128,145.346 z M141.967,65.621 C137.398,66.66 132.666,66.736 128,66.774 C123.34,66.695 118.594,66.704 114.033,65.621 L114.033,81.366 C114.952,81.606 114.41,81.477 115.666,81.724 C118.883,82.299 123.288,82.632 128,82.632 C132.712,82.632 137.117,82.299 140.334,81.724 C141.59,81.477 141.048,81.606 141.967,81.366 L141.967,65.621 z M139.296,18.338 C132.814,18.644 135.807,18.554 130.321,18.651 L130.205,18.651 L127.999,18.624 L125.724,18.651 C122.723,18.652 119.725,18.525 116.729,18.36 C116.38,24.158 115.939,29.95 115.506,35.742 C115.495,35.883 115.495,35.883 115.485,36.024 C114.389,50.619 114.033,55.945 114.033,58.855 L114.033,61.508 C114.952,61.748 114.41,61.619 115.666,61.865 C118.883,62.441 123.288,62.774 128,62.774 C132.712,62.774 137.117,62.441 140.334,61.865 C141.59,61.619 141.048,61.748 141.967,61.507 L141.967,58.919 C141.958,58.08 141.936,57.212 141.902,56.3 C141.82,54.139 141.708,52.361 141.425,48.414 C141.36,47.507 141.335,47.145 141.301,46.659 C141.149,44.499 140.985,42.299 140.755,39.313 C140.704,38.648 140.663,38.121 140.57,36.917 C140.107,30.727 139.591,24.539 139.296,18.338 z" fill="#383838"/>
  </g>
</svg>
