<?xml version="1.0" encoding="UTF-8"?>
<!DOCTYPE svg PUBLIC "-//W3C//DTD SVG 1.1//EN" "http://www.w3.org/Graphics/SVG/1.1/DTD/svg11.dtd">
<svg version="1.1" xmlns="http://www.w3.org/2000/svg" xmlns:xlink="http://www.w3.org/1999/xlink" x="0" y="0" width="256" height="256" viewBox="0, 0, 256, 256">
  <g id="solid">
    <path d="M225.327,6.477 C227.116,6.377 228.49,7.131 229.856,8.187 L247.788,26.119 C250.119,28.45 250.133,32.225 247.819,34.573 L192.118,91.1 L194.123,93.105 C196.373,95.355 196.476,98.97 194.357,101.344 L175.839,122.084 C174.277,123.675 171.935,124.623 169.752,123.77 C137.338,158.752 102.861,192.615 75.005,231.51 C74.805,231.794 74.582,232.06 74.336,232.306 L58.867,247.774 C56.524,250.118 52.725,250.118 50.382,247.774 L8.212,205.604 C5.869,203.261 5.869,199.462 8.212,197.119 L23.681,181.65 C24.354,181.063 24.06,181.246 24.491,181.003 L24.476,180.982 C62.516,151.995 98.034,119.658 132.216,86.235 C131.425,84.474 132.141,82.62 133.053,81.081 C133.267,80.719 133.619,80.458 133.902,80.147 L154.643,61.63 C156.19,60.497 155.219,61.071 157.699,60.179 L158.48,60.136 C160.202,60.057 161.549,60.903 162.881,61.863 L164.885,63.867 L221.401,8.157 C222.944,6.913 221.968,7.548 224.493,6.534 L225.327,6.477 z M29.338,192.964 L20.94,201.362 L54.625,235.046 L63.023,226.649 L29.338,192.964 z M140.098,95.309 C106.204,127.249 72.854,159.877 35.486,187.798 L68.27,220.582 C96.532,183.524 128.4,149.435 160.677,115.887 L140.098,95.309 z M158.405,74.357 L146.667,84.837 C147.496,85.648 148.314,86.47 149.135,87.289 L149.229,87.383 C149.774,87.928 150.052,88.205 150.372,88.524 L150.371,88.525 L150.387,88.539 C153.227,91.385 156.05,94.247 158.872,97.111 C161.264,99.458 163.642,101.821 166.021,104.183 C166.022,104.185 166.022,104.185 166.024,104.186 C166.731,104.889 167.045,105.201 167.438,105.591 L167.437,105.591 L167.453,105.605 C167.604,105.756 167.522,105.674 167.699,105.851 L167.859,106.011 C168.96,107.11 170.059,108.211 171.148,109.321 L181.629,97.581 L179.422,95.374 L179.421,95.374 L160.612,76.565 L160.612,76.564 L158.405,74.357 z M225.583,20.885 L173.371,72.353 L183.633,82.614 L235.091,30.393 L225.583,20.885 z" fill="#383838"/>
  </g>
</svg>
