<?xml version="1.0" encoding="UTF-8"?>
<!DOCTYPE svg PUBLIC "-//W3C//DTD SVG 1.1//EN" "http://www.w3.org/Graphics/SVG/1.1/DTD/svg11.dtd">
<svg version="1.1" xmlns="http://www.w3.org/2000/svg" xmlns:xlink="http://www.w3.org/1999/xlink" x="0" y="0" width="256" height="256" viewBox="0, 0, 256, 256">
  <g id="solid">
    <path d="M160.095,2.633 L161.914,2.676 C166.431,3.12 170.181,5.143 173.493,8.141 L194.117,28.765 L195.983,26.901 C199.916,23.297 202.581,22.679 207.735,22.678 C211.224,23.021 214.121,24.583 216.679,26.898 L228.894,39.114 C234.607,44.834 234.607,54.096 228.893,59.803 L227.024,61.673 L247.645,82.293 C255.056,89.692 255.056,101.7 247.649,109.094 L223.232,133.515 L223.228,133.519 C215.823,140.912 203.828,140.912 196.426,133.516 L175.8,112.89 C170.792,117.894 173.358,115.33 168.103,120.582 L168.078,120.607 C163.894,124.79 160.602,128.086 158.539,130.157 C156.702,132.002 155.119,134.386 152.74,138.672 C152.472,139.155 151.491,140.938 151.278,141.323 C148.536,146.273 146.72,149.028 144.192,151.508 C141.947,153.711 123.972,171.676 95.545,200.117 C95.524,200.138 95.524,200.138 95.502,200.16 C84.806,210.861 73.349,222.327 61.892,233.793 C57.883,237.807 54.16,241.533 50.819,244.877 C48.958,246.74 48.958,246.74 47.717,247.983 C46.81,248.89 46.81,248.89 46.611,249.089 C40.892,254.794 31.634,254.794 25.923,249.084 L7.079,230.239 C1.369,224.529 1.369,215.271 7.081,209.543 C7.272,209.352 7.272,209.352 8.18,208.446 C9.422,207.205 9.422,207.205 11.285,205.343 C14.63,202.003 18.356,198.28 22.369,194.27 C33.835,182.814 45.301,171.356 56.003,160.66 C56.024,160.639 56.024,160.639 56.046,160.617 C84.486,132.191 102.451,114.216 104.655,111.97 C107.135,109.443 109.89,107.627 114.839,104.885 C115.224,104.672 117.007,103.691 117.49,103.423 C121.777,101.044 124.161,99.461 126.006,97.623 C128.077,95.561 131.372,92.268 135.555,88.085 C135.568,88.072 135.568,88.072 135.58,88.06 C140.833,82.805 138.269,85.371 143.272,80.362 L122.274,59.364 C114.871,51.961 114.875,39.966 122.274,32.567 L146.695,8.141 C149.843,5.07 153.882,3.1 158.28,2.677 L160.095,2.633 z M151.757,88.847 C149.194,91.414 146.63,93.979 144.066,96.544 L144.054,96.557 C140.863,99.748 137.671,102.94 134.474,106.126 C131.625,108.963 128.513,111.03 123.313,113.915 C122.806,114.197 121.018,115.181 120.654,115.382 C116.685,117.581 114.637,118.931 113.219,120.375 C110.971,122.666 93.085,140.562 64.529,169.104 C64.507,169.126 64.507,169.126 64.486,169.147 C53.784,179.844 42.317,191.303 30.851,202.759 C26.837,206.769 23.111,210.492 19.766,213.833 C17.903,215.694 17.903,215.694 16.661,216.935 C15.753,217.842 15.753,217.842 15.57,218.025 C14.538,219.059 14.538,220.728 15.564,221.754 L34.409,240.598 C35.434,241.624 37.103,241.624 38.129,240.601 C38.32,240.41 38.32,240.41 39.227,239.502 C40.468,238.259 40.468,238.259 42.33,236.396 C45.671,233.052 49.394,229.325 53.403,225.312 C64.86,213.845 76.318,202.379 87.015,191.677 C87.037,191.655 87.037,191.655 87.058,191.634 C115.6,163.078 133.496,145.192 135.787,142.943 C137.232,141.526 138.582,139.478 140.781,135.508 C140.982,135.145 141.966,133.357 142.247,132.85 C145.133,127.65 147.2,124.538 150.037,121.689 C152.709,119.006 155.387,116.328 158.065,113.65 C158.578,113.136 159.092,112.622 159.606,112.109 C159.61,112.104 159.614,112.1 159.618,112.096 C164.874,106.843 162.309,109.406 167.315,104.405 L151.757,88.847 z M159.668,14.649 C157.935,14.721 156.541,15.662 155.181,16.626 L130.759,41.052 C128.045,43.767 128.044,48.163 130.759,50.879 L155.996,76.116 L155.997,76.117 L180.046,100.165 L180.046,100.166 L204.909,125.029 C207.625,127.742 212.03,127.742 214.75,125.027 L214.746,125.031 L239.167,100.606 C241.882,97.896 241.882,93.496 239.163,90.782 L189.871,41.491 L189.871,41.49 L189.871,41.49 L165.004,16.623 C163.221,15.165 164.35,15.91 161.422,14.717 L160.427,14.655 L159.668,14.649 z M206.834,34.66 C205.893,34.516 205.178,34.805 204.469,35.385 L202.602,37.251 L218.539,53.188 L220.409,51.316 C221.436,50.291 221.436,48.627 220.406,47.596 L208.191,35.381 C207.516,34.829 207.943,35.111 206.834,34.66 z" fill="#797979"/>
  </g>
</svg>
