<?xml version="1.0" encoding="UTF-8"?>
<!DOCTYPE svg PUBLIC "-//W3C//DTD SVG 1.1//EN" "http://www.w3.org/Graphics/SVG/1.1/DTD/svg11.dtd">
<svg version="1.1" xmlns="http://www.w3.org/2000/svg" xmlns:xlink="http://www.w3.org/1999/xlink" x="0" y="0" width="256" height="256" viewBox="0, 0, 256, 256">
  <g id="solid">
    <path d="M204.011,4.963 C206.779,4.944 208.753,6.233 210.442,8.312 C211.41,9.651 212.088,11.288 212.546,13.144 C213.372,16.487 213.47,20.533 212.748,24.32 C212.131,27.559 210.765,30.649 208.793,33.892 C208.27,34.753 207.736,35.573 207.1,36.509 C206.976,36.693 206.083,37.993 205.908,38.256 C203.537,41.833 199.823,44.032 193.514,46.478 C191.508,47.256 183.581,50.062 181.981,50.659 C177.156,52.458 173.225,54.161 169.488,56.161 C163.109,59.574 157.739,63.659 153.225,68.813 C151.431,70.861 149.435,73.823 147.279,77.628 C143.753,83.85 140.033,91.837 135.433,102.743 C134.517,104.916 126.309,124.889 124.209,129.66 C122.852,132.6 123.556,131.194 122.111,133.885 C124.802,132.44 123.396,133.144 126.336,131.787 C131.107,129.687 151.08,121.479 153.253,120.563 C164.159,115.963 172.146,112.243 178.368,108.717 C182.173,106.561 185.135,104.565 187.183,102.771 C192.336,98.257 196.422,92.887 199.835,86.507 C201.835,82.77 203.538,78.84 205.337,74.015 C205.934,72.415 208.74,64.488 209.518,62.482 C211.964,56.173 214.163,52.459 217.739,50.088 C218.003,49.913 219.303,49.02 219.487,48.896 C220.423,48.26 221.243,47.726 222.104,47.203 C225.347,45.231 228.437,43.865 231.676,43.248 C235.463,42.526 239.509,42.624 242.851,43.45 C244.708,43.908 246.345,44.586 247.684,45.554 C250.061,47.273 251.55,49.936 250.881,53.169 C250.039,57.236 245.151,71.197 240.055,82.87 C232.243,100.768 223.836,114.7 214.864,122.406 C212.838,124.143 210.481,125.911 207.806,127.718 C201.46,132.005 193.397,136.473 183.824,141.156 C172.484,146.704 147.206,157.586 147.661,157.349 C145.01,158.735 142.847,160.247 141.094,161.868 C138.99,163.813 137.559,165.819 136.501,168.028 C135.962,169.156 134.658,172.748 134.365,173.345 C133.916,174.26 133.391,175.043 132.569,175.778 C131.178,177.023 129.338,178.102 126.956,179.199 C124.154,180.49 120.625,181.791 116.112,183.262 C114.585,183.76 113.018,184.255 111.048,184.866 C110.822,184.936 107.443,185.978 106.574,186.25 C105.099,186.711 104.054,187.049 103.266,187.326 L102.757,187.508 C100.56,189.779 98.358,192.044 96.145,194.298 C95.955,194.491 95.955,194.491 95.765,194.684 C93.99,196.49 92.188,198.27 90.358,200.022 C68.605,218.252 45.311,234.859 21.377,250.109 C19.006,251.608 15.913,251.263 13.93,249.28 L6.716,242.066 C4.733,240.083 4.388,236.99 5.886,234.618 C17.761,216.174 30.446,198.241 43.715,180.773 C47.59,175.671 51.389,170.149 55.973,165.639 C57.712,163.797 59.514,162.015 61.312,160.231 C61.505,160.041 61.505,160.041 61.697,159.851 C63.95,157.636 66.218,155.437 68.487,153.239 L68.67,152.73 C68.946,151.942 69.285,150.897 69.746,149.422 C70.018,148.553 71.06,145.174 71.13,144.948 C71.741,142.978 72.236,141.411 72.734,139.883 C74.205,135.371 75.506,131.842 76.796,129.04 C77.894,126.658 78.973,124.818 80.217,123.427 C80.953,122.605 81.736,122.08 82.651,121.631 C83.248,121.338 86.84,120.034 87.968,119.494 C90.177,118.437 92.183,117.006 94.128,114.902 C95.749,113.149 97.261,110.986 98.647,108.335 C98.41,108.789 109.292,83.512 114.84,72.172 C119.523,62.599 123.991,54.535 128.278,48.19 C130.085,45.515 131.853,43.158 133.594,41.127 C141.296,32.16 155.228,23.753 173.126,15.94 C184.799,10.845 198.76,5.957 202.827,5.115 L204.011,4.963 z M78.036,184.081 L63.055,199.003 L61.098,197.046 L24.374,233.77 C39.056,224.161 53.184,213.745 67.265,203.285 C72.166,199.588 77.46,195.982 81.806,191.613 C81.902,191.509 82.002,191.408 82.105,191.311 C83.46,190.028 84.784,188.714 86.098,187.389 C83.024,187.099 80.539,185.757 78.036,184.081 z M235.987,54.807 C235.293,54.806 234.607,54.941 233.921,55.036 C232.331,55.339 230.461,56.166 228.337,57.457 C227.671,57.862 227.011,58.291 226.228,58.823 C226.117,58.898 224.73,59.851 224.369,60.09 C224.047,60.304 223.568,60.859 222.985,61.843 C222.292,63.014 221.563,64.612 220.706,66.82 C220.007,68.624 217.237,76.449 216.581,78.208 C214.609,83.496 212.703,87.894 210.416,92.169 C206.356,99.757 201.401,106.27 195.09,111.797 C192.34,114.207 188.741,116.632 184.284,119.157 C177.562,122.967 169.219,126.853 157.916,131.619 C155.622,132.587 135.78,140.741 131.17,142.77 C126.06,145.019 122.135,147.632 113.599,154.055 C113.434,154.179 113.434,154.179 113.269,154.303 C109.523,157.121 107.643,158.502 105.358,160.07 C103.844,161.089 102.174,161.26 100.407,160.917 C100.131,160.863 99.897,160.68 99.642,160.562 C98.732,160.626 97.997,159.992 97.35,159.463 C94.913,156.885 92.343,155.646 88.821,155.443 C84.684,155.742 81.265,158.107 78.33,160.856 C77.528,161.516 77.954,161.268 77.069,161.631 C74.746,163.881 72.427,166.134 70.12,168.398 C69.931,168.584 69.931,168.584 69.743,168.77 C67.603,170.883 65.879,172.625 64.685,173.891 C64.588,173.994 64.487,174.094 64.383,174.189 C50.027,191.156 37.31,209.387 24.777,227.71 L58.27,194.217 L56.579,192.527 L77.229,171.957 L83.25,177.978 C84.924,179.163 86.99,179.519 88.986,179.7 C91.164,179.649 93.206,178.897 95.128,177.934 L95.713,177.665 L96.214,177.326 C97.475,176.583 99.13,176.004 102.995,174.796 C103.888,174.517 107.289,173.467 107.496,173.403 C109.414,172.809 110.93,172.33 112.391,171.854 C116.496,170.515 119.65,169.353 121.934,168.301 C123.225,167.678 122.58,168.014 123.866,167.29 C124.412,165.787 125.014,164.304 125.677,162.848 C127.365,159.322 129.679,156.079 132.947,153.057 C135.49,150.706 138.524,148.585 142.1,146.715 C142.141,146.694 167.62,135.724 178.551,130.377 C187.666,125.917 195.279,121.699 201.088,117.774 C203.406,116.209 205.403,114.711 207.05,113.299 C214.271,107.096 221.92,94.422 229.057,78.069 C231.738,71.927 234.196,65.604 236.259,59.712 C236.832,58.097 237.356,56.481 237.898,54.851 C236.655,54.829 237.291,54.843 235.988,54.807 L235.987,54.807 z M201.144,18.097 C199.503,18.618 197.906,19.176 196.283,19.737 C190.392,21.8 184.069,24.257 177.927,26.938 C161.574,34.076 148.899,41.725 142.701,48.941 C141.285,50.593 139.787,52.59 138.221,54.907 C134.297,60.717 130.079,68.33 125.619,77.445 C120.272,88.376 109.302,113.855 109.281,113.895 C107.411,117.472 105.29,120.506 102.939,123.048 C99.917,126.317 96.674,128.631 93.148,130.319 C91.697,130.991 90.207,131.581 88.705,132.13 C87.982,133.416 88.318,132.771 87.695,134.062 C86.643,136.346 85.481,139.5 84.142,143.604 C83.666,145.066 83.187,146.582 82.592,148.5 C82.523,148.724 82.548,148.644 82.518,148.741 C87.056,147.48 85.032,147.819 88.536,147.439 L88.676,147.434 L88.816,147.435 C91.303,147.59 91.877,147.524 94.703,148.367 C95.45,148.59 96.123,149.013 96.834,149.335 C98.403,147.096 100.051,144.913 101.693,142.727 C101.817,142.562 101.817,142.562 101.941,142.397 C108.364,133.861 110.977,129.936 113.226,124.826 C115.255,120.216 123.409,100.373 124.376,98.08 C129.143,86.777 133.029,78.434 136.838,71.712 C139.364,67.255 141.789,63.656 144.198,60.906 C149.726,54.595 156.239,49.64 163.827,45.58 C168.102,43.293 172.5,41.387 177.787,39.415 C179.547,38.759 187.372,35.989 189.176,35.289 C191.384,34.433 192.982,33.704 194.153,33.01 C195.137,32.428 195.692,31.949 195.905,31.627 C196.145,31.265 197.098,29.879 197.173,29.768 C197.705,28.985 198.134,28.324 198.539,27.658 C199.83,25.535 200.657,23.665 200.96,22.074 C201.282,19.69 201.183,21.013 201.145,18.098 L201.144,18.097 z" fill="#383838"/>
    <g>
      <path d="M14.966,241.81 L11.465,238.321" fill="#FFFFFF"/>
      <path d="M14.966,241.81 L11.465,238.321" fill-opacity="0" stroke="#383838" stroke-width="4" stroke-linecap="round" stroke-linejoin="round"/>
    </g>
    <g>
      <path d="M15.19,242.034 L18.679,245.535" fill="#FFFFFF"/>
      <path d="M15.19,242.034 L18.679,245.535" fill-opacity="0" stroke="#383838" stroke-width="4" stroke-linecap="round" stroke-linejoin="round"/>
    </g>
    <path d="M88.796,171.146 C86.389,171.146 84.437,169.194 84.437,166.786 C84.437,164.379 86.389,162.427 88.796,162.427 C91.204,162.427 93.156,164.379 93.156,166.786 C93.156,169.194 91.204,171.146 88.796,171.146 z" fill="#383838"/>
  </g>
</svg>
