<?xml version="1.0" encoding="UTF-8"?>
<!DOCTYPE svg PUBLIC "-//W3C//DTD SVG 1.1//EN" "http://www.w3.org/Graphics/SVG/1.1/DTD/svg11.dtd">
<svg version="1.1" xmlns="http://www.w3.org/2000/svg" xmlns:xlink="http://www.w3.org/1999/xlink" x="0" y="0" width="256" height="256" viewBox="0, 0, 256, 256">
  <g id="solid">
    <path d="M149.911,11.765 C164.34,12.035 177.516,17.84 190.054,24.516 C213.287,37.93 225.326,53.827 227.703,71.327 C229.447,84.176 225.981,96.183 219.399,107.583 C210.902,121.228 192.835,121.601 178.686,118.941 C173.124,128.582 167.559,138.221 161.992,147.859 C161.919,147.986 161.919,147.986 161.846,148.112 C155.832,158.527 149.674,169.185 141.718,182.953 C140.298,185.412 138.868,187.886 136.975,191.162 C134.664,195.161 133.462,197.241 132.424,199.037 C128.863,205.199 126.365,209.524 124.054,213.523 C112.101,234.211 106.496,243.93 106.031,244.779 L105.964,244.898 C99.367,256.325 79.978,255.08 62.19,244.81 C44.402,234.541 33.63,218.371 40.227,206.945 L113.154,80.63 C103.906,69.897 96.314,54.378 103.444,40.636 C110.026,29.236 118.691,20.231 130.691,15.317 C136.276,12.863 141.074,12.44 147.022,11.784 L149.911,11.765 z M51.343,211.691 L50.619,212.944 C49.848,214.28 50.382,217.152 52.932,220.98 C56.074,225.696 61.513,230.563 68.19,234.418 C74.867,238.273 81.802,240.55 87.457,240.913 C90.122,240.955 93.715,241.243 95.571,238.9 L98.722,233.422 C89.546,235.716 79.772,232.758 71.498,228.876 C63.87,224.717 55.729,219.512 51.343,211.691 z M57.978,200.199 L53.679,207.645 C57.539,215.804 65.591,221.149 73.269,225.29 C81.982,229.363 92.348,232.172 101.665,228.306 C102.887,226.184 104.106,224.06 105.33,221.938 C95.904,223.858 86.667,221.389 78.133,217.384 C70.505,213.225 62.364,208.02 57.978,200.199 z M64.613,188.707 L60.314,196.154 C64.174,204.313 72.225,209.657 79.904,213.798 C88.61,217.866 98.977,220.684 108.288,216.819 C111.308,211.595 110.08,213.72 111.973,210.444 C102.805,212.731 93.034,209.772 84.768,205.893 C77.14,201.734 68.999,196.528 64.613,188.707 z M71.247,177.215 L66.948,184.662 C70.809,192.821 78.86,198.165 86.539,202.306 C95.25,206.378 105.617,209.19 114.932,205.324 C118.527,199.102 117.299,201.227 118.615,198.95 C109.443,201.239 99.672,198.281 91.403,194.401 C83.775,190.242 75.633,185.036 71.247,177.215 z M77.882,165.724 L73.583,173.17 C77.444,181.329 85.495,186.673 93.173,190.814 C101.889,194.889 112.256,197.697 121.574,193.829 L122.034,193.033 C123.108,191.174 124.182,189.315 125.257,187.456 C116.083,189.749 106.309,186.79 98.037,182.909 C90.41,178.75 82.268,173.545 77.882,165.724 z M84.517,154.232 L80.218,161.678 C84.079,169.837 92.129,175.181 99.808,179.322 C108.528,183.401 118.895,186.203 128.217,182.334 C130.612,178.189 129.575,179.984 131.328,176.949 L131.898,175.963 C122.722,178.258 112.946,175.3 104.672,171.417 C97.044,167.258 88.903,162.053 84.517,154.232 z M121.793,89.669 L86.853,150.186 C90.713,158.346 98.764,163.69 106.443,167.831 C115.167,171.913 125.533,174.71 134.859,170.839 C140.392,161.264 145.924,151.687 151.455,142.111 C151.528,141.984 151.528,141.984 151.601,141.858 C156.609,133.188 161.614,124.516 166.619,115.844 C158.43,113.41 150.817,109.486 143.343,105.423 C135.571,101.016 128.394,95.672 121.793,89.669 z M119.925,37.976 C115.123,44.306 117.082,41.371 113.837,46.636 C107.74,57.196 122.697,79.647 149.343,95.031 C175.989,110.415 202.91,112.143 209.007,101.583 C211.946,96.137 210.382,99.304 213.466,91.973 C194.411,94.478 175.558,87.072 159.173,78.004 C143.94,68.568 126.278,55.566 119.925,37.976 z M149.83,23.821 C144.797,23.703 139.972,24.87 135.238,26.422 C131.95,27.751 128.905,29.6 126.155,31.83 C132.329,49.489 147.636,61.716 163.173,71.075 C178.106,79.207 198.327,87.84 215.683,83.477 C216.199,75.377 216.315,78.887 215.812,72.941 C213.973,59.399 204.261,46.575 184.054,34.909 L180.315,32.834 C172.49,28.885 164.277,25.318 155.504,24.202 C153.624,23.963 151.721,23.948 149.83,23.821 z" fill="#383838"/>
    <path d="M160.344,50.672 L171.084,58.668 L196.427,38.745 L185.687,30.75 z" fill="#383838"/>
    <path d="M206.652,60.01 L201.296,65.356 L149.409,28.29 L154.765,22.945 z" fill="#383838"/>
  </g>
</svg>
