<?xml version="1.0" encoding="UTF-8"?>
<!DOCTYPE svg PUBLIC "-//W3C//DTD SVG 1.1//EN" "http://www.w3.org/Graphics/SVG/1.1/DTD/svg11.dtd">
<svg version="1.1" xmlns="http://www.w3.org/2000/svg" xmlns:xlink="http://www.w3.org/1999/xlink" x="0" y="0" width="242.585" height="242.929" viewBox="0, 0, 242.585, 242.929">
  <g id="solid" transform="translate(-7.175, -7.048)">
    <path d="M243.436,7.049 C247.481,7.037 250.235,10.235 249.691,14.225 L241.662,54.044 C241.429,55.202 240.859,56.265 240.023,57.101 L155.198,141.926 C159.669,146.458 163.502,151.559 167.338,156.62 C168.888,158.804 168.802,161.75 167.129,163.841 C159.427,173.466 153.749,175.652 144.784,174.921 C144.372,174.888 144.21,174.875 144.001,174.859 C140.828,174.624 139.657,174.975 137.077,177.555 C131.27,183.421 130.247,186.209 130.043,192.335 C129.943,195.338 129.803,196.783 129.233,198.774 C128.456,201.482 127.023,203.922 124.798,206.223 C124.325,206.712 121.619,209.511 120.745,210.414 C118.879,212.343 117.218,214.06 115.537,215.797 C111.114,220.366 107.036,224.572 103.171,228.548 C103.008,228.716 103.008,228.716 102.845,228.884 C95.433,236.508 89.397,242.677 85.044,247.067 C81.786,250.352 77.38,250.649 72.677,248.989 C69.441,247.847 65.812,245.7 61.674,242.618 C52.78,235.902 44.883,227.991 37.126,220.022 C29.081,212.329 21.342,204.296 14.534,195.478 C11.452,191.34 9.305,187.711 8.163,184.475 C6.503,179.772 6.8,175.366 10.085,172.108 C14.026,168.199 17.067,165.154 28.149,154.033 C28.174,154.008 28.174,154.008 28.199,153.983 C40.685,141.452 46.474,135.677 50.428,131.853 C52.729,129.628 55.169,128.195 57.877,127.418 C59.868,126.847 61.313,126.708 64.315,126.608 C70.441,126.404 73.23,125.381 79.074,119.595 C81.676,116.994 82.027,115.822 81.791,112.649 C81.776,112.441 81.763,112.278 81.729,111.867 C80.999,102.902 83.185,97.224 92.81,89.522 C94.393,88.278 95.436,88.312 97.337,88.257 C99.495,88.903 98.628,88.481 100.031,89.313 C105.204,93.011 110.032,97.168 114.73,101.447 L199.55,16.627 C200.394,15.784 201.47,15.211 202.64,14.982 L242.657,7.15 L243.436,7.049 z M96.874,101.966 C95.659,103.172 94.687,104.529 93.988,106.084 C93.519,107.302 93.473,108.228 93.69,110.892 C93.726,111.333 93.74,111.514 93.758,111.762 C94.234,118.181 92.855,122.785 87.538,128.102 C79.334,136.224 73.664,138.303 64.715,138.601 C62.682,138.669 61.921,138.742 61.184,138.953 C60.396,139.179 59.677,139.602 58.77,140.479 C54.895,144.227 49.114,149.993 36.699,162.453 C36.674,162.478 36.674,162.478 36.649,162.503 C30.868,168.296 25.104,174.107 19.296,179.873 C19.373,180.195 19.319,179.991 19.479,180.48 C20.146,182.372 21.732,185.054 24.157,188.31 C28.792,194.531 36.132,202.416 45.53,211.457 C45.586,211.511 45.641,211.566 45.695,211.622 C54.736,221.02 62.621,228.36 68.842,232.995 C72.098,235.42 74.78,237.006 76.672,237.673 C77.161,237.833 76.957,237.779 77.277,237.856 C82.963,232.107 88.603,226.314 94.241,220.519 C94.404,220.351 94.404,220.351 94.566,220.184 C98.424,216.215 102.497,212.014 106.915,207.451 C108.595,205.715 110.255,204 112.119,202.072 C112.992,201.169 115.699,198.37 116.172,197.881 C117.049,196.974 117.472,196.254 117.697,195.466 C117.908,194.73 117.982,193.969 118.05,191.936 C118.348,182.986 120.427,177.317 128.57,169.091 C133.866,163.796 138.47,162.416 144.889,162.892 C145.137,162.911 145.317,162.925 145.759,162.961 C148.423,163.178 149.349,163.132 150.567,162.663 C152.18,162.063 153.409,160.879 154.685,159.777 C146.552,149.586 137.338,140.311 128.058,131.175 L128.013,131.131 L125.476,128.593 C116.243,119.43 107.174,109.962 96.874,101.966 L96.874,101.966 z M180.62,52.528 L123.526,109.622 L147.029,133.125 L204.352,75.802 L204.307,75.666 C202.704,68.092 202.087,60.117 204.512,52.64 C197.027,55.194 189.076,54.291 181.486,52.844 C180.679,52.582 180.936,52.75 180.62,52.528 z M236.154,20.651 L206.741,26.407 L187.406,45.742 C193.238,46.633 197.563,46.48 203.173,44.672 C207.461,43.075 210.99,40.457 215.906,35.587 C216.923,34.58 220.702,30.721 221.519,29.904 C222.785,28.725 223.504,28.806 225.112,28.806 C226.799,29.494 226.148,29.065 227.176,29.904 L227.207,29.942 L227.248,29.976 C228.81,31.538 228.81,34.07 227.248,35.633 C226.431,36.45 222.572,40.229 221.565,41.246 C216.695,46.162 214.077,49.691 212.48,53.979 C211.115,57.614 210.795,61.474 210.923,65.329 C210.962,66.507 211.181,67.672 211.31,68.843 L230.257,49.896 L236.154,20.651 z" fill="#383838"/>
  </g>
</svg>
