<?xml version="1.0" encoding="UTF-8"?>
<!DOCTYPE svg PUBLIC "-//W3C//DTD SVG 1.1//EN" "http://www.w3.org/Graphics/SVG/1.1/DTD/svg11.dtd">
<svg version="1.1" xmlns="http://www.w3.org/2000/svg" xmlns:xlink="http://www.w3.org/1999/xlink" x="0" y="0" width="256" height="256" viewBox="0, 0, 256, 256">
  <g id="レイヤー_5">
    <path d="M212.283,6.342 C214.125,6.261 215.542,6.937 216.908,8.082 L247.672,38.777 C249.683,40.784 250.012,43.925 248.459,46.304 C247.647,47.548 247.647,47.548 244.401,52.521 C241.711,56.642 239.021,60.763 236.331,64.884 C233.069,69.881 229.807,74.878 226.545,79.876 C223.298,84.849 223.298,84.849 222.487,86.093 C221.554,87.521 220.057,88.485 218.371,88.744 C217.753,88.838 217.753,88.838 215.278,89.218 C212.185,89.691 212.185,89.691 208.474,90.26 C204.763,90.829 204.763,90.829 201.67,91.303 C200.742,91.445 201.125,91.386 200.521,91.479 C200.026,91.973 200.329,91.67 199.612,92.388 C191.46,100.539 183.308,108.69 175.157,116.842 L152.543,139.456 C157.754,144.651 162.293,150.455 166.729,156.308 C168.278,158.492 168.193,161.438 166.52,163.528 C158.818,173.153 153.139,175.34 144.175,174.609 C143.763,174.575 143.601,174.562 143.392,174.547 C140.219,174.312 139.047,174.663 136.467,177.243 C130.66,183.108 129.638,185.897 129.434,192.023 C129.334,195.026 129.194,196.47 128.623,198.461 C127.847,201.169 126.414,203.61 124.189,205.911 C123.716,206.399 121.01,209.198 120.136,210.102 C118.27,212.031 116.609,213.748 114.928,215.484 C110.505,220.054 106.426,224.26 102.562,228.236 C102.399,228.403 102.399,228.403 102.236,228.571 C94.824,236.195 88.788,242.365 84.435,246.754 C81.177,250.039 76.77,250.337 72.067,248.676 C68.832,247.534 65.203,245.388 61.065,242.306 C52.171,235.59 44.274,227.679 36.517,219.71 C28.472,212.016 20.733,203.984 13.924,195.165 C10.842,191.027 8.696,187.398 7.554,184.163 C5.893,179.46 6.191,175.053 9.476,171.795 C13.417,167.887 16.458,164.842 27.539,153.72 C27.564,153.695 27.564,153.695 27.589,153.67 C40.076,141.139 45.865,135.364 49.818,131.541 C52.119,129.315 54.56,127.882 57.268,127.106 C59.259,126.535 60.704,126.395 63.706,126.295 C69.832,126.091 72.621,125.069 78.465,119.283 C81.066,116.682 81.417,115.51 81.182,112.337 C81.167,112.129 81.154,111.966 81.12,111.554 C80.389,102.59 82.576,96.911 92.201,89.209 C93.784,87.965 94.827,87.999 96.728,87.944 C98.886,88.59 98.018,88.169 99.421,89 C105.421,93.257 110.89,98.193 116.32,103.139 C130.7,88.758 123.19,96.269 138.852,80.607 C147.232,72.077 155.763,63.699 164.215,55.243 C164.308,54.639 164.249,55.022 164.391,54.094 C164.865,51.001 164.865,51.001 165.434,47.29 C166.003,43.579 166.003,43.579 166.477,40.486 C166.856,38.011 166.856,38.011 166.951,37.393 C167.209,35.707 168.173,34.21 169.602,33.277 C170.845,32.466 170.845,32.466 175.819,29.219 C179.939,26.529 184.06,23.839 188.181,21.149 C193.178,17.887 198.176,14.625 203.173,11.363 C208.147,8.117 208.147,8.117 209.39,7.305 C210.908,6.493 209.973,6.892 212.283,6.342 z M96.265,101.653 C95.049,102.859 94.077,104.217 93.378,105.772 C92.909,106.989 92.863,107.915 93.08,110.579 C93.116,111.021 93.131,111.202 93.149,111.45 C93.625,117.869 92.246,122.473 86.929,127.789 C78.725,135.912 73.055,137.991 64.105,138.289 C62.073,138.356 61.311,138.43 60.575,138.641 C59.787,138.867 59.068,139.29 58.161,140.166 C54.286,143.914 48.505,149.681 36.09,162.14 C36.065,162.165 36.065,162.165 36.04,162.19 C30.258,167.983 24.495,173.795 18.687,179.561 C18.763,179.883 18.71,179.678 18.869,180.168 C19.537,182.059 21.123,184.741 23.548,187.997 C28.182,194.219 35.523,202.104 44.921,211.144 C44.977,211.198 45.032,211.253 45.086,211.309 C54.126,220.707 62.012,228.048 68.233,232.682 C71.489,235.107 74.171,236.693 76.062,237.361 C76.551,237.52 76.348,237.467 76.668,237.543 C82.353,231.795 87.994,226.002 93.631,220.206 C93.794,220.039 93.794,220.039 93.957,219.871 C97.815,215.903 101.888,211.702 106.306,207.138 C107.986,205.403 109.645,203.687 111.509,201.76 C112.383,200.856 115.09,198.057 115.563,197.568 C116.44,196.662 116.862,195.942 117.088,195.154 C117.299,194.418 117.373,193.657 117.44,191.624 C117.738,182.674 119.817,177.004 127.961,168.779 C133.256,163.483 137.86,162.104 144.28,162.58 C144.527,162.598 144.708,162.613 145.15,162.649 C147.814,162.866 148.74,162.82 149.957,162.351 C151.571,161.751 152.8,160.566 154.075,159.464 C149.769,153.965 145.011,148.854 140.185,143.814 L139.923,143.601 L112.104,115.851 L111.591,115.225 C106.807,110.344 101.584,105.933 96.265,101.654 L96.265,101.653 z M211.876,20.013 C210.316,21.031 211.031,20.564 209.732,21.412 C205.612,24.102 201.491,26.792 197.37,29.482 C192.373,32.744 187.375,36.005 182.378,39.268 C181.054,40.132 179.73,40.996 178.406,41.861 L178.338,42.303 C177.864,45.396 177.864,45.396 177.296,49.107 C176.727,52.819 176.727,52.819 176.253,55.912 C175.874,58.386 175.874,58.386 175.779,59.004 C175.586,60.267 174.994,61.435 174.091,62.338 C173.673,62.756 173.673,62.756 171.792,64.637 C163.641,72.789 155.489,80.94 147.337,89.092 L124.997,111.432 C127.845,114.186 130.617,117.017 133.396,119.84 L135.877,122.321 C144.093,130.542 141.359,127.667 144.282,130.747 C160.576,114.278 177.047,97.987 193.426,81.603 C194.329,80.7 195.497,80.109 196.76,79.915 C197.378,79.82 197.378,79.82 199.852,79.441 C202.945,78.967 202.945,78.967 206.657,78.399 C210.368,77.83 210.368,77.83 213.461,77.356 L213.903,77.288 C214.768,75.964 215.632,74.64 216.496,73.316 C219.186,69.195 221.876,65.075 224.566,60.954 C227.828,55.956 231.09,50.959 234.352,45.962 C235.197,44.667 234.733,45.378 235.745,43.828 L211.876,20.013 z" fill="#383838"/>
  </g>
</svg>
