<?xml version="1.0" encoding="UTF-8"?>
<!DOCTYPE svg PUBLIC "-//W3C//DTD SVG 1.1//EN" "http://www.w3.org/Graphics/SVG/1.1/DTD/svg11.dtd">
<svg version="1.1" xmlns="http://www.w3.org/2000/svg" xmlns:xlink="http://www.w3.org/1999/xlink" x="0" y="0" width="256" height="256" viewBox="0, 0, 256, 256">
  <g id="レイヤー_1">
    <path d="M216.714,36.06 C216.043,35.709 215.433,35.205 214.702,35.008 C212.036,34.286 209.146,35.43 206.656,36.273 C206.918,36.182 206.846,36.217 206.657,36.323 C206.232,36.56 205.649,36.911 204.931,37.364 C203.387,38.337 201.315,39.719 198.797,41.457 C193.557,45.074 186.592,50.091 178.576,56.029 C160.513,69.409 139.081,85.989 118.231,102.822 C83.504,130.858 43.142,165.804 8.756,197.084 L6.061,193.873 C71.797,127.3 73.037,118.449 108.035,90.194 C149.905,56.392 194.572,23.305 201.299,20.953 C212.916,16.891 221.611,17.904 229.145,25.438 C236.678,32.972 237.692,41.667 233.63,53.283 C231.277,60.011 198.191,104.678 164.389,146.547 C136.134,181.546 127.283,182.786 60.71,248.522 L57.499,245.826 C88.779,211.441 123.725,171.079 151.761,136.352 C168.594,115.502 185.174,94.069 198.554,76.007 C204.492,67.991 209.508,61.025 213.125,55.786 C214.864,53.267 216.246,51.195 217.219,49.651 C217.672,48.933 218.022,48.35 218.26,47.925 C218.366,47.736 218.401,47.665 218.309,47.926 C220.492,41.684 220.236,39.481 217.668,36.914 L216.714,36.06 z" fill="#515151"/>
  </g>
</svg>
