<?xml version="1.0" encoding="UTF-8"?>
<!DOCTYPE svg PUBLIC "-//W3C//DTD SVG 1.1//EN" "http://www.w3.org/Graphics/SVG/1.1/DTD/svg11.dtd">
<svg version="1.1" xmlns="http://www.w3.org/2000/svg" xmlns:xlink="http://www.w3.org/1999/xlink" x="0" y="0" width="256" height="256" viewBox="0, 0, 256, 256">
  <g id="solid">
    <path d="M108.623,29.494 C111.937,29.494 114.624,32.18 114.624,35.494 L114.623,83.982 C114.624,87.297 111.937,89.983 108.624,89.983 L99.401,89.982 L99.401,116.946 L141.216,116.946 L141.216,89.983 L131.994,89.983 C128.68,89.983 125.994,87.297 125.994,83.983 L125.994,35.494 C125.994,32.18 128.68,29.494 131.994,29.494 L157.508,29.494 C159.259,29.494 160.923,30.259 162.063,31.588 L190.285,64.492 C191.218,65.58 191.731,66.966 191.731,68.398 L191.731,116.946 L247.675,116.946 C250.989,116.946 253.675,119.632 253.675,122.946 L253.675,168.628 C253.675,171.942 250.989,174.628 247.675,174.628 L191.731,174.628 L191.731,189.447 C191.731,192.76 189.044,195.447 185.731,195.447 L147.216,195.447 C143.902,195.447 141.216,192.76 141.216,189.447 L141.216,174.628 L99.401,174.628 L99.401,189.446 C99.401,192.76 96.715,195.447 93.401,195.447 L54.887,195.446 C51.573,195.447 48.887,192.76 48.887,189.447 L48.887,151.221 L40.387,151.221 C39.74,152.854 40.044,152.249 39.597,153.091 C37.484,158.111 33.152,162.163 27.836,163.578 L27.836,220.506 C27.836,223.82 25.15,226.506 21.836,226.506 C18.523,226.506 15.836,223.82 15.836,220.506 L15.836,163.78 C14.77,163.37 15.33,163.604 14.162,163.065 C6.73,160.141 2.714,152.919 2.325,145.221 C2.434,143.056 2.292,143.879 2.528,142.724 C2.546,142.498 2.527,142.625 2.605,142.345 C3.316,138.861 2.815,140.336 3.867,137.844 C3.978,137.45 3.899,137.651 4.119,137.248 C4.879,135.45 4.411,136.319 5.538,134.65 C5.918,133.954 5.688,134.313 6.253,133.592 C6.882,132.659 6.558,133.032 7.168,132.423 C7.781,131.614 8.503,130.874 9.32,130.27 C9.547,130.044 9.384,130.193 9.853,129.876 C11.741,128.481 10.836,129.068 12.536,128.065 C13.585,127.493 14.736,127.135 15.836,126.671 L15.836,44.34 C15.836,41.027 18.523,38.341 21.836,38.341 C25.15,38.341 27.836,41.027 27.836,44.341 L27.836,126.671 C30.007,127.577 29.331,127.153 30.04,127.601 C35.53,129.864 38.186,134.01 40.387,139.221 L48.887,139.221 L48.887,68.398 C48.887,66.966 49.4,65.58 50.332,64.492 L78.555,31.588 C79.695,30.259 81.358,29.494 83.109,29.494 L108.623,29.494 z M154.75,41.494 L137.994,41.494 L137.994,77.983 L147.216,77.983 C150.53,77.983 153.216,80.669 153.216,83.983 L153.216,183.447 L179.731,183.447 L179.731,70.619 L154.75,41.494 z M102.623,41.494 L85.867,41.494 L60.887,70.619 L60.887,183.446 L87.401,183.446 L87.401,168.628 C87.401,165.314 90.088,162.628 93.401,162.628 L141.216,162.628 L141.216,128.946 L93.401,128.946 C90.088,128.946 87.401,126.26 87.401,122.946 L87.401,83.982 C87.401,80.669 90.088,77.983 93.401,77.983 L102.623,77.982 L102.623,41.494 z M241.675,128.946 L191.731,128.946 L191.731,162.628 L241.675,162.628 L241.675,128.946 z M21.836,137.71 C17.688,137.71 14.325,141.073 14.325,145.222 C14.325,149.37 17.688,152.733 21.836,152.733 C25.985,152.733 29.348,149.37 29.348,145.222 C29.348,141.073 25.985,137.71 21.836,137.71 z" fill="#383838"/>
  </g>
</svg>
